<svg width="83" height="50" viewBox="0 0 83 50" fill="none" xmlns="http://www.w3.org/2000/svg">
<path d="M0.79104 0.5H82.5V49.5H0.791039L12.3266 25.2145L12.4285 25L12.3266 24.7855L0.79104 0.5Z" fill="#B8F5FF" stroke="black"/>
<path d="M36 23.5C35.17 23.5 34.5 24.17 34.5 25C34.5 25.83 35.17 26.5 36 26.5C36.83 26.5 37.5 25.83 37.5 25C37.5 24.17 36.83 23.5 36 23.5ZM36 17.5C35.17 17.5 34.5 18.17 34.5 19C34.5 19.83 35.17 20.5 36 20.5C36.83 20.5 37.5 19.83 37.5 19C37.5 18.17 36.83 17.5 36 17.5ZM36 29.5C35.17 29.5 34.5 30.18 34.5 31C34.5 31.82 35.18 32.5 36 32.5C36.82 32.5 37.5 31.82 37.5 31C37.5 30.18 36.83 29.5 36 29.5ZM39 32H53V30H39V32ZM39 26H53V24H39V26ZM39 18V20H53V18H39Z" fill="#323232"/>
</svg>
