<svg width="115" height="20" viewBox="0 0 115 20" fill="none" xmlns="http://www.w3.org/2000/svg">
<path d="M12.4108 14.3727L12.8546 14.0522C13.4134 13.7235 13.8078 13.5591 14.0379 13.5591C14.5474 13.5591 15.098 14.0193 15.6897 14.9397C16.0513 15.5149 16.232 15.9751 16.232 16.3202C16.232 16.6654 16.117 16.953 15.8869 17.1831C15.6732 17.4132 15.4185 17.6186 15.1227 17.7994C14.8268 17.9802 14.5392 18.1528 14.2598 18.3171C13.9968 18.4815 13.4463 18.6951 12.6081 18.9581C11.7699 19.2211 10.9563 19.3526 10.1674 19.3526C9.39496 19.3526 8.60607 19.2539 7.80074 19.0567C7.01185 18.8431 6.19008 18.4979 5.33545 18.0213C4.49725 17.5282 3.74122 16.9366 3.06738 16.2463C2.39353 15.5396 1.83473 14.6438 1.39098 13.5591C0.963659 12.4579 0.75 11.2664 0.75 9.98444C0.75 8.70249 0.963659 7.5438 1.39098 6.50837C1.81829 5.45652 2.36066 4.59366 3.01807 3.91982C3.69192 3.22953 4.45616 2.6543 5.31079 2.19411C6.92145 1.30661 8.54033 0.862853 10.1674 0.862853C10.9399 0.862853 11.7206 0.986118 12.5094 1.23265C13.3148 1.46274 13.9229 1.70105 14.3338 1.94758L14.9254 2.29272C15.2213 2.47351 15.4514 2.62143 15.6157 2.73648C16.043 3.08162 16.2567 3.47606 16.2567 3.91982C16.2567 4.34713 16.0841 4.7991 15.739 5.27573C15.098 6.16323 14.5228 6.60699 14.0133 6.60699C13.7174 6.60699 13.2983 6.4262 12.756 6.06462C12.0657 5.50582 11.1453 5.22642 9.99485 5.22642C8.92656 5.22642 7.8747 5.59622 6.83927 6.3358C6.34622 6.69738 5.93533 7.20687 5.60663 7.86429C5.27792 8.5217 5.11357 9.2695 5.11357 10.1077C5.11357 10.9295 5.27792 11.6691 5.60663 12.3265C5.93533 12.9839 6.35443 13.5016 6.86393 13.8796C7.86648 14.6028 8.91012 14.9643 9.99485 14.9643C10.5043 14.9643 10.981 14.8986 11.4247 14.7671C11.8849 14.6356 12.2136 14.5041 12.4108 14.3727Z" fill="black"/>
<path d="M17.852 2.16946C17.852 1.79145 17.8602 1.51205 17.8767 1.33126C17.9095 1.13403 17.9835 0.912159 18.0985 0.665629C18.3286 0.221876 18.9696 0 20.0215 0C21.024 0 21.6486 0.221876 21.8951 0.665629C22.0266 0.912159 22.1005 1.13403 22.117 1.33126C22.1498 1.52848 22.1663 1.8161 22.1663 2.19411V13.6084C22.1663 14.2001 22.2156 14.5781 22.3142 14.7425C22.4128 14.8904 22.6265 14.9643 22.9552 14.9643C23.3003 14.9643 23.5304 14.9808 23.6454 15.0136C23.7605 15.0301 23.9002 15.0958 24.0645 15.2109C24.3933 15.4245 24.5576 16.008 24.5576 16.9612C24.5576 17.9966 24.3933 18.6294 24.0645 18.8595C23.6372 19.1553 22.6182 19.2046 21.0076 19.0074C19.7421 18.8431 18.9203 18.424 18.5423 17.7501C18.0821 16.9448 17.852 15.6628 17.852 13.9043V2.16946Z" fill="black"/>
<path d="M38.2001 11.0692C38.2001 12.0717 37.9454 12.8195 37.4359 13.3126C36.9428 13.7892 36.3922 14.0275 35.7841 14.0275H29.9414C29.9414 14.4877 30.2126 14.8739 30.7549 15.1862C31.2973 15.4985 31.8397 15.6546 32.382 15.6546C33.3353 15.6546 34.0831 15.556 34.6254 15.3588L34.8966 15.2602C35.2911 15.0794 35.6198 14.989 35.8827 14.989C36.4087 14.989 36.8606 15.3588 37.2387 16.0984C37.4523 16.5421 37.5591 16.9201 37.5591 17.2324C37.5591 18.6951 35.8088 19.4265 32.3081 19.4265C31.0919 19.4265 30.0071 19.2211 29.0539 18.8102C28.1171 18.3829 27.3857 17.8241 26.8598 17.1338C25.8243 15.8025 25.3066 14.3151 25.3066 12.6716C25.3066 10.6008 25.9723 8.94901 27.3035 7.71637C28.6512 6.46729 30.3276 5.84274 32.3327 5.84274C34.6172 5.84274 36.2936 6.64807 37.3619 8.25873C37.9207 9.11337 38.2001 10.0502 38.2001 11.0692ZM32.9983 11.7841C33.6229 11.7841 33.9352 11.5211 33.9352 10.9952C33.9352 10.6172 33.7872 10.3131 33.4914 10.083C33.212 9.85296 32.8011 9.73791 32.2588 9.73791C31.7328 9.73791 31.2069 9.95979 30.681 10.4035C30.155 10.8309 29.8921 11.291 29.8921 11.7841H32.9983Z" fill="black"/>
<path d="M52.1529 6.40976C53.0075 6.91926 53.4349 7.46162 53.4349 8.03686C53.4349 8.36556 53.2705 8.81753 52.9418 9.39277L47.8386 18.1446C47.6743 18.424 47.4113 18.6787 47.0497 18.9088C46.6882 19.1225 46.3266 19.2293 45.965 19.2293C45.6199 19.2293 45.283 19.1471 44.9542 18.9828C44.642 18.802 44.4201 18.6212 44.2886 18.4404L44.0667 18.1692L38.9389 9.39277C38.6102 8.8504 38.4459 8.40665 38.4459 8.06151C38.4459 7.46984 38.8732 6.91926 39.7278 6.40976C40.3524 6.04819 40.8454 5.8674 41.207 5.8674C41.5686 5.8674 41.848 5.98245 42.0452 6.21254C42.2589 6.4262 42.4807 6.7549 42.7108 7.19866L45.9404 13.4112L49.1699 7.19866C49.3507 6.88639 49.4822 6.66451 49.5643 6.53303C49.663 6.38511 49.8109 6.24541 50.0081 6.11393C50.2053 5.96601 50.4683 5.89205 50.797 5.89205C51.1257 5.89205 51.5777 6.06462 52.1529 6.40976Z" fill="black"/>
<path d="M73.9879 1.72571C74.1194 1.97223 74.1933 2.19411 74.2098 2.39133C74.2426 2.58856 74.2591 2.87618 74.2591 3.25419V16.9366C74.2591 18.0706 73.9468 18.7362 73.3223 18.9335C73.01 19.0321 72.6155 19.0814 72.1389 19.0814C71.6623 19.0814 71.2843 19.0403 71.0049 18.9581C70.7255 18.8759 70.5118 18.7773 70.3639 18.6623C70.216 18.5472 70.1009 18.3829 70.0188 18.1692C69.9366 17.8898 69.8955 17.4625 69.8955 16.8873V8.62853C69.4846 9.13802 68.8847 9.95157 68.0958 11.0692C67.3069 12.1703 66.8057 12.8606 66.592 13.14C66.3784 13.4194 66.2304 13.6166 66.1483 13.7317C66.0661 13.8303 65.8606 13.9782 65.5319 14.1754C65.2197 14.3562 64.8745 14.4466 64.4965 14.4466C64.1349 14.4466 63.798 14.3644 63.4857 14.2001C63.1899 14.0193 62.9763 13.8467 62.8448 13.6824L62.6475 13.4112C62.3188 13.0003 61.6696 12.1292 60.7 10.798C59.7303 9.45029 59.2044 8.72714 59.1222 8.62853V16.9366C59.1222 17.3146 59.1057 17.6022 59.0729 17.7994C59.0564 17.9802 58.9825 18.1856 58.851 18.4157C58.6045 18.8595 57.9635 19.0814 56.9281 19.0814C55.9255 19.0814 55.301 18.8595 55.0544 18.4157C54.923 18.1856 54.8408 17.972 54.8079 17.7748C54.7915 17.5775 54.7833 17.2817 54.7833 16.8873V3.20488C54.7833 2.82687 54.7915 2.54747 54.8079 2.36668C54.8408 2.16946 54.923 1.94758 55.0544 1.70105C55.301 1.27373 55.9419 1.06008 56.9774 1.06008C57.4211 1.06008 57.7991 1.1176 58.1114 1.23265C58.4401 1.33126 58.6538 1.43809 58.7524 1.55314L58.9003 1.70105L64.4965 9.04763C67.2905 5.34969 69.1559 2.90905 70.0927 1.72571C70.3721 1.28195 71.0295 1.06008 72.065 1.06008C73.1168 1.06008 73.7578 1.28195 73.9879 1.72571Z" fill="black"/>
<path d="M84.6655 7.49449C84.7641 6.57412 85.4133 6.11393 86.6131 6.11393C87.2541 6.11393 87.7307 6.16323 88.043 6.26185C88.3552 6.36046 88.5689 6.53303 88.6839 6.77956C88.8154 7.02609 88.8894 7.24796 88.9058 7.44519C88.9387 7.62597 88.9551 7.90537 88.9551 8.28339V16.9119C88.9551 17.2899 88.9387 17.5775 88.9058 17.7748C88.8894 17.9556 88.8236 18.1692 88.7086 18.4157C88.4785 18.8431 87.9115 19.0567 87.0075 19.0567C86.12 19.0567 85.5201 18.9499 85.2079 18.7362C84.912 18.5061 84.7395 18.1774 84.6902 17.7501C84.082 18.6212 83.0631 19.0567 81.6332 19.0567C80.2198 19.0567 78.9049 18.4075 77.6887 17.1091C76.4725 15.8107 75.8644 14.3069 75.8644 12.5976C75.8644 10.8719 76.4725 9.36811 77.6887 8.08616C78.9214 6.78777 80.2691 6.13858 81.7318 6.13858C82.2906 6.13858 82.8001 6.23719 83.2603 6.43442C83.7205 6.63164 84.041 6.82064 84.2217 7.00143C84.4025 7.16579 84.5505 7.33014 84.6655 7.49449ZM80.1787 12.6223C80.1787 13.1647 80.3923 13.6577 80.8196 14.1015C81.247 14.5288 81.7647 14.7425 82.3728 14.7425C82.9809 14.7425 83.4822 14.5206 83.8766 14.0768C84.2875 13.6331 84.4929 13.1482 84.4929 12.6223C84.4929 12.0799 84.2957 11.5787 83.9013 11.1185C83.5232 10.6583 83.0055 10.4282 82.3481 10.4282C81.7071 10.4282 81.1812 10.6583 80.7703 11.1185C80.3759 11.5787 80.1787 12.0799 80.1787 12.6223Z" fill="black"/>
<path d="M98.4638 10.4775L96.8614 10.3789V13.781C96.8614 14.2247 96.9271 14.5452 97.0586 14.7425C97.2065 14.9397 97.4695 15.0383 97.8475 15.0383C98.2419 15.0383 98.5378 15.0547 98.735 15.0876C98.9487 15.104 99.1705 15.178 99.4006 15.3095C99.7786 15.5231 99.9677 16.0737 99.9677 16.9612C99.9677 17.9966 99.7376 18.6294 99.2774 18.8595C99.0308 18.9745 98.809 19.0485 98.6117 19.0814C98.431 19.0978 98.1598 19.106 97.7982 19.106C96.0889 19.106 94.7905 18.7198 93.903 17.9473C93.0155 17.1749 92.5718 15.8683 92.5718 14.0275V10.3789C92.2595 10.4282 91.9226 10.4528 91.561 10.4528C91.1994 10.4528 90.8954 10.3131 90.6488 10.0337C90.4188 9.75434 90.3037 9.27772 90.3037 8.60387C90.3037 7.93003 90.3448 7.44519 90.427 7.14935C90.5091 6.83708 90.6242 6.6152 90.7721 6.48372C91.0351 6.27006 91.3638 6.16323 91.7582 6.16323L92.5718 6.26185V3.72259C92.5718 3.34458 92.58 3.06518 92.5964 2.88439C92.6293 2.7036 92.7115 2.50638 92.843 2.29272C93.0566 1.88184 93.6894 1.6764 94.7412 1.6764C95.8588 1.6764 96.5245 1.98045 96.7381 2.58856C96.8203 2.85152 96.8614 3.27062 96.8614 3.84586V6.26185C97.5845 6.1961 98.1269 6.16323 98.4885 6.16323C98.8665 6.16323 99.1459 6.17967 99.3267 6.21254C99.5239 6.22897 99.7458 6.30293 99.9923 6.43442C100.42 6.64807 100.633 7.28083 100.633 8.33269C100.633 9.36812 100.411 10.0009 99.9677 10.231C99.7211 10.346 99.4992 10.42 99.302 10.4528C99.1212 10.4693 98.8418 10.4775 98.4638 10.4775Z" fill="black"/>
<path d="M114.037 11.0692C114.037 12.0717 113.782 12.8195 113.273 13.3126C112.779 13.7892 112.229 14.0275 111.621 14.0275H105.778C105.778 14.4877 106.049 14.8739 106.592 15.1862C107.134 15.4985 107.676 15.6546 108.219 15.6546C109.172 15.6546 109.92 15.556 110.462 15.3588L110.733 15.2602C111.128 15.0794 111.456 14.989 111.719 14.989C112.245 14.989 112.697 15.3588 113.075 16.0984C113.289 16.5421 113.396 16.9201 113.396 17.2324C113.396 18.6951 111.645 19.4265 108.145 19.4265C106.929 19.4265 105.844 19.2211 104.891 18.8102C103.954 18.3829 103.222 17.8241 102.696 17.1338C101.661 15.8025 101.143 14.3151 101.143 12.6716C101.143 10.6008 101.809 8.94901 103.14 7.71637C104.488 6.46729 106.164 5.84274 108.169 5.84274C110.454 5.84274 112.13 6.64807 113.199 8.25873C113.757 9.11337 114.037 10.0502 114.037 11.0692ZM108.835 11.7841C109.46 11.7841 109.772 11.5211 109.772 10.9952C109.772 10.6172 109.624 10.3131 109.328 10.083C109.049 9.85296 108.638 9.73791 108.095 9.73791C107.569 9.73791 107.044 9.95979 106.518 10.4035C105.992 10.8309 105.729 11.291 105.729 11.7841H108.835Z" fill="black"/>
</svg>
