<svg width="49" height="41" viewBox="0 0 49 41" fill="none" xmlns="http://www.w3.org/2000/svg">
<path d="M9.96 12.16L10.32 11.9C10.7733 11.6333 11.0933 11.5 11.28 11.5C11.6933 11.5 12.14 11.8733 12.62 12.62C12.9133 13.0867 13.06 13.46 13.06 13.74C13.06 14.02 12.9667 14.2533 12.78 14.44C12.6067 14.6267 12.4 14.7933 12.16 14.94C11.92 15.0867 11.6867 15.2267 11.46 15.36C11.2467 15.4933 10.8 15.6667 10.12 15.88C9.44 16.0933 8.78 16.2 8.14 16.2C7.51333 16.2 6.87333 16.12 6.22 15.96C5.58 15.7867 4.91333 15.5067 4.22 15.12C3.54 14.72 2.92667 14.24 2.38 13.68C1.83333 13.1067 1.38 12.38 1.02 11.5C0.673333 10.6067 0.5 9.64 0.5 8.6C0.5 7.56 0.673333 6.62 1.02 5.78C1.36667 4.92667 1.80667 4.22667 2.34 3.68C2.88667 3.12 3.50667 2.65333 4.2 2.28C5.50667 1.56 6.82 1.2 8.14 1.2C8.76667 1.2 9.4 1.3 10.04 1.5C10.6933 1.68667 11.1867 1.88 11.52 2.08L12 2.36C12.24 2.50667 12.4267 2.62667 12.56 2.72C12.9067 3 13.08 3.32 13.08 3.68C13.08 4.02667 12.94 4.39333 12.66 4.78C12.14 5.5 11.6733 5.86 11.26 5.86C11.02 5.86 10.68 5.71333 10.24 5.42C9.68 4.96667 8.93333 4.74 8 4.74C7.13333 4.74 6.28 5.04 5.44 5.64C5.04 5.93333 4.70667 6.34667 4.44 6.88C4.17333 7.41333 4.04 8.02 4.04 8.7C4.04 9.36667 4.17333 9.96667 4.44 10.5C4.70667 11.0333 5.04667 11.4533 5.46 11.76C6.27333 12.3467 7.12 12.64 8 12.64C8.41333 12.64 8.8 12.5867 9.16 12.48C9.53333 12.3733 9.8 12.2667 9.96 12.16Z" fill="black"/>
<path d="M14.3742 2.26C14.3742 1.95333 14.3809 1.72667 14.3942 1.58C14.4209 1.42 14.4809 1.24 14.5742 1.04C14.7609 0.68 15.2809 0.5 16.1342 0.5C16.9476 0.5 17.4542 0.68 17.6542 1.04C17.7609 1.24 17.8209 1.42 17.8342 1.58C17.8609 1.74 17.8742 1.97333 17.8742 2.28V11.54C17.8742 12.02 17.9142 12.3267 17.9942 12.46C18.0742 12.58 18.2476 12.64 18.5142 12.64C18.7942 12.64 18.9809 12.6533 19.0742 12.68C19.1676 12.6933 19.2809 12.7467 19.4142 12.84C19.6809 13.0133 19.8142 13.4867 19.8142 14.26C19.8142 15.1 19.6809 15.6133 19.4142 15.8C19.0676 16.04 18.2409 16.08 16.9342 15.92C15.9076 15.7867 15.2409 15.4467 14.9342 14.9C14.5609 14.2467 14.3742 13.2067 14.3742 11.78V2.26Z" fill="black"/>
<path d="M30.8819 9.48C30.8819 10.2933 30.6752 10.9 30.2619 11.3C29.8619 11.6867 29.4152 11.88 28.9219 11.88H24.1819C24.1819 12.2533 24.4019 12.5667 24.8419 12.82C25.2819 13.0733 25.7219 13.2 26.1619 13.2C26.9352 13.2 27.5419 13.12 27.9819 12.96L28.2019 12.88C28.5219 12.7333 28.7885 12.66 29.0019 12.66C29.4285 12.66 29.7952 12.96 30.1019 13.56C30.2752 13.92 30.3619 14.2267 30.3619 14.48C30.3619 15.6667 28.9419 16.26 26.1019 16.26C25.1152 16.26 24.2352 16.0933 23.4619 15.76C22.7019 15.4133 22.1085 14.96 21.6819 14.4C20.8419 13.32 20.4219 12.1133 20.4219 10.78C20.4219 9.1 20.9619 7.76 22.0419 6.76C23.1352 5.74667 24.4952 5.24 26.1219 5.24C27.9752 5.24 29.3352 5.89333 30.2019 7.2C30.6552 7.89333 30.8819 8.65333 30.8819 9.48ZM26.6619 10.06C27.1685 10.06 27.4219 9.84667 27.4219 9.42C27.4219 9.11333 27.3019 8.86667 27.0619 8.68C26.8352 8.49333 26.5019 8.4 26.0619 8.4C25.6352 8.4 25.2085 8.58 24.7819 8.94C24.3552 9.28667 24.1419 9.66 24.1419 10.06H26.6619Z" fill="black"/>
<path d="M42.2013 5.7C42.8946 6.11333 43.2412 6.55333 43.2412 7.02C43.2412 7.28667 43.1079 7.65333 42.8413 8.12L38.7013 15.22C38.5679 15.4467 38.3546 15.6533 38.0612 15.84C37.7679 16.0133 37.4746 16.1 37.1813 16.1C36.9013 16.1 36.6279 16.0333 36.3613 15.9C36.1079 15.7533 35.9279 15.6067 35.8213 15.46L35.6413 15.24L31.4813 8.12C31.2146 7.68 31.0812 7.32 31.0812 7.04C31.0812 6.56 31.4279 6.11333 32.1213 5.7C32.6279 5.40667 33.0279 5.26 33.3213 5.26C33.6146 5.26 33.8413 5.35333 34.0013 5.54C34.1746 5.71333 34.3546 5.98 34.5412 6.34L37.1613 11.38L39.7812 6.34C39.9279 6.08667 40.0346 5.90667 40.1012 5.8C40.1812 5.68 40.3013 5.56667 40.4613 5.46C40.6213 5.34 40.8346 5.28 41.1012 5.28C41.3679 5.28 41.7346 5.42 42.2013 5.7Z" fill="black"/>
<path d="M16.38 25.9C16.4867 26.1 16.5467 26.28 16.56 26.44C16.5867 26.6 16.6 26.8333 16.6 27.14V38.24C16.6 39.16 16.3467 39.7 15.84 39.86C15.5867 39.94 15.2667 39.98 14.88 39.98C14.4933 39.98 14.1867 39.9467 13.96 39.88C13.7333 39.8133 13.56 39.7333 13.44 39.64C13.32 39.5467 13.2267 39.4133 13.16 39.24C13.0933 39.0133 13.06 38.6667 13.06 38.2V31.5C12.7267 31.9133 12.24 32.5733 11.6 33.48C10.96 34.3733 10.5533 34.9333 10.38 35.16C10.2067 35.3867 10.0867 35.5467 10.02 35.64C9.95333 35.72 9.78667 35.84 9.52 36C9.26667 36.1467 8.98667 36.22 8.68 36.22C8.38667 36.22 8.11333 36.1533 7.86 36.02C7.62 35.8733 7.44667 35.7333 7.34 35.6L7.18 35.38C6.91333 35.0467 6.38667 34.34 5.6 33.26C4.81333 32.1667 4.38667 31.58 4.32 31.5V38.24C4.32 38.5467 4.30667 38.78 4.28 38.94C4.26667 39.0867 4.20667 39.2533 4.1 39.44C3.9 39.8 3.38 39.98 2.54 39.98C1.72667 39.98 1.22 39.8 1.02 39.44C0.913333 39.2533 0.846667 39.08 0.82 38.92C0.806667 38.76 0.8 38.52 0.8 38.2V27.1C0.8 26.7933 0.806667 26.5667 0.82 26.42C0.846667 26.26 0.913333 26.08 1.02 25.88C1.22 25.5333 1.74 25.36 2.58 25.36C2.94 25.36 3.24667 25.4067 3.5 25.5C3.76667 25.58 3.94 25.6667 4.02 25.76L4.14 25.88L8.68 31.84C10.9467 28.84 12.46 26.86 13.22 25.9C13.4467 25.54 13.98 25.36 14.82 25.36C15.6733 25.36 16.1933 25.54 16.38 25.9Z" fill="black"/>
<path d="M25.0423 30.58C25.1223 29.8333 25.649 29.46 26.6223 29.46C27.1423 29.46 27.529 29.5 27.7823 29.58C28.0357 29.66 28.209 29.8 28.3023 30C28.409 30.2 28.469 30.38 28.4823 30.54C28.509 30.6867 28.5223 30.9133 28.5223 31.22V38.22C28.5223 38.5267 28.509 38.76 28.4823 38.92C28.469 39.0667 28.4157 39.24 28.3223 39.44C28.1357 39.7867 27.6757 39.96 26.9423 39.96C26.2223 39.96 25.7357 39.8733 25.4823 39.7C25.2423 39.5133 25.1023 39.2467 25.0623 38.9C24.569 39.6067 23.7423 39.96 22.5823 39.96C21.4357 39.96 20.369 39.4333 19.3823 38.38C18.3957 37.3267 17.9023 36.1067 17.9023 34.72C17.9023 33.32 18.3957 32.1 19.3823 31.06C20.3823 30.0067 21.4757 29.48 22.6623 29.48C23.1157 29.48 23.529 29.56 23.9023 29.72C24.2757 29.88 24.5357 30.0333 24.6823 30.18C24.829 30.3133 24.949 30.4467 25.0423 30.58ZM21.4023 34.74C21.4023 35.18 21.5757 35.58 21.9223 35.94C22.269 36.2867 22.689 36.46 23.1823 36.46C23.6757 36.46 24.0823 36.28 24.4023 35.92C24.7357 35.56 24.9023 35.1667 24.9023 34.74C24.9023 34.3 24.7423 33.8933 24.4223 33.52C24.1157 33.1467 23.6957 32.96 23.1623 32.96C22.6423 32.96 22.2157 33.1467 21.8823 33.52C21.5623 33.8933 21.4023 34.3 21.4023 34.74Z" fill="black"/>
<path d="M36.2364 33L34.9364 32.92V35.68C34.9364 36.04 34.9897 36.3 35.0964 36.46C35.2164 36.62 35.4297 36.7 35.7364 36.7C36.0564 36.7 36.2964 36.7133 36.4564 36.74C36.6297 36.7533 36.8097 36.8133 36.9964 36.92C37.3031 37.0933 37.4564 37.54 37.4564 38.26C37.4564 39.1 37.2697 39.6133 36.8964 39.8C36.6964 39.8933 36.5164 39.9533 36.3564 39.98C36.2097 39.9933 35.9897 40 35.6964 40C34.3097 40 33.2564 39.6867 32.5364 39.06C31.8164 38.4333 31.4564 37.3733 31.4564 35.88V32.92C31.2031 32.96 30.9297 32.98 30.6364 32.98C30.3431 32.98 30.0964 32.8667 29.8964 32.64C29.7097 32.4133 29.6164 32.0267 29.6164 31.48C29.6164 30.9333 29.6497 30.54 29.7164 30.3C29.7831 30.0467 29.8764 29.8667 29.9964 29.76C30.2097 29.5867 30.4764 29.5 30.7964 29.5L31.4564 29.58V27.52C31.4564 27.2133 31.4631 26.9867 31.4764 26.84C31.5031 26.6933 31.5697 26.5333 31.6764 26.36C31.8497 26.0267 32.3631 25.86 33.2164 25.86C34.1231 25.86 34.6631 26.1067 34.8364 26.6C34.9031 26.8133 34.9364 27.1533 34.9364 27.62V29.58C35.5231 29.5267 35.9631 29.5 36.2564 29.5C36.5631 29.5 36.7897 29.5133 36.9364 29.54C37.0964 29.5533 37.2764 29.6133 37.4764 29.72C37.8231 29.8933 37.9964 30.4067 37.9964 31.26C37.9964 32.1 37.8164 32.6133 37.4564 32.8C37.2564 32.8933 37.0764 32.9533 36.9164 32.98C36.7697 32.9933 36.5431 33 36.2364 33Z" fill="black"/>
<path d="M48.8702 33.48C48.8702 34.2933 48.6635 34.9 48.2502 35.3C47.8502 35.6867 47.4035 35.88 46.9102 35.88H42.1702C42.1702 36.2533 42.3902 36.5667 42.8302 36.82C43.2702 37.0733 43.7102 37.2 44.1502 37.2C44.9235 37.2 45.5302 37.12 45.9702 36.96L46.1902 36.88C46.5102 36.7333 46.7768 36.66 46.9902 36.66C47.4168 36.66 47.7835 36.96 48.0902 37.56C48.2635 37.92 48.3502 38.2267 48.3502 38.48C48.3502 39.6667 46.9302 40.26 44.0902 40.26C43.1035 40.26 42.2235 40.0933 41.4502 39.76C40.6902 39.4133 40.0968 38.96 39.6702 38.4C38.8302 37.32 38.4102 36.1133 38.4102 34.78C38.4102 33.1 38.9502 31.76 40.0302 30.76C41.1235 29.7467 42.4835 29.24 44.1102 29.24C45.9635 29.24 47.3235 29.8933 48.1902 31.2C48.6435 31.8933 48.8702 32.6533 48.8702 33.48ZM44.6502 34.06C45.1568 34.06 45.4102 33.8467 45.4102 33.42C45.4102 33.1133 45.2902 32.8667 45.0502 32.68C44.8235 32.4933 44.4902 32.4 44.0502 32.4C43.6235 32.4 43.1968 32.58 42.7702 32.94C42.3435 33.2867 42.1302 33.66 42.1302 34.06H44.6502Z" fill="black"/>
</svg>
