<svg width="50" height="51" viewBox="0 0 50 51" fill="none" xmlns="http://www.w3.org/2000/svg">
<path d="M8.43709 15.2075H7.92657L7.9372 15.7179C8.07418 22.2929 9.78742 27.6221 12.9698 31.3152C16.1621 35.0198 20.7833 37.02 26.6038 37.02H27.2496H27.7496V36.52V29.6661C29.4512 29.9817 31.0424 30.7436 32.3581 31.8781C33.8179 33.1369 34.8736 34.7985 35.3931 36.6548L35.4953 37.02H35.8746H41.7913H42.4446L42.2739 36.3893C41.6472 34.0749 40.5368 31.9196 39.016 30.0658C37.6788 28.4357 36.0509 27.0713 34.2176 26.0403C35.8357 24.9367 37.2447 23.5504 38.3757 21.9457C39.6736 20.1043 40.5775 18.0149 41.031 15.8082L41.1545 15.2075H40.5413H35.1663H34.7881L34.6851 15.5714C34.1248 17.5527 33.0106 19.4508 31.6422 20.8919C30.4368 22.1613 29.0697 23.0402 27.7496 23.3454V15.7075V15.2075H27.2496H21.8746H21.3746V15.7075V29.446C18.4236 28.3502 14.8178 24.4743 14.6453 15.6977L14.6357 15.2075H14.1454H8.43709ZM26.0417 50H23.9792C18.3088 50 14.1036 49.9989 10.8762 49.5669C7.66296 49.1368 5.49492 48.2877 3.85374 46.6466C2.21189 44.9945 1.36308 42.8256 0.933065 39.6185C0.501056 36.3964 0.5 32.2016 0.5 26.5417V24.4583C0.5 18.7984 0.501054 14.5984 0.933072 11.3737C1.36322 8.16291 2.21232 5.99479 3.85355 4.35355C5.49497 2.71214 7.65809 1.86317 10.8659 1.43307C14.088 1.00106 18.288 1 23.9583 1H26.0417C31.712 1 35.9173 1.00105 39.1446 1.43308C42.3573 1.86315 44.5252 2.71199 46.1662 4.35251C47.7981 6.00446 48.642 8.17358 49.0695 11.3812C49.499 14.6035 49.5 18.7985 49.5 24.4583V26.5417C49.5 32.2015 49.499 36.4018 49.0695 39.6267C48.6419 42.8376 47.7978 45.0058 46.1669 46.6469C44.5255 48.288 42.3625 49.1369 39.1524 49.5669C35.9277 49.9989 31.7225 50 26.0417 50Z" fill="white" stroke="black"/>
</svg>
