<svg width="808" height="727" viewBox="0 0 808 727" fill="none" xmlns="http://www.w3.org/2000/svg">
<path d="M620.573 180.113V217.565C620.573 217.992 620.894 218.313 621.321 218.313C621.749 218.313 622.069 217.992 622.069 217.565V180.113C621.802 180.167 621.589 180.274 621.321 180.274C621.108 180.274 620.841 180.167 620.573 180.113Z" fill="black"/>
<path d="M622.123 69.6278C622.123 69.2004 621.803 68.8799 621.375 68.8799C620.948 68.8799 620.627 69.2004 620.627 69.6278V135.983H622.177V69.6278H622.123Z" fill="black"/>
<path d="M622.123 174.93V137.532H620.573V174.93C620.841 174.877 621.054 174.77 621.321 174.77C621.642 174.77 621.856 174.824 622.123 174.93Z" fill="black"/>
<path d="M630.404 81.542C630.511 81.8625 630.831 82.0228 631.099 82.0228C631.205 82.0228 631.312 82.0228 631.366 81.9694C631.74 81.8091 631.953 81.3817 631.793 80.9543L622.444 57.6605C622.337 57.3934 622.016 57.1797 621.749 57.1797C621.428 57.1797 621.161 57.3934 621.054 57.6605L612.934 78.4967C612.773 78.8707 612.987 79.3515 613.361 79.5118C613.735 79.672 614.216 79.4583 614.376 79.0844L621.802 60.0647L630.404 81.542Z" fill="black"/>
<path d="M763.221 136.785C763.221 136.358 762.901 136.037 762.473 136.037H661.979C662.032 136.304 662.139 136.518 662.139 136.785C662.139 137.052 662.032 137.319 661.979 137.533H762.473C762.901 137.533 763.221 137.212 763.221 136.785Z" fill="black"/>
<path d="M656.743 137.533C656.69 137.266 656.583 137.052 656.583 136.785C656.583 136.518 656.69 136.251 656.743 136.037H622.123H620.574H512.172C511.745 136.037 511.424 136.358 511.424 136.785C511.424 137.212 511.745 137.533 512.172 137.533H620.574H622.123H656.743Z" fill="black"/>
<path d="M774.922 137.159C774.922 136.838 774.708 136.571 774.441 136.464L753.605 128.343C753.231 128.183 752.75 128.397 752.59 128.771C752.429 129.145 752.643 129.626 753.017 129.786L772.037 137.212L750.559 145.814C750.185 145.974 749.972 146.401 750.132 146.829C750.239 147.149 750.559 147.31 750.826 147.31C750.933 147.31 751.04 147.31 751.094 147.256L774.387 137.907C774.708 137.746 774.922 137.479 774.922 137.159Z" fill="black"/>
<path d="M618.971 178.831L543.373 259.718C543.106 260.038 543.106 260.519 543.426 260.786C543.587 260.946 543.747 261 543.961 261C544.174 261 544.388 260.893 544.548 260.733L620.093 179.899C619.612 179.685 619.238 179.311 618.971 178.831Z" fill="black"/>
<path d="M661.712 135.395L728.334 64.0717C728.601 63.7512 728.601 63.2703 728.28 63.0032C727.96 62.7361 727.479 62.7361 727.212 63.0566L660.59 134.327C661.07 134.541 661.444 134.915 661.712 135.395Z" fill="black"/>
<path d="M657.01 138.12L622.497 175.038C622.978 175.251 623.352 175.625 623.619 176.106L658.079 139.189C657.651 138.975 657.277 138.601 657.01 138.12Z" fill="black"/>
<path d="M661.979 135.984C661.925 135.77 661.819 135.556 661.712 135.396C661.445 134.915 661.071 134.595 660.59 134.327C660.216 134.114 659.788 134.007 659.361 134.007C658.132 134.007 657.117 134.862 656.743 135.984C656.69 136.251 656.583 136.464 656.583 136.732C656.583 136.999 656.69 137.266 656.743 137.48C656.796 137.693 656.903 137.907 657.01 138.067C657.277 138.548 657.651 138.869 658.132 139.136C658.506 139.349 658.934 139.456 659.361 139.456C660.59 139.456 661.605 138.601 661.979 137.48C662.032 137.212 662.139 136.999 662.139 136.732C662.139 136.518 662.032 136.251 661.979 135.984Z" fill="black"/>
<path d="M622.551 175.038C622.444 174.984 622.283 174.931 622.123 174.931C621.856 174.877 621.642 174.771 621.375 174.771C621.108 174.771 620.841 174.877 620.627 174.931C619.505 175.251 618.65 176.266 618.65 177.549C618.65 178.029 618.811 178.457 619.024 178.884C619.292 179.365 619.666 179.739 620.146 179.953C620.307 180.06 620.467 180.113 620.627 180.167C620.894 180.22 621.108 180.327 621.375 180.327C621.642 180.327 621.909 180.22 622.123 180.167C623.245 179.846 624.1 178.831 624.1 177.549C624.1 177.014 623.886 176.534 623.672 176.106C623.405 175.625 623.031 175.251 622.551 175.038Z" fill="black"/>
<path d="M600.913 126.42C600.753 129.411 601.5 131.388 603.157 132.243C603.691 132.51 604.279 132.617 604.866 132.617C605.507 132.617 606.202 132.457 606.843 132.136C607.965 131.602 608.873 130.694 609.461 129.999C611.117 128.129 612.399 126.046 613.361 123.748C614.163 121.771 614.483 120.115 614.376 118.566C614.216 116.536 613.147 114.719 611.598 113.811C610.156 113.01 608.339 112.956 606.683 113.651C605.294 114.238 604.065 115.307 603.05 116.749C602.836 117.07 602.89 117.551 603.21 117.764C602.836 118.352 602.516 118.993 602.248 119.634C601.287 122.039 601.02 124.496 600.913 126.42ZM603.638 120.276C604.492 118.245 605.828 116.643 607.484 115.788C607.805 115.627 607.965 115.2 607.858 114.88C608.927 114.612 609.995 114.719 610.85 115.2C611.972 115.841 612.72 117.177 612.88 118.726C612.987 120.008 612.72 121.451 611.972 123.214C611.117 125.351 609.888 127.274 608.339 129.037C607.751 129.679 607.057 130.426 606.202 130.8C605.401 131.174 604.492 131.228 603.851 130.907C602.783 130.373 602.302 128.877 602.462 126.526C602.569 124.71 602.783 122.413 603.638 120.276Z" fill="black"/>
<path d="M652.416 51.8373C651.347 53.2264 650.332 53.921 649.317 54.0812C647.554 54.3484 645.844 52.799 645.31 51.1428C644.669 49.166 645.15 46.9756 645.631 45.2125C645.738 44.7317 645.898 44.3043 646.058 43.8234C646.539 42.2206 647.073 40.511 647.18 38.8014C647.18 38.374 646.86 38 646.432 38C646.005 38 645.631 38.3205 645.631 38.7479C645.524 40.2973 645.097 41.8467 644.616 43.396C644.455 43.8769 644.349 44.3577 644.188 44.8385C643.654 46.7619 643.12 49.2729 643.868 51.6236C644.562 53.7073 646.539 55.6306 648.89 55.6306C649.103 55.6306 649.317 55.6306 649.584 55.5772C650.439 55.4169 651.134 55.0429 651.775 54.5621C652.256 53.2264 652.736 51.9442 653.217 50.6085C653.004 51.0359 652.736 51.4633 652.416 51.8373Z" fill="black"/>
<path d="M657.384 44.9453C657.438 44.6782 657.331 44.4645 657.224 44.3042C656.369 46.6549 655.514 49.0057 654.659 51.3564C655.942 49.3797 656.85 47.1892 657.384 44.9453Z" fill="black"/>
<path d="M635.319 71.7648C634.625 73.5812 634.678 75.8252 635.533 78.0691C636.281 79.9924 637.403 81.702 638.525 83.3582C638.685 83.5719 638.899 83.6788 639.166 83.6788C639.273 83.6788 639.38 83.6788 639.486 83.6253C642.906 82.0226 644.509 78.3896 645.898 74.7566C647.447 70.6963 648.996 66.5824 650.546 62.4152C657.277 58.6754 664.169 55.2027 671.115 52.0506C671.489 51.8903 671.649 51.4094 671.489 51.0355C671.328 50.6615 670.848 50.5012 670.474 50.6615C664.009 53.5999 657.598 56.8055 651.347 60.2247C652.469 57.2329 653.538 54.2944 654.606 51.3026C655.461 48.9518 656.316 46.6011 657.171 44.2503C657.491 43.3421 657.812 42.4339 658.132 41.5256C658.292 41.0982 658.079 40.6708 657.651 40.564C657.224 40.4037 656.797 40.6174 656.69 41.0448C655.568 44.2503 654.339 47.4025 653.217 50.6081C652.736 51.9437 652.255 53.2259 651.774 54.5616C650.92 56.8055 650.118 59.1028 649.317 61.3467C646.646 62.8426 643.974 64.3386 641.356 65.9413C638.845 67.4373 636.388 69.0935 635.319 71.7648ZM642.104 67.3304C644.188 66.1016 646.325 64.8728 648.462 63.644C647.126 67.1701 645.791 70.7497 644.455 74.2758C643.28 77.3745 641.944 80.4732 639.38 81.9691C638.418 80.5801 637.51 79.1376 636.922 77.5882C636.228 75.7183 636.121 73.8484 636.708 72.3525C637.617 70.1086 639.807 68.7195 642.104 67.3304Z" fill="black"/>
<path d="M782.081 150.515C781.867 150.141 781.386 150.034 781.012 150.248C780.638 150.462 780.531 150.943 780.745 151.317L784.859 158.209C785.18 157.781 785.553 157.354 785.874 156.926L782.081 150.515Z" fill="black"/>
<path d="M790.575 167.879C790.736 168.146 790.949 168.252 791.216 168.252C791.377 168.252 791.484 168.199 791.59 168.146C791.964 167.932 792.071 167.451 791.858 167.077L786.675 158.369C786.301 158.796 785.981 159.223 785.66 159.651L790.575 167.879Z" fill="black"/>
<path d="M797.254 149.073C797.628 148.859 797.681 148.378 797.467 148.004C797.254 147.63 796.773 147.577 796.399 147.791C792.499 150.355 788.973 153.454 785.927 156.98C785.553 157.407 785.233 157.835 784.912 158.262C782.241 161.521 779.944 165.101 778.127 168.894C777.967 169.268 778.127 169.749 778.501 169.909C778.608 169.962 778.715 169.962 778.822 169.962C779.089 169.962 779.409 169.802 779.516 169.535C781.226 166.009 783.309 162.696 785.767 159.651C786.088 159.224 786.462 158.796 786.782 158.369C789.774 154.843 793.3 151.691 797.254 149.073Z" fill="black"/>
<path d="M756.543 60.4925C757.932 57.5006 759.428 54.4019 761.352 51.7306C763.489 48.7922 766.053 46.7086 768.778 45.6401C769.953 45.2127 771.556 44.9989 772.25 45.9072C772.785 46.6017 772.518 47.6702 771.983 48.3648C771.342 49.2196 770.327 49.7539 769.365 50.2881C768.991 50.5018 768.831 50.9827 769.045 51.3567C769.259 51.7306 769.739 51.8909 770.113 51.6772C771.182 51.0895 772.411 50.4484 773.266 49.3264C774.12 48.2045 774.548 46.388 773.479 44.9989C772.25 43.3962 769.953 43.5564 768.243 44.251C765.252 45.3729 762.473 47.6702 760.123 50.8758C758.093 53.7074 756.597 56.8595 755.154 59.9048L748.529 74.0093L750.239 73.9559L756.543 60.4925Z" fill="black"/>
<path d="M738.271 91.9608C736.882 92.9225 735.012 93.2964 733.41 92.9759C732.608 92.8156 731.486 92.3882 730.738 91.2662C730.525 90.8923 730.044 90.8389 729.67 91.0526C729.296 91.2663 729.242 91.7471 729.456 92.1211C730.257 93.3499 731.54 94.1512 733.142 94.4718C733.623 94.5787 734.051 94.6321 734.532 94.6321C736.134 94.6321 737.79 94.1513 739.126 93.243C742.011 91.2662 743.614 87.9004 744.896 85.1757L749.491 75.4521L747.781 75.5056L743.561 84.5346C742.278 87.1525 740.836 90.1977 738.271 91.9608Z" fill="black"/>
<path d="M757.077 75.2383C757.505 75.2383 757.825 74.8643 757.825 74.4369C757.825 74.0095 757.451 73.689 757.024 73.689L750.239 73.9026L748.529 73.9561L741.958 74.1698C741.53 74.1698 741.21 74.5438 741.21 74.9712C741.21 75.3986 741.584 75.7191 741.958 75.7191L747.781 75.5589L749.491 75.5054L757.077 75.2383Z" fill="black"/>
<path d="M779.89 51.5173C770.647 62.3094 765.198 76.0399 764.503 90.2512C764.503 90.6786 764.824 91.0526 765.251 91.0526C765.679 91.0526 765.999 90.732 765.999 90.3046C766.694 76.4673 772.037 63.0573 781.012 52.5324C781.279 52.2119 781.226 51.731 780.905 51.4639C780.638 51.1433 780.157 51.1968 779.89 51.5173Z" fill="black"/>
<path d="M785.34 61.882C785.286 61.4546 784.966 61.134 784.485 61.1875C784.058 61.2409 783.737 61.6149 783.79 62.0423L784.538 71.3384C785.019 70.9644 785.5 70.5905 785.981 70.2165L785.34 61.882Z" fill="black"/>
<path d="M785.447 82.611C785.5 83.0384 785.821 83.3055 786.195 83.3055C786.675 83.2521 786.996 82.8781 786.943 82.4507L786.088 71.9258C785.607 72.2998 785.126 72.7271 784.645 73.1011L785.447 82.611Z" fill="black"/>
<path d="M773.426 82.2905C773.586 82.4508 773.8 82.5042 773.96 82.5042C774.174 82.5042 774.334 82.4508 774.494 82.2905C777.753 79.0849 781.172 76.0931 784.699 73.2081C785.179 72.8341 785.66 72.4067 786.141 72.0327C789.988 68.9874 793.995 66.049 798.109 63.4311C798.483 63.2174 798.589 62.7366 798.322 62.3626C798.109 61.9886 797.628 61.8817 797.254 62.1489C793.354 64.6599 789.614 67.3846 785.981 70.2696C785.5 70.6436 785.019 71.0176 784.538 71.3916C780.692 74.4903 776.952 77.8027 773.426 81.2754C773.105 81.4891 773.105 81.9699 773.426 82.2905Z" fill="black"/>
<path d="M807.084 51.1427C807.084 50.7153 806.763 50.3947 806.336 50.3413C805.909 50.3413 805.588 50.6619 805.588 51.0893C805.535 57.5538 805.161 65.9951 802.596 73.9022C800.032 81.8092 795.437 88.3272 789.667 92.2273C789.293 92.441 789.24 92.9219 789.453 93.2959C789.614 93.5096 789.827 93.6164 790.094 93.6164C790.255 93.6164 790.415 93.563 790.522 93.5096C796.559 89.3957 801.367 82.6106 804.039 74.383C806.657 66.3157 807.031 57.7141 807.084 51.1427Z" fill="black"/>
<path d="M260.067 425.617C260.355 425.329 260.297 424.868 260.067 424.58C259.837 425.098 259.664 425.617 259.433 426.135C259.664 425.962 259.894 425.79 260.067 425.617Z" fill="black"/>
<path d="M134.557 490.993H132.887V509.655H134.557V490.993Z" fill="black"/>
<path d="M134.557 409.834H132.887V428.497H134.557V409.834Z" fill="black"/>
<path d="M134.557 470.717H132.887V489.38H134.557V470.717Z" fill="black"/>
<path d="M134.557 567.312H132.887V585.975H134.557V567.312Z" fill="black"/>
<path d="M134.557 587.587H132.887V606.25H134.557V587.587Z" fill="black"/>
<path d="M134.557 546.979H132.887V565.642H134.557V546.979Z" fill="black"/>
<path d="M134.557 607.92H132.887V626.582H134.557V607.92Z" fill="black"/>
<path d="M134.557 391.805C134.557 391.345 134.212 390.999 133.751 390.999C133.29 390.999 132.944 391.345 132.944 391.805V408.164H134.615V391.805H134.557Z" fill="black"/>
<path d="M134.557 430.109H132.887V448.772H134.557V430.109Z" fill="black"/>
<path d="M134.557 450.442H132.887V469.105H134.557V450.442Z" fill="black"/>
<path d="M134.557 528.72H132.887V545.367H134.557V528.72Z" fill="black"/>
<path d="M132.887 653.193C132.887 653.654 133.232 654 133.693 654C134.154 654 134.5 653.654 134.5 653.193V648.528H132.829V653.193H132.887Z" fill="black"/>
<path d="M134.557 628.195H132.887V646.858H134.557V628.195Z" fill="black"/>
<path d="M134.557 511.325H132.887V527.05H134.557V511.325Z" fill="black"/>
<path d="M128.048 401.713C128.452 401.886 128.97 401.656 129.143 401.252L133.751 389.387L139.165 402.923C139.28 403.268 139.626 403.441 139.914 403.441C140.029 403.441 140.144 403.441 140.202 403.383C140.605 403.211 140.835 402.75 140.663 402.289L134.442 386.795C134.327 386.507 134.039 386.276 133.693 386.276C133.347 386.276 133.059 386.507 132.944 386.795L127.53 400.619C127.415 401.08 127.588 401.54 128.048 401.713Z" fill="black"/>
<path d="M191.35 527.05H172.688V528.721H191.35V527.05Z" fill="black"/>
<path d="M54.2053 527.05H35.543V528.721H54.2053V527.05Z" fill="black"/>
<path d="M211.683 527.05H193.021V528.721H211.683V527.05Z" fill="black"/>
<path d="M94.7557 527.05H76.0934V528.721H94.7557V527.05Z" fill="black"/>
<path d="M33.8725 527.05H15.2102V528.721H33.8725V527.05Z" fill="black"/>
<path d="M74.4804 527.05H55.8181V528.721H74.4804V527.05Z" fill="black"/>
<path d="M115.088 527.05H96.426V528.721H115.088V527.05Z" fill="black"/>
<path d="M271.299 527.05H253.904V528.721H271.299V527.05Z" fill="black"/>
<path d="M171.075 527.05H152.413V528.721H171.075V527.05Z" fill="black"/>
<path d="M1.09839 527.05C0.637587 527.05 0.291992 527.396 0.291992 527.857C0.291992 528.317 0.637587 528.663 1.09839 528.663H13.5399V526.993H1.09839V527.05Z" fill="black"/>
<path d="M132.887 528.721H134.557H150.743V527.05H134.557H132.887H116.701V528.721H132.887Z" fill="black"/>
<path d="M252.291 527.05H233.629V528.721H252.291V527.05Z" fill="black"/>
<path d="M231.958 527.05H213.296V528.721H231.958V527.05Z" fill="black"/>
<path d="M311.158 528.721C311.619 528.721 311.964 528.375 311.964 527.914C311.964 527.453 311.619 527.108 311.158 527.108H272.969V528.778H311.158V528.721Z" fill="black"/>
<path d="M301.193 522.212C301.02 522.615 301.251 523.133 301.654 523.306L313.52 527.914L299.984 533.329C299.58 533.501 299.35 533.962 299.523 534.423C299.638 534.769 299.984 534.941 300.272 534.941C300.387 534.941 300.502 534.941 300.56 534.884L316.054 528.663C316.4 528.548 316.572 528.202 316.572 527.914C316.572 527.569 316.342 527.281 316.054 527.165L302.23 521.751C301.884 521.521 301.366 521.751 301.193 522.212Z" fill="black"/>
<path d="M122.346 545.079C122.404 545.079 122.519 545.079 122.576 545.079C124.132 544.906 124.88 543.236 125.226 542.545L125.975 540.874C126.551 539.607 127.012 536.957 125.802 535.402C125.341 534.769 124.42 534.135 122.692 534.481C119.639 535.057 119.12 540.01 119.408 541.969C119.524 542.833 119.812 543.466 120.215 544.042C120.791 544.733 121.597 545.079 122.346 545.079ZM123.037 536.093C124.074 535.921 124.42 536.324 124.535 536.439C125.168 537.188 124.996 539.031 124.477 540.183L123.728 541.853C123.44 542.545 122.98 543.351 122.404 543.409C122.116 543.466 121.828 543.293 121.597 543.005C121.367 542.717 121.194 542.314 121.136 541.738C120.848 539.953 121.424 536.439 123.037 536.093Z" fill="black"/>
<path d="M114.282 385.758C114.282 385.7 114.224 385.7 114.224 385.643C114.167 385.873 114.109 386.161 114.052 386.391C114.224 386.161 114.282 385.988 114.282 385.758Z" fill="black"/>
<path d="M312.771 544.387C312.828 544.791 313.174 545.079 313.577 545.079C314.153 545.021 314.499 544.56 314.384 544.099C314.096 542.199 313.347 540.355 312.31 538.743C311.849 539.088 311.446 539.434 310.985 539.837C311.907 541.277 312.54 542.775 312.771 544.387Z" fill="black"/>
<path d="M308.163 534.538C307.76 534.307 307.241 534.423 307.011 534.768C306.78 535.171 306.896 535.69 307.241 535.92C308.336 536.611 309.2 537.533 310.006 538.512C310.409 538.167 310.812 537.763 311.273 537.475C310.409 536.381 309.372 535.344 308.163 534.538Z" fill="black"/>
<path d="M319.971 534.308C319.856 533.847 319.395 533.616 318.934 533.732C316.169 534.48 313.577 535.747 311.273 537.475C310.813 537.821 310.409 538.167 310.006 538.512C308.278 540.01 306.781 541.795 305.629 543.754C305.398 544.157 305.513 544.675 305.917 544.906C306.032 544.963 306.205 545.021 306.32 545.021C306.608 545.021 306.896 544.848 307.011 544.618C308.048 542.832 309.43 541.219 310.985 539.895C311.389 539.491 311.849 539.146 312.31 538.8C314.384 537.187 316.803 536.035 319.337 535.344C319.856 535.171 320.086 534.768 319.971 534.308Z" fill="black"/>
<path d="M136.803 511.325C137.264 511.325 137.61 510.98 137.61 510.519C137.61 510.058 137.264 509.712 136.803 509.712H134.557H132.887H130.64C130.179 509.712 129.834 510.058 129.834 510.519C129.834 510.98 130.179 511.325 130.64 511.325H132.887H134.557H136.803Z" fill="black"/>
<path d="M136.803 490.993C137.264 490.993 137.61 490.647 137.61 490.186C137.61 489.725 137.264 489.38 136.803 489.38H134.557H132.887H130.64C130.179 489.38 129.834 489.725 129.834 490.186C129.834 490.647 130.179 490.993 130.64 490.993H132.887H134.557H136.803Z" fill="black"/>
<path d="M136.803 470.717C137.264 470.717 137.61 470.372 137.61 469.911C137.61 469.45 137.264 469.104 136.803 469.104H134.557H132.887H130.64C130.179 469.104 129.834 469.45 129.834 469.911C129.834 470.372 130.179 470.717 130.64 470.717H132.887H134.557H136.803Z" fill="black"/>
<path d="M136.803 450.442C137.264 450.442 137.61 450.097 137.61 449.636C137.61 449.175 137.264 448.83 136.803 448.83H134.557H132.887H130.64C130.179 448.83 129.834 449.175 129.834 449.636C129.834 450.097 130.179 450.442 130.64 450.442H132.887H134.557H136.803Z" fill="black"/>
<path d="M136.803 430.11C137.264 430.11 137.61 429.764 137.61 429.303C137.61 428.843 137.264 428.497 136.803 428.497H134.557H132.887H130.64C130.179 428.497 129.834 428.843 129.834 429.303C129.834 429.764 130.179 430.11 130.64 430.11H132.887H134.557H136.803Z" fill="black"/>
<path d="M136.803 409.834C137.264 409.834 137.61 409.489 137.61 409.028C137.61 408.567 137.264 408.222 136.803 408.222H134.557H132.887H130.64C130.179 408.222 129.834 408.567 129.834 409.028C129.834 409.489 130.179 409.834 130.64 409.834H132.887H134.557H136.803Z" fill="black"/>
<path d="M130.698 646.857C130.237 646.857 129.891 647.203 129.891 647.664C129.891 648.125 130.237 648.47 130.698 648.47H132.944H134.615H136.861C137.322 648.47 137.667 648.125 137.667 647.664C137.667 647.203 137.322 646.857 136.861 646.857H134.615H132.944H130.698Z" fill="black"/>
<path d="M130.698 626.525C130.237 626.525 129.891 626.871 129.891 627.331C129.891 627.792 130.237 628.138 130.698 628.138H132.944H134.615H136.861C137.322 628.138 137.667 627.792 137.667 627.331C137.667 626.871 137.322 626.525 136.861 626.525H134.615H132.944H130.698Z" fill="black"/>
<path d="M130.698 606.25C130.237 606.25 129.891 606.595 129.891 607.056C129.891 607.517 130.237 607.862 130.698 607.862H132.944H134.615H136.861C137.322 607.862 137.667 607.517 137.667 607.056C137.667 606.595 137.322 606.25 136.861 606.25H134.615H132.944H130.698Z" fill="black"/>
<path d="M130.698 585.917C130.237 585.917 129.891 586.263 129.891 586.723C129.891 587.184 130.237 587.53 130.698 587.53H132.944H134.615H136.861C137.322 587.53 137.667 587.184 137.667 586.723C137.667 586.263 137.322 585.917 136.861 585.917H134.615H132.944H130.698Z" fill="black"/>
<path d="M130.698 565.642C130.237 565.642 129.891 565.988 129.891 566.449C129.891 566.909 130.237 567.255 130.698 567.255H132.944H134.615H136.861C137.322 567.255 137.667 566.909 137.667 566.449C137.667 565.988 137.322 565.642 136.861 565.642H134.615H132.944H130.698Z" fill="black"/>
<path d="M130.698 545.309C130.237 545.309 129.891 545.655 129.891 546.115C129.891 546.576 130.237 546.922 130.698 546.922H132.944H134.615H136.861C137.322 546.922 137.667 546.576 137.667 546.115C137.667 545.655 137.322 545.309 136.861 545.309H134.615H132.944H130.698Z" fill="black"/>
<path d="M115.031 531.37C115.031 531.831 115.376 532.176 115.837 532.176C116.298 532.176 116.644 531.831 116.644 531.37V528.72V527.05V525.264C116.644 524.804 116.298 524.458 115.837 524.458C115.376 524.458 115.031 524.804 115.031 525.264V527.05V528.72V531.37Z" fill="black"/>
<path d="M94.7556 528.72V531.37C94.7556 531.831 95.1012 532.176 95.562 532.176C96.0228 532.176 96.3684 531.831 96.3684 531.37V528.72V527.05V525.264C96.3684 524.804 96.0228 524.458 95.562 524.458C95.1012 524.458 94.7556 524.804 94.7556 525.264V527.05V528.72Z" fill="black"/>
<path d="M76.0933 525.264C76.0933 524.804 75.7477 524.458 75.2869 524.458C74.8261 524.458 74.4805 524.804 74.4805 525.264V527.05V528.72V531.37C74.4805 531.831 74.8261 532.176 75.2869 532.176C75.7477 532.176 76.0933 531.831 76.0933 531.37V528.72V527.05V525.264Z" fill="black"/>
<path d="M55.8181 525.264C55.8181 524.804 55.4725 524.458 55.0117 524.458C54.5509 524.458 54.2053 524.804 54.2053 525.264V527.05V528.72V531.37C54.2053 531.831 54.5509 532.176 55.0117 532.176C55.4725 532.176 55.8181 531.831 55.8181 531.37V528.72V527.05V525.264Z" fill="black"/>
<path d="M35.543 525.264C35.543 524.804 35.1974 524.458 34.7366 524.458C34.2758 524.458 33.9302 524.804 33.9302 525.264V527.05V528.72V531.37C33.9302 531.831 34.2758 532.176 34.7366 532.176C35.1974 532.176 35.543 531.831 35.543 531.37V528.72V527.05V525.264Z" fill="black"/>
<path d="M15.2103 525.264C15.2103 524.804 14.8647 524.458 14.4039 524.458C13.9431 524.458 13.5975 524.804 13.5975 525.264V527.05V528.72V531.37C13.5975 531.831 13.9431 532.176 14.4039 532.176C14.8647 532.176 15.2103 531.831 15.2103 531.37V528.72V527.05V525.264Z" fill="black"/>
<path d="M252.233 531.37C252.233 531.831 252.579 532.176 253.04 532.176C253.501 532.176 253.846 531.831 253.846 531.37V528.72V527.05V525.264C253.846 524.804 253.501 524.458 253.04 524.458C252.579 524.458 252.233 524.804 252.233 525.264V527.05V528.72V531.37Z" fill="black"/>
<path d="M271.299 531.37C271.299 531.831 271.645 532.176 272.105 532.176C272.566 532.176 272.912 531.831 272.912 531.37V528.72V527.05V525.264C272.912 524.804 272.566 524.458 272.105 524.458C271.645 524.458 271.299 524.804 271.299 525.264V527.05V528.72V531.37Z" fill="black"/>
<path d="M231.958 531.37C231.958 531.831 232.304 532.176 232.765 532.176C233.226 532.176 233.571 531.831 233.571 531.37V528.72V527.05V525.264C233.571 524.804 233.226 524.458 232.765 524.458C232.304 524.458 231.958 524.804 231.958 525.264V527.05V528.72V531.37Z" fill="black"/>
<path d="M211.626 531.37C211.626 531.831 211.971 532.176 212.432 532.176C212.893 532.176 213.238 531.831 213.238 531.37V528.72V527.05V525.264C213.238 524.804 212.893 524.458 212.432 524.458C211.971 524.458 211.626 524.804 211.626 525.264V527.05V528.72V531.37Z" fill="black"/>
<path d="M191.35 531.37C191.35 531.831 191.696 532.176 192.157 532.176C192.618 532.176 192.963 531.831 192.963 531.37V528.72V527.05V525.264C192.963 524.804 192.618 524.458 192.157 524.458C191.696 524.458 191.35 524.804 191.35 525.264V527.05V528.72V531.37Z" fill="black"/>
<path d="M171.018 531.37C171.018 531.831 171.363 532.176 171.824 532.176C172.285 532.176 172.631 531.831 172.631 531.37V528.72V527.05V525.264C172.631 524.804 172.285 524.458 171.824 524.458C171.363 524.458 171.018 524.804 171.018 525.264V527.05V528.72V531.37Z" fill="black"/>
<path d="M150.743 531.37C150.743 531.831 151.088 532.176 151.549 532.176C152.01 532.176 152.355 531.831 152.355 531.37V528.72V527.05V525.264C152.355 524.804 152.01 524.458 151.549 524.458C151.088 524.458 150.743 524.804 150.743 525.264V527.05V528.72V531.37Z" fill="black"/>
<path d="M253.097 516.624C253.558 516.624 253.904 516.278 253.904 515.818C253.904 515.357 253.558 515.011 253.097 515.011C159.21 515.011 151.319 460.349 151.319 409.085C151.319 408.624 150.973 408.279 150.512 408.279C150.051 408.279 149.706 408.624 149.706 409.085C149.706 434.314 151.722 462.883 166.871 483.85C182.768 505.853 210.992 516.624 253.097 516.624Z" fill="black"/>
<path d="M118.717 649.91C118.717 650.371 119.063 650.717 119.524 650.717C119.984 650.717 120.33 650.371 120.33 649.91C120.33 624.682 118.314 596.112 103.165 575.088C87.2101 553.028 59.0438 542.256 16.9384 542.256C16.4776 542.256 16.132 542.602 16.132 543.063C16.132 543.524 16.4776 543.869 16.9384 543.869C110.884 543.984 118.717 598.647 118.717 649.91Z" fill="black"/>
<path d="M85.7491 128.994C85.9101 129.079 86.0806 129.108 86.2511 129.137C87.1038 129.28 88.0234 129.026 88.7731 128.392C89.4564 127.806 89.9315 127.068 90.4066 126.329C95.0157 118.747 100.732 111.877 107.3 105.852C107.642 105.558 107.671 105.037 107.378 104.696C107.085 104.354 106.564 104.325 106.222 104.618C99.5213 110.737 93.7856 117.721 89.0245 125.512C88.6254 126.146 88.2927 126.733 87.8182 127.121C87.4766 127.414 86.9075 127.669 86.4719 127.479C85.809 127.25 85.5739 126.217 85.3764 125.307L82.5693 110.045C82.4658 109.618 82.0493 109.314 81.6323 109.361C81.1488 109.455 80.9017 109.881 80.9484 110.298L83.7555 125.56C83.8668 126.982 84.3191 128.461 85.7491 128.994Z" fill="black"/>
<path d="M131.922 121.398C131.998 120.943 131.724 120.488 131.269 120.411L115.856 117.523C115.411 117.389 114.946 117.72 114.87 118.175C114.793 118.63 115.067 119.085 115.522 119.161L130.935 122.05C131.437 122.193 131.845 121.852 131.922 121.398Z" fill="black"/>
<path d="M115.98 128.24L130.314 130.245C130.769 130.322 131.177 129.982 131.254 129.527C131.33 129.072 130.99 128.664 130.535 128.587L116.201 126.582C115.746 126.506 115.338 126.846 115.262 127.301C115.251 127.708 115.525 128.164 115.98 128.24Z" fill="black"/>
<path d="M158.494 137.856C159.012 139.288 160.395 139.755 161.702 139.975C161.93 140.013 162.214 140.061 162.441 140.099C166.515 140.552 170.694 140.729 174.835 140.784C175.3 140.804 175.66 140.397 175.68 139.932C175.7 139.468 175.293 139.107 174.829 139.088C170.735 139.1 166.623 138.874 162.605 138.432C161.108 138.296 160.294 137.925 160.106 137.309C159.823 136.56 160.563 135.633 160.99 135.178L161.285 134.819C161.997 134.062 162.785 133.201 162.986 132.007C163.043 131.666 162.874 131.287 162.552 131.116C162.23 130.945 161.803 131.048 161.585 131.304C159.572 133.537 156.849 135.124 153.92 135.858C152.943 136.103 151.778 136.082 151.362 135.427C151.088 134.972 151.212 134.233 151.365 133.674C151.986 131.031 153.088 128.996 154.607 127.615C156.344 125.978 158.733 125.329 160.684 125.891C162.749 126.473 164.252 128.655 163.87 130.578C163.793 131.033 164.067 131.488 164.522 131.565C165.034 131.651 165.432 131.367 165.509 130.912C166.025 128.194 164.021 125.167 161.123 124.328C158.613 123.613 155.607 124.451 153.462 126.428C151.725 128.065 150.461 130.365 149.736 133.283C149.526 134.183 149.325 135.376 149.92 136.353C150.657 137.53 152.277 137.978 154.287 137.498C155.803 137.169 157.254 136.537 158.601 135.828C158.259 136.472 158.258 137.173 158.494 137.856Z" fill="black"/>
<path d="M185.175 129.022C183.717 128.66 182.42 127.682 181.645 126.382C181.418 125.993 180.916 125.85 180.528 126.077C180.139 126.304 179.996 126.806 180.222 127.194C181.167 128.873 182.871 130.212 184.784 130.652C184.955 130.68 185.068 130.7 185.239 130.728C187.001 131.025 188.935 130.649 190.453 129.619C191.572 128.872 192.256 127.935 192.495 126.865C192.953 124.838 191.402 122.94 189.717 122.188C190.742 121.309 191.493 119.974 191.088 118.561C190.777 117.281 189.537 116.313 188.154 116.197C186.951 116.052 185.699 116.543 184.778 117.498C184.427 117.848 184.455 118.379 184.757 118.664C185.05 119.006 185.638 118.988 185.923 118.685C186.492 118.079 187.242 117.796 187.933 117.854C188.625 117.913 189.24 118.425 189.438 118.985C189.645 119.838 188.895 120.822 188.117 121.276C187.738 121.446 187.301 121.606 186.884 121.653C186.069 121.632 185.235 121.726 184.524 121.781C184.107 121.828 183.747 122.235 183.793 122.652C183.84 123.069 184.19 123.42 184.597 123.43C185.299 123.432 186.18 123.405 187.014 123.311C187.715 123.313 188.398 123.427 188.994 123.703C190.083 124.179 191.057 125.337 190.856 126.53C190.656 127.373 189.972 127.96 189.517 128.234C188.265 129.075 186.634 129.385 185.175 129.022Z" fill="black"/>
<path d="M676.001 445.954C675.151 446.402 674.446 446.518 673.962 446.326C673.172 446.04 672.795 444.962 672.523 444.083C671.436 440.569 670.901 436.891 670.971 433.149C670.987 432.694 670.6 432.323 670.144 432.308C669.689 432.292 669.318 432.679 669.303 433.135C669.236 437.003 669.799 440.857 670.916 444.548C671.296 445.753 671.91 447.281 673.337 447.806C674.306 448.189 675.44 448.038 676.689 447.379C676.739 447.353 676.789 447.326 676.839 447.3C678.188 446.588 679.353 445.527 680.286 444.268C680.214 443.284 680.168 442.35 680.046 441.393C679.306 443.38 677.876 445.028 676.001 445.954Z" fill="black"/>
<path d="M671.263 465.188C669.49 468.486 669.292 471.018 670.57 472.835C671.951 474.726 674.359 475.052 676.535 475.182C677.801 475.281 679.09 475.303 680.139 474.75C680.339 474.644 680.539 474.539 680.763 474.357C682.054 473.293 682.244 471.596 682.311 470.027C682.632 463.854 682.65 457.712 682.389 451.526C684.776 448.543 687.289 445.557 689.728 442.673C689.999 442.339 689.988 441.834 689.627 441.513C689.293 441.242 688.787 441.253 688.467 441.614C686.372 444.06 684.277 446.507 682.234 449.053C682.08 446.58 681.898 444.057 681.694 441.61C681.656 441.054 681.569 440.526 681.532 439.97C681.306 437.726 681.057 435.558 680.781 433.34C680.746 432.911 680.309 432.567 679.83 432.628C679.402 432.663 679.057 433.1 679.118 433.578C679.478 436.199 679.762 438.796 680.023 441.469C680.095 442.453 680.19 443.361 680.262 444.345C680.411 446.566 680.637 448.81 680.71 451.007C677.243 455.454 673.958 460.125 671.263 465.188ZM680.743 469.96C680.668 471.15 680.519 472.442 679.775 473.09C679.054 473.661 677.917 473.686 676.702 473.561C674.904 473.423 672.878 473.214 671.914 471.871C671.002 470.627 671.287 468.624 672.695 465.965C675.052 461.593 677.869 457.488 680.891 453.53C681.036 459.011 681.004 464.521 680.743 469.96Z" fill="black"/>
<path d="M697.651 418.821C697.861 419.22 698.346 419.412 698.745 419.201C698.745 419.201 709.124 414.174 709.174 414.148C709.574 413.937 709.716 413.479 709.505 413.079C709.294 412.679 708.81 412.488 708.41 412.698L698.031 417.726C697.681 417.91 697.49 418.395 697.651 418.821Z" fill="black"/>
<path d="M710.13 417.413C706.829 419.026 703.504 420.716 700.259 422.555C699.859 422.766 699.744 423.274 699.955 423.674C700.165 424.073 700.623 424.215 701.073 423.978C704.269 422.165 707.543 420.501 710.894 418.862C711.294 418.651 711.435 418.193 711.225 417.793C711.014 417.393 710.529 417.202 710.13 417.413Z" fill="black"/>
<path d="M727.468 409.353C726.884 409.214 726.276 409.151 725.673 409.341C724.416 409.621 722.849 410.767 722.297 414.444C722.213 415.254 722.106 416.141 722.504 417.017C722.794 417.567 723.36 418.035 723.971 418.224C724.429 418.365 724.908 418.304 725.308 418.093C725.358 418.067 725.408 418.041 725.458 418.014C725.981 417.674 726.196 417.114 726.364 416.706C727.036 415.074 727.782 413.339 728.425 411.531C728.528 411.604 728.681 411.651 728.783 411.725C729.294 411.967 729.831 412.258 730.392 412.474C732.837 413.356 735.828 412.608 738.084 410.588C740.24 408.62 741.419 405.891 742.135 403.98C742.304 403.572 742.066 403.122 741.658 402.954C741.25 402.786 740.801 403.023 740.633 403.431C740.013 405.163 738.931 407.714 737.072 409.397C735.287 410.977 732.875 411.611 731.04 410.918C730.582 410.776 730.121 410.508 729.661 410.24C729.482 410.143 729.303 410.046 729.124 409.949C731.174 404.268 732.755 397.941 731.886 391.693C731.65 390.156 731.023 389.209 730.031 388.903C728.531 388.48 727.298 389.897 726.93 390.41C725.944 391.569 725.011 392.828 725.021 394.42C724.993 395.456 725.546 396.506 726.444 397.118C727.136 397.583 727.973 397.717 728.699 397.398C729.125 397.237 729.317 396.752 729.156 396.326C728.995 395.9 728.511 395.708 728.085 395.869C727.809 395.951 727.553 395.83 727.374 395.733C726.964 395.439 726.674 394.889 726.689 394.434C726.717 393.397 727.453 392.37 728.241 391.443C728.833 390.748 729.33 390.358 729.661 390.503C729.967 390.597 730.23 391.097 730.376 391.978C730.957 397.803 729.421 403.852 727.468 409.353ZM724.809 416.057C724.711 416.236 724.617 416.542 724.517 416.594C724.467 416.621 724.391 416.597 724.391 416.597C724.238 416.55 724.033 416.403 723.954 416.253C723.743 415.853 723.805 415.245 723.868 414.637C724.04 413.269 724.51 411.616 725.609 411.036C725.759 410.957 725.859 410.904 726.035 410.875C726.312 410.793 726.591 410.838 726.869 410.882C726.226 412.69 725.481 414.425 724.809 416.057Z" fill="black"/>
<path d="M765.729 396.517C765.987 396.764 766.366 396.756 766.616 396.624C766.716 396.572 766.816 396.519 766.839 396.443C767.11 396.108 767.099 395.603 766.738 395.282C763.881 392.893 760.927 390.683 757.873 388.525C757.734 389.109 757.595 389.694 757.506 390.252C760.355 392.262 763.104 394.325 765.729 396.517Z" fill="black"/>
<path d="M751.564 384.315C751.18 384.071 750.677 384.208 750.433 384.593C750.189 384.977 750.326 385.479 750.71 385.724C752.53 386.872 754.299 388.047 756.068 389.221C756.207 388.637 756.296 388.079 756.435 387.495C754.845 386.417 753.205 385.366 751.564 384.315Z" fill="black"/>
<path d="M755.705 400.4C755.831 400.397 756.007 400.368 756.107 400.315C756.357 400.183 756.528 399.901 756.572 399.622C756.63 396.462 756.967 393.346 757.582 390.275C757.671 389.717 757.86 389.107 757.949 388.549C758.478 386.162 759.084 383.798 759.869 381.532C760.037 381.124 759.773 380.624 759.392 380.506C758.984 380.338 758.484 380.602 758.366 380.983C757.578 383.123 757.02 385.334 756.511 387.518C756.373 388.103 756.234 388.687 756.145 389.245C755.435 392.622 755.08 396.066 754.954 399.582C754.912 399.987 755.249 400.384 755.705 400.4Z" fill="black"/>
<path d="M770.086 363.24C770.397 363.587 770.878 363.653 771.225 363.342C771.572 363.031 771.638 362.549 771.327 362.202C770.6 361.308 770.343 359.974 770.75 358.929C770.918 358.521 771.213 358.111 771.515 358.079C771.691 358.05 771.973 358.22 772.155 358.444C772.389 358.767 772.55 359.194 772.635 359.596C773.271 362.135 773.055 364.995 772.082 367.872C771.597 367.68 770.987 367.492 770.308 367.658C769.377 367.83 768.409 368.659 768.484 369.77C768.548 370.375 768.887 370.898 769.451 371.24C770.117 371.655 771.001 371.636 771.651 371.293C772.15 371.03 772.571 370.616 772.839 370.155C773.094 370.276 773.35 370.397 773.629 370.441C774.545 370.725 775.552 370.577 776.452 370.102C776.502 370.076 776.552 370.049 776.602 370.023C777.525 369.472 778.213 368.598 778.42 367.658C778.512 367.227 778.275 366.777 777.843 366.685C777.412 366.594 776.962 366.831 776.87 367.263C776.705 367.797 776.337 368.31 775.787 368.6C775.238 368.89 774.609 369.03 774.075 368.865C773.922 368.818 773.693 368.747 773.514 368.65C774.682 365.415 774.89 362.175 774.195 359.284C774.081 358.705 773.865 358.053 773.449 357.506C772.903 356.836 772.111 356.423 771.33 356.516C770.422 356.611 769.628 357.286 769.197 358.407C768.599 359.936 768.919 361.875 770.086 363.24ZM770.96 369.741C770.76 369.847 770.481 369.802 770.302 369.705C770.226 369.681 770.199 369.631 770.173 369.581C770.17 369.455 770.294 369.326 770.444 369.247C770.494 369.221 770.544 369.194 770.62 369.218C770.846 369.163 771.125 369.207 771.457 369.351C771.283 369.507 771.16 369.636 770.96 369.741Z" fill="black"/>
<path d="M87.2884 320.205L45.6294 291.01L104.277 296.136L69.8894 345.206L45.0555 291.829L86.7145 321.024L87.2884 320.205Z" fill="#FFCCCB" stroke="black"/>
<path d="M18.4999 420.014L18.5001 420.007V420C18.5001 403.868 23.471 393.423 31.237 385.989C39.0296 378.53 49.6769 374.061 61.1277 369.98C63.3736 369.179 65.6506 368.394 67.9417 367.604C88.926 360.366 111.095 352.72 121.458 329.202C127.223 316.116 125.563 303.901 120.244 292.243C114.937 280.609 105.969 269.491 97.0794 258.569L96.5373 257.903C87.8124 247.184 79.2378 236.651 74.2006 225.914C69.072 214.983 67.6353 203.894 73.4476 192.223C86.4855 166.043 113.934 162.253 141.39 162.735C148.035 162.852 154.664 163.218 161.074 163.573L161.676 163.606C168.268 163.97 174.624 164.313 180.498 164.344C186.372 164.376 191.785 164.097 196.491 163.21C201.195 162.324 205.227 160.825 208.31 158.393L208.359 158.354L208.397 158.304C215.982 148.412 218.869 134.643 219.942 119.388C220.634 109.556 220.575 99.0437 220.515 88.5046C220.482 82.7009 220.449 76.889 220.542 71.1781C220.803 55.0555 222.062 39.7032 227.082 27.3399C232.089 15.0109 240.835 5.65383 256.132 1.48227C266.926 -1.46161 283.678 2.58082 301.081 14.3624C318.457 26.1261 336.4 45.5558 349.548 73.2149C359.796 94.7707 371.697 103.117 385.033 103.606C398.277 104.093 412.78 96.8082 428.196 87.564C432.167 85.183 436.2 82.6703 440.294 80.1199C452.147 72.7363 464.507 65.037 477.312 59.3026C494.513 51.5988 512.428 47.4865 530.84 52.4747C543.676 57.6669 551.185 66.7978 555.831 78.0661C560.491 89.3655 562.266 102.798 563.619 116.55C563.847 118.868 564.063 121.195 564.279 123.521C565.342 134.973 566.405 146.422 568.895 156.744C571.893 169.173 576.979 180.051 586.698 187.399C596.398 194.732 612.376 198.717 630.944 201.838C638.781 203.155 647.102 204.321 655.632 205.517C657.223 205.74 658.822 205.964 660.426 206.19C670.633 207.63 681.069 209.159 691.296 211.081C711.759 214.926 731.34 220.338 746.543 229.715C761.726 239.078 772.534 252.389 775.505 272.075C778.471 291.728 770.828 306.655 757.509 318.974C744.167 331.316 725.159 341.008 705.481 350.138C701.626 351.927 697.746 353.694 693.878 355.455C678.032 362.67 662.403 369.787 649.67 377.874C633.834 387.932 622.329 399.579 620.503 414.941C618.689 430.207 623.248 445.199 630.507 459.987C636.101 471.384 643.322 482.704 650.502 493.958C652.633 497.298 654.759 500.631 656.839 503.96C675.064 533.13 689.629 561.853 672.418 591.191C663.832 605.826 650.897 611.438 635.759 612.239C620.585 613.042 603.239 609.006 585.929 604.356C582.99 603.566 580.052 602.759 577.126 601.955C562.854 598.033 548.875 594.192 536.539 592.896C521.672 591.335 509.004 593.448 501.05 603.745C493.193 613.916 489.186 625.853 486.676 638.213C485.12 645.877 484.132 653.752 483.163 661.475C482.574 666.176 481.991 670.82 481.292 675.327C479.436 687.285 476.752 698.346 470.955 707.284C465.182 716.186 456.294 723.022 441.945 726.499C424.462 726.169 411.808 718.704 401.635 707.67C391.431 696.602 383.737 681.961 376.197 667.325C375.931 666.81 375.666 666.294 375.401 665.779C368.149 651.692 360.958 637.726 351.737 627.242C342.157 616.35 330.354 609.181 313.99 609.5C284.123 610.082 262.407 619.047 243.926 626.676C242.315 627.341 240.729 627.996 239.164 628.635C219.661 636.589 203.552 641.93 184.304 632.592C175.126 622.602 171.198 613.114 170.219 603.687C169.236 594.219 171.223 584.77 173.942 574.86C174.613 572.415 175.328 569.943 176.053 567.438C181.195 549.668 186.824 530.215 180.483 506.869C176.812 493.355 164.493 486.432 148.407 482.285C136.194 479.136 121.678 477.556 106.883 475.945C102.184 475.434 97.4576 474.919 92.7675 474.35C73.2619 471.984 54.3794 468.681 40.5254 460.816C33.6092 456.89 27.9622 451.835 24.1153 445.205C20.2689 438.576 18.2024 430.339 18.4999 420.014Z" fill="url(#paint0_linear_1130_1243)" stroke="black"/>
<path d="M556.5 633.5C556.5 646.755 545.755 657.5 532.5 657.5C519.245 657.5 508.5 646.755 508.5 633.5C508.5 620.245 519.245 609.5 532.5 609.5C545.755 609.5 556.5 620.245 556.5 633.5Z" fill="#FEE9C4" stroke="black"/>
<defs>
<linearGradient id="paint0_linear_1130_1243" x1="167.863" y1="29.1497" x2="690.567" y2="822.33" gradientUnits="userSpaceOnUse">
<stop stop-color="#FFCACC"/>
<stop offset="1" stop-color="#FEFFBF"/>
</linearGradient>
</defs>
</svg>
