<svg width="974" height="743" viewBox="0 0 974 743" fill="none" xmlns="http://www.w3.org/2000/svg">
<path d="M704.189 238.887V292.881C704.189 293.497 704.652 293.96 705.268 293.96C705.884 293.96 706.346 293.497 706.346 292.881V238.887C705.961 238.964 705.653 239.118 705.268 239.118C704.96 239.118 704.575 238.964 704.189 238.887Z" fill="white"/>
<path d="M706.423 79.5983C706.423 78.9821 705.961 78.52 705.345 78.52C704.729 78.52 704.267 78.9821 704.267 79.5983V175.264H706.501V79.5983H706.423Z" fill="white"/>
<path d="M706.423 231.415V177.497H704.189V231.415C704.575 231.338 704.883 231.184 705.268 231.184C705.73 231.184 706.038 231.261 706.423 231.415Z" fill="white"/>
<path d="M718.362 96.7753C718.516 97.2375 718.978 97.4685 719.364 97.4685C719.518 97.4685 719.672 97.4685 719.749 97.3915C720.288 97.1604 720.596 96.5442 720.365 95.928L706.886 62.3451C706.731 61.96 706.269 61.6519 705.884 61.6519C705.422 61.6519 705.037 61.96 704.883 62.3451L693.175 92.3849C692.944 92.924 693.252 93.6172 693.791 93.8483C694.33 94.0794 695.024 93.7713 695.255 93.2321L705.961 65.8112L718.362 96.7753Z" fill="white"/>
<path d="M909.847 176.42C909.847 175.803 909.384 175.341 908.768 175.341H763.884C763.961 175.726 764.115 176.035 764.115 176.42C764.115 176.805 763.961 177.19 763.884 177.498H908.768C909.384 177.498 909.847 177.036 909.847 176.42Z" fill="white"/>
<path d="M756.336 177.498C756.259 177.113 756.105 176.805 756.105 176.42C756.105 176.035 756.259 175.649 756.336 175.341H706.424H704.19H547.906C547.29 175.341 546.828 175.803 546.828 176.42C546.828 177.036 547.29 177.498 547.906 177.498H704.19H706.424H756.336Z" fill="white"/>
<path d="M926.715 176.959C926.715 176.496 926.407 176.111 926.022 175.957L895.982 164.249C895.443 164.018 894.75 164.327 894.519 164.866C894.288 165.405 894.596 166.098 895.135 166.329L922.556 177.036L891.592 189.437C891.053 189.668 890.745 190.284 890.976 190.9C891.13 191.362 891.592 191.593 891.977 191.593C892.131 191.593 892.285 191.593 892.362 191.516L925.945 178.037C926.407 177.806 926.715 177.421 926.715 176.959Z" fill="white"/>
<path d="M701.879 237.038L592.889 353.654C592.503 354.116 592.503 354.809 592.966 355.194C593.197 355.425 593.428 355.502 593.736 355.502C594.044 355.502 594.352 355.348 594.583 355.117L703.496 238.578C702.803 238.27 702.264 237.731 701.879 237.038Z" fill="white"/>
<path d="M763.499 174.416L859.549 71.588C859.934 71.1258 859.934 70.4326 859.472 70.0475C859.01 69.6623 858.317 69.6623 857.931 70.1245L761.881 172.876C762.574 173.184 763.114 173.723 763.499 174.416Z" fill="white"/>
<path d="M756.721 178.345L706.963 231.569C707.656 231.877 708.195 232.416 708.58 233.11L758.261 179.885C757.645 179.577 757.106 179.038 756.721 178.345Z" fill="white"/>
<path d="M763.884 175.264C763.807 174.956 763.653 174.648 763.499 174.417C763.114 173.723 762.575 173.261 761.881 172.876C761.342 172.568 760.726 172.414 760.11 172.414C758.338 172.414 756.875 173.647 756.336 175.264C756.259 175.649 756.104 175.957 756.104 176.342C756.104 176.727 756.259 177.113 756.336 177.421C756.413 177.729 756.567 178.037 756.721 178.268C757.106 178.961 757.645 179.423 758.338 179.808C758.877 180.117 759.494 180.271 760.11 180.271C761.881 180.271 763.345 179.038 763.884 177.421C763.961 177.036 764.115 176.727 764.115 176.342C764.115 176.034 763.961 175.649 763.884 175.264Z" fill="white"/>
<path d="M707.04 231.569C706.886 231.492 706.654 231.415 706.423 231.415C706.038 231.338 705.73 231.184 705.345 231.184C704.96 231.184 704.575 231.338 704.267 231.415C702.649 231.877 701.417 233.341 701.417 235.189C701.417 235.883 701.648 236.499 701.956 237.115C702.341 237.808 702.88 238.347 703.573 238.655C703.805 238.81 704.036 238.887 704.267 238.964C704.652 239.041 704.96 239.195 705.345 239.195C705.73 239.195 706.115 239.041 706.423 238.964C708.041 238.501 709.273 237.038 709.273 235.189C709.273 234.419 708.965 233.726 708.657 233.11C708.272 232.416 707.733 231.877 707.04 231.569Z" fill="white"/>
<path d="M675.844 161.476C675.613 165.789 676.692 168.639 679.079 169.872C679.85 170.257 680.697 170.411 681.544 170.411C682.468 170.411 683.47 170.18 684.394 169.718C686.012 168.947 687.321 167.638 688.168 166.637C690.556 163.941 692.405 160.937 693.791 157.625C694.947 154.775 695.409 152.387 695.255 150.153C695.024 147.226 693.483 144.608 691.249 143.298C689.17 142.143 686.551 142.066 684.163 143.067C682.16 143.914 680.389 145.455 678.925 147.534C678.617 147.997 678.694 148.69 679.156 148.998C678.617 149.845 678.155 150.769 677.77 151.694C676.383 155.16 675.998 158.703 675.844 161.476ZM679.773 152.618C681.005 149.691 682.931 147.38 685.318 146.148C685.781 145.917 686.012 145.301 685.858 144.839C687.398 144.453 688.939 144.607 690.171 145.301C691.788 146.225 692.867 148.151 693.098 150.384C693.252 152.233 692.867 154.313 691.788 156.854C690.556 159.935 688.785 162.708 686.551 165.25C685.704 166.175 684.702 167.253 683.47 167.792C682.314 168.331 681.005 168.408 680.081 167.946C678.54 167.176 677.847 165.019 678.078 161.63C678.232 159.011 678.54 155.699 679.773 152.618Z" fill="white"/>
<path d="M750.097 53.9495C748.556 55.9521 747.093 56.9535 745.629 57.1845C743.088 57.5697 740.623 55.3359 739.853 52.9481C738.928 50.0982 739.622 46.9402 740.315 44.3984C740.469 43.7052 740.7 43.0889 740.931 42.3957C741.624 40.085 742.394 37.6202 742.548 35.1554C742.548 34.5392 742.086 34 741.47 34C740.854 34 740.315 34.4621 740.315 35.0783C740.161 37.312 739.545 39.5458 738.851 41.7795C738.62 42.4727 738.466 43.166 738.235 43.8592C737.465 46.6321 736.695 50.2523 737.773 53.6414C738.774 56.6454 741.624 59.4183 745.013 59.4183C745.321 59.4183 745.629 59.4182 746.015 59.3412C747.247 59.1101 748.248 58.571 749.173 57.8778C749.866 55.9521 750.559 54.1035 751.252 52.1779C750.944 52.7941 750.559 53.4103 750.097 53.9495Z" fill="white"/>
<path d="M757.26 44.0132C757.337 43.6281 757.183 43.3199 757.029 43.0889C755.796 46.478 754.564 49.8671 753.332 53.2562C755.18 50.4063 756.49 47.2482 757.26 44.0132Z" fill="white"/>
<path d="M725.449 82.6794C724.447 85.2983 724.524 88.5334 725.757 91.7684C726.835 94.5413 728.453 97.0061 730.07 99.3939C730.301 99.702 730.609 99.8561 730.994 99.8561C731.148 99.8561 731.302 99.856 731.457 99.779C736.386 97.4683 738.697 92.2306 740.7 86.9929C742.933 81.139 745.167 75.208 747.401 69.2001C757.106 63.8083 767.042 58.8017 777.055 54.2572C777.595 54.0262 777.826 53.3329 777.595 52.7937C777.363 52.2546 776.67 52.0235 776.131 52.2545C766.811 56.4909 757.568 61.1125 748.556 66.0421C750.174 61.7287 751.714 57.4923 753.255 53.1789C754.487 49.7898 755.719 46.4006 756.952 43.0115C757.414 41.7021 757.876 40.3927 758.338 39.0833C758.569 38.4671 758.261 37.8509 757.645 37.6968C757.029 37.4658 756.413 37.7738 756.259 38.39C754.641 43.0115 752.87 47.556 751.252 52.1775C750.559 54.1032 749.865 55.9518 749.172 57.8774C747.94 61.1125 746.785 64.4245 745.629 67.6596C741.778 69.8163 737.927 71.973 734.152 74.2837C730.532 76.4404 726.989 78.8282 725.449 82.6794ZM735.231 76.2864C738.235 74.5148 741.316 72.7433 744.397 70.9717C742.471 76.0553 740.546 81.216 738.62 86.2996C736.925 90.7671 735 95.2346 731.302 97.3913C729.916 95.3886 728.607 93.3089 727.759 91.0752C726.758 88.3793 726.604 85.6835 727.451 83.5268C728.761 80.2917 731.919 78.289 735.231 76.2864Z" fill="white"/>
<path d="M937.037 196.215C936.728 195.675 936.035 195.521 935.496 195.829C934.957 196.137 934.803 196.831 935.111 197.37L941.042 207.306C941.504 206.69 942.043 206.074 942.505 205.458L937.037 196.215Z" fill="white"/>
<path d="M949.283 221.248C949.514 221.633 949.822 221.787 950.208 221.787C950.439 221.787 950.593 221.71 950.747 221.633C951.286 221.325 951.44 220.631 951.132 220.092L943.66 207.537C943.121 208.153 942.659 208.77 942.197 209.386L949.283 221.248Z" fill="white"/>
<path d="M958.912 194.135C959.451 193.827 959.528 193.134 959.22 192.595C958.912 192.056 958.218 191.979 957.679 192.287C952.056 195.984 946.973 200.451 942.582 205.535C942.043 206.151 941.581 206.767 941.119 207.384C937.268 212.082 933.955 217.243 931.337 222.712C931.105 223.251 931.337 223.944 931.876 224.175C932.03 224.252 932.184 224.252 932.338 224.252C932.723 224.252 933.185 224.021 933.339 223.636C935.804 218.552 938.808 213.777 942.351 209.386C942.813 208.77 943.352 208.154 943.815 207.538C948.128 202.454 953.212 197.909 958.912 194.135Z" fill="white"/>
<path d="M900.219 66.4274C902.221 62.114 904.378 57.6465 907.151 53.7952C910.232 49.5589 913.929 46.5549 917.857 45.0144C919.552 44.3982 921.863 44.0901 922.864 45.3995C923.634 46.4009 923.249 47.9414 922.479 48.9427C921.554 50.1751 920.091 50.9454 918.705 51.7156C918.165 52.0237 917.934 52.7169 918.242 53.2561C918.55 53.7953 919.244 54.0263 919.783 53.7182C921.323 52.871 923.095 51.9466 924.327 50.3291C925.56 48.7116 926.176 46.0928 924.635 44.0901C922.864 41.7794 919.552 42.0104 917.087 43.0117C912.774 44.6293 908.768 47.9414 905.379 52.5629C902.452 56.6452 900.296 61.1897 898.216 65.5801L888.665 85.9147L891.13 85.8377L900.219 66.4274Z" fill="white"/>
<path d="M873.876 111.795C871.873 113.182 869.177 113.721 866.867 113.259C865.711 113.028 864.094 112.412 863.015 110.794C862.707 110.255 862.014 110.178 861.475 110.486C860.936 110.794 860.859 111.487 861.167 112.026C862.322 113.798 864.171 114.953 866.482 115.416C867.175 115.57 867.791 115.647 868.484 115.647C870.795 115.647 873.183 114.953 875.108 113.644C879.268 110.794 881.578 105.941 883.427 102.013L890.051 87.9946L887.586 88.0716L881.501 101.089C879.653 104.863 877.573 109.254 873.876 111.795Z" fill="white"/>
<path d="M900.989 87.6863C901.605 87.6863 902.067 87.1472 902.067 86.531C902.067 85.9148 901.528 85.4526 900.911 85.4526L891.129 85.7607L888.665 85.8378L879.19 86.1458C878.574 86.1458 878.112 86.685 878.112 87.3012C878.112 87.9174 878.651 88.3796 879.19 88.3796L887.586 88.1485L890.051 88.0715L900.989 87.6863Z" fill="white"/>
<path d="M933.878 53.4876C920.553 69.0467 912.696 88.8421 911.695 109.331C911.695 109.947 912.157 110.486 912.773 110.486C913.39 110.486 913.852 110.024 913.852 109.408C914.853 89.4583 922.556 70.125 935.496 54.9511C935.881 54.4889 935.804 53.7957 935.342 53.4106C934.957 52.9484 934.263 53.0255 933.878 53.4876Z" fill="white"/>
<path d="M941.735 68.4306C941.658 67.8144 941.196 67.3523 940.503 67.4293C939.886 67.5063 939.424 68.0455 939.501 68.6617L940.58 82.0641C941.273 81.5249 941.966 80.9857 942.659 80.4466L941.735 68.4306Z" fill="white"/>
<path d="M941.889 98.3157C941.966 98.9319 942.428 99.317 942.968 99.317C943.661 99.2399 944.123 98.7007 944.046 98.0845L942.814 82.9106C942.12 83.4498 941.427 84.066 940.734 84.6052L941.889 98.3157Z" fill="white"/>
<path d="M924.559 97.8539C924.79 98.085 925.098 98.1621 925.329 98.1621C925.637 98.1621 925.868 98.085 926.099 97.8539C930.798 93.2324 935.727 88.919 940.811 84.7597C941.504 84.2205 942.197 83.6043 942.89 83.0651C948.436 78.6747 954.213 74.4383 960.144 70.6641C960.683 70.356 960.837 69.6628 960.452 69.1236C960.144 68.5844 959.451 68.4304 958.912 68.8155C953.289 72.4357 947.897 76.364 942.659 80.5233C941.966 81.0625 941.273 81.6017 940.58 82.1409C935.034 86.6083 929.642 91.3839 924.559 96.3905C924.096 96.6986 924.096 97.3918 924.559 97.8539Z" fill="white"/>
<path d="M973.084 52.9479C973.084 52.3317 972.622 51.8695 972.006 51.7925C971.389 51.7925 970.927 52.2546 970.927 52.8709C970.85 62.1909 970.311 74.3608 966.614 85.7605C962.917 97.1602 956.293 106.557 947.974 112.18C947.435 112.488 947.358 113.181 947.666 113.721C947.897 114.029 948.205 114.183 948.59 114.183C948.821 114.183 949.052 114.106 949.206 114.029C957.91 108.098 964.842 98.3156 968.694 86.4538C972.468 74.823 973.007 62.4219 973.084 52.9479Z" fill="white"/>
<path d="M451.2 346.2C451.7 345.7 451.6 344.9 451.2 344.4C450.8 345.3 450.5 346.2 450.1 347.1C450.5 346.8 450.9 346.5 451.2 346.2Z" fill="white"/>
<path d="M233.3 459.7H230.4V492.1H233.3V459.7Z" fill="white"/>
<path d="M233.3 318.8H230.4V351.2H233.3V318.8Z" fill="white"/>
<path d="M233.3 424.5H230.4V456.9H233.3V424.5Z" fill="white"/>
<path d="M233.3 592.2H230.4V624.6H233.3V592.2Z" fill="white"/>
<path d="M233.3 627.4H230.4V659.8H233.3V627.4Z" fill="white"/>
<path d="M233.3 556.9H230.4V589.3H233.3V556.9Z" fill="white"/>
<path d="M233.3 662.7H230.4V695.1H233.3V662.7Z" fill="white"/>
<path d="M233.3 287.5C233.3 286.7 232.7 286.1 231.9 286.1C231.1 286.1 230.5 286.7 230.5 287.5V315.9H233.4V287.5H233.3Z" fill="white"/>
<path d="M233.3 354H230.4V386.4H233.3V354Z" fill="white"/>
<path d="M233.3 389.3H230.4V421.7H233.3V389.3Z" fill="white"/>
<path d="M233.3 525.2H230.4V554.1H233.3V525.2Z" fill="white"/>
<path d="M230.4 741.3C230.4 742.1 231 742.7 231.8 742.7C232.6 742.7 233.2 742.1 233.2 741.3V733.2H230.3V741.3H230.4Z" fill="white"/>
<path d="M233.3 697.9H230.4V730.3H233.3V697.9Z" fill="white"/>
<path d="M233.3 495H230.4V522.3H233.3V495Z" fill="white"/>
<path d="M222 304.7C222.7 305 223.6 304.6 223.9 303.9L231.9 283.3L241.3 306.8C241.5 307.4 242.1 307.7 242.6 307.7C242.8 307.7 243 307.7 243.1 307.6C243.8 307.3 244.2 306.5 243.9 305.7L233.1 278.8C232.9 278.3 232.4 277.9 231.8 277.9C231.2 277.9 230.7 278.3 230.5 278.8L221.1 302.8C220.9 303.6 221.2 304.4 222 304.7Z" fill="white"/>
<path d="M331.9 522.3H299.5V525.2H331.9V522.3Z" fill="white"/>
<path d="M93.7999 522.3H61.3999V525.2H93.7999V522.3Z" fill="white"/>
<path d="M367.2 522.3H334.8V525.2H367.2V522.3Z" fill="white"/>
<path d="M164.2 522.3H131.8V525.2H164.2V522.3Z" fill="white"/>
<path d="M58.4998 522.3H26.0999V525.2H58.4998V522.3Z" fill="white"/>
<path d="M129 522.3H96.5999V525.2H129V522.3Z" fill="white"/>
<path d="M199.5 522.3H167.1V525.2H199.5V522.3Z" fill="white"/>
<path d="M470.7 522.3H440.5V525.2H470.7V522.3Z" fill="white"/>
<path d="M296.7 522.3H264.3V525.2H296.7V522.3Z" fill="white"/>
<path d="M1.59995 522.3C0.799945 522.3 0.199951 522.9 0.199951 523.7C0.199951 524.5 0.799945 525.1 1.59995 525.1H23.2V522.2H1.59995V522.3Z" fill="white"/>
<path d="M230.4 525.2H233.3H261.4V522.3H233.3H230.4H202.3V525.2H230.4Z" fill="white"/>
<path d="M437.7 522.3H405.3V525.2H437.7V522.3Z" fill="white"/>
<path d="M402.4 522.3H370V525.2H402.4V522.3Z" fill="white"/>
<path d="M539.9 525.2C540.7 525.2 541.3 524.6 541.3 523.8C541.3 523 540.7 522.4 539.9 522.4H473.6V525.3H539.9V525.2Z" fill="white"/>
<path d="M522.6 513.9C522.3 514.6 522.7 515.5 523.4 515.8L544 523.8L520.5 533.2C519.8 533.5 519.4 534.3 519.7 535.1C519.9 535.7 520.5 536 521 536C521.2 536 521.4 536 521.5 535.9L548.4 525.1C549 524.9 549.3 524.3 549.3 523.8C549.3 523.2 548.9 522.7 548.4 522.5L524.4 513.1C523.8 512.7 522.9 513.1 522.6 513.9Z" fill="white"/>
<path d="M212.1 553.6C212.2 553.6 212.4 553.6 212.5 553.6C215.2 553.3 216.5 550.4 217.1 549.2L218.4 546.3C219.4 544.1 220.2 539.5 218.1 536.8C217.3 535.7 215.7 534.6 212.7 535.2C207.4 536.2 206.5 544.8 207 548.2C207.2 549.7 207.7 550.8 208.4 551.8C209.4 553 210.8 553.6 212.1 553.6ZM213.3 538C215.1 537.7 215.7 538.4 215.9 538.6C217 539.9 216.7 543.1 215.8 545.1L214.5 548C214 549.2 213.2 550.6 212.2 550.7C211.7 550.8 211.2 550.5 210.8 550C210.4 549.5 210.1 548.8 210 547.8C209.5 544.7 210.5 538.6 213.3 538Z" fill="white"/>
<path d="M198.1 277C198.1 276.9 198 276.9 198 276.8C197.9 277.2 197.8 277.7 197.7 278.1C198 277.7 198.1 277.4 198.1 277Z" fill="white"/>
<path d="M542.7 552.4C542.8 553.1 543.4 553.6 544.1 553.6C545.1 553.5 545.7 552.7 545.5 551.9C545 548.6 543.7 545.4 541.9 542.6C541.1 543.2 540.4 543.8 539.6 544.5C541.2 547 542.3 549.6 542.7 552.4Z" fill="white"/>
<path d="M534.7 535.3C534 534.9 533.1 535.1 532.7 535.7C532.3 536.4 532.5 537.3 533.1 537.7C535 538.9 536.5 540.5 537.9 542.2C538.6 541.6 539.3 540.9 540.1 540.4C538.6 538.5 536.8 536.7 534.7 535.3Z" fill="white"/>
<path d="M555.2 534.9C555 534.1 554.2 533.7 553.4 533.9C548.6 535.2 544.1 537.4 540.1 540.4C539.3 541 538.6 541.6 537.9 542.2C534.9 544.8 532.3 547.9 530.3 551.3C529.9 552 530.1 552.9 530.8 553.3C531 553.4 531.3 553.5 531.5 553.5C532 553.5 532.5 553.2 532.7 552.8C534.5 549.7 536.9 546.9 539.6 544.6C540.3 543.9 541.1 543.3 541.9 542.7C545.5 539.9 549.7 537.9 554.1 536.7C555 536.4 555.4 535.7 555.2 534.9Z" fill="white"/>
<path d="M237.2 495C238 495 238.6 494.4 238.6 493.6C238.6 492.8 238 492.2 237.2 492.2H233.3H230.4H226.5C225.7 492.2 225.1 492.8 225.1 493.6C225.1 494.4 225.7 495 226.5 495H230.4H233.3H237.2Z" fill="white"/>
<path d="M237.2 459.7C238 459.7 238.6 459.1 238.6 458.3C238.6 457.5 238 456.9 237.2 456.9H233.3H230.4H226.5C225.7 456.9 225.1 457.5 225.1 458.3C225.1 459.1 225.7 459.7 226.5 459.7H230.4H233.3H237.2Z" fill="white"/>
<path d="M237.2 424.5C238 424.5 238.6 423.9 238.6 423.1C238.6 422.3 238 421.7 237.2 421.7H233.3H230.4H226.5C225.7 421.7 225.1 422.3 225.1 423.1C225.1 423.9 225.7 424.5 226.5 424.5H230.4H233.3H237.2Z" fill="white"/>
<path d="M237.2 389.3C238 389.3 238.6 388.7 238.6 387.9C238.6 387.1 238 386.5 237.2 386.5H233.3H230.4H226.5C225.7 386.5 225.1 387.1 225.1 387.9C225.1 388.7 225.7 389.3 226.5 389.3H230.4H233.3H237.2Z" fill="white"/>
<path d="M237.2 354C238 354 238.6 353.4 238.6 352.6C238.6 351.8 238 351.2 237.2 351.2H233.3H230.4H226.5C225.7 351.2 225.1 351.8 225.1 352.6C225.1 353.4 225.7 354 226.5 354H230.4H233.3H237.2Z" fill="white"/>
<path d="M237.2 318.8C238 318.8 238.6 318.2 238.6 317.4C238.6 316.6 238 316 237.2 316H233.3H230.4H226.5C225.7 316 225.1 316.6 225.1 317.4C225.1 318.2 225.7 318.8 226.5 318.8H230.4H233.3H237.2Z" fill="white"/>
<path d="M226.6 730.3C225.8 730.3 225.2 730.9 225.2 731.7C225.2 732.5 225.8 733.1 226.6 733.1H230.5H233.4H237.3C238.1 733.1 238.7 732.5 238.7 731.7C238.7 730.9 238.1 730.3 237.3 730.3H233.4H230.5H226.6Z" fill="white"/>
<path d="M226.6 695C225.8 695 225.2 695.6 225.2 696.4C225.2 697.2 225.8 697.8 226.6 697.8H230.5H233.4H237.3C238.1 697.8 238.7 697.2 238.7 696.4C238.7 695.6 238.1 695 237.3 695H233.4H230.5H226.6Z" fill="white"/>
<path d="M226.6 659.8C225.8 659.8 225.2 660.4 225.2 661.2C225.2 662 225.8 662.6 226.6 662.6H230.5H233.4H237.3C238.1 662.6 238.7 662 238.7 661.2C238.7 660.4 238.1 659.8 237.3 659.8H233.4H230.5H226.6Z" fill="white"/>
<path d="M226.6 624.5C225.8 624.5 225.2 625.1 225.2 625.9C225.2 626.7 225.8 627.3 226.6 627.3H230.5H233.4H237.3C238.1 627.3 238.7 626.7 238.7 625.9C238.7 625.1 238.1 624.5 237.3 624.5H233.4H230.5H226.6Z" fill="white"/>
<path d="M226.6 589.3C225.8 589.3 225.2 589.9 225.2 590.7C225.2 591.5 225.8 592.1 226.6 592.1H230.5H233.4H237.3C238.1 592.1 238.7 591.5 238.7 590.7C238.7 589.9 238.1 589.3 237.3 589.3H233.4H230.5H226.6Z" fill="white"/>
<path d="M226.6 554C225.8 554 225.2 554.6 225.2 555.4C225.2 556.2 225.8 556.8 226.6 556.8H230.5H233.4H237.3C238.1 556.8 238.7 556.2 238.7 555.4C238.7 554.6 238.1 554 237.3 554H233.4H230.5H226.6Z" fill="white"/>
<path d="M199.4 529.8C199.4 530.6 200 531.2 200.8 531.2C201.6 531.2 202.2 530.6 202.2 529.8V525.2V522.3V519.2C202.2 518.4 201.6 517.8 200.8 517.8C200 517.8 199.4 518.4 199.4 519.2V522.3V525.2V529.8Z" fill="white"/>
<path d="M164.2 525.2V529.8C164.2 530.6 164.8 531.2 165.6 531.2C166.4 531.2 167 530.6 167 529.8V525.2V522.3V519.2C167 518.4 166.4 517.8 165.6 517.8C164.8 517.8 164.2 518.4 164.2 519.2V522.3V525.2Z" fill="white"/>
<path d="M131.8 519.2C131.8 518.4 131.2 517.8 130.4 517.8C129.6 517.8 129 518.4 129 519.2V522.3V525.2V529.8C129 530.6 129.6 531.2 130.4 531.2C131.2 531.2 131.8 530.6 131.8 529.8V525.2V522.3V519.2Z" fill="white"/>
<path d="M96.5999 519.2C96.5999 518.4 96 517.8 95.2 517.8C94.4 517.8 93.7999 518.4 93.7999 519.2V522.3V525.2V529.8C93.7999 530.6 94.4 531.2 95.2 531.2C96 531.2 96.5999 530.6 96.5999 529.8V525.2V522.3V519.2Z" fill="white"/>
<path d="M61.3998 519.2C61.3998 518.4 60.7998 517.8 59.9998 517.8C59.1998 517.8 58.5999 518.4 58.5999 519.2V522.3V525.2V529.8C58.5999 530.6 59.1998 531.2 59.9998 531.2C60.7998 531.2 61.3998 530.6 61.3998 529.8V525.2V522.3V519.2Z" fill="white"/>
<path d="M26.0999 519.2C26.0999 518.4 25.5 517.8 24.7 517.8C23.9 517.8 23.2999 518.4 23.2999 519.2V522.3V525.2V529.8C23.2999 530.6 23.9 531.2 24.7 531.2C25.5 531.2 26.0999 530.6 26.0999 529.8V525.2V522.3V519.2Z" fill="white"/>
<path d="M437.6 529.8C437.6 530.6 438.2 531.2 439 531.2C439.8 531.2 440.4 530.6 440.4 529.8V525.2V522.3V519.2C440.4 518.4 439.8 517.8 439 517.8C438.2 517.8 437.6 518.4 437.6 519.2V522.3V525.2V529.8Z" fill="white"/>
<path d="M470.7 529.8C470.7 530.6 471.3 531.2 472.1 531.2C472.9 531.2 473.5 530.6 473.5 529.8V525.2V522.3V519.2C473.5 518.4 472.9 517.8 472.1 517.8C471.3 517.8 470.7 518.4 470.7 519.2V522.3V525.2V529.8Z" fill="white"/>
<path d="M402.4 529.8C402.4 530.6 403 531.2 403.8 531.2C404.6 531.2 405.2 530.6 405.2 529.8V525.2V522.3V519.2C405.2 518.4 404.6 517.8 403.8 517.8C403 517.8 402.4 518.4 402.4 519.2V522.3V525.2V529.8Z" fill="white"/>
<path d="M367.1 529.8C367.1 530.6 367.7 531.2 368.5 531.2C369.3 531.2 369.9 530.6 369.9 529.8V525.2V522.3V519.2C369.9 518.4 369.3 517.8 368.5 517.8C367.7 517.8 367.1 518.4 367.1 519.2V522.3V525.2V529.8Z" fill="white"/>
<path d="M331.9 529.8C331.9 530.6 332.5 531.2 333.3 531.2C334.1 531.2 334.7 530.6 334.7 529.8V525.2V522.3V519.2C334.7 518.4 334.1 517.8 333.3 517.8C332.5 517.8 331.9 518.4 331.9 519.2V522.3V525.2V529.8Z" fill="white"/>
<path d="M296.6 529.8C296.6 530.6 297.2 531.2 298 531.2C298.8 531.2 299.4 530.6 299.4 529.8V525.2V522.3V519.2C299.4 518.4 298.8 517.8 298 517.8C297.2 517.8 296.6 518.4 296.6 519.2V522.3V525.2V529.8Z" fill="white"/>
<path d="M261.4 529.8C261.4 530.6 262 531.2 262.8 531.2C263.6 531.2 264.2 530.6 264.2 529.8V525.2V522.3V519.2C264.2 518.4 263.6 517.8 262.8 517.8C262 517.8 261.4 518.4 261.4 519.2V522.3V525.2V529.8Z" fill="white"/>
<path d="M439.1 504.2C439.9 504.2 440.5 503.6 440.5 502.8C440.5 502 439.9 501.4 439.1 501.4C276.1 501.4 262.4 406.5 262.4 317.5C262.4 316.7 261.8 316.1 261 316.1C260.2 316.1 259.6 316.7 259.6 317.5C259.6 361.3 263.1 410.9 289.4 447.3C317 485.5 366 504.2 439.1 504.2Z" fill="white"/>
<path d="M205.8 735.6C205.8 736.4 206.4 737 207.2 737C208 737 208.6 736.4 208.6 735.6C208.6 691.8 205.1 642.2 178.8 605.7C151.1 567.4 102.2 548.7 29.0999 548.7C28.2999 548.7 27.7 549.3 27.7 550.1C27.7 550.9 28.2999 551.5 29.0999 551.5C192.2 551.7 205.8 646.6 205.8 735.6Z" fill="white"/>
<path d="M113 420.029L113 420.014V420C113 403.986 117.928 393.678 125.583 386.351C133.291 378.972 143.846 374.532 155.296 370.451C157.538 369.651 159.815 368.866 162.11 368.076C183.07 360.851 205.46 353.134 215.915 329.403C221.752 316.155 220.06 303.787 214.699 292.035C209.361 280.332 200.348 269.165 191.467 258.253L190.948 257.615C182.205 246.874 173.664 236.382 168.653 225.702C163.569 214.865 162.17 203.942 167.895 192.446C180.786 166.561 207.926 162.753 235.381 163.235C242.016 163.352 248.636 163.718 255.048 164.072L255.648 164.105C262.238 164.469 268.607 164.813 274.496 164.844C280.383 164.876 285.832 164.596 290.583 163.701C295.332 162.807 299.45 161.286 302.619 158.785L302.718 158.708L302.794 158.609C310.472 148.594 313.366 134.699 314.441 119.423C315.134 109.575 315.075 99.0255 315.015 88.472C314.982 82.6729 314.949 76.8726 315.041 71.1862C315.303 55.0691 316.563 39.7984 321.545 27.5281C326.501 15.3262 335.134 6.09053 350.263 1.96465C360.852 -0.923193 377.449 3.02943 394.801 14.7764C412.1 26.4878 429.985 45.8471 443.097 73.4296C453.386 95.0749 465.418 103.607 479.014 104.106C492.427 104.599 507.051 97.2289 522.453 87.9929C526.439 85.6023 530.483 83.0834 534.583 80.5293C546.429 73.1506 558.745 65.4782 571.516 59.7589C588.656 52.0828 606.435 48.0158 624.681 52.9495C637.351 58.0838 644.766 67.0954 649.369 78.2567C653.998 89.4803 655.768 102.845 657.121 116.599C657.349 118.91 657.564 121.232 657.78 123.556C658.843 135.008 659.909 146.501 662.409 156.861C665.42 169.344 670.547 180.351 680.397 187.798C690.208 195.215 706.304 199.212 724.861 202.331C732.705 203.65 741.033 204.817 749.563 206.012C751.154 206.235 752.753 206.459 754.356 206.685C764.563 208.125 774.989 209.652 785.204 211.572C805.652 215.415 825.158 220.813 840.281 230.14C855.362 239.441 866.066 252.635 869.011 272.149C871.946 291.599 864.399 306.37 851.17 318.607C837.892 330.889 818.953 340.552 799.271 349.684C795.425 351.469 791.551 353.233 787.687 354.992C771.838 362.209 756.168 369.344 743.402 377.452C727.534 387.53 715.86 399.287 714.007 414.882C712.176 430.286 716.781 445.381 724.058 460.207C729.666 471.632 736.908 482.984 744.091 494.243C746.218 497.578 748.341 500.906 750.415 504.224C768.659 533.426 783.028 561.888 765.987 590.938C757.505 605.395 744.745 610.945 729.732 611.739C714.648 612.538 697.374 608.525 680.058 603.873C677.127 603.086 674.194 602.28 671.271 601.476C657 597.555 642.972 593.7 630.591 592.399C615.673 590.832 602.772 592.931 594.654 603.439C586.731 613.696 582.703 625.717 580.186 638.113C578.627 645.79 577.634 653.706 576.663 661.447C576.074 666.143 575.492 670.775 574.798 675.251C572.944 687.194 570.272 698.167 564.536 707.012C558.846 715.785 550.088 722.543 535.89 725.998C518.603 725.654 506.09 718.273 496.003 707.332C485.852 696.322 478.188 681.743 470.642 667.096C470.372 666.572 470.102 666.048 469.832 665.524C462.591 651.459 455.376 637.443 446.112 626.911C436.461 615.939 424.527 608.678 407.981 609C378.016 609.584 356.221 618.582 337.74 626.212C336.128 626.878 334.54 627.533 332.975 628.172C313.503 636.114 297.603 641.36 278.608 632.183C269.541 622.291 265.681 612.923 264.717 603.636C263.744 594.265 265.708 584.893 268.424 574.992C269.093 572.556 269.807 570.089 270.531 567.585C275.674 549.82 281.346 530.228 274.965 506.738C271.219 492.947 258.655 485.958 242.532 481.801C230.281 478.642 215.713 477.056 200.908 475.445C196.216 474.934 191.501 474.421 186.828 473.854C167.317 471.488 148.529 468.19 134.772 460.381C127.916 456.489 122.341 451.492 118.548 444.954C114.756 438.419 112.704 430.276 113 420.029Z" fill="url(#paint0_linear_1130_1243)" stroke="white" stroke-width="2"/>
<path d="M162.129 126.016C162.317 126.116 162.517 126.15 162.716 126.183C163.714 126.352 164.79 126.054 165.668 125.312C166.468 124.626 167.024 123.762 167.58 122.898C172.974 114.024 179.664 105.984 187.351 98.9321C187.751 98.589 187.785 97.9791 187.442 97.5792C187.099 97.1794 186.489 97.145 186.089 97.4881C178.247 104.65 171.534 112.823 165.962 121.941C165.495 122.684 165.106 123.371 164.55 123.824C164.15 124.167 163.484 124.466 162.975 124.243C162.199 123.976 161.924 122.766 161.693 121.701L158.407 103.84C158.286 103.34 157.799 102.985 157.311 103.039C156.745 103.149 156.456 103.648 156.51 104.136L159.796 121.997C159.926 123.661 160.455 125.392 162.129 126.016Z" fill="white"/>
<path d="M216.166 117.126C216.256 116.594 215.935 116.061 215.403 115.971L197.364 112.591C196.843 112.435 196.299 112.822 196.209 113.354C196.12 113.886 196.441 114.419 196.973 114.509L215.011 117.889C215.599 118.057 216.076 117.658 216.166 117.126Z" fill="white"/>
<path d="M197.509 125.134L214.285 127.481C214.817 127.571 215.295 127.172 215.384 126.64C215.474 126.108 215.076 125.63 214.543 125.541L197.767 123.194C197.235 123.104 196.758 123.503 196.668 124.035C196.656 124.512 196.977 125.045 197.509 125.134Z" fill="white"/>
<path d="M247.264 136.388C247.871 138.064 249.489 138.61 251.019 138.867C251.285 138.912 251.618 138.968 251.884 139.013C256.652 139.543 261.543 139.751 266.389 139.814C266.933 139.838 267.355 139.361 267.378 138.818C267.401 138.275 266.925 137.852 266.381 137.829C261.59 137.843 256.777 137.58 252.076 137.062C250.324 136.903 249.371 136.469 249.15 135.748C248.819 134.871 249.686 133.786 250.186 133.254L250.531 132.833C251.364 131.948 252.286 130.94 252.521 129.543C252.589 129.144 252.39 128.7 252.013 128.5C251.636 128.299 251.137 128.42 250.881 128.719C248.526 131.333 245.34 133.19 241.911 134.05C240.768 134.336 239.404 134.311 238.918 133.545C238.597 133.013 238.743 132.148 238.921 131.494C239.647 128.401 240.938 126.018 242.715 124.402C244.748 122.487 247.544 121.727 249.828 122.385C252.244 123.066 254.003 125.619 253.556 127.87C253.466 128.402 253.787 128.935 254.319 129.025C254.918 129.126 255.384 128.794 255.474 128.262C256.078 125.08 253.733 121.538 250.341 120.556C247.403 119.719 243.886 120.7 241.376 123.014C239.343 124.929 237.863 127.621 237.014 131.036C236.769 132.089 236.533 133.486 237.23 134.629C238.093 136.006 239.988 136.531 242.34 135.969C244.116 135.584 245.814 134.844 247.39 134.015C246.989 134.768 246.988 135.589 247.264 136.388Z" fill="white"/>
<path d="M278.49 126.05C276.783 125.625 275.266 124.481 274.359 122.96C274.094 122.504 273.506 122.337 273.051 122.602C272.596 122.868 272.428 123.455 272.694 123.911C273.799 125.875 275.793 127.443 278.032 127.957C278.232 127.99 278.365 128.013 278.565 128.046C280.627 128.394 282.89 127.954 284.667 126.748C285.977 125.874 286.777 124.778 287.057 123.525C287.593 121.152 285.778 118.931 283.805 118.052C285.005 117.022 285.884 115.46 285.41 113.807C285.046 112.309 283.595 111.175 281.976 111.039C280.568 110.871 279.103 111.445 278.026 112.563C277.615 112.973 277.647 113.594 278.001 113.927C278.344 114.327 279.032 114.306 279.365 113.952C280.032 113.243 280.909 112.912 281.718 112.98C282.528 113.048 283.247 113.648 283.479 114.302C283.721 115.301 282.843 116.453 281.933 116.984C281.489 117.183 280.979 117.37 280.49 117.425C279.537 117.401 278.561 117.51 277.729 117.575C277.241 117.63 276.818 118.106 276.873 118.594C276.928 119.082 277.337 119.493 277.814 119.505C278.635 119.507 279.666 119.475 280.642 119.366C281.463 119.367 282.261 119.502 282.959 119.825C284.234 120.381 285.374 121.736 285.139 123.133C284.904 124.12 284.104 124.806 283.571 125.127C282.106 126.112 280.198 126.474 278.49 126.05Z" fill="white"/>
<path d="M777.529 451.351C776.477 451.906 775.604 452.05 775.004 451.813C774.027 451.459 773.559 450.123 773.223 449.035C771.877 444.684 771.214 440.129 771.301 435.496C771.32 434.933 770.841 434.474 770.277 434.455C769.714 434.436 769.255 434.915 769.236 435.479C769.152 440.268 769.85 445.041 771.233 449.611C771.703 451.102 772.464 452.995 774.23 453.645C775.43 454.119 776.834 453.932 778.381 453.117C778.443 453.084 778.505 453.051 778.567 453.019C780.237 452.137 781.679 450.823 782.835 449.265C782.746 448.046 782.689 446.89 782.538 445.704C781.622 448.164 779.851 450.206 777.529 451.351Z" fill="white"/>
<path d="M771.663 475.167C769.467 479.252 769.222 482.386 770.805 484.636C772.514 486.977 775.496 487.382 778.19 487.542C779.757 487.665 781.354 487.693 782.653 487.007C782.901 486.877 783.148 486.746 783.425 486.521C785.024 485.203 785.26 483.102 785.343 481.16C785.74 473.516 785.762 465.911 785.439 458.252C788.394 454.557 791.506 450.86 794.526 447.289C794.861 446.875 794.848 446.25 794.401 445.853C793.987 445.518 793.362 445.531 792.964 445.978C790.37 449.007 787.776 452.036 785.248 455.189C785.056 452.127 784.832 449.002 784.578 445.972C784.532 445.285 784.424 444.63 784.377 443.943C784.098 441.164 783.789 438.479 783.448 435.733C783.405 435.202 782.864 434.776 782.271 434.851C781.74 434.894 781.314 435.435 781.389 436.028C781.835 439.273 782.187 442.488 782.509 445.798C782.598 447.017 782.716 448.141 782.805 449.359C782.99 452.109 783.27 454.888 783.36 457.608C779.068 463.115 775 468.899 771.663 475.167ZM783.401 481.077C783.307 482.55 783.123 484.149 782.202 484.952C781.31 485.66 779.902 485.69 778.397 485.535C776.171 485.364 773.662 485.106 772.468 483.442C771.34 481.902 771.693 479.422 773.436 476.13C776.354 470.716 779.842 465.633 783.584 460.733C783.763 467.519 783.724 474.342 783.401 481.077Z" fill="white"/>
<path d="M804.336 417.755C804.597 418.25 805.197 418.487 805.692 418.226C805.692 418.226 818.543 412.001 818.605 411.969C819.1 411.708 819.275 411.141 819.014 410.646C818.753 410.151 818.153 409.913 817.658 410.174L804.807 416.399C804.374 416.628 804.137 417.227 804.336 417.755Z" fill="white"/>
<path d="M819.788 416.011C815.701 418.009 811.584 420.101 807.566 422.379C807.071 422.64 806.928 423.269 807.189 423.764C807.45 424.259 808.017 424.434 808.574 424.14C812.531 421.895 816.585 419.836 820.735 417.805C821.23 417.544 821.405 416.977 821.144 416.482C820.883 415.987 820.283 415.75 819.788 416.011Z" fill="white"/>
<path d="M841.257 406.031C840.533 405.859 839.781 405.782 839.035 406.017C837.478 406.364 835.537 407.783 834.854 412.335C834.75 413.339 834.618 414.437 835.111 415.521C835.47 416.202 836.171 416.781 836.927 417.015C837.494 417.191 838.087 417.115 838.582 416.854C838.644 416.822 838.705 416.789 838.767 416.756C839.415 416.335 839.682 415.641 839.89 415.136C840.722 413.115 841.646 410.967 842.442 408.728C842.569 408.819 842.758 408.878 842.885 408.969C843.518 409.268 844.182 409.629 844.877 409.896C847.905 410.988 851.608 410.062 854.401 407.561C857.071 405.125 858.531 401.745 859.418 399.378C859.626 398.873 859.333 398.316 858.827 398.108C858.322 397.9 857.765 398.194 857.557 398.699C856.79 400.844 855.451 404.002 853.149 406.086C850.938 408.043 847.951 408.827 845.68 407.969C845.113 407.794 844.542 407.462 843.972 407.13C843.75 407.01 843.528 406.89 843.307 406.769C845.845 399.736 847.803 391.901 846.727 384.164C846.435 382.262 845.659 381.09 844.43 380.709C842.573 380.187 841.046 381.941 840.591 382.577C839.37 384.011 838.215 385.57 838.226 387.541C838.192 388.825 838.877 390.124 839.989 390.882C840.846 391.458 841.882 391.623 842.781 391.228C843.309 391.029 843.546 390.429 843.347 389.902C843.148 389.374 842.548 389.137 842.02 389.336C841.678 389.437 841.362 389.288 841.141 389.167C840.632 388.803 840.273 388.122 840.292 387.559C840.327 386.275 841.238 385.003 842.214 383.856C842.947 382.995 843.562 382.512 843.973 382.691C844.351 382.808 844.677 383.427 844.857 384.518C845.577 391.731 843.675 399.22 841.257 406.031ZM837.964 414.333C837.843 414.555 837.726 414.933 837.603 414.998C837.541 415.031 837.446 415.001 837.446 415.001C837.257 414.943 837.003 414.761 836.905 414.575C836.644 414.08 836.721 413.327 836.799 412.575C837.012 410.88 837.594 408.834 838.955 408.115C839.141 408.018 839.264 407.952 839.483 407.916C839.825 407.815 840.17 407.87 840.516 407.925C839.719 410.164 838.796 412.312 837.964 414.333Z" fill="white"/>
<path d="M888.632 390.138C888.952 390.444 889.421 390.434 889.731 390.271C889.854 390.206 889.978 390.14 890.007 390.046C890.343 389.632 890.329 389.006 889.882 388.609C886.345 385.651 882.686 382.914 878.905 380.242C878.732 380.966 878.56 381.689 878.45 382.38C881.978 384.869 885.382 387.424 888.632 390.138Z" fill="white"/>
<path d="M871.093 375.03C870.617 374.727 869.995 374.897 869.692 375.373C869.39 375.849 869.56 376.471 870.036 376.774C872.289 378.195 874.479 379.65 876.67 381.104C876.842 380.381 876.952 379.69 877.124 378.967C875.155 377.633 873.124 376.331 871.093 375.03Z" fill="white"/>
<path d="M876.22 394.945C876.376 394.942 876.595 394.906 876.718 394.841C877.028 394.678 877.239 394.329 877.294 393.983C877.366 390.07 877.783 386.212 878.545 382.409C878.655 381.718 878.889 380.962 878.999 380.272C879.654 377.316 880.404 374.389 881.376 371.583C881.584 371.078 881.258 370.459 880.785 370.313C880.28 370.105 879.661 370.431 879.515 370.904C878.54 373.554 877.849 376.291 877.219 378.996C877.047 379.719 876.875 380.443 876.765 381.134C875.885 385.315 875.446 389.58 875.29 393.933C875.239 394.435 875.656 394.926 876.22 394.945Z" fill="white"/>
<path d="M894.027 348.934C894.412 349.364 895.008 349.445 895.438 349.06C895.867 348.675 895.948 348.079 895.564 347.649C894.663 346.542 894.346 344.89 894.85 343.596C895.058 343.091 895.422 342.583 895.797 342.543C896.015 342.507 896.364 342.719 896.589 342.995C896.879 343.396 897.078 343.924 897.183 344.422C897.971 347.565 897.704 351.107 896.498 354.669C895.899 354.432 895.143 354.198 894.302 354.404C893.149 354.617 891.951 355.644 892.043 357.019C892.122 357.769 892.543 358.417 893.241 358.839C894.066 359.354 895.16 359.33 895.965 358.905C896.583 358.579 897.104 358.067 897.436 357.497C897.752 357.646 898.068 357.796 898.414 357.851C899.548 358.202 900.796 358.018 901.909 357.431C901.971 357.398 902.033 357.365 902.095 357.333C903.238 356.651 904.091 355.568 904.347 354.405C904.461 353.871 904.167 353.314 903.632 353.2C903.098 353.087 902.541 353.38 902.428 353.915C902.223 354.576 901.767 355.212 901.087 355.571C900.406 355.93 899.628 356.103 898.966 355.899C898.777 355.84 898.493 355.753 898.272 355.632C899.718 351.627 899.975 347.616 899.115 344.036C898.974 343.319 898.706 342.511 898.191 341.834C897.516 341.004 896.535 340.493 895.567 340.608C894.443 340.726 893.46 341.561 892.927 342.95C892.186 344.843 892.582 347.244 894.027 348.934ZM895.109 356.984C894.862 357.115 894.516 357.059 894.295 356.939C894.2 356.91 894.168 356.848 894.135 356.786C894.131 356.63 894.284 356.47 894.47 356.372C894.532 356.339 894.594 356.307 894.688 356.336C894.968 356.267 895.314 356.322 895.725 356.501C895.51 356.694 895.357 356.853 895.109 356.984Z" fill="white"/>
<path d="M137.816 290.35L199.184 295.714L163.802 346.203L137.816 290.35Z" fill="#FFCCCB"/>
<path fill-rule="evenodd" clip-rule="evenodd" d="M163.802 346.203L199.184 295.714L137.816 290.35L163.802 346.203ZM141.932 294.455L164.153 342.217L179.281 320.629L141.932 294.455ZM180.429 318.992L195.557 297.404L143.08 292.817L180.429 318.992Z" fill="white"/>
<path d="M651 633.5C651 647.031 640.031 658 626.5 658C612.969 658 602 647.031 602 633.5C602 619.969 612.969 609 626.5 609C640.031 609 651 619.969 651 633.5Z" fill="#FEE9C4"/>
<path fill-rule="evenodd" clip-rule="evenodd" d="M626.5 656C638.926 656 649 645.926 649 633.5C649 621.074 638.926 611 626.5 611C614.074 611 604 621.074 604 633.5C604 645.926 614.074 656 626.5 656ZM626.5 658C640.031 658 651 647.031 651 633.5C651 619.969 640.031 609 626.5 609C612.969 609 602 619.969 602 633.5C602 647.031 612.969 658 626.5 658Z" fill="white"/>
<defs>
<linearGradient id="paint0_linear_1130_1243" x1="261.863" y1="29.1497" x2="784.567" y2="822.33" gradientUnits="userSpaceOnUse">
<stop stop-color="#FFCACC"/>
<stop offset="1" stop-color="#FEFFBF"/>
</linearGradient>
</defs>
</svg>
