<svg width="24" height="24" viewBox="0 0 24 24" fill="none" xmlns="http://www.w3.org/2000/svg">
<g clip-path="url(#clip0_1600_544)">
<path d="M21 3V17H7V3H21ZM21 1H7C5.89 1 5 1.9 5 3V17C5 18.1 5.89 19 7 19H21C22.1 19 23 18.1 23 17V3C23 1.9 22.1 1 21 1ZM14 10C12.35 10 11 8.65 11 7C11 5.35 12.35 4 14 4C15.65 4 17 5.35 17 7C17 8.65 15.65 10 14 10ZM20 16H8V14.5C8 12 11.97 10.89 14 10.89C16.03 10.89 20 11.97 20 14.47V16Z" fill="black"/>
<path d="M3 7H1V21C1 22.1 1.9 23 3 23H17V21H3V7Z" fill="black"/>
</g>
<defs>
<clipPath id="clip0_1600_544">
<rect width="24" height="24" fill="white"/>
</clipPath>
</defs>
</svg>
