<svg width="16" height="16" viewBox="0 0 16 16" fill="none" xmlns="http://www.w3.org/2000/svg">
<circle cx="8" cy="8" r="8" fill="#F2F2F2"/>
<path d="M6.98267 10.4258V10.2648C6.98582 9.71238 7.03475 9.27204 7.12945 8.94376C7.2273 8.61548 7.36935 8.35032 7.55558 8.1483C7.74182 7.94628 7.96594 7.7632 8.22793 7.59906C8.42364 7.4728 8.59883 7.3418 8.7535 7.20607C8.90817 7.07034 9.03128 6.9204 9.12282 6.75626C9.21436 6.58896 9.26013 6.40272 9.26013 6.19755C9.26013 5.97974 9.20805 5.78877 9.10388 5.62463C8.99971 5.46049 8.85924 5.33423 8.68248 5.24584C8.50887 5.15746 8.31632 5.11327 8.10483 5.11327C7.89965 5.11327 7.70552 5.15904 7.52244 5.25058C7.33936 5.33896 7.18942 5.47154 7.07263 5.6483C6.95584 5.82192 6.8927 6.03814 6.88323 6.29698H4.95142C4.9672 5.66567 5.11871 5.14483 5.40596 4.73448C5.69321 4.32097 6.07358 4.0132 6.54706 3.81118C7.02054 3.60601 7.54296 3.50342 8.11429 3.50342C8.74245 3.50342 9.29801 3.60758 9.78096 3.81592C10.2639 4.02109 10.6427 4.31939 10.9173 4.7108C11.1919 5.10222 11.3293 5.57412 11.3293 6.12652C11.3293 6.49584 11.2677 6.82413 11.1446 7.11137C11.0246 7.39546 10.8558 7.64799 10.638 7.86895C10.4202 8.08675 10.1629 8.28404 9.86619 8.4608C9.61682 8.60916 9.41164 8.76384 9.25066 8.92482C9.09283 9.0858 8.97446 9.27204 8.89555 9.48353C8.81979 9.69502 8.78033 9.95544 8.77717 10.2648V10.4258H6.98267ZM7.92017 13.4561C7.60451 13.4561 7.33462 13.3456 7.11051 13.1246C6.88955 12.9005 6.78065 12.6322 6.7838 12.3197C6.78065 12.0104 6.88955 11.7452 7.11051 11.5243C7.33462 11.3033 7.60451 11.1928 7.92017 11.1928C8.22004 11.1928 8.48361 11.3033 8.71089 11.5243C8.93816 11.7452 9.05337 12.0104 9.05653 12.3197C9.05337 12.528 8.99813 12.719 8.89081 12.8926C8.78664 13.0631 8.64933 13.2004 8.47888 13.3046C8.30842 13.4056 8.12219 13.4561 7.92017 13.4561Z" fill="#808080" fill-opacity="0.6"/>
</svg>
