<svg width="24" height="24" viewBox="0 0 24 24" fill="none" xmlns="http://www.w3.org/2000/svg">
<path d="M11.99 2C6.47 2 2 6.48 2 12C2 17.52 6.47 22 11.99 22C17.52 22 22 17.52 22 12C22 6.48 17.52 2 11.99 2ZM12 20C7.58 20 4 16.42 4 12C4 7.58 7.58 4 12 4C16.42 4 20 7.58 20 12C20 16.42 16.42 20 12 20Z" fill="black"/>
<path d="M15.5 11C15.8958 11 16.2757 10.8421 16.5607 10.5579C17.1464 9.97371 17.1464 9.02634 16.5607 8.44209C16.2757 8.15788 15.8958 8 15.5 8C15.1042 8 14.7243 8.15788 14.4393 8.44209C13.8536 9.02629 13.8536 9.97366 14.4393 10.5579C14.7243 10.8421 15.0884 11 15.5 11Z" fill="black"/>
<path d="M8.5 11C8.89577 11 9.27572 10.8421 9.56069 10.5579C10.1464 9.97371 10.1464 9.02634 9.56069 8.44209C9.27572 8.15788 8.89577 8 8.5 8C8.10423 8 7.72428 8.15788 7.43931 8.44209C6.85356 9.02629 6.85356 9.97366 7.43931 10.5579C7.72428 10.8421 8.08836 11 8.5 11Z" fill="black"/>
<path d="M8 15.7669C9.33333 14.4336 12.8 12.5669 16 15.7669" stroke="black" stroke-width="2" stroke-linecap="round" stroke-linejoin="round"/>
</svg>
