<svg width="46" height="46" viewBox="0 0 46 46" fill="none" xmlns="http://www.w3.org/2000/svg">
<circle cx="23" cy="23" r="22.5" fill="url(#paint0_linear_596_3422)" stroke="black"/>
<path d="M27.0254 25.2999H26.1169L25.7949 24.9894C26.9219 23.6784 27.6004 21.9764 27.6004 20.1249C27.6004 15.9964 24.2539 12.6499 20.1254 12.6499C15.9969 12.6499 12.6504 15.9964 12.6504 20.1249C12.6504 24.2534 15.9969 27.5999 20.1254 27.5999C21.9769 27.5999 23.6789 26.9214 24.9899 25.7944L25.3004 26.1164V27.0249L31.0504 32.7634L32.7639 31.0499L27.0254 25.2999ZM20.1254 25.2999C17.2619 25.2999 14.9504 22.9884 14.9504 20.1249C14.9504 17.2614 17.2619 14.9499 20.1254 14.9499C22.9889 14.9499 25.3004 17.2614 25.3004 20.1249C25.3004 22.9884 22.9889 25.2999 20.1254 25.2999Z" fill="#323232"/>
<defs>
<linearGradient id="paint0_linear_596_3422" x1="23" y1="0" x2="23" y2="46" gradientUnits="userSpaceOnUse">
<stop stop-color="#FF94F4"/>
<stop offset="1" stop-color="#B59BFF"/>
</linearGradient>
</defs>
</svg>
