<svg width="24" height="24" viewBox="0 0 24 24" fill="none" xmlns="http://www.w3.org/2000/svg">
<path d="M6 12C6 10.8954 5.10457 10 4 10V10C2.89543 10 2 10.8954 2 12V12C2 13.1046 2.89543 14 4 14V14C5.10457 14 6 13.1046 6 12V12Z" fill="black"/>
<path d="M14 12C14 10.8954 13.1046 10 12 10V10C10.8954 10 10 10.8954 10 12V12C10 13.1046 10.8954 14 12 14V14C13.1046 14 14 13.1046 14 12V12Z" fill="black"/>
<path d="M22 12C22 10.8954 21.1046 10 20 10V10C18.8954 10 18 10.8954 18 12V12C18 13.1046 18.8954 14 20 14V14C21.1046 14 22 13.1046 22 12V12Z" fill="black"/>
</svg>
