<svg width="175" height="30" viewBox="0 0 175 30" fill="none" xmlns="http://www.w3.org/2000/svg">
<path d="M52.9022 18.6126C52.9022 20.8901 50.751 22.5393 47.7235 22.5393H40.6327V8.4032H47.4844C50.4324 8.4032 52.5038 9.97389 52.5038 12.1728C52.5038 13.6649 51.7071 14.6074 50.512 15.1571C51.7868 15.6283 52.9022 16.8848 52.9022 18.6126ZM43.7399 10.9948V14.0576H47.4048C48.5202 14.0576 49.2373 13.4294 49.2373 12.5655C49.2373 11.7016 48.4405 10.9948 47.4048 10.9948H43.7399ZM47.7235 19.9477C48.9186 19.9477 49.795 19.2409 49.795 18.2199C49.795 17.199 48.9983 16.4922 47.7235 16.4922H43.7399V19.9477H47.7235Z" fill="black"/>
<path d="M64.6137 22.4608L59.6742 16.8849H58.8775V22.4608H55.6906V8.4032H58.8775V13.822H59.6742L64.4545 8.4032H68.1993L62.2237 15.1571L68.7566 22.4608H64.6137Z" fill="black"/>
<path d="M68.7566 15.4713C68.7566 11.2304 71.944 8.1676 76.4052 8.1676C80.8671 8.1676 84.0539 11.2304 84.0539 15.4713C84.0539 19.7121 80.8671 22.7749 76.4052 22.7749C71.944 22.7749 68.7566 19.7121 68.7566 15.4713ZM80.7079 15.4713C80.7079 12.8011 78.9548 10.9949 76.4052 10.9949C73.8557 10.9949 72.1031 12.8011 72.1031 15.4713C72.1031 18.1414 73.8557 19.9477 76.4052 19.9477C78.9548 19.9477 80.7079 18.1414 80.7079 15.4713Z" fill="black"/>
<path d="M96.2437 8.4032H99.4311V22.4608H96.2437V16.8063H89.8701V22.4608H86.6833V8.4032H89.8701V13.9791H96.2437V8.4032Z" fill="black"/>
<path d="M106.283 22.4608V11.2304H101.343V8.4032H114.33V11.2304H109.39V22.4608H106.283Z" fill="black"/>
<path d="M128.033 14.6074V22.4608H125.722L125.085 20.2619C124.368 21.4399 122.854 22.7749 120.544 22.7749C117.675 22.7749 115.604 20.8901 115.604 18.2985C115.604 15.7069 117.675 13.9006 121.898 13.9006H125.005C124.846 12.0943 123.89 10.8378 122.137 10.8378C120.703 10.8378 119.747 11.6231 119.269 12.487L116.401 12.0158C117.118 9.58123 119.588 8.1676 122.296 8.1676C125.802 8.1676 128.033 10.5236 128.033 14.6074ZM124.926 16.3352H121.978C119.588 16.3352 118.791 17.1205 118.791 18.1414C118.791 19.3194 119.747 20.1048 121.34 20.1048C123.412 20.1048 124.926 18.6127 124.926 16.3352Z" fill="black"/>
<path d="M140.302 22.4608L135.363 16.8849H134.566V22.4608H131.379V8.4032H134.566V13.822H135.363L140.143 8.4032H143.888L137.913 15.1571L144.445 22.4608H140.302Z" fill="black"/>
<path d="M150.182 22.4608V11.2304H145.242V8.4032H158.229V11.2304H153.289V22.4608H150.182Z" fill="black"/>
<path d="M174.163 16.3352H162.69C163.009 18.5341 164.603 19.9477 166.992 19.9477C168.666 19.9477 169.941 19.2409 170.658 18.22L173.606 18.6912C172.57 21.3614 169.781 22.7749 166.753 22.7749C162.451 22.7749 159.344 19.7121 159.344 15.4713C159.344 11.2304 162.451 8.1676 166.753 8.1676C171.056 8.1676 174.163 11.2304 174.163 15.3142C174.243 15.7069 174.163 16.021 174.163 16.3352ZM162.929 13.9006H170.817C170.259 12.1729 168.825 10.9163 166.833 10.9163C164.921 10.8378 163.408 12.0943 162.929 13.9006Z" fill="black"/>
<path d="M0 14.4C0 7.61175 0 4.21766 2.13939 2.10883C4.27879 0 7.72207 0 14.6087 0H15.8261C22.7127 0 26.156 0 28.2954 2.10883C30.4348 4.21766 30.4348 7.61175 30.4348 14.4V15.6C30.4348 22.3882 30.4348 25.7823 28.2954 27.8912C26.156 30 22.7127 30 15.8261 30H14.6087C7.72207 30 4.27879 30 2.13939 27.8912C0 25.7823 0 22.3882 0 15.6V14.4Z" fill="#0077FF"/>
<path d="M16.1939 21.6126C9.2573 21.6126 5.30084 16.9251 5.13599 9.12512H8.61062C8.72475 14.8501 11.2863 17.2751 13.3153 17.7751V9.12512H16.5871V14.0626C18.5908 13.8501 20.6956 11.6001 21.4057 9.12512H24.6775C24.1322 12.1751 21.8496 14.4251 20.2264 15.3501C21.8496 16.1001 24.4494 18.0626 25.4385 21.6126H21.8369C21.0634 19.2376 19.1361 17.4001 16.5871 17.1501V21.6126H16.1939Z" fill="white"/>
</svg>
