<?xml version="1.0" standalone="no"?>
<!DOCTYPE svg PUBLIC "-//W3C//DTD SVG 20010904//EN"
 "http://www.w3.org/TR/2001/REC-SVG-20010904/DTD/svg10.dtd">
<svg version="1.0" xmlns="http://www.w3.org/2000/svg"
 width="700.000000pt" height="700.000000pt" viewBox="0 0 700.000000 700.000000"
 preserveAspectRatio="xMidYMid meet">
<metadata>
Created by potrace 1.14, written by Peter Selinger 2001-2017
</metadata>
<g transform="translate(0.000000,700.000000) scale(0.100000,-0.100000)"
fill="#000000" stroke="none">
<path d="M3278 6995 c-1 -1 -42 -5 -89 -9 -47 -4 -95 -8 -106 -10 -11 -3 -44
-7 -74 -11 -312 -37 -711 -158 -1024 -311 -180 -87 -448 -247 -555 -331 -8 -6
-51 -40 -95 -74 -88 -68 -245 -207 -258 -226 -4 -7 -25 -13 -45 -13 -37 0 -38
-1 -40 -37 -2 -21 -11 -45 -20 -53 -139 -131 -374 -445 -512 -685 -47 -83
-170 -327 -170 -340 0 -3 -9 -24 -20 -48 -57 -123 -157 -435 -186 -582 -2 -11
-10 -54 -19 -95 -29 -147 -36 -200 -52 -370 -15 -165 -8 -592 12 -711 2 -13 6
-46 9 -74 9 -78 22 -152 51 -285 21 -96 91 -339 114 -395 5 -11 25 -65 46
-120 64 -170 213 -461 314 -615 106 -160 260 -357 368 -470 58 -60 69 -82 64
-126 -1 -6 15 -11 34 -12 20 -1 42 -7 49 -15 43 -43 174 -157 256 -222 92 -74
370 -265 386 -265 4 0 15 -6 23 -14 47 -41 413 -212 576 -270 79 -27 261 -84
291 -90 10 -2 57 -13 104 -25 109 -26 200 -43 299 -57 25 -3 57 -8 71 -10 162
-25 683 -25 841 1 13 2 47 7 74 10 71 10 87 13 115 18 14 3 43 8 65 12 115 21
314 74 455 122 188 64 473 192 614 278 32 19 62 35 67 35 5 0 9 5 9 10 0 6 5
10 10 10 16 0 222 143 335 231 106 84 152 123 225 194 32 31 55 44 80 47 32 3
35 6 40 38 3 23 19 51 45 79 39 42 48 52 112 123 110 123 297 394 395 573 51
93 148 290 148 300 0 2 11 28 24 57 57 127 151 421 182 573 17 81 54 301 59
350 4 33 9 71 11 85 9 47 11 525 4 605 -15 157 -21 210 -25 225 -2 8 -7 35
-10 60 -17 129 -80 384 -136 552 -128 381 -333 757 -578 1064 -80 99 -178 211
-208 238 -16 14 -23 31 -23 57 0 38 -1 38 -36 37 -30 -1 -43 7 -92 54 -261
256 -683 526 -1062 681 -224 91 -559 185 -760 212 -19 3 -46 7 -60 10 -13 2
-52 7 -86 11 -33 3 -74 8 -90 10 -33 5 -540 14 -546 9z"/>
</g>
</svg>
