<svg width="575" height="350" viewBox="0 0 575 350" fill="none" xmlns="http://www.w3.org/2000/svg">
<rect width="575" height="350" fill="white"/>
<circle cx="118.2" cy="242.818" r="85.7982" fill="#FFF3A4" stroke="black" stroke-dasharray="4 4"/>
<path d="M302.412 93.1734C302.833 92.7525 302.749 92.0791 302.412 91.6582C302.076 92.4158 301.823 93.1734 301.486 93.931C301.823 93.6784 302.16 93.4259 302.412 93.1734Z" fill="black"/>
<path d="M118.989 188.715H116.548V215.989H118.989V188.715Z" fill="black"/>
<path d="M118.989 70.1086H116.548V97.3823H118.989V70.1086Z" fill="black"/>
<path d="M118.989 159.085H116.548V186.358H118.989V159.085Z" fill="black"/>
<path d="M118.989 43.761C118.989 43.0876 118.484 42.5825 117.811 42.5825C117.137 42.5825 116.632 43.0876 116.632 43.761V67.6675H119.073V43.761H118.989Z" fill="black"/>
<path d="M118.989 99.7393H116.548V127.013H118.989V99.7393Z" fill="black"/>
<path d="M118.989 129.454H116.548V156.728H118.989V129.454Z" fill="black"/>
<path d="M118.989 243.852H116.548V268.179H118.989V243.852Z" fill="black"/>
<path d="M118.989 218.43H116.548V241.411H118.989V218.43Z" fill="black"/>
<path d="M109.477 58.2394C110.066 58.4919 110.823 58.1552 111.076 57.566L117.81 40.2253L125.723 60.0071C125.891 60.5122 126.396 60.7647 126.817 60.7647C126.986 60.7647 127.154 60.7647 127.238 60.6805C127.827 60.428 128.164 59.7546 127.912 59.0811L118.82 36.4373C118.652 36.0164 118.231 35.6797 117.726 35.6797C117.221 35.6797 116.8 36.0164 116.632 36.4373L108.719 56.64C108.551 57.3134 108.803 57.9868 109.477 58.2394Z" fill="black"/>
<path d="M201.988 241.41H174.714V243.852H201.988V241.41Z" fill="black"/>
<path d="M231.703 241.41H204.43V243.852H231.703V241.41Z" fill="black"/>
<path d="M318.827 241.41H293.405V243.852H318.827V241.41Z" fill="black"/>
<path d="M172.358 241.41H145.084V243.852H172.358V241.41Z" fill="black"/>
<path d="M116.548 243.852H118.989H142.643V241.41H118.989H116.548H92.894V243.852H116.548Z" fill="black"/>
<path d="M291.049 241.41H263.775V243.852H291.049V241.41Z" fill="black"/>
<path d="M261.334 241.41H234.06V243.852H261.334V241.41Z" fill="black"/>
<path d="M377.078 243.852C377.751 243.852 378.256 243.347 378.256 242.673C378.256 242 377.751 241.495 377.078 241.495H321.268V243.936H377.078V243.852Z" fill="black"/>
<path d="M362.516 234.339C362.263 234.929 362.6 235.686 363.189 235.939L380.53 242.673L360.748 250.586C360.159 250.838 359.822 251.512 360.075 252.185C360.243 252.69 360.748 252.943 361.169 252.943C361.337 252.943 361.506 252.943 361.59 252.859L384.234 243.767C384.739 243.599 384.991 243.094 384.991 242.673C384.991 242.168 384.655 241.747 384.234 241.579L364.031 233.666C363.526 233.329 362.768 233.666 362.516 234.339Z" fill="black"/>
<path d="M101.143 267.758C101.227 267.758 101.396 267.758 101.48 267.758C103.753 267.506 104.847 265.065 105.352 264.054L106.446 261.613C107.288 259.761 107.961 255.889 106.194 253.616C105.52 252.69 104.173 251.764 101.648 252.27C97.1866 253.111 96.429 260.351 96.8499 263.213C97.0183 264.475 97.4392 265.401 98.0284 266.243C98.8702 267.253 100.049 267.758 101.143 267.758ZM102.153 254.627C103.668 254.374 104.173 254.963 104.342 255.132C105.268 256.226 105.015 258.92 104.258 260.603L103.163 263.044C102.742 264.054 102.069 265.233 101.227 265.317C100.806 265.401 100.385 265.149 100.049 264.728C99.712 264.307 99.4594 263.718 99.3753 262.876C98.9544 260.266 99.7961 255.132 102.153 254.627Z" fill="black"/>
<path d="M89.3582 34.922C89.3582 34.8379 89.274 34.8378 89.274 34.7537C89.1898 35.0904 89.1057 35.5113 89.0215 35.848C89.274 35.5113 89.3582 35.2587 89.3582 34.922Z" fill="black"/>
<path d="M81.3615 23.2215C80.8564 26.8411 80.5197 30.545 80.3513 34.2488C80.3513 34.9222 80.2672 35.8482 80.8564 36.69C81.4456 37.6159 82.4558 37.9526 83.4659 37.9526C84.1393 37.9526 84.8969 37.7843 85.5704 37.4476C85.8229 37.2792 86.0754 37.195 86.328 37.0267C86.4963 36.0165 86.7489 35.0064 86.9172 34.0804C86.328 34.333 85.8229 34.5855 85.3178 34.838C85.0653 35.0064 84.8127 35.1747 84.476 35.2589C83.8868 35.5956 83.045 35.5956 82.8767 35.3431C82.7083 35.1748 82.7925 34.5855 82.7925 34.333C82.9608 30.7133 83.2976 27.0937 83.8026 23.5582C83.8868 22.8848 83.4659 22.2955 82.7925 22.2114C82.0349 22.1272 81.4456 22.5481 81.3615 23.2215Z" fill="black"/>
<path d="M85.7386 39.8887C82.7923 41.0672 79.8461 42.4141 77.0683 43.9293C75.6372 44.7711 73.617 46.1179 73.3644 48.3065C73.1119 50.7477 75.1322 52.5996 76.0581 53.4414C76.8157 54.1148 78.2467 55.3775 80.0145 55.3775C80.1828 55.3775 80.267 55.3775 80.4354 55.3775C82.9607 55.1249 84.1392 52.3471 84.5601 51.5053C85.9911 48.3065 87.0012 45.0236 87.843 41.7407C88.5164 41.4881 89.1899 41.1514 89.8633 40.8989C90.4525 40.6463 90.7892 39.9729 90.5367 39.2995C90.2842 38.7103 89.6108 38.3735 88.9373 38.6261C88.769 38.7102 88.6006 38.7944 88.4323 38.7944C88.6848 37.7843 88.8532 36.7742 89.0215 35.764C89.1057 35.4273 89.1899 35.0064 89.274 34.6697C89.7791 32.0602 90.2 29.4507 90.6209 26.9253C90.7051 26.2519 90.2842 25.6627 89.6108 25.4943C88.9373 25.4101 88.3481 25.831 88.1797 26.5045C87.7589 29.0298 87.338 31.4709 86.9171 33.9963C86.7487 35.0064 86.4962 36.0166 86.3278 36.9425C86.0753 38.0368 85.9069 38.9628 85.7386 39.8887ZM82.2873 50.4952C81.6139 52.0945 80.8563 52.8522 80.1828 52.9363C79.4252 53.0205 78.5834 52.3471 77.7417 51.5895C76.7315 50.6635 75.7214 49.5692 75.8056 48.5591C75.8898 47.4648 77.2366 46.623 78.2467 46.0337C80.4354 44.8552 82.7082 43.7609 84.981 42.835C84.2234 45.4445 83.3816 48.054 82.2873 50.4952Z" fill="black"/>
<path d="M379.435 266.748C379.519 267.337 380.024 267.758 380.614 267.758C381.455 267.674 381.961 267.001 381.792 266.327C381.371 263.549 380.277 260.856 378.762 258.499C378.088 259.004 377.499 259.509 376.826 260.098C378.173 262.203 379.099 264.391 379.435 266.748Z" fill="black"/>
<path d="M372.702 252.354C372.112 252.017 371.355 252.185 371.018 252.69C370.681 253.28 370.85 254.037 371.355 254.374C372.954 255.384 374.217 256.731 375.395 258.162C375.984 257.657 376.574 257.068 377.247 256.647C375.984 255.047 374.469 253.532 372.702 252.354Z" fill="black"/>
<path d="M389.958 252.017C389.789 251.344 389.116 251.007 388.442 251.175C384.402 252.27 380.614 254.121 377.247 256.647C376.573 257.152 375.984 257.657 375.395 258.162C372.87 260.351 370.681 262.96 368.997 265.822C368.661 266.411 368.829 267.169 369.418 267.506C369.587 267.59 369.839 267.674 370.007 267.674C370.428 267.674 370.849 267.422 371.018 267.085C372.533 264.475 374.553 262.118 376.826 260.182C377.415 259.593 378.089 259.088 378.762 258.583C381.792 256.226 385.328 254.542 389.032 253.532C389.789 253.28 390.126 252.69 389.958 252.017Z" fill="black"/>
<path d="M122.272 218.43C122.945 218.43 123.45 217.925 123.45 217.251C123.45 216.578 122.945 216.073 122.272 216.073H118.989H116.548H113.265C112.591 216.073 112.086 216.578 112.086 217.251C112.086 217.925 112.591 218.43 113.265 218.43H116.548H118.989H122.272Z" fill="black"/>
<path d="M122.272 188.715C122.945 188.715 123.45 188.21 123.45 187.537C123.45 186.863 122.945 186.358 122.272 186.358H118.989H116.548H113.265C112.591 186.358 112.086 186.863 112.086 187.537C112.086 188.21 112.591 188.715 113.265 188.715H116.548H118.989H122.272Z" fill="black"/>
<path d="M122.272 159.085C122.945 159.085 123.45 158.579 123.45 157.906C123.45 157.233 122.945 156.728 122.272 156.728H118.989H116.548H113.265C112.591 156.728 112.086 157.233 112.086 157.906C112.086 158.579 112.591 159.085 113.265 159.085H116.548H118.989H122.272Z" fill="black"/>
<path d="M122.272 129.454C122.945 129.454 123.45 128.949 123.45 128.276C123.45 127.602 122.945 127.097 122.272 127.097H118.989H116.548H113.265C112.591 127.097 112.086 127.602 112.086 128.276C112.086 128.949 112.591 129.454 113.265 129.454H116.548H118.989H122.272Z" fill="black"/>
<path d="M122.272 99.7393C122.945 99.7393 123.45 99.2342 123.45 98.5608C123.45 97.8874 122.945 97.3823 122.272 97.3823H118.989H116.548H113.265C112.591 97.3823 112.086 97.8874 112.086 98.5608C112.086 99.2342 112.591 99.7393 113.265 99.7393H116.548H118.989H122.272Z" fill="black"/>
<path d="M122.272 70.1087C122.945 70.1087 123.45 69.6036 123.45 68.9302C123.45 68.2568 122.945 67.7517 122.272 67.7517H118.989H116.548H113.265C112.591 67.7517 112.086 68.2568 112.086 68.9302C112.086 69.6036 112.591 70.1087 113.265 70.1087H116.548H118.989H122.272Z" fill="black"/>
<path d="M290.964 247.724C290.964 248.397 291.469 248.902 292.143 248.902C292.816 248.902 293.321 248.397 293.321 247.724V243.852V241.411V238.801C293.321 238.128 292.816 237.623 292.143 237.623C291.469 237.623 290.964 238.128 290.964 238.801V241.411V243.852V247.724Z" fill="black"/>
<path d="M318.828 247.724C318.828 248.397 319.333 248.902 320.006 248.902C320.68 248.902 321.185 248.397 321.185 247.724V243.852V241.411V238.801C321.185 238.128 320.68 237.623 320.006 237.623C319.333 237.623 318.828 238.128 318.828 238.801V241.411V243.852V247.724Z" fill="black"/>
<path d="M261.334 247.724C261.334 248.397 261.84 248.902 262.513 248.902C263.186 248.902 263.691 248.397 263.691 247.724V243.852V241.411V238.801C263.691 238.128 263.186 237.623 262.513 237.623C261.84 237.623 261.334 238.128 261.334 238.801V241.411V243.852V247.724Z" fill="black"/>
<path d="M231.619 247.724C231.619 248.397 232.124 248.902 232.797 248.902C233.471 248.902 233.976 248.397 233.976 247.724V243.852V241.411V238.801C233.976 238.128 233.471 237.623 232.797 237.623C232.124 237.623 231.619 238.128 231.619 238.801V241.411V243.852V247.724Z" fill="black"/>
<path d="M201.989 247.724C201.989 248.397 202.494 248.902 203.167 248.902C203.841 248.902 204.346 248.397 204.346 247.724V243.852V241.411V238.801C204.346 238.128 203.841 237.623 203.167 237.623C202.494 237.623 201.989 238.128 201.989 238.801V241.411V243.852V247.724Z" fill="black"/>
<path d="M172.273 247.724C172.273 248.397 172.779 248.902 173.452 248.902C174.125 248.902 174.63 248.397 174.63 247.724V243.852V241.411V238.801C174.63 238.128 174.125 237.623 173.452 237.623C172.779 237.623 172.273 238.128 172.273 238.801V241.411V243.852V247.724Z" fill="black"/>
<path d="M142.644 247.724C142.644 248.397 143.149 248.902 143.822 248.902C144.495 248.902 145.001 248.397 145.001 247.724V243.852V241.411V238.801C145.001 238.128 144.495 237.623 143.822 237.623C143.149 237.623 142.644 238.128 142.644 238.801V241.411V243.852V247.724Z" fill="black"/>
<path d="M220.26 80.57C220.58 79.99 221.02 79.7 221.58 79.7C221.96 79.7 222.29 79.83 222.57 80.09C222.87 80.35 223.02 80.68 223.02 81.08C223.02 81.34 222.95 81.6 222.81 81.86L213.42 100.25C213.1 100.85 212.65 101.15 212.07 101.15C211.69 101.15 211.35 101.02 211.05 100.76C210.77 100.48 210.63 100.14 210.63 99.74C210.63 99.52 210.69 99.28 210.81 99.02L213.06 94.64L205.2 81.92C205.02 81.62 204.93 81.33 204.93 81.05C204.93 80.67 205.07 80.35 205.35 80.09C205.65 79.81 205.98 79.67 206.34 79.67C206.86 79.67 207.28 79.93 207.6 80.45L214.56 91.73L220.26 80.57ZM235.653 101.15C235.193 101.15 234.823 101.02 234.543 100.76C234.283 100.5 234.153 100.15 234.153 99.71V95.51C233.713 95.73 233.173 95.92 232.533 96.08C231.893 96.22 231.233 96.29 230.553 96.29C228.853 96.29 227.513 95.89 226.533 95.09C225.553 94.29 225.063 93.04 225.063 91.34V87.5C225.063 87.06 225.203 86.71 225.483 86.45C225.763 86.19 226.133 86.06 226.593 86.06C227.053 86.06 227.413 86.19 227.673 86.45C227.953 86.71 228.093 87.06 228.093 87.5V90.95C228.093 91.99 228.343 92.75 228.843 93.23C229.363 93.69 230.123 93.92 231.123 93.92C232.403 93.92 233.413 93.66 234.153 93.14V87.5C234.153 87.06 234.283 86.71 234.543 86.45C234.823 86.19 235.193 86.06 235.653 86.06C236.113 86.06 236.483 86.19 236.763 86.45C237.043 86.71 237.183 87.06 237.183 87.5V99.71C237.183 100.15 237.043 100.5 236.763 100.76C236.483 101.02 236.113 101.15 235.653 101.15ZM251.305 87.14C251.585 86.74 251.855 86.46 252.115 86.3C252.375 86.14 252.725 86.06 253.165 86.06C253.645 86.06 254.025 86.2 254.305 86.48C254.585 86.74 254.725 87.1 254.725 87.56V99.68C254.725 100.12 254.595 100.48 254.335 100.76C254.075 101.02 253.725 101.15 253.285 101.15C252.865 101.15 252.515 101.02 252.235 100.76C251.975 100.48 251.845 100.12 251.845 99.68V90.14L244.645 100.13C244.365 100.53 244.085 100.8 243.805 100.94C243.545 101.08 243.215 101.15 242.815 101.15C242.355 101.15 241.975 101.02 241.675 100.76C241.395 100.48 241.255 100.12 241.255 99.68V87.53C241.255 87.11 241.385 86.76 241.645 86.48C241.925 86.2 242.285 86.06 242.725 86.06C243.145 86.06 243.485 86.2 243.745 86.48C244.025 86.76 244.165 87.11 244.165 87.53V96.98L251.305 87.14ZM263.723 101.15C263.263 101.15 262.893 101.02 262.613 100.76C262.333 100.5 262.193 100.15 262.193 99.71V88.7H258.293C257.933 88.7 257.643 88.59 257.423 88.37C257.203 88.15 257.093 87.87 257.093 87.53C257.093 87.19 257.203 86.91 257.423 86.69C257.643 86.47 257.933 86.36 258.293 86.36H269.123C269.503 86.36 269.803 86.47 270.023 86.69C270.243 86.91 270.353 87.19 270.353 87.53C270.353 87.87 270.243 88.15 270.023 88.37C269.803 88.59 269.503 88.7 269.123 88.7H265.223V99.71C265.223 100.15 265.083 100.5 264.803 100.76C264.543 101.02 264.183 101.15 263.723 101.15ZM274.221 101C273.741 101 273.361 100.87 273.081 100.61C272.801 100.35 272.661 99.99 272.661 99.53V87.5C272.661 87.06 272.801 86.71 273.081 86.45C273.361 86.19 273.731 86.06 274.191 86.06C274.651 86.06 275.011 86.19 275.271 86.45C275.551 86.71 275.691 87.06 275.691 87.5V91.43H277.911C281.651 91.43 283.521 92.97 283.521 96.05C283.521 97.13 283.251 98.05 282.711 98.81C282.171 99.55 281.461 100.1 280.581 100.46C279.701 100.82 278.761 101 277.761 101H274.221ZM287.181 101.15C286.721 101.15 286.351 101.02 286.071 100.76C285.791 100.5 285.651 100.15 285.651 99.71V87.5C285.651 87.06 285.791 86.71 286.071 86.45C286.351 86.19 286.721 86.06 287.181 86.06C287.641 86.06 288.001 86.19 288.261 86.45C288.541 86.71 288.681 87.06 288.681 87.5V99.71C288.681 100.15 288.541 100.5 288.261 100.76C288.001 101.02 287.641 101.15 287.181 101.15ZM277.191 98.84C278.091 98.84 278.871 98.63 279.531 98.21C280.191 97.77 280.521 97.07 280.521 96.11C280.521 95.11 280.221 94.44 279.621 94.1C279.021 93.76 278.211 93.59 277.191 93.59H275.661V98.84H277.191ZM294.319 101C293.839 101 293.459 100.87 293.179 100.61C292.899 100.35 292.759 99.99 292.759 99.53V87.92C292.759 87.46 292.889 87.09 293.149 86.81C293.429 86.51 293.789 86.36 294.229 86.36H299.599C301.219 86.36 302.479 86.68 303.379 87.32C304.299 87.96 304.759 88.89 304.759 90.11C304.759 90.83 304.549 91.5 304.129 92.12C303.709 92.74 303.069 93.19 302.209 93.47C303.129 93.65 303.849 94.04 304.369 94.64C304.889 95.22 305.149 95.97 305.149 96.89C305.149 97.61 304.949 98.29 304.549 98.93C304.149 99.55 303.539 100.05 302.719 100.43C301.899 100.81 300.889 101 299.689 101H294.319ZM299.209 92.54C299.989 92.54 300.609 92.35 301.069 91.97C301.529 91.59 301.759 91.07 301.759 90.41C301.759 89.13 300.879 88.49 299.119 88.49H295.789V92.54H299.209ZM299.269 98.87C301.149 98.87 302.089 98.16 302.089 96.74C302.089 96 301.829 95.45 301.309 95.09C300.789 94.73 300.069 94.55 299.149 94.55H295.789V98.87H299.269ZM314.643 86C316.583 86 318.023 86.49 318.963 87.47C319.923 88.45 320.403 89.94 320.403 91.94V99.71C320.403 100.17 320.273 100.53 320.013 100.79C319.753 101.03 319.393 101.15 318.933 101.15C318.493 101.15 318.143 101.02 317.883 100.76C317.623 100.5 317.493 100.15 317.493 99.71V98.6C317.113 99.44 316.543 100.09 315.783 100.55C315.043 100.99 314.173 101.21 313.173 101.21C312.213 101.21 311.333 101.02 310.533 100.64C309.753 100.24 309.133 99.7 308.673 99.02C308.213 98.34 307.983 97.57 307.983 96.71C307.963 95.63 308.233 94.79 308.793 94.19C309.353 93.57 310.263 93.13 311.523 92.87C312.783 92.59 314.533 92.45 316.773 92.45H317.463V91.58C317.463 90.46 317.233 89.65 316.773 89.15C316.313 88.65 315.573 88.4 314.553 88.4C313.853 88.4 313.193 88.49 312.573 88.67C311.953 88.85 311.273 89.11 310.533 89.45C309.993 89.75 309.613 89.9 309.393 89.9C309.093 89.9 308.843 89.79 308.643 89.57C308.463 89.35 308.373 89.07 308.373 88.73C308.373 88.43 308.453 88.17 308.613 87.95C308.793 87.71 309.073 87.48 309.453 87.26C310.153 86.88 310.973 86.58 311.913 86.36C312.853 86.12 313.763 86 314.643 86ZM313.713 98.96C314.813 98.96 315.713 98.59 316.413 97.85C317.113 97.09 317.463 96.12 317.463 94.94V94.16H316.923C315.363 94.16 314.163 94.23 313.323 94.37C312.483 94.51 311.883 94.75 311.523 95.09C311.163 95.41 310.983 95.88 310.983 96.5C310.983 97.22 311.243 97.81 311.763 98.27C312.283 98.73 312.933 98.96 313.713 98.96ZM336.007 97.31C336.287 97.31 336.517 97.42 336.697 97.64C336.877 97.86 336.967 98.14 336.967 98.48C336.967 99.06 336.607 99.55 335.887 99.95C335.187 100.35 334.417 100.66 333.577 100.88C332.757 101.1 331.967 101.21 331.207 101.21C328.887 101.21 327.057 100.54 325.717 99.2C324.377 97.84 323.707 95.99 323.707 93.65C323.707 92.15 323.997 90.82 324.577 89.66C325.177 88.5 326.007 87.6 327.067 86.96C328.147 86.32 329.367 86 330.727 86C332.687 86 334.237 86.63 335.377 87.89C336.517 89.15 337.087 90.85 337.087 92.99C337.087 93.79 336.727 94.19 336.007 94.19H326.737C326.937 97.29 328.427 98.84 331.207 98.84C331.947 98.84 332.587 98.74 333.127 98.54C333.667 98.34 334.237 98.08 334.837 97.76C334.897 97.72 335.057 97.64 335.317 97.52C335.597 97.38 335.827 97.31 336.007 97.31ZM330.787 88.22C329.627 88.22 328.697 88.59 327.997 89.33C327.297 90.07 326.877 91.11 326.737 92.45H334.477C334.417 91.09 334.067 90.05 333.427 89.33C332.807 88.59 331.927 88.22 330.787 88.22ZM354.376 86.06C354.856 86.06 355.236 86.19 355.516 86.45C355.796 86.71 355.936 87.07 355.936 87.53V99.77C355.936 100.17 355.806 100.5 355.546 100.76C355.286 101.02 354.946 101.15 354.526 101.15C354.126 101.15 353.786 101.02 353.506 100.76C353.246 100.5 353.116 100.16 353.116 99.74L353.146 91.07L349.516 97.76C349.376 98.02 349.186 98.23 348.946 98.39C348.706 98.53 348.446 98.6 348.166 98.6C347.866 98.6 347.596 98.53 347.356 98.39C347.116 98.23 346.926 98.02 346.786 97.76L343.156 91.07L343.186 99.74C343.186 100.16 343.046 100.5 342.766 100.76C342.506 101.02 342.176 101.15 341.776 101.15C341.356 101.15 341.016 101.02 340.756 100.76C340.496 100.5 340.366 100.17 340.366 99.77V87.62C340.366 87.16 340.496 86.79 340.756 86.51C341.036 86.21 341.396 86.06 341.836 86.06C342.236 86.06 342.576 86.13 342.856 86.27C343.156 86.41 343.406 86.69 343.606 87.11L348.166 95.69L352.606 87.26C352.846 86.82 353.096 86.51 353.356 86.33C353.616 86.15 353.956 86.06 354.376 86.06ZM372.825 101.15C372.365 101.15 371.995 101.02 371.715 100.76C371.435 100.5 371.295 100.15 371.295 99.71V88.7H367.395C367.035 88.7 366.745 88.59 366.525 88.37C366.305 88.15 366.195 87.87 366.195 87.53C366.195 87.19 366.305 86.91 366.525 86.69C366.745 86.47 367.035 86.36 367.395 86.36H378.225C378.605 86.36 378.905 86.47 379.125 86.69C379.345 86.91 379.455 87.19 379.455 87.53C379.455 87.87 379.345 88.15 379.125 88.37C378.905 88.59 378.605 88.7 378.225 88.7H374.325V99.71C374.325 100.15 374.185 100.5 373.905 100.76C373.645 101.02 373.285 101.15 372.825 101.15ZM383.323 101C382.843 101 382.463 100.87 382.183 100.61C381.903 100.35 381.763 99.99 381.763 99.53V87.92C381.763 87.46 381.893 87.09 382.153 86.81C382.433 86.51 382.793 86.36 383.233 86.36H388.603C390.223 86.36 391.483 86.68 392.383 87.32C393.303 87.96 393.763 88.89 393.763 90.11C393.763 90.83 393.553 91.5 393.133 92.12C392.713 92.74 392.073 93.19 391.213 93.47C392.133 93.65 392.853 94.04 393.373 94.64C393.893 95.22 394.153 95.97 394.153 96.89C394.153 97.61 393.953 98.29 393.553 98.93C393.153 99.55 392.543 100.05 391.723 100.43C390.903 100.81 389.893 101 388.693 101H383.323ZM388.213 92.54C388.993 92.54 389.613 92.35 390.073 91.97C390.533 91.59 390.763 91.07 390.763 90.41C390.763 89.13 389.883 88.49 388.123 88.49H384.793V92.54H388.213ZM388.273 98.87C390.153 98.87 391.093 98.16 391.093 96.74C391.093 96 390.833 95.45 390.313 95.09C389.793 94.73 389.073 94.55 388.153 94.55H384.793V98.87H388.273ZM403.856 101.21C402.416 101.21 401.146 100.9 400.046 100.28C398.966 99.66 398.126 98.78 397.526 97.64C396.946 96.48 396.656 95.14 396.656 93.62C396.656 92.08 396.946 90.74 397.526 89.6C398.126 88.44 398.966 87.55 400.046 86.93C401.146 86.31 402.416 86 403.856 86C405.296 86 406.556 86.31 407.636 86.93C408.736 87.55 409.576 88.44 410.156 89.6C410.756 90.74 411.056 92.08 411.056 93.62C411.056 95.14 410.756 96.48 410.156 97.64C409.576 98.78 408.736 99.66 407.636 100.28C406.556 100.9 405.296 101.21 403.856 101.21ZM403.856 98.81C405.196 98.81 406.216 98.37 406.916 97.49C407.636 96.61 407.996 95.32 407.996 93.62C407.996 91.94 407.636 90.66 406.916 89.78C406.196 88.88 405.176 88.43 403.856 88.43C402.536 88.43 401.516 88.88 400.796 89.78C400.076 90.66 399.716 91.94 399.716 93.62C399.716 95.32 400.066 96.61 400.766 97.49C401.486 98.37 402.516 98.81 403.856 98.81ZM424.42 87.14C424.7 86.74 424.97 86.46 425.23 86.3C425.49 86.14 425.84 86.06 426.28 86.06C426.76 86.06 427.14 86.2 427.42 86.48C427.7 86.74 427.84 87.1 427.84 87.56V99.68C427.84 100.12 427.71 100.48 427.45 100.76C427.19 101.02 426.84 101.15 426.4 101.15C425.98 101.15 425.63 101.02 425.35 100.76C425.09 100.48 424.96 100.12 424.96 99.68V90.14L417.76 100.13C417.48 100.53 417.2 100.8 416.92 100.94C416.66 101.08 416.33 101.15 415.93 101.15C415.47 101.15 415.09 101.02 414.79 100.76C414.51 100.48 414.37 100.12 414.37 99.68V87.53C414.37 87.11 414.5 86.76 414.76 86.48C415.04 86.2 415.4 86.06 415.84 86.06C416.26 86.06 416.6 86.2 416.86 86.48C417.14 86.76 417.28 87.11 417.28 87.53V96.98L424.42 87.14ZM453.448 104.96C453.008 104.96 452.658 104.83 452.398 104.57C452.158 104.33 452.038 103.99 452.038 103.55V101H441.418C440.938 101 440.558 100.87 440.278 100.61C439.998 100.35 439.858 99.99 439.858 99.53V87.5C439.858 87.06 439.998 86.71 440.278 86.45C440.558 86.19 440.928 86.06 441.388 86.06C441.848 86.06 442.208 86.19 442.468 86.45C442.748 86.71 442.888 87.06 442.888 87.5V98.66H449.488V87.5C449.488 87.06 449.628 86.71 449.908 86.45C450.188 86.19 450.558 86.06 451.018 86.06C451.478 86.06 451.838 86.19 452.098 86.45C452.378 86.71 452.518 87.06 452.518 87.5V98.66H453.298C453.778 98.66 454.148 98.79 454.408 99.05C454.688 99.31 454.828 99.67 454.828 100.13V103.55C454.828 103.99 454.708 104.33 454.468 104.57C454.228 104.83 453.888 104.96 453.448 104.96ZM468.693 97.31C468.973 97.31 469.203 97.42 469.383 97.64C469.563 97.86 469.653 98.14 469.653 98.48C469.653 99.06 469.293 99.55 468.573 99.95C467.873 100.35 467.103 100.66 466.263 100.88C465.443 101.1 464.653 101.21 463.893 101.21C461.573 101.21 459.743 100.54 458.403 99.2C457.063 97.84 456.393 95.99 456.393 93.65C456.393 92.15 456.683 90.82 457.263 89.66C457.863 88.5 458.693 87.6 459.753 86.96C460.833 86.32 462.053 86 463.413 86C465.373 86 466.923 86.63 468.063 87.89C469.203 89.15 469.773 90.85 469.773 92.99C469.773 93.79 469.413 94.19 468.693 94.19H459.423C459.623 97.29 461.113 98.84 463.893 98.84C464.633 98.84 465.273 98.74 465.813 98.54C466.353 98.34 466.923 98.08 467.523 97.76C467.583 97.72 467.743 97.64 468.003 97.52C468.283 97.38 468.513 97.31 468.693 97.31ZM463.473 88.22C462.313 88.22 461.383 88.59 460.683 89.33C459.983 90.07 459.563 91.11 459.423 92.45H467.163C467.103 91.09 466.753 90.05 466.113 89.33C465.493 88.59 464.613 88.22 463.473 88.22ZM477.642 90.32C477.642 93.42 477.292 95.81 476.592 97.49C475.912 99.15 474.842 100.35 473.382 101.09C473.202 101.17 472.992 101.21 472.752 101.21C472.392 101.21 472.092 101.1 471.852 100.88C471.612 100.64 471.492 100.36 471.492 100.04C471.492 99.8 471.562 99.57 471.702 99.35C471.842 99.11 472.032 98.92 472.272 98.78C472.932 98.4 473.442 97.89 473.802 97.25C474.182 96.59 474.452 95.72 474.612 94.64C474.772 93.56 474.852 92.14 474.852 90.38V87.92C474.852 87.44 474.982 87.06 475.242 86.78C475.502 86.5 475.862 86.36 476.322 86.36H484.242C484.722 86.36 485.102 86.49 485.382 86.75C485.662 87.01 485.802 87.37 485.802 87.83V99.71C485.802 100.15 485.662 100.5 485.382 100.76C485.122 101.02 484.762 101.15 484.302 101.15C483.842 101.15 483.472 101.02 483.192 100.76C482.912 100.5 482.772 100.15 482.772 99.71V88.7H477.642V90.32ZM499.918 87.14C500.198 86.74 500.468 86.46 500.728 86.3C500.988 86.14 501.338 86.06 501.778 86.06C502.258 86.06 502.638 86.2 502.918 86.48C503.198 86.74 503.338 87.1 503.338 87.56V99.68C503.338 100.12 503.208 100.48 502.948 100.76C502.688 101.02 502.338 101.15 501.898 101.15C501.478 101.15 501.128 101.02 500.848 100.76C500.588 100.48 500.458 100.12 500.458 99.68V90.14L493.258 100.13C492.978 100.53 492.698 100.8 492.418 100.94C492.158 101.08 491.828 101.15 491.428 101.15C490.968 101.15 490.588 101.02 490.288 100.76C490.008 100.48 489.868 100.12 489.868 99.68V87.53C489.868 87.11 489.998 86.76 490.258 86.48C490.538 86.2 490.898 86.06 491.338 86.06C491.758 86.06 492.098 86.2 492.358 86.48C492.638 86.76 492.778 87.11 492.778 87.53V96.98L499.918 87.14ZM207.57 143.15C207.11 143.15 206.74 143.02 206.46 142.76C206.18 142.5 206.04 142.15 206.04 141.71V129.92C206.04 129.44 206.17 129.06 206.43 128.78C206.69 128.5 207.05 128.36 207.51 128.36H217.56C218.04 128.36 218.42 128.49 218.7 128.75C218.98 129.01 219.12 129.37 219.12 129.83V141.71C219.12 142.15 218.98 142.5 218.7 142.76C218.42 143.02 218.05 143.15 217.59 143.15C217.13 143.15 216.76 143.02 216.48 142.76C216.22 142.5 216.09 142.15 216.09 141.71V130.7H209.07V141.71C209.07 142.15 208.93 142.5 208.65 142.76C208.39 143.02 208.03 143.15 207.57 143.15ZM229.628 143.21C228.188 143.21 226.918 142.9 225.818 142.28C224.738 141.66 223.898 140.78 223.298 139.64C222.718 138.48 222.428 137.14 222.428 135.62C222.428 134.08 222.718 132.74 223.298 131.6C223.898 130.44 224.738 129.55 225.818 128.93C226.918 128.31 228.188 128 229.628 128C231.068 128 232.328 128.31 233.408 128.93C234.508 129.55 235.348 130.44 235.928 131.6C236.528 132.74 236.828 134.08 236.828 135.62C236.828 137.14 236.528 138.48 235.928 139.64C235.348 140.78 234.508 141.66 233.408 142.28C232.328 142.9 231.068 143.21 229.628 143.21ZM229.628 140.81C230.968 140.81 231.988 140.37 232.688 139.49C233.408 138.61 233.768 137.32 233.768 135.62C233.768 133.94 233.408 132.66 232.688 131.78C231.968 130.88 230.948 130.43 229.628 130.43C228.308 130.43 227.288 130.88 226.568 131.78C225.848 132.66 225.488 133.94 225.488 135.62C225.488 137.32 225.838 138.61 226.538 139.49C227.258 140.37 228.288 140.81 229.628 140.81ZM254.802 143.21C252.382 143.21 250.572 142.39 249.372 140.75C248.192 139.11 247.602 137.03 247.602 134.51C247.602 132.21 247.812 130.33 248.232 128.87C248.652 127.41 249.272 126.26 250.092 125.42C250.912 124.56 251.962 123.85 253.242 123.29C253.802 123.03 254.762 122.7 256.122 122.3C257.402 121.92 258.452 121.56 259.272 121.22C259.532 121.12 259.762 121.07 259.962 121.07C260.322 121.07 260.612 121.18 260.832 121.4C261.052 121.62 261.162 121.89 261.162 122.21C261.162 122.45 261.082 122.69 260.922 122.93C260.782 123.15 260.562 123.34 260.262 123.5C259.782 123.76 259.262 124 258.702 124.22C258.142 124.42 257.452 124.64 256.632 124.88C255.772 125.14 255.002 125.39 254.322 125.63C252.942 126.11 251.902 126.85 251.202 127.85C250.522 128.83 250.142 130.25 250.062 132.11C250.502 131.03 251.212 130.15 252.192 129.47C253.192 128.77 254.362 128.42 255.702 128.42C257.642 128.42 259.182 129.05 260.322 130.31C261.482 131.55 262.062 133.35 262.062 135.71C262.062 137.11 261.772 138.38 261.192 139.52C260.612 140.66 259.772 141.56 258.672 142.22C257.572 142.88 256.282 143.21 254.802 143.21ZM254.832 140.81C256.252 140.81 257.302 140.32 257.982 139.34C258.662 138.34 259.002 137.16 259.002 135.8C259.002 134.22 258.652 133.01 257.952 132.17C257.252 131.31 256.292 130.88 255.072 130.88C253.692 130.88 252.622 131.37 251.862 132.35C251.122 133.31 250.752 134.47 250.752 135.83C250.752 137.25 251.082 138.44 251.742 139.4C252.402 140.34 253.432 140.81 254.832 140.81ZM271.576 128C273.516 128 274.956 128.49 275.896 129.47C276.856 130.45 277.336 131.94 277.336 133.94V141.71C277.336 142.17 277.206 142.53 276.946 142.79C276.686 143.03 276.326 143.15 275.866 143.15C275.426 143.15 275.076 143.02 274.816 142.76C274.556 142.5 274.426 142.15 274.426 141.71V140.6C274.046 141.44 273.476 142.09 272.716 142.55C271.976 142.99 271.106 143.21 270.106 143.21C269.146 143.21 268.266 143.02 267.466 142.64C266.686 142.24 266.066 141.7 265.606 141.02C265.146 140.34 264.916 139.57 264.916 138.71C264.896 137.63 265.166 136.79 265.726 136.19C266.286 135.57 267.196 135.13 268.456 134.87C269.716 134.59 271.466 134.45 273.706 134.45H274.396V133.58C274.396 132.46 274.166 131.65 273.706 131.15C273.246 130.65 272.506 130.4 271.486 130.4C270.786 130.4 270.126 130.49 269.506 130.67C268.886 130.85 268.206 131.11 267.466 131.45C266.926 131.75 266.546 131.9 266.326 131.9C266.026 131.9 265.776 131.79 265.576 131.57C265.396 131.35 265.306 131.07 265.306 130.73C265.306 130.43 265.386 130.17 265.546 129.95C265.726 129.71 266.006 129.48 266.386 129.26C267.086 128.88 267.906 128.58 268.846 128.36C269.786 128.12 270.696 128 271.576 128ZM270.646 140.96C271.746 140.96 272.646 140.59 273.346 139.85C274.046 139.09 274.396 138.12 274.396 136.94V136.16H273.856C272.296 136.16 271.096 136.23 270.256 136.37C269.416 136.51 268.816 136.75 268.456 137.09C268.096 137.41 267.916 137.88 267.916 138.5C267.916 139.22 268.176 139.81 268.696 140.27C269.216 140.73 269.866 140.96 270.646 140.96ZM286.011 132.32C286.011 135.42 285.661 137.81 284.961 139.49C284.281 141.15 283.211 142.35 281.751 143.09C281.571 143.17 281.361 143.21 281.121 143.21C280.761 143.21 280.461 143.1 280.221 142.88C279.981 142.64 279.861 142.36 279.861 142.04C279.861 141.8 279.931 141.57 280.071 141.35C280.211 141.11 280.401 140.92 280.641 140.78C281.301 140.4 281.811 139.89 282.171 139.25C282.551 138.59 282.821 137.72 282.981 136.64C283.141 135.56 283.221 134.14 283.221 132.38V129.92C283.221 129.44 283.351 129.06 283.611 128.78C283.871 128.5 284.231 128.36 284.691 128.36H292.611C293.091 128.36 293.471 128.49 293.751 128.75C294.031 129.01 294.171 129.37 294.171 129.83V141.71C294.171 142.15 294.031 142.5 293.751 142.76C293.491 143.02 293.131 143.15 292.671 143.15C292.211 143.15 291.841 143.02 291.561 142.76C291.281 142.5 291.141 142.15 291.141 141.71V130.7H286.011V132.32ZM302.827 132.32C302.827 135.42 302.477 137.81 301.777 139.49C301.097 141.15 300.027 142.35 298.567 143.09C298.387 143.17 298.177 143.21 297.937 143.21C297.577 143.21 297.277 143.1 297.037 142.88C296.797 142.64 296.677 142.36 296.677 142.04C296.677 141.8 296.747 141.57 296.887 141.35C297.027 141.11 297.217 140.92 297.457 140.78C298.117 140.4 298.627 139.89 298.987 139.25C299.367 138.59 299.637 137.72 299.797 136.64C299.957 135.56 300.037 134.14 300.037 132.38V129.92C300.037 129.44 300.167 129.06 300.427 128.78C300.687 128.5 301.047 128.36 301.507 128.36H309.427C309.907 128.36 310.287 128.49 310.567 128.75C310.847 129.01 310.987 129.37 310.987 129.83V141.71C310.987 142.15 310.847 142.5 310.567 142.76C310.307 143.02 309.947 143.15 309.487 143.15C309.027 143.15 308.657 143.02 308.377 142.76C308.097 142.5 307.957 142.15 307.957 141.71V130.7H302.827V132.32ZM321.264 128C323.204 128 324.644 128.49 325.584 129.47C326.544 130.45 327.024 131.94 327.024 133.94V141.71C327.024 142.17 326.894 142.53 326.634 142.79C326.374 143.03 326.014 143.15 325.554 143.15C325.114 143.15 324.764 143.02 324.504 142.76C324.244 142.5 324.114 142.15 324.114 141.71V140.6C323.734 141.44 323.164 142.09 322.404 142.55C321.664 142.99 320.794 143.21 319.794 143.21C318.834 143.21 317.954 143.02 317.154 142.64C316.374 142.24 315.754 141.7 315.294 141.02C314.834 140.34 314.604 139.57 314.604 138.71C314.584 137.63 314.854 136.79 315.414 136.19C315.974 135.57 316.884 135.13 318.144 134.87C319.404 134.59 321.154 134.45 323.394 134.45H324.084V133.58C324.084 132.46 323.854 131.65 323.394 131.15C322.934 130.65 322.194 130.4 321.174 130.4C320.474 130.4 319.814 130.49 319.194 130.67C318.574 130.85 317.894 131.11 317.154 131.45C316.614 131.75 316.234 131.9 316.014 131.9C315.714 131.9 315.464 131.79 315.264 131.57C315.084 131.35 314.994 131.07 314.994 130.73C314.994 130.43 315.074 130.17 315.234 129.95C315.414 129.71 315.694 129.48 316.074 129.26C316.774 128.88 317.594 128.58 318.534 128.36C319.474 128.12 320.384 128 321.264 128ZM320.334 140.96C321.434 140.96 322.334 140.59 323.034 139.85C323.734 139.09 324.084 138.12 324.084 136.94V136.16H323.544C321.984 136.16 320.784 136.23 319.944 136.37C319.104 136.51 318.504 136.75 318.144 137.09C317.784 137.41 317.604 137.88 317.604 138.5C317.604 139.22 317.864 139.81 318.384 140.27C318.904 140.73 319.554 140.96 320.334 140.96ZM345.118 128.06C345.598 128.06 345.978 128.19 346.258 128.45C346.538 128.71 346.678 129.07 346.678 129.53V141.77C346.678 142.17 346.548 142.5 346.288 142.76C346.028 143.02 345.688 143.15 345.268 143.15C344.868 143.15 344.528 143.02 344.248 142.76C343.988 142.5 343.858 142.16 343.858 141.74L343.888 133.07L340.258 139.76C340.118 140.02 339.928 140.23 339.688 140.39C339.448 140.53 339.188 140.6 338.908 140.6C338.608 140.6 338.338 140.53 338.098 140.39C337.858 140.23 337.668 140.02 337.528 139.76L333.898 133.07L333.928 141.74C333.928 142.16 333.788 142.5 333.508 142.76C333.248 143.02 332.918 143.15 332.518 143.15C332.098 143.15 331.758 143.02 331.498 142.76C331.238 142.5 331.108 142.17 331.108 141.77V129.62C331.108 129.16 331.238 128.79 331.498 128.51C331.778 128.21 332.138 128.06 332.578 128.06C332.978 128.06 333.318 128.13 333.598 128.27C333.898 128.41 334.148 128.69 334.348 129.11L338.908 137.69L343.348 129.26C343.588 128.82 343.838 128.51 344.098 128.33C344.358 128.15 344.698 128.06 345.118 128.06ZM368.727 129.14C369.007 128.74 369.277 128.46 369.537 128.3C369.797 128.14 370.147 128.06 370.587 128.06C371.067 128.06 371.447 128.2 371.727 128.48C372.007 128.74 372.147 129.1 372.147 129.56V141.68C372.147 142.12 372.017 142.48 371.757 142.76C371.497 143.02 371.147 143.15 370.707 143.15C370.287 143.15 369.937 143.02 369.657 142.76C369.397 142.48 369.267 142.12 369.267 141.68V132.14L362.067 142.13C361.787 142.53 361.507 142.8 361.227 142.94C360.967 143.08 360.637 143.15 360.237 143.15C359.777 143.15 359.397 143.02 359.097 142.76C358.817 142.48 358.677 142.12 358.677 141.68V129.53C358.677 129.11 358.807 128.76 359.067 128.48C359.347 128.2 359.707 128.06 360.147 128.06C360.567 128.06 360.907 128.2 361.167 128.48C361.447 128.76 361.587 129.11 361.587 129.53V138.98L368.727 129.14ZM390.495 143.21C389.075 143.21 387.825 142.9 386.745 142.28C385.685 141.66 384.855 140.78 384.255 139.64C383.675 138.5 383.385 137.18 383.385 135.68C383.385 134.16 383.685 132.82 384.285 131.66C384.905 130.5 385.765 129.6 386.865 128.96C387.965 128.32 389.225 128 390.645 128C391.405 128 392.165 128.11 392.925 128.33C393.705 128.55 394.395 128.85 394.995 129.23C395.635 129.67 395.955 130.18 395.955 130.76C395.955 131.1 395.865 131.39 395.685 131.63C395.505 131.85 395.275 131.96 394.995 131.96C394.815 131.96 394.635 131.92 394.455 131.84C394.275 131.74 394.045 131.6 393.765 131.42C393.265 131.1 392.795 130.86 392.355 130.7C391.935 130.52 391.425 130.43 390.825 130.43C389.465 130.43 388.405 130.89 387.645 131.81C386.905 132.73 386.535 134.01 386.535 135.65C386.535 137.29 386.905 138.56 387.645 139.46C388.385 140.34 389.435 140.78 390.795 140.78C391.395 140.78 391.925 140.69 392.385 140.51C392.845 140.33 393.315 140.09 393.795 139.79C394.015 139.65 394.235 139.53 394.455 139.43C394.675 139.33 394.875 139.28 395.055 139.28C395.335 139.28 395.565 139.4 395.745 139.64C395.925 139.86 396.015 140.14 396.015 140.48C396.015 140.76 395.935 141.02 395.775 141.26C395.635 141.48 395.385 141.71 395.025 141.95C394.425 142.35 393.725 142.66 392.925 142.88C392.125 143.1 391.315 143.21 390.495 143.21ZM406.587 128C407.847 128 408.967 128.32 409.947 128.96C410.947 129.6 411.717 130.5 412.257 131.66C412.817 132.82 413.097 134.16 413.097 135.68C413.097 137.18 412.827 138.5 412.287 139.64C411.747 140.78 410.977 141.66 409.977 142.28C408.997 142.9 407.867 143.21 406.587 143.21C405.487 143.21 404.517 142.98 403.677 142.52C402.837 142.04 402.197 141.36 401.757 140.48V147.17C401.757 147.59 401.617 147.92 401.337 148.16C401.077 148.42 400.727 148.55 400.287 148.55C399.827 148.55 399.447 148.42 399.147 148.16C398.867 147.9 398.727 147.55 398.727 147.11V129.53C398.727 129.09 398.867 128.74 399.147 128.48C399.427 128.2 399.797 128.06 400.257 128.06C400.697 128.06 401.057 128.2 401.337 128.48C401.617 128.74 401.757 129.09 401.757 129.53V130.76C402.197 129.88 402.837 129.2 403.677 128.72C404.517 128.24 405.487 128 406.587 128ZM405.867 140.81C407.187 140.81 408.207 140.37 408.927 139.49C409.647 138.59 410.007 137.32 410.007 135.68C410.007 134.02 409.637 132.73 408.897 131.81C408.177 130.89 407.167 130.43 405.867 130.43C404.547 130.43 403.527 130.88 402.807 131.78C402.107 132.68 401.757 133.96 401.757 135.62C401.757 137.28 402.107 138.56 402.807 139.46C403.527 140.36 404.547 140.81 405.867 140.81ZM422.812 143.21C421.372 143.21 420.102 142.9 419.002 142.28C417.922 141.66 417.082 140.78 416.482 139.64C415.902 138.48 415.612 137.14 415.612 135.62C415.612 134.08 415.902 132.74 416.482 131.6C417.082 130.44 417.922 129.55 419.002 128.93C420.102 128.31 421.372 128 422.812 128C424.252 128 425.512 128.31 426.592 128.93C427.692 129.55 428.532 130.44 429.112 131.6C429.712 132.74 430.012 134.08 430.012 135.62C430.012 137.14 429.712 138.48 429.112 139.64C428.532 140.78 427.692 141.66 426.592 142.28C425.512 142.9 424.252 143.21 422.812 143.21ZM422.812 140.81C424.152 140.81 425.172 140.37 425.872 139.49C426.592 138.61 426.952 137.32 426.952 135.62C426.952 133.94 426.592 132.66 425.872 131.78C425.152 130.88 424.132 130.43 422.812 130.43C421.492 130.43 420.472 130.88 419.752 131.78C419.032 132.66 418.672 133.94 418.672 135.62C418.672 137.32 419.022 138.61 419.722 139.49C420.442 140.37 421.472 140.81 422.812 140.81ZM441.035 135.02C441.735 135.26 442.295 135.6 442.715 136.04C443.155 136.48 443.675 137.22 444.275 138.26L445.895 140.99C446.035 141.25 446.105 141.5 446.105 141.74C446.105 142.14 445.955 142.48 445.655 142.76C445.355 143.02 445.005 143.15 444.605 143.15C444.085 143.15 443.665 142.89 443.345 142.37L441.245 138.77C440.765 137.97 440.305 137.43 439.865 137.15C439.445 136.85 438.825 136.7 438.005 136.7H436.565V141.71C436.565 142.15 436.425 142.5 436.145 142.76C435.865 143.02 435.495 143.15 435.035 143.15C434.575 143.15 434.205 143.02 433.925 142.76C433.665 142.5 433.535 142.15 433.535 141.71V129.53C433.535 129.07 433.665 128.71 433.925 128.45C434.205 128.19 434.575 128.06 435.035 128.06C435.495 128.06 435.865 128.2 436.145 128.48C436.425 128.74 436.565 129.09 436.565 129.53V134.39H438.275L442.955 128.69C443.295 128.29 443.675 128.09 444.095 128.09C444.435 128.09 444.725 128.21 444.965 128.45C445.225 128.69 445.355 128.98 445.355 129.32C445.355 129.68 445.225 130.02 444.965 130.34L441.035 135.02ZM455.326 128C457.266 128 458.706 128.49 459.646 129.47C460.606 130.45 461.086 131.94 461.086 133.94V141.71C461.086 142.17 460.956 142.53 460.696 142.79C460.436 143.03 460.076 143.15 459.616 143.15C459.176 143.15 458.826 143.02 458.566 142.76C458.306 142.5 458.176 142.15 458.176 141.71V140.6C457.796 141.44 457.226 142.09 456.466 142.55C455.726 142.99 454.856 143.21 453.856 143.21C452.896 143.21 452.016 143.02 451.216 142.64C450.436 142.24 449.816 141.7 449.356 141.02C448.896 140.34 448.666 139.57 448.666 138.71C448.646 137.63 448.916 136.79 449.476 136.19C450.036 135.57 450.946 135.13 452.206 134.87C453.466 134.59 455.216 134.45 457.456 134.45H458.146V133.58C458.146 132.46 457.916 131.65 457.456 131.15C456.996 130.65 456.256 130.4 455.236 130.4C454.536 130.4 453.876 130.49 453.256 130.67C452.636 130.85 451.956 131.11 451.216 131.45C450.676 131.75 450.296 131.9 450.076 131.9C449.776 131.9 449.526 131.79 449.326 131.57C449.146 131.35 449.056 131.07 449.056 130.73C449.056 130.43 449.136 130.17 449.296 129.95C449.476 129.71 449.756 129.48 450.136 129.26C450.836 128.88 451.656 128.58 452.596 128.36C453.536 128.12 454.446 128 455.326 128ZM454.396 140.96C455.496 140.96 456.396 140.59 457.096 139.85C457.796 139.09 458.146 138.12 458.146 136.94V136.16H457.606C456.046 136.16 454.846 136.23 454.006 136.37C453.166 136.51 452.566 136.75 452.206 137.09C451.846 137.41 451.666 137.88 451.666 138.5C451.666 139.22 451.926 139.81 452.446 140.27C452.966 140.73 453.616 140.96 454.396 140.96ZM479.181 128.06C479.661 128.06 480.041 128.19 480.321 128.45C480.601 128.71 480.741 129.07 480.741 129.53V141.77C480.741 142.17 480.611 142.5 480.351 142.76C480.091 143.02 479.751 143.15 479.331 143.15C478.931 143.15 478.591 143.02 478.311 142.76C478.051 142.5 477.921 142.16 477.921 141.74L477.951 133.07L474.321 139.76C474.181 140.02 473.991 140.23 473.751 140.39C473.511 140.53 473.251 140.6 472.971 140.6C472.671 140.6 472.401 140.53 472.161 140.39C471.921 140.23 471.731 140.02 471.591 139.76L467.961 133.07L467.991 141.74C467.991 142.16 467.851 142.5 467.571 142.76C467.311 143.02 466.981 143.15 466.581 143.15C466.161 143.15 465.821 143.02 465.561 142.76C465.301 142.5 465.171 142.17 465.171 141.77V129.62C465.171 129.16 465.301 128.79 465.561 128.51C465.841 128.21 466.201 128.06 466.641 128.06C467.041 128.06 467.381 128.13 467.661 128.27C467.961 128.41 468.211 128.69 468.411 129.11L472.971 137.69L477.411 129.26C477.651 128.82 477.901 128.51 478.161 128.33C478.421 128.15 478.761 128.06 479.181 128.06Z" fill="black"/>
</svg>
