<svg width="575" height="350" viewBox="0 0 575 350" fill="none" xmlns="http://www.w3.org/2000/svg">
<rect width="575" height="350" fill="white"/>
<path d="M30.74 109.73C30.74 109.27 30.88 108.9 31.16 108.62C31.44 108.34 31.81 108.2 32.27 108.2C32.73 108.2 33.1 108.34 33.38 108.62C33.66 108.9 33.8 109.27 33.8 109.73V114.98C33.8 116.56 34.25 117.69 35.15 118.37C36.05 119.03 37.3 119.36 38.9 119.36C40.58 119.36 41.97 119.16 43.07 118.76V109.73C43.07 109.27 43.21 108.9 43.49 108.62C43.77 108.34 44.14 108.2 44.6 108.2C45.06 108.2 45.43 108.34 45.71 108.62C45.99 108.9 46.13 109.27 46.13 109.73V128.12C46.13 128.58 45.99 128.95 45.71 129.23C45.43 129.51 45.06 129.65 44.6 129.65C44.14 129.65 43.77 129.51 43.49 129.23C43.21 128.95 43.07 128.58 43.07 128.12V121.25C42.45 121.43 41.72 121.58 40.88 121.7C40.04 121.82 39.2 121.88 38.36 121.88C35.98 121.88 34.11 121.37 32.75 120.35C31.41 119.31 30.74 117.65 30.74 115.37V109.73ZM62.1596 125.81C62.4396 125.81 62.6696 125.92 62.8496 126.14C63.0296 126.36 63.1196 126.64 63.1196 126.98C63.1196 127.56 62.7596 128.05 62.0396 128.45C61.3396 128.85 60.5696 129.16 59.7296 129.38C58.9096 129.6 58.1196 129.71 57.3596 129.71C55.0396 129.71 53.2096 129.04 51.8696 127.7C50.5296 126.34 49.8596 124.49 49.8596 122.15C49.8596 120.65 50.1496 119.32 50.7296 118.16C51.3296 117 52.1596 116.1 53.2196 115.46C54.2996 114.82 55.5196 114.5 56.8796 114.5C58.8396 114.5 60.3896 115.13 61.5296 116.39C62.6696 117.65 63.2396 119.35 63.2396 121.49C63.2396 122.29 62.8796 122.69 62.1596 122.69H52.8896C53.0896 125.79 54.5796 127.34 57.3596 127.34C58.0996 127.34 58.7396 127.24 59.2796 127.04C59.8196 126.84 60.3896 126.58 60.9896 126.26C61.0496 126.22 61.2096 126.14 61.4696 126.02C61.7496 125.88 61.9796 125.81 62.1596 125.81ZM56.9396 116.72C55.7796 116.72 54.8496 117.09 54.1496 117.83C53.4496 118.57 53.0296 119.61 52.8896 120.95H60.6296C60.5696 119.59 60.2196 118.55 59.5796 117.83C58.9596 117.09 58.0796 116.72 56.9396 116.72ZM54.1196 111.59C53.6196 111.59 53.2096 111.44 52.8896 111.14C52.5696 110.84 52.4096 110.44 52.4096 109.94C52.4096 109.46 52.5696 109.07 52.8896 108.77C53.2096 108.47 53.6196 108.32 54.1196 108.32C54.5996 108.32 54.9996 108.47 55.3196 108.77C55.6596 109.07 55.8296 109.46 55.8296 109.94C55.8296 110.44 55.6696 110.84 55.3496 111.14C55.0296 111.44 54.6196 111.59 54.1196 111.59ZM59.3996 111.59C58.9196 111.59 58.5196 111.44 58.1996 111.14C57.8796 110.82 57.7196 110.42 57.7196 109.94C57.7196 109.46 57.8796 109.07 58.1996 108.77C58.5196 108.47 58.9196 108.32 59.3996 108.32C59.8996 108.32 60.3096 108.47 60.6296 108.77C60.9496 109.07 61.1096 109.46 61.1096 109.94C61.1096 110.44 60.9496 110.84 60.6296 111.14C60.3096 111.44 59.8996 111.59 59.3996 111.59ZM71.262 129.65C70.802 129.65 70.432 129.52 70.152 129.26C69.872 129 69.732 128.65 69.732 128.21V117.2H65.832C65.472 117.2 65.182 117.09 64.962 116.87C64.742 116.65 64.632 116.37 64.632 116.03C64.632 115.69 64.742 115.41 64.962 115.19C65.182 114.97 65.472 114.86 65.832 114.86H76.662C77.042 114.86 77.342 114.97 77.562 115.19C77.782 115.41 77.892 115.69 77.892 116.03C77.892 116.37 77.782 116.65 77.562 116.87C77.342 117.09 77.042 117.2 76.662 117.2H72.762V128.21C72.762 128.65 72.622 129 72.342 129.26C72.082 129.52 71.722 129.65 71.262 129.65ZM87.9102 121.52C88.6102 121.76 89.1702 122.1 89.5902 122.54C90.0302 122.98 90.5502 123.72 91.1502 124.76L92.7702 127.49C92.9102 127.75 92.9802 128 92.9802 128.24C92.9802 128.64 92.8302 128.98 92.5302 129.26C92.2302 129.52 91.8802 129.65 91.4802 129.65C90.9602 129.65 90.5402 129.39 90.2202 128.87L88.1202 125.27C87.6402 124.47 87.1802 123.93 86.7402 123.65C86.3202 123.35 85.7002 123.2 84.8802 123.2H83.4402V128.21C83.4402 128.65 83.3002 129 83.0202 129.26C82.7402 129.52 82.3702 129.65 81.9102 129.65C81.4502 129.65 81.0802 129.52 80.8002 129.26C80.5402 129 80.4102 128.65 80.4102 128.21V116.03C80.4102 115.57 80.5402 115.21 80.8002 114.95C81.0802 114.69 81.4502 114.56 81.9102 114.56C82.3702 114.56 82.7402 114.7 83.0202 114.98C83.3002 115.24 83.4402 115.59 83.4402 116.03V120.89H85.1502L89.8302 115.19C90.1702 114.79 90.5502 114.59 90.9702 114.59C91.3102 114.59 91.6002 114.71 91.8402 114.95C92.1002 115.19 92.2302 115.48 92.2302 115.82C92.2302 116.18 92.1002 116.52 91.8402 116.84L87.9102 121.52ZM102.201 114.5C104.141 114.5 105.581 114.99 106.521 115.97C107.481 116.95 107.961 118.44 107.961 120.44V128.21C107.961 128.67 107.831 129.03 107.571 129.29C107.311 129.53 106.951 129.65 106.491 129.65C106.051 129.65 105.701 129.52 105.441 129.26C105.181 129 105.051 128.65 105.051 128.21V127.1C104.671 127.94 104.101 128.59 103.341 129.05C102.601 129.49 101.731 129.71 100.731 129.71C99.7712 129.71 98.8912 129.52 98.0912 129.14C97.3112 128.74 96.6912 128.2 96.2312 127.52C95.7712 126.84 95.5412 126.07 95.5412 125.21C95.5212 124.13 95.7912 123.29 96.3512 122.69C96.9112 122.07 97.8212 121.63 99.0812 121.37C100.341 121.09 102.091 120.95 104.331 120.95H105.021V120.08C105.021 118.96 104.791 118.15 104.331 117.65C103.871 117.15 103.131 116.9 102.111 116.9C101.411 116.9 100.751 116.99 100.131 117.17C99.5112 117.35 98.8312 117.61 98.0912 117.95C97.5512 118.25 97.1712 118.4 96.9512 118.4C96.6512 118.4 96.4012 118.29 96.2012 118.07C96.0212 117.85 95.9312 117.57 95.9312 117.23C95.9312 116.93 96.0112 116.67 96.1712 116.45C96.3512 116.21 96.6312 115.98 97.0112 115.76C97.7112 115.38 98.5312 115.08 99.4712 114.86C100.411 114.62 101.321 114.5 102.201 114.5ZM101.271 127.46C102.371 127.46 103.271 127.09 103.971 126.35C104.671 125.59 105.021 124.62 105.021 123.44V122.66H104.481C102.921 122.66 101.721 122.73 100.881 122.87C100.041 123.01 99.4412 123.25 99.0812 123.59C98.7212 123.91 98.5412 124.38 98.5412 125C98.5412 125.72 98.8012 126.31 99.3212 126.77C99.8412 127.23 100.491 127.46 101.271 127.46ZM122.426 129.65C121.966 129.65 121.596 129.52 121.316 129.26C121.056 129 120.926 128.65 120.926 128.21V124.25H119.426C118.026 124.25 116.916 124.88 116.096 126.14L114.116 129.08C113.776 129.56 113.346 129.8 112.826 129.8C112.446 129.8 112.106 129.67 111.806 129.41C111.526 129.15 111.386 128.84 111.386 128.48C111.386 128.2 111.476 127.91 111.656 127.61L112.646 126.05C113.086 125.35 113.576 124.77 114.116 124.31C114.656 123.83 115.206 123.52 115.766 123.38C114.466 123.14 113.506 122.66 112.886 121.94C112.286 121.22 111.986 120.36 111.986 119.36C111.986 117.92 112.446 116.81 113.366 116.03C114.286 115.25 115.536 114.86 117.116 114.86H122.396C122.876 114.86 123.246 114.99 123.506 115.25C123.786 115.51 123.926 115.87 123.926 116.33V128.21C123.926 128.65 123.786 129 123.506 129.26C123.246 129.52 122.886 129.65 122.426 129.65ZM120.926 117.05H117.896C115.876 117.05 114.866 117.89 114.866 119.57C114.866 120.47 115.156 121.12 115.736 121.52C116.316 121.9 117.046 122.09 117.926 122.09H120.926V117.05ZM140.813 129.65C140.353 129.65 139.983 129.52 139.703 129.26C139.423 129 139.283 128.65 139.283 128.21V117.2H135.383C135.023 117.2 134.733 117.09 134.513 116.87C134.293 116.65 134.183 116.37 134.183 116.03C134.183 115.69 134.293 115.41 134.513 115.19C134.733 114.97 135.023 114.86 135.383 114.86H146.213C146.593 114.86 146.893 114.97 147.113 115.19C147.333 115.41 147.443 115.69 147.443 116.03C147.443 116.37 147.333 116.65 147.113 116.87C146.893 117.09 146.593 117.2 146.213 117.2H142.313V128.21C142.313 128.65 142.173 129 141.893 129.26C141.633 129.52 141.273 129.65 140.813 129.65ZM161.124 125.81C161.404 125.81 161.634 125.92 161.814 126.14C161.994 126.36 162.084 126.64 162.084 126.98C162.084 127.56 161.724 128.05 161.004 128.45C160.304 128.85 159.534 129.16 158.694 129.38C157.874 129.6 157.084 129.71 156.324 129.71C154.004 129.71 152.174 129.04 150.834 127.7C149.494 126.34 148.824 124.49 148.824 122.15C148.824 120.65 149.114 119.32 149.694 118.16C150.294 117 151.124 116.1 152.184 115.46C153.264 114.82 154.484 114.5 155.844 114.5C157.804 114.5 159.354 115.13 160.494 116.39C161.634 117.65 162.204 119.35 162.204 121.49C162.204 122.29 161.844 122.69 161.124 122.69H151.854C152.054 125.79 153.544 127.34 156.324 127.34C157.064 127.34 157.704 127.24 158.244 127.04C158.784 126.84 159.354 126.58 159.954 126.26C160.014 126.22 160.174 126.14 160.434 126.02C160.714 125.88 160.944 125.81 161.124 125.81ZM155.904 116.72C154.744 116.72 153.814 117.09 153.114 117.83C152.414 118.57 151.994 119.61 151.854 120.95H159.594C159.534 119.59 159.184 118.55 158.544 117.83C157.924 117.09 157.044 116.72 155.904 116.72ZM171.903 129.71C170.463 129.71 169.193 129.4 168.093 128.78C167.013 128.16 166.173 127.28 165.573 126.14C164.993 124.98 164.703 123.64 164.703 122.12C164.703 120.58 164.993 119.24 165.573 118.1C166.173 116.94 167.013 116.05 168.093 115.43C169.193 114.81 170.463 114.5 171.903 114.5C173.343 114.5 174.603 114.81 175.683 115.43C176.783 116.05 177.623 116.94 178.203 118.1C178.803 119.24 179.103 120.58 179.103 122.12C179.103 123.64 178.803 124.98 178.203 126.14C177.623 127.28 176.783 128.16 175.683 128.78C174.603 129.4 173.343 129.71 171.903 129.71ZM171.903 127.31C173.243 127.31 174.263 126.87 174.963 125.99C175.683 125.11 176.043 123.82 176.043 122.12C176.043 120.44 175.683 119.16 174.963 118.28C174.243 117.38 173.223 116.93 171.903 116.93C170.583 116.93 169.563 117.38 168.843 118.28C168.123 119.16 167.763 120.44 167.763 122.12C167.763 123.82 168.113 125.11 168.813 125.99C169.533 126.87 170.563 127.31 171.903 127.31ZM190.337 114.5C191.597 114.5 192.717 114.82 193.697 115.46C194.697 116.1 195.467 117 196.007 118.16C196.567 119.32 196.847 120.66 196.847 122.18C196.847 123.68 196.577 125 196.037 126.14C195.497 127.28 194.727 128.16 193.727 128.78C192.747 129.4 191.617 129.71 190.337 129.71C189.237 129.71 188.267 129.48 187.427 129.02C186.587 128.54 185.947 127.86 185.507 126.98V133.67C185.507 134.09 185.367 134.42 185.087 134.66C184.827 134.92 184.477 135.05 184.037 135.05C183.577 135.05 183.197 134.92 182.897 134.66C182.617 134.4 182.477 134.05 182.477 133.61V116.03C182.477 115.59 182.617 115.24 182.897 114.98C183.177 114.7 183.547 114.56 184.007 114.56C184.447 114.56 184.807 114.7 185.087 114.98C185.367 115.24 185.507 115.59 185.507 116.03V117.26C185.947 116.38 186.587 115.7 187.427 115.22C188.267 114.74 189.237 114.5 190.337 114.5ZM189.617 127.31C190.937 127.31 191.957 126.87 192.677 125.99C193.397 125.09 193.757 123.82 193.757 122.18C193.757 120.52 193.387 119.23 192.647 118.31C191.927 117.39 190.917 116.93 189.617 116.93C188.297 116.93 187.277 117.38 186.557 118.28C185.857 119.18 185.507 120.46 185.507 122.12C185.507 123.78 185.857 125.06 186.557 125.96C187.277 126.86 188.297 127.31 189.617 127.31ZM210.192 115.64C210.472 115.24 210.742 114.96 211.002 114.8C211.262 114.64 211.612 114.56 212.052 114.56C212.532 114.56 212.912 114.7 213.192 114.98C213.472 115.24 213.612 115.6 213.612 116.06V128.18C213.612 128.62 213.482 128.98 213.222 129.26C212.962 129.52 212.612 129.65 212.172 129.65C211.752 129.65 211.402 129.52 211.122 129.26C210.862 128.98 210.732 128.62 210.732 128.18V118.64L203.532 128.63C203.252 129.03 202.972 129.3 202.692 129.44C202.432 129.58 202.102 129.65 201.702 129.65C201.242 129.65 200.862 129.52 200.562 129.26C200.282 128.98 200.142 128.62 200.142 128.18V116.03C200.142 115.61 200.272 115.26 200.532 114.98C200.812 114.7 201.172 114.56 201.612 114.56C202.032 114.56 202.372 114.7 202.632 114.98C202.912 115.26 203.052 115.61 203.052 116.03V125.48L210.192 115.64ZM228.1 129.65C227.64 129.65 227.27 129.52 226.99 129.26C226.73 129 226.6 128.65 226.6 128.21V124.25H225.1C223.7 124.25 222.59 124.88 221.77 126.14L219.79 129.08C219.45 129.56 219.02 129.8 218.5 129.8C218.12 129.8 217.78 129.67 217.48 129.41C217.2 129.15 217.06 128.84 217.06 128.48C217.06 128.2 217.15 127.91 217.33 127.61L218.32 126.05C218.76 125.35 219.25 124.77 219.79 124.31C220.33 123.83 220.88 123.52 221.44 123.38C220.14 123.14 219.18 122.66 218.56 121.94C217.96 121.22 217.66 120.36 217.66 119.36C217.66 117.92 218.12 116.81 219.04 116.03C219.96 115.25 221.21 114.86 222.79 114.86H228.07C228.55 114.86 228.92 114.99 229.18 115.25C229.46 115.51 229.6 115.87 229.6 116.33V128.21C229.6 128.65 229.46 129 229.18 129.26C228.92 129.52 228.56 129.65 228.1 129.65ZM226.6 117.05H223.57C221.55 117.05 220.54 117.89 220.54 119.57C220.54 120.47 220.83 121.12 221.41 121.52C221.99 121.9 222.72 122.09 223.6 122.09H226.6V117.05Z" fill="black"/>
<path d="M325.99 48.65C325.53 48.65 325.16 48.51 324.88 48.23C324.6 47.95 324.46 47.57 324.46 47.09V28.85C324.46 28.39 324.59 28.03 324.85 27.77C325.13 27.49 325.51 27.35 325.99 27.35H333.22C335.46 27.35 337.2 27.9 338.44 29C339.68 30.1 340.3 31.66 340.3 33.68C340.3 35.68 339.68 37.24 338.44 38.36C337.2 39.48 335.46 40.04 333.22 40.04H327.55V47.09C327.55 47.57 327.41 47.95 327.13 48.23C326.87 48.51 326.49 48.65 325.99 48.65ZM332.89 37.55C335.85 37.55 337.33 36.26 337.33 33.68C337.33 31.12 335.85 29.84 332.89 29.84H327.55V37.55H332.89ZM349.469 33.5C351.409 33.5 352.849 33.99 353.789 34.97C354.749 35.95 355.229 37.44 355.229 39.44V47.21C355.229 47.67 355.099 48.03 354.839 48.29C354.579 48.53 354.219 48.65 353.759 48.65C353.319 48.65 352.969 48.52 352.709 48.26C352.449 48 352.319 47.65 352.319 47.21V46.1C351.939 46.94 351.369 47.59 350.609 48.05C349.869 48.49 348.999 48.71 347.999 48.71C347.039 48.71 346.159 48.52 345.359 48.14C344.579 47.74 343.959 47.2 343.499 46.52C343.039 45.84 342.809 45.07 342.809 44.21C342.789 43.13 343.059 42.29 343.619 41.69C344.179 41.07 345.089 40.63 346.349 40.37C347.609 40.09 349.359 39.95 351.599 39.95H352.289V39.08C352.289 37.96 352.059 37.15 351.599 36.65C351.139 36.15 350.399 35.9 349.379 35.9C348.679 35.9 348.019 35.99 347.399 36.17C346.779 36.35 346.099 36.61 345.359 36.95C344.819 37.25 344.439 37.4 344.219 37.4C343.919 37.4 343.669 37.29 343.469 37.07C343.289 36.85 343.199 36.57 343.199 36.23C343.199 35.93 343.279 35.67 343.439 35.45C343.619 35.21 343.899 34.98 344.279 34.76C344.979 34.38 345.799 34.08 346.739 33.86C347.679 33.62 348.589 33.5 349.469 33.5ZM348.539 46.46C349.639 46.46 350.539 46.09 351.239 45.35C351.939 44.59 352.289 43.62 352.289 42.44V41.66H351.749C350.189 41.66 348.989 41.73 348.149 41.87C347.309 42.01 346.709 42.25 346.349 42.59C345.989 42.91 345.809 43.38 345.809 44C345.809 44.72 346.069 45.31 346.589 45.77C347.109 46.23 347.759 46.46 348.539 46.46ZM364.113 48.71C362.073 48.71 360.333 48.28 358.893 47.42C358.373 47.14 358.113 46.75 358.113 46.25C358.113 45.95 358.223 45.7 358.443 45.5C358.663 45.28 358.943 45.17 359.283 45.17C359.523 45.17 359.763 45.23 360.003 45.35C360.623 45.69 361.233 45.94 361.833 46.1C362.453 46.26 363.133 46.34 363.873 46.34C364.853 46.34 365.703 46.15 366.423 45.77C367.143 45.39 367.503 44.81 367.503 44.03C367.503 42.75 366.593 42.11 364.773 42.11H362.643C362.303 42.11 362.023 42.01 361.803 41.81C361.603 41.59 361.503 41.31 361.503 40.97C361.503 40.65 361.613 40.39 361.833 40.19C362.053 39.97 362.323 39.86 362.643 39.86H364.593C365.433 39.86 366.073 39.68 366.513 39.32C366.973 38.94 367.203 38.45 367.203 37.85C367.203 37.23 366.943 36.76 366.423 36.44C365.903 36.1 365.163 35.93 364.203 35.93C363.423 35.93 362.733 36.01 362.133 36.17C361.553 36.33 360.963 36.57 360.363 36.89C360.123 36.99 359.903 37.04 359.703 37.04C359.383 37.04 359.103 36.93 358.863 36.71C358.643 36.49 358.533 36.24 358.533 35.96C358.533 35.46 358.803 35.08 359.343 34.82C360.923 33.94 362.723 33.5 364.743 33.5C366.603 33.5 368.003 33.86 368.943 34.58C369.903 35.3 370.383 36.26 370.383 37.46C370.383 38.2 370.153 38.88 369.693 39.5C369.233 40.12 368.593 40.57 367.773 40.85C369.693 41.27 370.653 42.4 370.653 44.24C370.653 45.14 370.363 45.93 369.783 46.61C369.203 47.29 368.413 47.81 367.413 48.17C366.413 48.53 365.313 48.71 364.113 48.71ZM380.712 48.71C378.292 48.71 376.482 47.89 375.282 46.25C374.102 44.61 373.512 42.53 373.512 40.01C373.512 37.71 373.722 35.83 374.142 34.37C374.562 32.91 375.182 31.76 376.002 30.92C376.822 30.06 377.872 29.35 379.152 28.79C379.712 28.53 380.672 28.2 382.032 27.8C383.312 27.42 384.362 27.06 385.182 26.72C385.442 26.62 385.672 26.57 385.872 26.57C386.232 26.57 386.522 26.68 386.742 26.9C386.962 27.12 387.072 27.39 387.072 27.71C387.072 27.95 386.992 28.19 386.832 28.43C386.692 28.65 386.472 28.84 386.172 29C385.692 29.26 385.172 29.5 384.612 29.72C384.052 29.92 383.362 30.14 382.542 30.38C381.682 30.64 380.912 30.89 380.232 31.13C378.852 31.61 377.812 32.35 377.112 33.35C376.432 34.33 376.052 35.75 375.972 37.61C376.412 36.53 377.122 35.65 378.102 34.97C379.102 34.27 380.272 33.92 381.612 33.92C383.552 33.92 385.092 34.55 386.232 35.81C387.392 37.05 387.972 38.85 387.972 41.21C387.972 42.61 387.682 43.88 387.102 45.02C386.522 46.16 385.682 47.06 384.582 47.72C383.482 48.38 382.192 48.71 380.712 48.71ZM380.742 46.31C382.162 46.31 383.212 45.82 383.892 44.84C384.572 43.84 384.912 42.66 384.912 41.3C384.912 39.72 384.562 38.51 383.862 37.67C383.162 36.81 382.202 36.38 380.982 36.38C379.602 36.38 378.532 36.87 377.772 37.85C377.032 38.81 376.662 39.97 376.662 41.33C376.662 42.75 376.992 43.94 377.652 44.9C378.312 45.84 379.342 46.31 380.742 46.31ZM397.696 48.71C396.256 48.71 394.986 48.4 393.886 47.78C392.806 47.16 391.966 46.28 391.366 45.14C390.786 43.98 390.496 42.64 390.496 41.12C390.496 39.58 390.786 38.24 391.366 37.1C391.966 35.94 392.806 35.05 393.886 34.43C394.986 33.81 396.256 33.5 397.696 33.5C399.136 33.5 400.396 33.81 401.476 34.43C402.576 35.05 403.416 35.94 403.996 37.1C404.596 38.24 404.896 39.58 404.896 41.12C404.896 42.64 404.596 43.98 403.996 45.14C403.416 46.28 402.576 47.16 401.476 47.78C400.396 48.4 399.136 48.71 397.696 48.71ZM397.696 46.31C399.036 46.31 400.056 45.87 400.756 44.99C401.476 44.11 401.836 42.82 401.836 41.12C401.836 39.44 401.476 38.16 400.756 37.28C400.036 36.38 399.016 35.93 397.696 35.93C396.376 35.93 395.356 36.38 394.636 37.28C393.916 38.16 393.556 39.44 393.556 41.12C393.556 42.82 393.906 44.11 394.606 44.99C395.326 45.87 396.356 46.31 397.696 46.31ZM416.13 33.5C417.39 33.5 418.51 33.82 419.49 34.46C420.49 35.1 421.26 36 421.8 37.16C422.36 38.32 422.64 39.66 422.64 41.18C422.64 42.68 422.37 44 421.83 45.14C421.29 46.28 420.52 47.16 419.52 47.78C418.54 48.4 417.41 48.71 416.13 48.71C415.03 48.71 414.06 48.48 413.22 48.02C412.38 47.54 411.74 46.86 411.3 45.98V52.67C411.3 53.09 411.16 53.42 410.88 53.66C410.62 53.92 410.27 54.05 409.83 54.05C409.37 54.05 408.99 53.92 408.69 53.66C408.41 53.4 408.27 53.05 408.27 52.61V35.03C408.27 34.59 408.41 34.24 408.69 33.98C408.97 33.7 409.34 33.56 409.8 33.56C410.24 33.56 410.6 33.7 410.88 33.98C411.16 34.24 411.3 34.59 411.3 35.03V36.26C411.74 35.38 412.38 34.7 413.22 34.22C414.06 33.74 415.03 33.5 416.13 33.5ZM415.41 46.31C416.73 46.31 417.75 45.87 418.47 44.99C419.19 44.09 419.55 42.82 419.55 41.18C419.55 39.52 419.18 38.23 418.44 37.31C417.72 36.39 416.71 35.93 415.41 35.93C414.09 35.93 413.07 36.38 412.35 37.28C411.65 38.18 411.3 39.46 411.3 41.12C411.3 42.78 411.65 44.06 412.35 44.96C413.07 45.86 414.09 46.31 415.41 46.31ZM438.645 48.71C436.605 48.71 434.865 48.28 433.425 47.42C432.905 47.14 432.645 46.75 432.645 46.25C432.645 45.95 432.755 45.7 432.975 45.5C433.195 45.28 433.475 45.17 433.815 45.17C434.055 45.17 434.295 45.23 434.535 45.35C435.155 45.69 435.765 45.94 436.365 46.1C436.985 46.26 437.665 46.34 438.405 46.34C439.385 46.34 440.235 46.15 440.955 45.77C441.675 45.39 442.035 44.81 442.035 44.03C442.035 42.75 441.125 42.11 439.305 42.11H437.175C436.835 42.11 436.555 42.01 436.335 41.81C436.135 41.59 436.035 41.31 436.035 40.97C436.035 40.65 436.145 40.39 436.365 40.19C436.585 39.97 436.855 39.86 437.175 39.86H439.125C439.965 39.86 440.605 39.68 441.045 39.32C441.505 38.94 441.735 38.45 441.735 37.85C441.735 37.23 441.475 36.76 440.955 36.44C440.435 36.1 439.695 35.93 438.735 35.93C437.955 35.93 437.265 36.01 436.665 36.17C436.085 36.33 435.495 36.57 434.895 36.89C434.655 36.99 434.435 37.04 434.235 37.04C433.915 37.04 433.635 36.93 433.395 36.71C433.175 36.49 433.065 36.24 433.065 35.96C433.065 35.46 433.335 35.08 433.875 34.82C435.455 33.94 437.255 33.5 439.275 33.5C441.135 33.5 442.535 33.86 443.475 34.58C444.435 35.3 444.915 36.26 444.915 37.46C444.915 38.2 444.685 38.88 444.225 39.5C443.765 40.12 443.125 40.57 442.305 40.85C444.225 41.27 445.185 42.4 445.185 44.24C445.185 45.14 444.895 45.93 444.315 46.61C443.735 47.29 442.945 47.81 441.945 48.17C440.945 48.53 439.845 48.71 438.645 48.71ZM454.703 33.5C456.643 33.5 458.083 33.99 459.023 34.97C459.983 35.95 460.463 37.44 460.463 39.44V47.21C460.463 47.67 460.333 48.03 460.073 48.29C459.813 48.53 459.453 48.65 458.993 48.65C458.553 48.65 458.203 48.52 457.943 48.26C457.683 48 457.553 47.65 457.553 47.21V46.1C457.173 46.94 456.603 47.59 455.843 48.05C455.103 48.49 454.233 48.71 453.233 48.71C452.273 48.71 451.393 48.52 450.593 48.14C449.813 47.74 449.193 47.2 448.733 46.52C448.273 45.84 448.043 45.07 448.043 44.21C448.023 43.13 448.293 42.29 448.853 41.69C449.413 41.07 450.323 40.63 451.583 40.37C452.843 40.09 454.593 39.95 456.833 39.95H457.523V39.08C457.523 37.96 457.293 37.15 456.833 36.65C456.373 36.15 455.633 35.9 454.613 35.9C453.913 35.9 453.253 35.99 452.633 36.17C452.013 36.35 451.333 36.61 450.593 36.95C450.053 37.25 449.673 37.4 449.453 37.4C449.153 37.4 448.903 37.29 448.703 37.07C448.523 36.85 448.433 36.57 448.433 36.23C448.433 35.93 448.513 35.67 448.673 35.45C448.853 35.21 449.133 34.98 449.513 34.76C450.213 34.38 451.033 34.08 451.973 33.86C452.913 33.62 453.823 33.5 454.703 33.5ZM453.773 46.46C454.873 46.46 455.773 46.09 456.473 45.35C457.173 44.59 457.523 43.62 457.523 42.44V41.66H456.983C455.423 41.66 454.223 41.73 453.383 41.87C452.543 42.01 451.943 42.25 451.583 42.59C451.223 42.91 451.043 43.38 451.043 44C451.043 44.72 451.303 45.31 451.823 45.77C452.343 46.23 452.993 46.46 453.773 46.46ZM464.218 52.46C463.778 52.46 463.428 52.33 463.168 52.07C462.928 51.83 462.808 51.49 462.808 51.05V47.72C462.808 47.24 462.928 46.86 463.168 46.58C463.428 46.3 463.768 46.16 464.188 46.16H464.608C465.268 45.12 465.728 43.91 465.988 42.53C466.268 41.15 466.408 39.43 466.408 37.37V35.42C466.408 34.96 466.538 34.59 466.798 34.31C467.078 34.01 467.438 33.86 467.878 33.86H475.378C475.838 33.86 476.208 34 476.488 34.28C476.768 34.54 476.908 34.89 476.908 35.33V46.16H477.688C478.148 46.16 478.518 46.3 478.798 46.58C479.098 46.84 479.248 47.19 479.248 47.63V51.05C479.248 51.49 479.118 51.83 478.858 52.07C478.618 52.33 478.278 52.46 477.838 52.46C477.398 52.46 477.048 52.33 476.788 52.07C476.548 51.83 476.428 51.49 476.428 51.05V48.5H465.598V51.05C465.598 51.49 465.478 51.83 465.238 52.07C464.998 52.33 464.658 52.46 464.218 52.46ZM473.908 36.2H469.078V37.37C469.078 41.55 468.478 44.49 467.278 46.19H473.908V36.2ZM488.131 33.5C490.071 33.5 491.511 33.99 492.451 34.97C493.411 35.95 493.891 37.44 493.891 39.44V47.21C493.891 47.67 493.761 48.03 493.501 48.29C493.241 48.53 492.881 48.65 492.421 48.65C491.981 48.65 491.631 48.52 491.371 48.26C491.111 48 490.981 47.65 490.981 47.21V46.1C490.601 46.94 490.031 47.59 489.271 48.05C488.531 48.49 487.661 48.71 486.661 48.71C485.701 48.71 484.821 48.52 484.021 48.14C483.241 47.74 482.621 47.2 482.161 46.52C481.701 45.84 481.471 45.07 481.471 44.21C481.451 43.13 481.721 42.29 482.281 41.69C482.841 41.07 483.751 40.63 485.011 40.37C486.271 40.09 488.021 39.95 490.261 39.95H490.951V39.08C490.951 37.96 490.721 37.15 490.261 36.65C489.801 36.15 489.061 35.9 488.041 35.9C487.341 35.9 486.681 35.99 486.061 36.17C485.441 36.35 484.761 36.61 484.021 36.95C483.481 37.25 483.101 37.4 482.881 37.4C482.581 37.4 482.331 37.29 482.131 37.07C481.951 36.85 481.861 36.57 481.861 36.23C481.861 35.93 481.941 35.67 482.101 35.45C482.281 35.21 482.561 34.98 482.941 34.76C483.641 34.38 484.461 34.08 485.401 33.86C486.341 33.62 487.251 33.5 488.131 33.5ZM487.201 46.46C488.301 46.46 489.201 46.09 489.901 45.35C490.601 44.59 490.951 43.62 490.951 42.44V41.66H490.411C488.851 41.66 487.651 41.73 486.811 41.87C485.971 42.01 485.371 42.25 485.011 42.59C484.651 42.91 484.471 43.38 484.471 44C484.471 44.72 484.731 45.31 485.251 45.77C485.771 46.23 486.421 46.46 487.201 46.46ZM507.726 48.65C507.266 48.65 506.896 48.52 506.616 48.26C506.356 48 506.226 47.65 506.226 47.21V43.01C505.786 43.23 505.246 43.42 504.606 43.58C503.966 43.72 503.306 43.79 502.626 43.79C500.926 43.79 499.586 43.39 498.606 42.59C497.626 41.79 497.136 40.54 497.136 38.84V35C497.136 34.56 497.276 34.21 497.556 33.95C497.836 33.69 498.206 33.56 498.666 33.56C499.126 33.56 499.486 33.69 499.746 33.95C500.026 34.21 500.166 34.56 500.166 35V38.45C500.166 39.49 500.416 40.25 500.916 40.73C501.436 41.19 502.196 41.42 503.196 41.42C504.476 41.42 505.486 41.16 506.226 40.64V35C506.226 34.56 506.356 34.21 506.616 33.95C506.896 33.69 507.266 33.56 507.726 33.56C508.186 33.56 508.556 33.69 508.836 33.95C509.116 34.21 509.256 34.56 509.256 35V47.21C509.256 47.65 509.116 48 508.836 48.26C508.556 48.52 508.186 48.65 507.726 48.65Z" fill="black"/>
<path d="M327.476 99.2488L330.782 97.0341L331.06 97.4495L331.994 96.8241L332.069 97.9453L332.568 97.912L332.832 101.883L332.334 101.916L332.598 105.887L333.097 105.854L333.362 109.824L332.863 109.858L333.128 113.828L333.627 113.795L333.892 117.766L333.393 117.799L333.658 121.77L334.157 121.737L334.422 125.707L333.923 125.741L334.188 129.711L334.687 129.678L334.951 133.649L334.453 133.682L334.717 137.653L335.216 137.62L335.481 141.591L334.982 141.624L335.247 145.595L335.746 145.561L336.011 149.532L335.512 149.565L335.777 153.536L336.276 153.503L336.541 157.474L336.042 157.507L336.307 161.478L336.806 161.444L337.07 165.415L336.572 165.448L336.836 169.419L337.335 169.386L337.6 173.357L337.101 173.39L337.366 177.361L337.865 177.327L338.13 181.298L337.631 181.331L337.896 185.302L338.395 185.269L338.66 189.24L338.161 189.273L338.426 193.244L338.925 193.211L339.189 197.181L338.691 197.215L338.955 201.185L339.454 201.152L339.719 205.123L339.22 205.156L339.485 209.127L339.984 209.094L340.249 213.064L339.75 213.098L340.015 217.068L340.514 217.035L340.779 221.006L340.28 221.039L340.545 225.01L341.044 224.977L341.308 228.947L340.81 228.981L341.074 232.951L341.573 232.918L341.838 236.889L341.339 236.922L341.604 240.893L342.103 240.86L342.368 244.83L341.869 244.864L342.134 248.835L342.633 248.801L342.898 252.772L342.399 252.805L342.664 256.776L343.163 256.743L343.427 260.714L342.929 260.747L343.003 261.868L341.995 261.372L341.774 261.821L338.203 260.065L338.424 259.616L334.852 257.86L334.632 258.309L331.061 256.553L331.281 256.104L327.71 254.348L327.489 254.797L323.918 253.041L324.139 252.592L320.568 250.836L320.347 251.285L316.776 249.529L316.996 249.08L313.425 247.324L313.204 247.773L309.633 246.017L309.854 245.568L306.283 243.812L306.062 244.261L302.491 242.505L302.711 242.056L299.14 240.3L298.92 240.749L295.348 238.993L295.569 238.544L291.998 236.788L291.777 237.237L288.206 235.481L288.427 235.032L284.855 233.276L284.635 233.725L281.063 231.969L281.284 231.52L277.713 229.764L277.492 230.213L273.921 228.457L274.142 228.008L270.57 226.252L270.35 226.701L266.779 224.945L266.999 224.496L263.428 222.74L263.207 223.189L259.636 221.433L259.857 220.984L256.286 219.228L256.065 219.677L252.494 217.921L252.714 217.472L249.143 215.716L248.922 216.165L245.351 214.409L245.572 213.96L242.001 212.204L241.78 212.653L238.209 210.897L238.429 210.448L234.858 208.692L234.638 209.141L231.066 207.385L231.287 206.936L227.716 205.18L227.495 205.629L223.924 203.873L224.145 203.424L220.573 201.668L220.353 202.117L216.781 200.361L217.002 199.912L213.431 198.156L213.21 198.605L209.639 196.849L209.86 196.4L206.288 194.644L206.068 195.093L202.497 193.337L202.717 192.888L199.146 191.132L198.925 191.581L195.354 189.825L195.575 189.376L194.566 188.881L195.5 188.255L195.222 187.84L198.528 185.625L198.806 186.04L202.113 183.826L201.834 183.41L205.141 181.195L205.419 181.611L208.725 179.396L208.447 178.981L211.753 176.766L212.032 177.181L215.338 174.967L215.06 174.551L218.366 172.336L218.644 172.752L221.951 170.537L221.672 170.122L224.979 167.907L225.257 168.322L228.563 166.107L228.285 165.692L231.592 163.477L231.87 163.893L235.176 161.678L234.898 161.262L238.204 159.048L238.483 159.463L241.789 157.248L241.511 156.833L244.817 154.618L245.095 155.034L248.402 152.819L248.123 152.403L251.43 150.189L251.708 150.604L255.014 148.389L254.736 147.974L258.042 145.759L258.321 146.174L261.627 143.96L261.349 143.544L264.655 141.33L264.933 141.745L268.24 139.53L267.961 139.115L271.268 136.9L271.546 137.315L274.852 135.101L274.574 134.685L277.88 132.47L278.159 132.886L281.465 130.671L281.187 130.256L284.493 128.041L284.771 128.456L288.078 126.242L287.799 125.826L291.106 123.611L291.384 124.027L294.69 121.812L294.412 121.397L297.718 119.182L297.997 119.597L301.303 117.382L301.025 116.967L304.331 114.752L304.609 115.168L307.916 112.953L307.638 112.537L310.944 110.323L311.222 110.738L314.528 108.523L314.25 108.108L317.557 105.893L317.835 106.309L321.141 104.094L320.863 103.678L324.169 101.464L324.448 101.879L327.754 99.6643L327.476 99.2488Z" fill="white" stroke="black" stroke-dasharray="4 4"/>
<circle cx="193.5" cy="186.5" r="19.5" fill="url(#paint0_linear_705_725)" stroke="black"/>
<path d="M197 188.5H196.21L195.93 188.23C196.91 187.09 197.5 185.61 197.5 184C197.5 180.41 194.59 177.5 191 177.5C187.41 177.5 184.5 180.41 184.5 184C184.5 187.59 187.41 190.5 191 190.5C192.61 190.5 194.09 189.91 195.23 188.93L195.5 189.21V190L200.5 194.99L201.99 193.5L197 188.5V188.5ZM191 188.5C188.51 188.5 186.5 186.49 186.5 184C186.5 181.51 188.51 179.5 191 179.5C193.49 179.5 195.5 181.51 195.5 184C195.5 186.49 193.49 188.5 191 188.5Z" fill="#323232"/>
<circle cx="330.199" cy="98.5" r="19.5" fill="url(#paint1_linear_705_725)" stroke="black"/>
<path d="M321.199 103.75V107.5H324.949L336.009 96.44L332.259 92.69L321.199 103.75ZM324.119 105.5H323.199V104.58L332.259 95.52L333.179 96.44L324.119 105.5ZM338.909 92.13L336.569 89.79C336.369 89.59 336.119 89.5 335.859 89.5C335.599 89.5 335.349 89.6 335.159 89.79L333.329 91.62L337.079 95.37L338.909 93.54C339.299 93.15 339.299 92.52 338.909 92.13V92.13Z" fill="#323232"/>
<circle cx="340" cy="261.5" r="19.5" fill="url(#paint2_linear_705_725)" stroke="black"/>
<path d="M337 270.5C337 271.05 337.45 271.5 338 271.5H342C342.55 271.5 343 271.05 343 270.5V269.5H337V270.5ZM340 251.5C336.14 251.5 333 254.64 333 258.5C333 260.88 334.19 262.97 336 264.24V266.5C336 267.05 336.45 267.5 337 267.5H343C343.55 267.5 344 267.05 344 266.5V264.24C345.81 262.97 347 260.88 347 258.5C347 254.64 343.86 251.5 340 251.5ZM342.85 262.6L342 263.2V265.5H338V263.2L337.15 262.6C335.8 261.66 335 260.13 335 258.5C335 255.74 337.24 253.5 340 253.5C342.76 253.5 345 255.74 345 258.5C345 260.13 344.2 261.66 342.85 262.6Z" fill="#323232"/>
<path d="M245.18 321.74C243.78 321.74 242.46 321.57 241.22 321.23C240 320.87 238.93 320.36 238.01 319.7C237.51 319.38 237.26 318.97 237.26 318.47C237.26 318.11 237.37 317.82 237.59 317.6C237.81 317.36 238.1 317.24 238.46 317.24C238.72 317.24 238.99 317.32 239.27 317.48C240.15 318.08 241.04 318.51 241.94 318.77C242.84 319.03 243.82 319.16 244.88 319.16C246.64 319.16 248.02 318.85 249.02 318.23C250.02 317.59 250.52 316.68 250.52 315.5C250.52 313.16 248.89 311.99 245.63 311.99H242.42C241.98 311.99 241.63 311.87 241.37 311.63C241.13 311.39 241.01 311.1 241.01 310.76C241.01 310.42 241.13 310.13 241.37 309.89C241.63 309.63 241.98 309.5 242.42 309.5H245.12C246.72 309.5 247.95 309.2 248.81 308.6C249.69 307.98 250.13 307.1 250.13 305.96C250.13 304.9 249.72 304.09 248.9 303.53C248.1 302.97 246.99 302.69 245.57 302.69C244.47 302.69 243.45 302.84 242.51 303.14C241.59 303.44 240.69 303.86 239.81 304.4C239.55 304.52 239.3 304.58 239.06 304.58C238.68 304.58 238.37 304.47 238.13 304.25C237.91 304.01 237.8 303.71 237.8 303.35C237.8 303.11 237.86 302.88 237.98 302.66C238.12 302.44 238.32 302.26 238.58 302.12C239.5 301.5 240.59 301.01 241.85 300.65C243.13 300.29 244.51 300.11 245.99 300.11C248.33 300.11 250.13 300.61 251.39 301.61C252.65 302.59 253.28 303.95 253.28 305.69C253.28 306.87 252.95 307.89 252.29 308.75C251.63 309.59 250.67 310.21 249.41 310.61C252.25 311.21 253.67 312.85 253.67 315.53C253.67 316.77 253.31 317.86 252.59 318.8C251.89 319.74 250.9 320.47 249.62 320.99C248.34 321.49 246.86 321.74 245.18 321.74ZM263.469 306.5C265.409 306.5 266.849 306.99 267.789 307.97C268.749 308.95 269.229 310.44 269.229 312.44V320.21C269.229 320.67 269.099 321.03 268.839 321.29C268.579 321.53 268.219 321.65 267.759 321.65C267.319 321.65 266.969 321.52 266.709 321.26C266.449 321 266.319 320.65 266.319 320.21V319.1C265.939 319.94 265.369 320.59 264.609 321.05C263.869 321.49 262.999 321.71 261.999 321.71C261.039 321.71 260.159 321.52 259.359 321.14C258.579 320.74 257.959 320.2 257.499 319.52C257.039 318.84 256.809 318.07 256.809 317.21C256.789 316.13 257.059 315.29 257.619 314.69C258.179 314.07 259.089 313.63 260.349 313.37C261.609 313.09 263.359 312.95 265.599 312.95H266.289V312.08C266.289 310.96 266.059 310.15 265.599 309.65C265.139 309.15 264.399 308.9 263.379 308.9C262.679 308.9 262.019 308.99 261.399 309.17C260.779 309.35 260.099 309.61 259.359 309.95C258.819 310.25 258.439 310.4 258.219 310.4C257.919 310.4 257.669 310.29 257.469 310.07C257.289 309.85 257.199 309.57 257.199 309.23C257.199 308.93 257.279 308.67 257.439 308.45C257.619 308.21 257.899 307.98 258.279 307.76C258.979 307.38 259.799 307.08 260.739 306.86C261.679 306.62 262.589 306.5 263.469 306.5ZM262.539 319.46C263.639 319.46 264.539 319.09 265.239 318.35C265.939 317.59 266.289 316.62 266.289 315.44V314.66H265.749C264.189 314.66 262.989 314.73 262.149 314.87C261.309 315.01 260.709 315.25 260.349 315.59C259.989 315.91 259.809 316.38 259.809 317C259.809 317.72 260.069 318.31 260.589 318.77C261.109 319.23 261.759 319.46 262.539 319.46ZM287.323 306.56C287.803 306.56 288.183 306.69 288.463 306.95C288.743 307.21 288.883 307.57 288.883 308.03V320.27C288.883 320.67 288.753 321 288.493 321.26C288.233 321.52 287.893 321.65 287.473 321.65C287.073 321.65 286.733 321.52 286.453 321.26C286.193 321 286.063 320.66 286.063 320.24L286.093 311.57L282.463 318.26C282.323 318.52 282.133 318.73 281.893 318.89C281.653 319.03 281.393 319.1 281.113 319.1C280.813 319.1 280.543 319.03 280.303 318.89C280.063 318.73 279.873 318.52 279.733 318.26L276.103 311.57L276.133 320.24C276.133 320.66 275.993 321 275.713 321.26C275.453 321.52 275.123 321.65 274.723 321.65C274.303 321.65 273.963 321.52 273.703 321.26C273.443 321 273.313 320.67 273.313 320.27V308.12C273.313 307.66 273.443 307.29 273.703 307.01C273.983 306.71 274.343 306.56 274.783 306.56C275.183 306.56 275.523 306.63 275.803 306.77C276.103 306.91 276.353 307.19 276.553 307.61L281.113 316.19L285.553 307.76C285.793 307.32 286.043 307.01 286.303 306.83C286.563 306.65 286.903 306.56 287.323 306.56ZM304.492 317.81C304.772 317.81 305.002 317.92 305.182 318.14C305.362 318.36 305.452 318.64 305.452 318.98C305.452 319.56 305.092 320.05 304.372 320.45C303.672 320.85 302.902 321.16 302.062 321.38C301.242 321.6 300.452 321.71 299.692 321.71C297.372 321.71 295.542 321.04 294.202 319.7C292.862 318.34 292.192 316.49 292.192 314.15C292.192 312.65 292.482 311.32 293.062 310.16C293.662 309 294.492 308.1 295.552 307.46C296.632 306.82 297.852 306.5 299.212 306.5C301.172 306.5 302.722 307.13 303.862 308.39C305.002 309.65 305.572 311.35 305.572 313.49C305.572 314.29 305.212 314.69 304.492 314.69H295.222C295.422 317.79 296.912 319.34 299.692 319.34C300.432 319.34 301.072 319.24 301.612 319.04C302.152 318.84 302.722 318.58 303.322 318.26C303.382 318.22 303.542 318.14 303.802 318.02C304.082 317.88 304.312 317.81 304.492 317.81ZM299.272 308.72C298.112 308.72 297.182 309.09 296.482 309.83C295.782 310.57 295.362 311.61 295.222 312.95H302.962C302.902 311.59 302.552 310.55 301.912 309.83C301.292 309.09 300.412 308.72 299.272 308.72ZM313.594 321.65C313.134 321.65 312.764 321.52 312.484 321.26C312.204 321 312.064 320.65 312.064 320.21V309.2H308.164C307.804 309.2 307.514 309.09 307.294 308.87C307.074 308.65 306.964 308.37 306.964 308.03C306.964 307.69 307.074 307.41 307.294 307.19C307.514 306.97 307.804 306.86 308.164 306.86H318.994C319.374 306.86 319.674 306.97 319.894 307.19C320.114 307.41 320.224 307.69 320.224 308.03C320.224 308.37 320.114 308.65 319.894 308.87C319.674 309.09 319.374 309.2 318.994 309.2H315.094V320.21C315.094 320.65 314.954 321 314.674 321.26C314.414 321.52 314.054 321.65 313.594 321.65ZM330.242 313.52C330.942 313.76 331.502 314.1 331.922 314.54C332.362 314.98 332.882 315.72 333.482 316.76L335.102 319.49C335.242 319.75 335.312 320 335.312 320.24C335.312 320.64 335.162 320.98 334.862 321.26C334.562 321.52 334.212 321.65 333.812 321.65C333.292 321.65 332.872 321.39 332.552 320.87L330.452 317.27C329.972 316.47 329.512 315.93 329.072 315.65C328.652 315.35 328.032 315.2 327.212 315.2H325.772V320.21C325.772 320.65 325.632 321 325.352 321.26C325.072 321.52 324.702 321.65 324.242 321.65C323.782 321.65 323.412 321.52 323.132 321.26C322.872 321 322.742 320.65 322.742 320.21V308.03C322.742 307.57 322.872 307.21 323.132 306.95C323.412 306.69 323.782 306.56 324.242 306.56C324.702 306.56 325.072 306.7 325.352 306.98C325.632 307.24 325.772 307.59 325.772 308.03V312.89H327.482L332.162 307.19C332.502 306.79 332.882 306.59 333.302 306.59C333.642 306.59 333.932 306.71 334.172 306.95C334.432 307.19 334.562 307.48 334.562 307.82C334.562 308.18 334.432 308.52 334.172 308.84L330.242 313.52ZM348.373 307.64C348.653 307.24 348.923 306.96 349.183 306.8C349.443 306.64 349.793 306.56 350.233 306.56C350.713 306.56 351.093 306.7 351.373 306.98C351.653 307.24 351.793 307.6 351.793 308.06V320.18C351.793 320.62 351.663 320.98 351.403 321.26C351.143 321.52 350.793 321.65 350.353 321.65C349.933 321.65 349.583 321.52 349.303 321.26C349.043 320.98 348.913 320.62 348.913 320.18V310.64L341.713 320.63C341.433 321.03 341.153 321.3 340.873 321.44C340.613 321.58 340.283 321.65 339.883 321.65C339.423 321.65 339.043 321.52 338.743 321.26C338.463 320.98 338.323 320.62 338.323 320.18V308.03C338.323 307.61 338.453 307.26 338.713 306.98C338.993 306.7 339.353 306.56 339.793 306.56C340.213 306.56 340.553 306.7 340.813 306.98C341.093 307.26 341.233 307.61 341.233 308.03V317.48L348.373 307.64ZM363.481 325.46C363.041 325.46 362.691 325.33 362.431 325.07C362.191 324.83 362.071 324.49 362.071 324.05V320.72C362.071 320.24 362.191 319.86 362.431 319.58C362.691 319.3 363.031 319.16 363.451 319.16H363.871C364.531 318.12 364.991 316.91 365.251 315.53C365.531 314.15 365.671 312.43 365.671 310.37V308.42C365.671 307.96 365.801 307.59 366.061 307.31C366.341 307.01 366.701 306.86 367.141 306.86H374.641C375.101 306.86 375.471 307 375.751 307.28C376.031 307.54 376.171 307.89 376.171 308.33V319.16H376.951C377.411 319.16 377.781 319.3 378.061 319.58C378.361 319.84 378.511 320.19 378.511 320.63V324.05C378.511 324.49 378.381 324.83 378.121 325.07C377.881 325.33 377.541 325.46 377.101 325.46C376.661 325.46 376.311 325.33 376.051 325.07C375.811 324.83 375.691 324.49 375.691 324.05V321.5H364.861V324.05C364.861 324.49 364.741 324.83 364.501 325.07C364.261 325.33 363.921 325.46 363.481 325.46ZM373.171 309.2H368.341V310.37C368.341 314.55 367.741 317.49 366.541 319.19H373.171V309.2ZM385.775 310.82C385.775 313.92 385.425 316.31 384.725 317.99C384.045 319.65 382.975 320.85 381.515 321.59C381.335 321.67 381.125 321.71 380.885 321.71C380.525 321.71 380.225 321.6 379.985 321.38C379.745 321.14 379.625 320.86 379.625 320.54C379.625 320.3 379.695 320.07 379.835 319.85C379.975 319.61 380.165 319.42 380.405 319.28C381.065 318.9 381.575 318.39 381.935 317.75C382.315 317.09 382.585 316.22 382.745 315.14C382.905 314.06 382.985 312.64 382.985 310.88V308.42C382.985 307.94 383.115 307.56 383.375 307.28C383.635 307 383.995 306.86 384.455 306.86H392.375C392.855 306.86 393.235 306.99 393.515 307.25C393.795 307.51 393.935 307.87 393.935 308.33V320.21C393.935 320.65 393.795 321 393.515 321.26C393.255 321.52 392.895 321.65 392.435 321.65C391.975 321.65 391.605 321.52 391.325 321.26C391.045 321 390.905 320.65 390.905 320.21V309.2H385.775V310.82ZM408.381 321.65C407.921 321.65 407.551 321.52 407.271 321.26C407.011 321 406.881 320.65 406.881 320.21V316.25H405.381C403.981 316.25 402.871 316.88 402.051 318.14L400.071 321.08C399.731 321.56 399.301 321.8 398.781 321.8C398.401 321.8 398.061 321.67 397.761 321.41C397.481 321.15 397.341 320.84 397.341 320.48C397.341 320.2 397.431 319.91 397.611 319.61L398.601 318.05C399.041 317.35 399.531 316.77 400.071 316.31C400.611 315.83 401.161 315.52 401.721 315.38C400.421 315.14 399.461 314.66 398.841 313.94C398.241 313.22 397.941 312.36 397.941 311.36C397.941 309.92 398.401 308.81 399.321 308.03C400.241 307.25 401.491 306.86 403.071 306.86H408.351C408.831 306.86 409.201 306.99 409.461 307.25C409.741 307.51 409.881 307.87 409.881 308.33V320.21C409.881 320.65 409.741 321 409.461 321.26C409.201 321.52 408.841 321.65 408.381 321.65ZM406.881 309.05H403.851C401.831 309.05 400.821 309.89 400.821 311.57C400.821 312.47 401.111 313.12 401.691 313.52C402.271 313.9 403.001 314.09 403.881 314.09H406.881V309.05ZM423.828 321.5C423.348 321.5 422.968 321.37 422.688 321.11C422.428 320.83 422.298 320.46 422.298 320V301.85C422.298 301.39 422.428 301.03 422.688 300.77C422.968 300.49 423.348 300.35 423.828 300.35H434.868C435.328 300.35 435.678 300.46 435.918 300.68C436.178 300.9 436.308 301.21 436.308 301.61C436.308 302.01 436.178 302.32 435.918 302.54C435.678 302.74 435.328 302.84 434.868 302.84H425.328V309.5H434.268C434.728 309.5 435.078 309.61 435.318 309.83C435.578 310.05 435.708 310.36 435.708 310.76C435.708 311.16 435.578 311.47 435.318 311.69C435.078 311.91 434.728 312.02 434.268 312.02H425.328V319.01H434.868C435.828 319.01 436.308 319.42 436.308 320.24C436.308 320.64 436.178 320.95 435.918 321.17C435.678 321.39 435.328 321.5 434.868 321.5H423.828ZM441.377 321.65C440.917 321.65 440.547 321.51 440.267 321.23C439.987 320.95 439.847 320.58 439.847 320.12V301.85C439.847 301.39 439.987 301.03 440.267 300.77C440.547 300.49 440.907 300.35 441.347 300.35H452.207C452.627 300.35 452.957 300.47 453.197 300.71C453.437 300.93 453.557 301.23 453.557 301.61C453.557 301.99 453.437 302.3 453.197 302.54C452.957 302.76 452.627 302.87 452.207 302.87H442.907V320.12C442.907 320.58 442.767 320.95 442.487 321.23C442.207 321.51 441.837 321.65 441.377 321.65ZM462.517 321.74C460.017 321.74 457.857 321.05 456.037 319.67C455.557 319.35 455.317 318.94 455.317 318.44C455.317 318.1 455.427 317.81 455.647 317.57C455.867 317.31 456.147 317.18 456.487 317.18C456.727 317.18 456.987 317.26 457.267 317.42C458.227 318.1 459.097 318.56 459.877 318.8C460.677 319.04 461.537 319.16 462.457 319.16C464.457 319.16 466.047 318.54 467.227 317.3C468.427 316.04 469.107 314.27 469.267 311.99H460.177C459.777 311.99 459.447 311.88 459.187 311.66C458.927 311.42 458.797 311.12 458.797 310.76C458.797 310.38 458.927 310.08 459.187 309.86C459.447 309.62 459.777 309.5 460.177 309.5H469.267C469.107 307.26 468.457 305.57 467.317 304.43C466.197 303.27 464.627 302.69 462.607 302.69C461.767 302.69 460.937 302.82 460.117 303.08C459.317 303.34 458.477 303.75 457.597 304.31C457.337 304.43 457.087 304.49 456.847 304.49C456.507 304.49 456.217 304.37 455.977 304.13C455.757 303.89 455.647 303.61 455.647 303.29C455.647 302.81 455.887 302.4 456.367 302.06C457.187 301.44 458.147 300.96 459.247 300.62C460.347 300.28 461.497 300.11 462.697 300.11C465.817 300.11 468.237 301.05 469.957 302.93C471.677 304.81 472.537 307.43 472.537 310.79C472.537 312.99 472.127 314.92 471.307 316.58C470.507 318.22 469.347 319.49 467.827 320.39C466.327 321.29 464.557 321.74 462.517 321.74Z" fill="black"/>
<defs>
<linearGradient id="paint0_linear_705_725" x1="193.5" y1="166.5" x2="193.5" y2="206.5" gradientUnits="userSpaceOnUse">
<stop stop-color="#FF94F4"/>
<stop offset="1" stop-color="#B59BFF"/>
</linearGradient>
<linearGradient id="paint1_linear_705_725" x1="330.199" y1="78.5" x2="330.199" y2="118.5" gradientUnits="userSpaceOnUse">
<stop stop-color="#6AFF45"/>
<stop offset="1" stop-color="#CFFF45"/>
</linearGradient>
<linearGradient id="paint2_linear_705_725" x1="340" y1="241.5" x2="340" y2="281.5" gradientUnits="userSpaceOnUse">
<stop stop-color="#F0FF41"/>
<stop offset="1" stop-color="#FFBE41"/>
</linearGradient>
</defs>
</svg>
