<svg width="575" height="350" viewBox="0 0 575 350" fill="none" xmlns="http://www.w3.org/2000/svg">
<rect width="575" height="350" fill="white"/>
<path d="M231.836 153.5H190.086L190.336 199.5L231.836 153.5Z" fill="#FFF3A4"/>
<rect x="68.0864" y="118" width="122.5" height="125.5" fill="url(#paint0_linear_705_725)"/>
<path d="M162.636 296.24C160.636 296.24 158.896 295.8 157.416 294.92C155.956 294.04 154.826 292.79 154.026 291.17C153.226 289.55 152.826 287.64 152.826 285.44C152.826 283.22 153.216 281.3 153.996 279.68C154.796 278.04 155.936 276.79 157.416 275.93C158.896 275.05 160.636 274.61 162.636 274.61C164.656 274.61 166.406 275.05 167.886 275.93C169.366 276.79 170.496 278.04 171.276 279.68C172.076 281.3 172.476 283.21 172.476 285.41C172.476 287.61 172.076 289.53 171.276 291.17C170.496 292.79 169.366 294.04 167.886 294.92C166.406 295.8 164.656 296.24 162.636 296.24ZM162.636 293.72C164.756 293.72 166.406 293 167.586 291.56C168.766 290.12 169.356 288.07 169.356 285.41C169.356 282.75 168.766 280.71 167.586 279.29C166.426 277.85 164.776 277.13 162.636 277.13C160.536 277.13 158.896 277.85 157.716 279.29C156.556 280.71 155.976 282.75 155.976 285.41C155.976 288.07 156.556 290.12 157.716 291.56C158.896 293 160.536 293.72 162.636 293.72ZM181.161 296.15C180.701 296.15 180.331 296.02 180.051 295.76C179.771 295.5 179.631 295.15 179.631 294.71V283.7H175.731C175.371 283.7 175.081 283.59 174.861 283.37C174.641 283.15 174.531 282.87 174.531 282.53C174.531 282.19 174.641 281.91 174.861 281.69C175.081 281.47 175.371 281.36 175.731 281.36H186.561C186.941 281.36 187.241 281.47 187.461 281.69C187.681 281.91 187.791 282.19 187.791 282.53C187.791 282.87 187.681 283.15 187.461 283.37C187.241 283.59 186.941 283.7 186.561 283.7H182.661V294.71C182.661 295.15 182.521 295.5 182.241 295.76C181.981 296.02 181.621 296.15 181.161 296.15ZM199.539 296.15C199.079 296.15 198.709 296.02 198.429 295.76C198.149 295.5 198.009 295.15 198.009 294.71V282.92C198.009 282.44 198.139 282.06 198.399 281.78C198.659 281.5 199.019 281.36 199.479 281.36H209.529C210.009 281.36 210.389 281.49 210.669 281.75C210.949 282.01 211.089 282.37 211.089 282.83V294.71C211.089 295.15 210.949 295.5 210.669 295.76C210.389 296.02 210.019 296.15 209.559 296.15C209.099 296.15 208.729 296.02 208.449 295.76C208.189 295.5 208.059 295.15 208.059 294.71V283.7H201.039V294.71C201.039 295.15 200.899 295.5 200.619 295.76C200.359 296.02 199.999 296.15 199.539 296.15ZM223.097 281C224.357 281 225.477 281.32 226.457 281.96C227.457 282.6 228.227 283.5 228.767 284.66C229.327 285.82 229.607 287.16 229.607 288.68C229.607 290.18 229.337 291.5 228.797 292.64C228.257 293.78 227.487 294.66 226.487 295.28C225.507 295.9 224.377 296.21 223.097 296.21C221.997 296.21 221.027 295.98 220.187 295.52C219.347 295.04 218.707 294.36 218.267 293.48V300.17C218.267 300.59 218.127 300.92 217.847 301.16C217.587 301.42 217.237 301.55 216.797 301.55C216.337 301.55 215.957 301.42 215.657 301.16C215.377 300.9 215.237 300.55 215.237 300.11V282.53C215.237 282.09 215.377 281.74 215.657 281.48C215.937 281.2 216.307 281.06 216.767 281.06C217.207 281.06 217.567 281.2 217.847 281.48C218.127 281.74 218.267 282.09 218.267 282.53V283.76C218.707 282.88 219.347 282.2 220.187 281.72C221.027 281.24 221.997 281 223.097 281ZM222.377 293.81C223.697 293.81 224.717 293.37 225.437 292.49C226.157 291.59 226.517 290.32 226.517 288.68C226.517 287.02 226.147 285.73 225.407 284.81C224.687 283.89 223.677 283.43 222.377 283.43C221.057 283.43 220.037 283.88 219.317 284.78C218.617 285.68 218.267 286.96 218.267 288.62C218.267 290.28 218.617 291.56 219.317 292.46C220.037 293.36 221.057 293.81 222.377 293.81ZM239.322 296.21C237.882 296.21 236.612 295.9 235.512 295.28C234.432 294.66 233.592 293.78 232.992 292.64C232.412 291.48 232.122 290.14 232.122 288.62C232.122 287.08 232.412 285.74 232.992 284.6C233.592 283.44 234.432 282.55 235.512 281.93C236.612 281.31 237.882 281 239.322 281C240.762 281 242.022 281.31 243.102 281.93C244.202 282.55 245.042 283.44 245.622 284.6C246.222 285.74 246.522 287.08 246.522 288.62C246.522 290.14 246.222 291.48 245.622 292.64C245.042 293.78 244.202 294.66 243.102 295.28C242.022 295.9 240.762 296.21 239.322 296.21ZM239.322 293.81C240.662 293.81 241.682 293.37 242.382 292.49C243.102 291.61 243.462 290.32 243.462 288.62C243.462 286.94 243.102 285.66 242.382 284.78C241.662 283.88 240.642 283.43 239.322 283.43C238.002 283.43 236.982 283.88 236.262 284.78C235.542 285.66 235.182 286.94 235.182 288.62C235.182 290.32 235.532 291.61 236.232 292.49C236.952 293.37 237.982 293.81 239.322 293.81ZM256.165 296.21C254.745 296.21 253.495 295.9 252.415 295.28C251.355 294.66 250.525 293.78 249.925 292.64C249.345 291.5 249.055 290.18 249.055 288.68C249.055 287.16 249.355 285.82 249.955 284.66C250.575 283.5 251.435 282.6 252.535 281.96C253.635 281.32 254.895 281 256.315 281C257.075 281 257.835 281.11 258.595 281.33C259.375 281.55 260.065 281.85 260.665 282.23C261.305 282.67 261.625 283.18 261.625 283.76C261.625 284.1 261.535 284.39 261.355 284.63C261.175 284.85 260.945 284.96 260.665 284.96C260.485 284.96 260.305 284.92 260.125 284.84C259.945 284.74 259.715 284.6 259.435 284.42C258.935 284.1 258.465 283.86 258.025 283.7C257.605 283.52 257.095 283.43 256.495 283.43C255.135 283.43 254.075 283.89 253.315 284.81C252.575 285.73 252.205 287.01 252.205 288.65C252.205 290.29 252.575 291.56 253.315 292.46C254.055 293.34 255.105 293.78 256.465 293.78C257.065 293.78 257.595 293.69 258.055 293.51C258.515 293.33 258.985 293.09 259.465 292.79C259.685 292.65 259.905 292.53 260.125 292.43C260.345 292.33 260.545 292.28 260.725 292.28C261.005 292.28 261.235 292.4 261.415 292.64C261.595 292.86 261.685 293.14 261.685 293.48C261.685 293.76 261.605 294.02 261.445 294.26C261.305 294.48 261.055 294.71 260.695 294.95C260.095 295.35 259.395 295.66 258.595 295.88C257.795 296.1 256.985 296.21 256.165 296.21ZM269.227 296.15C268.767 296.15 268.397 296.02 268.117 295.76C267.837 295.5 267.697 295.15 267.697 294.71V283.7H263.797C263.437 283.7 263.147 283.59 262.927 283.37C262.707 283.15 262.597 282.87 262.597 282.53C262.597 282.19 262.707 281.91 262.927 281.69C263.147 281.47 263.437 281.36 263.797 281.36H274.627C275.007 281.36 275.307 281.47 275.527 281.69C275.747 281.91 275.857 282.19 275.857 282.53C275.857 282.87 275.747 283.15 275.527 283.37C275.307 283.59 275.007 283.7 274.627 283.7H270.727V294.71C270.727 295.15 270.587 295.5 270.307 295.76C270.047 296.02 269.687 296.15 269.227 296.15ZM284.439 296.21C282.999 296.21 281.729 295.9 280.629 295.28C279.549 294.66 278.709 293.78 278.109 292.64C277.529 291.48 277.239 290.14 277.239 288.62C277.239 287.08 277.529 285.74 278.109 284.6C278.709 283.44 279.549 282.55 280.629 281.93C281.729 281.31 282.999 281 284.439 281C285.879 281 287.139 281.31 288.219 281.93C289.319 282.55 290.159 283.44 290.739 284.6C291.339 285.74 291.639 287.08 291.639 288.62C291.639 290.14 291.339 291.48 290.739 292.64C290.159 293.78 289.319 294.66 288.219 295.28C287.139 295.9 285.879 296.21 284.439 296.21ZM284.439 293.81C285.779 293.81 286.799 293.37 287.499 292.49C288.219 291.61 288.579 290.32 288.579 288.62C288.579 286.94 288.219 285.66 287.499 284.78C286.779 283.88 285.759 283.43 284.439 283.43C283.119 283.43 282.099 283.88 281.379 284.78C280.659 285.66 280.299 286.94 280.299 288.62C280.299 290.32 280.649 291.61 281.349 292.49C282.069 293.37 283.099 293.81 284.439 293.81ZM296.483 296.15C296.023 296.15 295.653 296.02 295.373 295.76C295.093 295.5 294.953 295.15 294.953 294.71V282.92C294.953 282.46 295.083 282.09 295.343 281.81C295.623 281.51 295.983 281.36 296.423 281.36H303.893C304.273 281.36 304.573 281.47 304.793 281.69C305.013 281.91 305.123 282.19 305.123 282.53C305.123 282.87 305.013 283.15 304.793 283.37C304.573 283.59 304.273 283.7 303.893 283.7H297.983V294.71C297.983 295.15 297.843 295.5 297.563 295.76C297.303 296.02 296.943 296.15 296.483 296.15ZM313.882 296.21C312.442 296.21 311.172 295.9 310.072 295.28C308.992 294.66 308.152 293.78 307.552 292.64C306.972 291.48 306.682 290.14 306.682 288.62C306.682 287.08 306.972 285.74 307.552 284.6C308.152 283.44 308.992 282.55 310.072 281.93C311.172 281.31 312.442 281 313.882 281C315.322 281 316.582 281.31 317.662 281.93C318.762 282.55 319.602 283.44 320.182 284.6C320.782 285.74 321.082 287.08 321.082 288.62C321.082 290.14 320.782 291.48 320.182 292.64C319.602 293.78 318.762 294.66 317.662 295.28C316.582 295.9 315.322 296.21 313.882 296.21ZM313.882 293.81C315.222 293.81 316.242 293.37 316.942 292.49C317.662 291.61 318.022 290.32 318.022 288.62C318.022 286.94 317.662 285.66 316.942 284.78C316.222 283.88 315.202 283.43 313.882 283.43C312.562 283.43 311.542 283.88 310.822 284.78C310.102 285.66 309.742 286.94 309.742 288.62C309.742 290.32 310.092 291.61 310.792 292.49C311.512 293.37 312.542 293.81 313.882 293.81ZM340.016 288.02C340.716 288.26 341.276 288.6 341.696 289.04C342.136 289.48 342.656 290.22 343.256 291.26L344.876 293.99C345.016 294.25 345.086 294.5 345.086 294.74C345.086 295.14 344.936 295.48 344.636 295.76C344.336 296.02 343.986 296.15 343.586 296.15C343.066 296.15 342.646 295.89 342.326 295.37L340.226 291.77C339.746 290.97 339.286 290.43 338.846 290.15C338.426 289.85 337.806 289.7 336.986 289.7H335.546V294.71C335.546 295.15 335.406 295.5 335.126 295.76C334.846 296.02 334.476 296.15 334.016 296.15C333.556 296.15 333.186 296.02 332.906 295.76C332.646 295.5 332.516 295.15 332.516 294.71V282.53C332.516 282.07 332.646 281.71 332.906 281.45C333.186 281.19 333.556 281.06 334.016 281.06C334.476 281.06 334.846 281.2 335.126 281.48C335.406 281.74 335.546 282.09 335.546 282.53V287.39H337.256L341.936 281.69C342.276 281.29 342.656 281.09 343.076 281.09C343.416 281.09 343.706 281.21 343.946 281.45C344.206 281.69 344.336 281.98 344.336 282.32C344.336 282.68 344.206 283.02 343.946 283.34L340.016 288.02ZM362.337 296.21C360.917 296.21 359.667 295.9 358.587 295.28C357.527 294.66 356.697 293.78 356.097 292.64C355.517 291.5 355.227 290.18 355.227 288.68C355.227 287.16 355.527 285.82 356.127 284.66C356.747 283.5 357.607 282.6 358.707 281.96C359.807 281.32 361.067 281 362.487 281C363.247 281 364.007 281.11 364.767 281.33C365.547 281.55 366.237 281.85 366.837 282.23C367.477 282.67 367.797 283.18 367.797 283.76C367.797 284.1 367.707 284.39 367.527 284.63C367.347 284.85 367.117 284.96 366.837 284.96C366.657 284.96 366.477 284.92 366.297 284.84C366.117 284.74 365.887 284.6 365.607 284.42C365.107 284.1 364.637 283.86 364.197 283.7C363.777 283.52 363.267 283.43 362.667 283.43C361.307 283.43 360.247 283.89 359.487 284.81C358.747 285.73 358.377 287.01 358.377 288.65C358.377 290.29 358.747 291.56 359.487 292.46C360.227 293.34 361.277 293.78 362.637 293.78C363.237 293.78 363.767 293.69 364.227 293.51C364.687 293.33 365.157 293.09 365.637 292.79C365.857 292.65 366.077 292.53 366.297 292.43C366.517 292.33 366.717 292.28 366.897 292.28C367.177 292.28 367.407 292.4 367.587 292.64C367.767 292.86 367.857 293.14 367.857 293.48C367.857 293.76 367.777 294.02 367.617 294.26C367.477 294.48 367.227 294.71 366.867 294.95C366.267 295.35 365.567 295.66 364.767 295.88C363.967 296.1 363.157 296.21 362.337 296.21ZM375.099 285.32C375.099 288.42 374.749 290.81 374.049 292.49C373.369 294.15 372.299 295.35 370.839 296.09C370.659 296.17 370.449 296.21 370.209 296.21C369.849 296.21 369.549 296.1 369.309 295.88C369.069 295.64 368.949 295.36 368.949 295.04C368.949 294.8 369.019 294.57 369.159 294.35C369.299 294.11 369.489 293.92 369.729 293.78C370.389 293.4 370.899 292.89 371.259 292.25C371.639 291.59 371.909 290.72 372.069 289.64C372.229 288.56 372.309 287.14 372.309 285.38V282.92C372.309 282.44 372.439 282.06 372.699 281.78C372.959 281.5 373.319 281.36 373.779 281.36H381.699C382.179 281.36 382.559 281.49 382.839 281.75C383.119 282.01 383.259 282.37 383.259 282.83V294.71C383.259 295.15 383.119 295.5 382.839 295.76C382.579 296.02 382.219 296.15 381.759 296.15C381.299 296.15 380.929 296.02 380.649 295.76C380.369 295.5 380.229 295.15 380.229 294.71V283.7H375.099V285.32ZM393.746 296.21C392.306 296.21 391.036 295.9 389.936 295.28C388.856 294.66 388.016 293.78 387.416 292.64C386.836 291.48 386.546 290.14 386.546 288.62C386.546 287.08 386.836 285.74 387.416 284.6C388.016 283.44 388.856 282.55 389.936 281.93C391.036 281.31 392.306 281 393.746 281C395.186 281 396.446 281.31 397.526 281.93C398.626 282.55 399.466 283.44 400.046 284.6C400.646 285.74 400.946 287.08 400.946 288.62C400.946 290.14 400.646 291.48 400.046 292.64C399.466 293.78 398.626 294.66 397.526 295.28C396.446 295.9 395.186 296.21 393.746 296.21ZM393.746 293.81C395.086 293.81 396.106 293.37 396.806 292.49C397.526 291.61 397.886 290.32 397.886 288.62C397.886 286.94 397.526 285.66 396.806 284.78C396.086 283.88 395.066 283.43 393.746 283.43C392.426 283.43 391.406 283.88 390.686 284.78C389.966 285.66 389.606 286.94 389.606 288.62C389.606 290.32 389.956 291.61 390.656 292.49C391.376 293.37 392.406 293.81 393.746 293.81ZM412.64 296.15C412.2 296.15 411.84 296.02 411.56 295.76C411.3 295.48 411.17 295.11 411.17 294.65V289.55H409.97C409.17 289.55 408.53 289.76 408.05 290.18C407.57 290.58 407.16 291.19 406.82 292.01L405.38 295.25C405.26 295.55 405.08 295.78 404.84 295.94C404.6 296.08 404.34 296.15 404.06 296.15C403.66 296.15 403.3 296.02 402.98 295.76C402.68 295.5 402.53 295.17 402.53 294.77C402.53 294.59 402.58 294.37 402.68 294.11L403.88 291.5C404.34 290.48 404.8 289.71 405.26 289.19C405.74 288.67 406.36 288.3 407.12 288.08L403.73 283.22C403.53 282.94 403.43 282.65 403.43 282.35C403.43 281.99 403.56 281.69 403.82 281.45C404.1 281.21 404.42 281.09 404.78 281.09C405.28 281.09 405.69 281.33 406.01 281.81L409.79 287.51H411.17V282.59C411.17 282.13 411.3 281.76 411.56 281.48C411.84 281.2 412.2 281.06 412.64 281.06C413.08 281.06 413.43 281.2 413.69 281.48C413.97 281.76 414.11 282.12 414.11 282.56V287.51H415.49L419.21 281.84C419.51 281.34 419.93 281.09 420.47 281.09C420.83 281.09 421.14 281.22 421.4 281.48C421.68 281.72 421.82 282.02 421.82 282.38C421.82 282.68 421.73 282.96 421.55 283.22L418.16 288.08C418.92 288.3 419.53 288.67 419.99 289.19C420.45 289.69 420.92 290.46 421.4 291.5L422.63 294.14C422.71 294.32 422.75 294.52 422.75 294.74C422.75 295.14 422.59 295.48 422.27 295.76C421.97 296.02 421.62 296.15 421.22 296.15C420.94 296.15 420.68 296.08 420.44 295.94C420.2 295.78 420.02 295.55 419.9 295.25L418.46 292.01C418.1 291.19 417.68 290.58 417.2 290.18C416.74 289.76 416.11 289.55 415.31 289.55H414.11V294.65C414.11 295.11 413.97 295.48 413.69 295.76C413.43 296.02 413.08 296.15 412.64 296.15ZM427.059 296.15C426.599 296.15 426.229 296.02 425.949 295.76C425.669 295.5 425.529 295.15 425.529 294.71V282.5C425.529 282.06 425.669 281.71 425.949 281.45C426.229 281.19 426.599 281.06 427.059 281.06C427.519 281.06 427.879 281.19 428.139 281.45C428.419 281.71 428.559 282.06 428.559 282.5V287.3H435.759V282.5C435.759 282.06 435.899 281.71 436.179 281.45C436.459 281.19 436.829 281.06 437.289 281.06C437.749 281.06 438.109 281.19 438.369 281.45C438.649 281.71 438.789 282.06 438.789 282.5L438.819 294.62C438.819 295.08 438.679 295.45 438.399 295.73C438.119 296.01 437.749 296.15 437.289 296.15C436.829 296.15 436.459 296.01 436.179 295.73C435.899 295.45 435.759 295.08 435.759 294.62V289.7H428.559V294.71C428.559 295.15 428.419 295.5 428.139 295.76C427.879 296.02 427.519 296.15 427.059 296.15ZM449.322 296.21C447.882 296.21 446.612 295.9 445.512 295.28C444.432 294.66 443.592 293.78 442.992 292.64C442.412 291.48 442.122 290.14 442.122 288.62C442.122 287.08 442.412 285.74 442.992 284.6C443.592 283.44 444.432 282.55 445.512 281.93C446.612 281.31 447.882 281 449.322 281C450.762 281 452.022 281.31 453.102 281.93C454.202 282.55 455.042 283.44 455.622 284.6C456.222 285.74 456.522 287.08 456.522 288.62C456.522 290.14 456.222 291.48 455.622 292.64C455.042 293.78 454.202 294.66 453.102 295.28C452.022 295.9 450.762 296.21 449.322 296.21ZM449.322 293.81C450.662 293.81 451.682 293.37 452.382 292.49C453.102 291.61 453.462 290.32 453.462 288.62C453.462 286.94 453.102 285.66 452.382 284.78C451.662 283.88 450.642 283.43 449.322 283.43C448.002 283.43 446.982 283.88 446.262 284.78C445.542 285.66 445.182 286.94 445.182 288.62C445.182 290.32 445.532 291.61 446.232 292.49C446.952 293.37 447.982 293.81 449.322 293.81ZM473.845 281.06C474.325 281.06 474.705 281.19 474.985 281.45C475.265 281.71 475.405 282.07 475.405 282.53V294.77C475.405 295.17 475.275 295.5 475.015 295.76C474.755 296.02 474.415 296.15 473.995 296.15C473.595 296.15 473.255 296.02 472.975 295.76C472.715 295.5 472.585 295.16 472.585 294.74L472.615 286.07L468.985 292.76C468.845 293.02 468.655 293.23 468.415 293.39C468.175 293.53 467.915 293.6 467.635 293.6C467.335 293.6 467.065 293.53 466.825 293.39C466.585 293.23 466.395 293.02 466.255 292.76L462.625 286.07L462.655 294.74C462.655 295.16 462.515 295.5 462.235 295.76C461.975 296.02 461.645 296.15 461.245 296.15C460.825 296.15 460.485 296.02 460.225 295.76C459.965 295.5 459.835 295.17 459.835 294.77V282.62C459.835 282.16 459.965 281.79 460.225 281.51C460.505 281.21 460.865 281.06 461.305 281.06C461.705 281.06 462.045 281.13 462.325 281.27C462.625 281.41 462.875 281.69 463.075 282.11L467.635 290.69L472.075 282.26C472.315 281.82 472.565 281.51 472.825 281.33C473.085 281.15 473.425 281.06 473.845 281.06ZM489.964 281.96C490.084 281.66 490.254 281.44 490.474 281.3C490.714 281.16 490.964 281.09 491.224 281.09C491.604 281.09 491.934 281.22 492.214 281.48C492.514 281.74 492.664 282.05 492.664 282.41C492.664 282.61 492.624 282.8 492.544 282.98L484.204 300.68C484.084 300.96 483.904 301.17 483.664 301.31C483.444 301.47 483.204 301.55 482.944 301.55C482.584 301.55 482.254 301.43 481.954 301.19C481.674 300.95 481.534 300.65 481.534 300.29C481.534 300.13 481.584 299.93 481.684 299.69L483.754 295.28L477.964 282.98C477.884 282.82 477.844 282.64 477.844 282.44C477.844 282.06 478.004 281.74 478.324 281.48C478.644 281.22 479.004 281.09 479.404 281.09C480.004 281.09 480.434 281.37 480.694 281.93L485.344 292.25L489.964 281.96Z" fill="black"/>
<path d="M189.035 202.002V243.905C189.035 244.383 189.394 244.742 189.872 244.742C190.35 244.742 190.709 244.383 190.709 243.905V202.002C190.41 202.062 190.171 202.182 189.872 202.182C189.633 202.182 189.334 202.062 189.035 202.002Z" fill="black"/>
<path d="M190.768 78.3871C190.768 77.9089 190.41 77.5503 189.932 77.5503C189.453 77.5503 189.095 77.9089 189.095 78.3871V152.628H190.828V78.3871H190.768Z" fill="black"/>
<path d="M190.769 196.204V154.362H189.035V196.204C189.334 196.145 189.573 196.025 189.872 196.025C190.231 196.025 190.47 196.085 190.769 196.204Z" fill="black"/>
<path d="M200.034 91.7168C200.153 92.0755 200.512 92.2548 200.811 92.2548C200.93 92.2548 201.05 92.2548 201.11 92.195C201.528 92.0157 201.767 91.5375 201.588 91.0593L191.127 64.9972C191.007 64.6983 190.649 64.4592 190.35 64.4592C189.991 64.4592 189.692 64.6983 189.573 64.9972L180.487 88.3096C180.308 88.7281 180.547 89.266 180.965 89.4453C181.384 89.6247 181.922 89.3856 182.101 88.9671L190.41 67.6871L200.034 91.7168Z" fill="black"/>
<path d="M348.635 153.525C348.635 153.047 348.277 152.688 347.798 152.688H235.361C235.421 152.987 235.54 153.226 235.54 153.525C235.54 153.824 235.421 154.123 235.361 154.362H347.798C348.277 154.362 348.635 154.003 348.635 153.525Z" fill="black"/>
<path d="M229.503 154.362C229.443 154.063 229.324 153.824 229.324 153.525C229.324 153.226 229.443 152.927 229.503 152.688H190.769H189.035H67.7509C67.2727 152.688 66.9141 153.047 66.9141 153.525C66.9141 154.003 67.2727 154.362 67.7509 154.362H189.035H190.769H229.503Z" fill="black"/>
<path d="M361.726 153.943C361.726 153.584 361.487 153.285 361.188 153.166L337.876 144.08C337.457 143.901 336.919 144.14 336.74 144.558C336.561 144.977 336.8 145.515 337.218 145.694L358.498 154.003L334.469 163.627C334.05 163.806 333.811 164.284 333.99 164.762C334.11 165.121 334.469 165.3 334.767 165.3C334.887 165.3 335.007 165.3 335.066 165.241L361.128 154.78C361.487 154.6 361.726 154.302 361.726 153.943Z" fill="black"/>
<path d="M187.242 200.568L102.66 291.068C102.361 291.427 102.361 291.965 102.719 292.264C102.899 292.443 103.078 292.503 103.317 292.503C103.556 292.503 103.795 292.383 103.975 292.204L188.497 201.764C187.959 201.525 187.541 201.106 187.242 200.568Z" fill="black"/>
<path d="M235.062 151.97L309.602 72.1703C309.901 71.8116 309.901 71.2736 309.542 70.9748C309.183 70.6759 308.646 70.6759 308.347 71.0345L233.807 150.775C234.345 151.014 234.763 151.432 235.062 151.97Z" fill="black"/>
<path d="M229.802 155.019L191.187 196.324C191.725 196.563 192.143 196.981 192.442 197.519L230.997 156.215C230.519 155.975 230.101 155.557 229.802 155.019Z" fill="black"/>
<path d="M235.361 152.628C235.301 152.389 235.182 152.15 235.062 151.971C234.763 151.433 234.345 151.074 233.807 150.775C233.388 150.536 232.91 150.417 232.432 150.417C231.057 150.417 229.922 151.373 229.503 152.628C229.443 152.927 229.324 153.166 229.324 153.465C229.324 153.764 229.443 154.063 229.503 154.302C229.563 154.541 229.682 154.78 229.802 154.959C230.101 155.497 230.519 155.856 231.057 156.155C231.476 156.394 231.954 156.514 232.432 156.514C233.807 156.514 234.943 155.557 235.361 154.302C235.421 154.003 235.54 153.764 235.54 153.465C235.54 153.226 235.421 152.927 235.361 152.628Z" fill="black"/>
<path d="M191.247 196.324C191.127 196.264 190.948 196.204 190.769 196.204C190.47 196.144 190.231 196.025 189.932 196.025C189.633 196.025 189.334 196.144 189.095 196.204C187.84 196.563 186.883 197.699 186.883 199.133C186.883 199.671 187.063 200.149 187.302 200.628C187.601 201.166 188.019 201.584 188.557 201.823C188.736 201.943 188.916 202.002 189.095 202.062C189.394 202.122 189.633 202.242 189.932 202.242C190.231 202.242 190.53 202.122 190.769 202.062C192.024 201.704 192.98 200.568 192.98 199.133C192.98 198.535 192.741 197.997 192.502 197.519C192.203 196.981 191.785 196.563 191.247 196.324Z" fill="black"/>
<path d="M167.038 141.928C166.859 145.276 167.695 147.487 169.548 148.444C170.146 148.743 170.804 148.862 171.461 148.862C172.179 148.862 172.956 148.683 173.673 148.324C174.928 147.727 175.944 146.71 176.602 145.933C178.455 143.841 179.89 141.51 180.966 138.94C181.862 136.728 182.221 134.875 182.101 133.141C181.922 130.87 180.726 128.838 178.993 127.821C177.379 126.925 175.347 126.865 173.494 127.642C171.94 128.3 170.565 129.495 169.429 131.109C169.19 131.468 169.25 132.006 169.608 132.245C169.19 132.902 168.831 133.62 168.532 134.337C167.456 137.027 167.157 139.776 167.038 141.928ZM170.086 135.054C171.043 132.783 172.537 130.989 174.39 130.033C174.749 129.854 174.928 129.376 174.809 129.017C176.004 128.718 177.2 128.838 178.156 129.375C179.411 130.093 180.248 131.587 180.428 133.321C180.547 134.755 180.248 136.369 179.411 138.342C178.455 140.733 177.08 142.885 175.347 144.857C174.689 145.575 173.912 146.411 172.956 146.83C172.059 147.248 171.043 147.308 170.326 146.949C169.13 146.352 168.592 144.678 168.771 142.048C168.891 140.015 169.13 137.445 170.086 135.054Z" fill="black"/>
<path d="M224.661 58.4818C223.466 60.036 222.33 60.8131 221.194 60.9924C219.222 61.2913 217.309 59.5578 216.711 57.7047C215.994 55.493 216.532 53.0423 217.07 51.0697C217.189 50.5317 217.369 50.0535 217.548 49.5155C218.086 47.7222 218.684 45.8094 218.803 43.8966C218.803 43.4184 218.445 43 217.966 43C217.488 43 217.07 43.3586 217.07 43.8368C216.95 45.5703 216.472 47.3038 215.934 49.0373C215.755 49.5753 215.635 50.1133 215.456 50.6512C214.858 52.8032 214.26 55.6126 215.097 58.2427C215.874 60.574 218.086 62.7259 220.716 62.7259C220.955 62.7259 221.194 62.7259 221.493 62.6661C222.449 62.4868 223.227 62.0684 223.944 61.5304C224.482 60.036 225.02 58.6014 225.558 57.107C225.319 57.5852 225.02 58.0634 224.661 58.4818Z" fill="black"/>
<path d="M230.22 50.7708C230.28 50.4719 230.161 50.2328 230.041 50.0535C229.085 52.6836 228.128 55.3137 227.172 57.9438C228.606 55.7321 229.623 53.2813 230.22 50.7708Z" fill="black"/>
<path d="M205.533 80.7782C204.756 82.8105 204.816 85.3211 205.772 87.8317C206.609 89.9836 207.865 91.8964 209.12 93.7494C209.299 93.9885 209.538 94.1081 209.837 94.1081C209.957 94.1081 210.076 94.1081 210.196 94.0483C214.021 92.2551 215.815 88.1903 217.369 84.1256C219.102 79.5827 220.836 74.98 222.569 70.3175C230.101 66.1332 237.812 62.2478 245.583 58.7211C246.001 58.5417 246.181 58.0037 246.001 57.5853C245.822 57.1669 245.284 56.9876 244.866 57.1669C237.633 60.4545 230.46 64.0411 223.466 67.8667C224.721 64.5193 225.917 61.2316 227.112 57.8842C228.069 55.2541 229.025 52.624 229.982 49.9938C230.34 48.9777 230.699 47.9615 231.057 46.9453C231.237 46.4671 230.998 45.9889 230.519 45.8694C230.041 45.69 229.563 45.9291 229.444 46.4073C228.188 49.9938 226.813 53.5206 225.558 57.1071C225.02 58.6015 224.482 60.0361 223.944 61.5305C222.988 64.0411 222.091 66.6114 221.195 69.122C218.206 70.7957 215.217 72.4694 212.288 74.2627C209.479 75.9364 206.729 77.7894 205.533 80.7782ZM213.125 75.8168C215.456 74.442 217.847 73.0672 220.238 71.6923C218.744 75.6375 217.249 79.6424 215.755 83.5876C214.44 87.0546 212.946 90.5216 210.076 92.1953C209 90.6411 207.984 89.0272 207.327 87.2937C206.55 85.2016 206.43 83.1094 207.088 81.4357C208.104 78.9252 210.554 77.371 213.125 75.8168Z" fill="black"/>
<path d="M369.736 168.887C369.497 168.469 368.959 168.349 368.541 168.588C368.122 168.827 368.003 169.365 368.242 169.784L372.845 177.495C373.203 177.017 373.622 176.538 373.98 176.06L369.736 168.887Z" fill="black"/>
<path d="M379.241 188.314C379.42 188.613 379.659 188.732 379.958 188.732C380.137 188.732 380.257 188.673 380.376 188.613C380.795 188.374 380.914 187.836 380.675 187.417L374.877 177.674C374.458 178.152 374.1 178.63 373.741 179.108L379.241 188.314Z" fill="black"/>
<path d="M386.713 167.273C387.131 167.034 387.191 166.496 386.952 166.078C386.713 165.659 386.175 165.599 385.756 165.839C381.393 168.708 377.447 172.175 374.04 176.12C373.622 176.598 373.263 177.076 372.904 177.555C369.916 181.201 367.345 185.206 365.313 189.45C365.134 189.868 365.313 190.406 365.731 190.586C365.851 190.645 365.97 190.645 366.09 190.645C366.389 190.645 366.748 190.466 366.867 190.167C368.78 186.222 371.111 182.516 373.861 179.109C374.219 178.63 374.638 178.152 374.997 177.674C378.344 173.729 382.289 170.202 386.713 167.273Z" fill="black"/>
<path d="M346.236 61.4028C347.688 58.2742 349.253 55.0338 351.264 52.2404C353.498 49.1677 356.18 46.9889 359.029 45.8715C360.258 45.4246 361.934 45.2011 362.661 46.1509C363.219 46.8771 362.94 47.9945 362.381 48.7208C361.711 49.6146 360.65 50.1733 359.644 50.732C359.253 50.9555 359.085 51.4583 359.309 51.8494C359.532 52.2405 360.035 52.408 360.426 52.1846C361.543 51.57 362.828 50.8996 363.722 49.7264C364.616 48.5531 365.063 46.6537 363.946 45.2011C362.661 43.5251 360.258 43.6926 358.471 44.4189C355.342 45.5922 352.437 47.9945 349.979 51.3466C347.856 54.3076 346.291 57.6038 344.783 60.7882L337.855 75.5373L339.643 75.4815L346.236 61.4028Z" fill="black"/>
<path d="M327.129 94.3088C325.676 95.3145 323.721 95.7055 322.045 95.3703C321.207 95.2027 320.033 94.7558 319.251 93.5825C319.028 93.1915 318.525 93.1356 318.134 93.3591C317.743 93.5826 317.687 94.0854 317.91 94.4764C318.749 95.7614 320.089 96.5994 321.765 96.9346C322.268 97.0463 322.715 97.1022 323.218 97.1022C324.894 97.1022 326.626 96.5994 328.023 95.6497C331.039 93.5825 332.715 90.0629 334.056 87.2136L338.861 77.0457L337.073 77.1015L332.66 86.5432C331.319 89.2807 329.81 92.4652 327.129 94.3088Z" fill="black"/>
<path d="M346.794 76.8221C347.241 76.8221 347.577 76.431 347.577 75.984C347.577 75.5371 347.185 75.2019 346.739 75.2019L339.643 75.4254L337.856 75.4812L330.984 75.7047C330.537 75.7047 330.202 76.0958 330.202 76.5427C330.202 76.9897 330.593 77.3249 330.984 77.3249L337.073 77.1573L338.861 77.1014L346.794 76.8221Z" fill="black"/>
<path d="M370.65 52.0169C360.984 63.3022 355.286 77.6603 354.56 92.5211C354.56 92.9681 354.895 93.3592 355.342 93.3592C355.789 93.3592 356.124 93.0239 356.124 92.577C356.85 78.1072 362.437 64.0844 371.823 53.0784C372.102 52.7432 372.046 52.2404 371.711 51.961C371.432 51.6258 370.929 51.6817 370.65 52.0169Z" fill="black"/>
<path d="M376.348 62.8552C376.292 62.4082 375.957 62.073 375.454 62.1289C375.007 62.1848 374.672 62.5759 374.728 63.0228L375.51 72.7438C376.013 72.3527 376.516 71.9617 377.018 71.5706L376.348 62.8552Z" fill="black"/>
<path d="M376.46 84.532C376.515 84.9789 376.851 85.2583 377.242 85.2583C377.745 85.2024 378.08 84.8113 378.024 84.3643L377.13 73.3584C376.627 73.7495 376.124 74.1964 375.622 74.5875L376.46 84.532Z" fill="black"/>
<path d="M363.89 84.1969C364.057 84.3645 364.281 84.4203 364.448 84.4203C364.672 84.4203 364.839 84.3645 365.007 84.1969C368.415 80.8448 371.99 77.7162 375.678 74.6993C376.181 74.3082 376.683 73.8613 377.186 73.4702C381.209 70.2857 385.399 67.213 389.701 64.4755C390.092 64.252 390.203 63.7492 389.924 63.3581C389.701 62.9671 389.198 62.8553 388.807 63.1347C384.728 65.7604 380.818 68.6097 377.019 71.6266C376.516 72.0177 376.013 72.4088 375.51 72.7998C371.488 76.0402 367.577 79.504 363.89 83.1354C363.554 83.3589 363.554 83.8617 363.89 84.1969Z" fill="black"/>
<path d="M399.087 51.6261C399.087 51.1792 398.751 50.844 398.304 50.7881C397.858 50.7881 397.522 51.1233 397.522 51.5703C397.466 58.3303 397.075 67.1574 394.394 75.4258C391.712 83.6943 386.907 90.5102 380.874 94.5885C380.483 94.812 380.427 95.3148 380.65 95.7059C380.818 95.9294 381.041 96.0411 381.321 96.0411C381.488 96.0411 381.656 95.9852 381.768 95.9293C388.081 91.6275 393.109 84.5323 395.902 75.9286C398.64 67.4926 399.031 58.4979 399.087 51.6261Z" fill="black"/>
<defs>
<linearGradient id="paint0_linear_705_725" x1="71.1202" y1="119.907" x2="193.691" y2="126.021" gradientUnits="userSpaceOnUse">
<stop stop-color="#C6B1FF"/>
<stop offset="1" stop-color="#FFBDED"/>
</linearGradient>
</defs>
</svg>
