<svg width="575" height="350" viewBox="0 0 575 350" fill="none" xmlns="http://www.w3.org/2000/svg">
<rect width="575" height="350" fill="white"/>
<circle cx="51.1992" cy="45.5" r="19.5" fill="url(#paint0_linear_705_725)" stroke="black"/>
<path d="M42.1992 50.75V54.5H45.9492L57.0092 43.44L53.2592 39.69L42.1992 50.75ZM45.1192 52.5H44.1992V51.58L53.2592 42.52L54.1792 43.44L45.1192 52.5ZM59.9092 39.13L57.5692 36.79C57.3692 36.59 57.1192 36.5 56.8592 36.5C56.5992 36.5 56.3492 36.6 56.1592 36.79L54.3292 38.62L58.0792 42.37L59.9092 40.54C60.2992 40.15 60.2992 39.52 59.9092 39.13V39.13Z" fill="#323232"/>
<path d="M78.4279 221.871C78.239 220.588 78.1112 219.284 78.0474 217.964L78.5468 217.939C78.5157 217.297 78.5 216.65 78.5 216V214H78V210H78.5V206H78V202H78.5V198H78V194H78.5V190H78V186H78.5V182H78V178H78.5V174H78V170H78.5V166H78V162H78.5V158H78V154H78.5V150H78V146H78.5V142H78V138H78.5V134H78V130H78.5V126H78V122H78.5V118H78V114H78.5V110H78V106H78.5V102H78V98H78.5V94H78V90H78.5V86H78V82H78.5V78H78V74H78.5V70H78V66H78.5V64.5H80V64H84V64.5H88V64H92V64.5H96V64H100V64.5H104V64H108V64.5H112V64H116V64.5H120V64H124V64.5H128V64H132V64.5H136V64H140V64.5H144V64H148V64.5H152V64H156V64.5H160V64H164V64.5H168V64H172V64.5H176V64H180V64.5H184V64H188V64.5H192V64H196V64.5H200V64H204V64.5H208V64H212V64.5H216V64H220V64.5H224V64H228V64.5H232V64H236V64.5H240V64H244V64.5H248V64H252V64.5H256V64H260V64.5H264V64H268V64.5H272V64H276V64.5H280V64H284V64.5H288V64H292V64.5H296V64H300V64.5H304V64H308V64.5H312V64H316V64.5H320V64H324V64.5H328V64H332V64.5H336V64H340V64.5H344V64H348V64.5H352V64H356V64.5H360V64H364V64.5H368V64H372V64.5H376V64H380V64.5H384V64H388V64.5H392V64H396V64.5H400V64H404V64.5H408V64H412V64.5H416V64H420V64.5H424V64H428V64.5H432V64H436V64.5H440V64H444V64.5H448V64H452V64.5H456V64H460V64.5H464V64H468V64.5H472V64H476V64.5H480V64H484V64.5H486C486.65 64.5 487.297 64.5157 487.939 64.5468L487.964 64.0474C489.284 64.1112 490.588 64.239 491.871 64.4279L491.799 64.9226C493.088 65.1122 494.356 65.364 495.602 65.675L495.723 65.1899C497 65.5089 498.254 65.8895 499.48 66.3282L499.311 66.7989C500.534 67.2364 501.729 67.7325 502.892 68.2837L503.106 67.8319C504.293 68.3942 505.448 69.0132 506.567 69.6854L506.309 70.114C507.42 70.781 508.495 71.5011 509.531 72.2707L509.829 71.8693C510.881 72.6508 511.893 73.4828 512.862 74.3616L512.526 74.7319C513.484 75.6006 514.399 76.5157 515.268 77.4735L515.638 77.1376C516.517 78.1067 517.349 79.119 518.131 80.171L517.729 80.4692C518.499 81.5052 519.219 82.5802 519.886 83.6907L520.315 83.4333C520.987 84.5524 521.606 85.7071 522.168 86.8939L521.716 87.108C522.268 88.2715 522.764 89.4662 523.201 90.6887L523.672 90.5202C524.111 91.746 524.491 92.9995 524.81 94.2773L524.325 94.3985C524.636 95.6437 524.888 96.9124 525.077 98.2013L525.572 98.1286C525.761 99.4124 525.889 100.716 525.953 102.036L525.453 102.061C525.484 102.703 525.5 103.35 525.5 104V106H526V110H525.5V114H526V118H525.5V122H526V126H525.5V130H526V134H525.5V138H526V142H525.5V146H526V150H525.5V154H526V158H525.5V162H526V166H525.5V170H526V174H525.5V178H526V182H525.5V186H526V190H525.5V194H526V198H525.5V202H526V206H525.5V210H526V214H525.5V216C525.5 216.65 525.484 217.297 525.453 217.939L525.953 217.964C525.889 219.284 525.761 220.588 525.572 221.871L525.077 221.799C524.888 223.088 524.636 224.356 524.325 225.602L524.81 225.723C524.491 227 524.111 228.254 523.672 229.48L523.201 229.311C522.764 230.534 522.268 231.729 521.716 232.892L522.168 233.106C521.606 234.293 520.987 235.448 520.315 236.567L519.886 236.309C519.219 237.42 518.499 238.495 517.729 239.531L518.131 239.829C517.349 240.881 516.517 241.893 515.638 242.862L515.268 242.526C514.399 243.484 513.484 244.399 512.526 245.268L512.862 245.638C511.893 246.517 510.881 247.349 509.829 248.131L509.531 247.729C508.495 248.499 507.42 249.219 506.309 249.886L506.567 250.315C505.448 250.987 504.293 251.606 503.106 252.168L502.892 251.716C501.729 252.268 500.534 252.764 499.311 253.201L499.48 253.672C498.254 254.111 497 254.491 495.723 254.81L495.602 254.325C494.356 254.636 493.088 254.888 491.799 255.077L491.871 255.572C490.588 255.761 489.284 255.889 487.964 255.953L487.939 255.453C487.297 255.484 486.65 255.5 486 255.5H484V256H480V255.5H476V256H472V255.5H468V256H464V255.5H460V256H456V255.5H452V256H448V255.5H444V256H440V255.5H436V256H432V255.5H428V256H424V255.5H420V256H416V255.5H412V256H408V255.5H404V256H400V255.5H396V256H392V255.5H388V256H384V255.5H380V256H376V255.5H372V256H368V255.5H364V256H360V255.5H356V256H352V255.5H348V256H344V255.5H340V256H336V255.5H332V256H328V255.5H324V256H320V255.5H316V256H312V255.5H308V256H304V255.5H300V256H296V255.5H292V256H288V255.5H284V256H280V255.5H276V256H272V255.5H268V256H264V255.5H260V256H256V255.5H252V256H248V255.5H244V256H240V255.5H236V256H232V255.5H228V256H224V255.5H220V256H216V255.5H212V256H208V255.5H204V256H200V255.5H196V256H192V255.5H188V256H184V255.5H180V256H176V255.5H172V256H168V255.5H164V256H160V255.5H156V256H152V255.5H148V256H144V255.5H140V256H136V255.5H132V256H128V255.5H124V256H120V255.5H118C117.35 255.5 116.703 255.484 116.061 255.453L116.036 255.953C114.716 255.889 113.412 255.761 112.129 255.572L112.201 255.077C110.912 254.888 109.644 254.636 108.398 254.325L108.277 254.81C107 254.491 105.746 254.111 104.52 253.672L104.689 253.201C103.466 252.764 102.271 252.268 101.108 251.716L100.894 252.168C99.7071 251.606 98.5524 250.987 97.4333 250.315L97.6907 249.886C96.5802 249.219 95.5052 248.499 94.4692 247.729L94.171 248.131C93.119 247.349 92.1067 246.517 91.1376 245.638L91.4735 245.268C90.5157 244.399 89.6006 243.484 88.7319 242.526L88.3616 242.862C87.4828 241.893 86.6508 240.881 85.8693 239.829L86.2707 239.531C85.5011 238.495 84.781 237.42 84.114 236.309L83.6854 236.567C83.0132 235.448 82.3942 234.293 81.8319 233.106L82.2837 232.892C81.7325 231.729 81.2364 230.534 80.7989 229.311L80.3282 229.48C79.8895 228.254 79.5089 227 79.1899 225.723L79.675 225.602C79.364 224.356 79.1122 223.088 78.9226 221.799L78.4279 221.871Z" fill="white" stroke="black" stroke-dasharray="4 4"/>
<path d="M132.54 295.1C132.3 295.1 132.107 295.027 131.96 294.88C131.813 294.72 131.74 294.513 131.74 294.26V281.72C131.74 281.48 131.813 281.287 131.96 281.14C132.12 280.98 132.327 280.9 132.58 280.9H142.34C142.593 280.9 142.793 280.98 142.94 281.14C143.087 281.287 143.16 281.48 143.16 281.72V294.28C143.16 294.533 143.087 294.733 142.94 294.88C142.793 295.027 142.6 295.1 142.36 295.1C142.107 295.1 141.907 295.027 141.76 294.88C141.613 294.733 141.54 294.533 141.54 294.28V282.28H133.36V294.28C133.36 294.533 133.287 294.733 133.14 294.88C132.993 295.027 132.793 295.1 132.54 295.1ZM151.302 285.02C152.156 285.02 152.909 285.233 153.562 285.66C154.216 286.087 154.722 286.687 155.082 287.46C155.442 288.22 155.622 289.107 155.622 290.12C155.622 291.133 155.442 292.02 155.082 292.78C154.722 293.527 154.216 294.107 153.562 294.52C152.922 294.933 152.169 295.14 151.302 295.14C150.542 295.14 149.876 294.973 149.302 294.64C148.742 294.307 148.316 293.833 148.022 293.22V297.92C148.022 298.16 147.949 298.347 147.802 298.48C147.669 298.627 147.476 298.7 147.222 298.7C146.969 298.7 146.769 298.627 146.622 298.48C146.476 298.333 146.402 298.147 146.402 297.92V285.86C146.402 285.62 146.476 285.427 146.622 285.28C146.769 285.133 146.969 285.06 147.222 285.06C147.476 285.06 147.669 285.133 147.802 285.28C147.949 285.427 148.022 285.62 148.022 285.86V286.94C148.316 286.327 148.742 285.853 149.302 285.52C149.876 285.187 150.542 285.02 151.302 285.02ZM150.982 293.8C151.929 293.8 152.662 293.48 153.182 292.84C153.702 292.2 153.962 291.293 153.962 290.12C153.962 288.947 153.702 288.033 153.182 287.38C152.662 286.713 151.929 286.38 150.982 286.38C150.036 286.38 149.302 286.7 148.782 287.34C148.276 287.98 148.022 288.893 148.022 290.08C148.022 291.267 148.276 292.187 148.782 292.84C149.302 293.48 150.036 293.8 150.982 293.8ZM162.023 285.02C164.463 285.02 165.683 286.3 165.683 288.86V294.3C165.683 294.54 165.61 294.733 165.463 294.88C165.33 295.027 165.143 295.1 164.903 295.1C164.663 295.1 164.47 295.027 164.323 294.88C164.176 294.733 164.103 294.54 164.103 294.3V293.34C163.85 293.913 163.463 294.36 162.943 294.68C162.423 294.987 161.823 295.14 161.143 295.14C160.516 295.14 159.936 295.013 159.403 294.76C158.883 294.507 158.47 294.153 158.163 293.7C157.856 293.247 157.703 292.747 157.703 292.2C157.703 291.467 157.89 290.9 158.263 290.5C158.636 290.087 159.25 289.793 160.103 289.62C160.956 289.433 162.143 289.34 163.663 289.34H164.103V288.68C164.103 287.88 163.936 287.293 163.603 286.92C163.283 286.547 162.756 286.36 162.023 286.36C161.116 286.36 160.196 286.607 159.263 287.1C158.903 287.327 158.65 287.44 158.503 287.44C158.343 287.44 158.21 287.38 158.103 287.26C157.996 287.14 157.943 286.987 157.943 286.8C157.943 286.613 157.996 286.453 158.103 286.32C158.223 286.173 158.41 286.027 158.663 285.88C159.13 285.613 159.656 285.407 160.243 285.26C160.843 285.1 161.436 285.02 162.023 285.02ZM161.363 293.86C162.163 293.86 162.816 293.593 163.323 293.06C163.843 292.513 164.103 291.813 164.103 290.96V290.38H163.743C162.57 290.38 161.676 290.433 161.063 290.54C160.45 290.633 160.01 290.8 159.743 291.04C159.49 291.267 159.363 291.607 159.363 292.06C159.363 292.58 159.55 293.013 159.923 293.36C160.31 293.693 160.79 293.86 161.363 293.86ZM169.448 295C169.195 295 168.988 294.927 168.828 294.78C168.682 294.633 168.608 294.44 168.608 294.2V286.1C168.608 285.847 168.682 285.647 168.828 285.5C168.975 285.34 169.175 285.26 169.428 285.26H172.888C173.955 285.26 174.782 285.467 175.368 285.88C175.955 286.293 176.248 286.913 176.248 287.74C176.248 288.22 176.108 288.667 175.828 289.08C175.548 289.493 175.122 289.8 174.548 290C175.148 290.107 175.622 290.36 175.968 290.76C176.328 291.16 176.508 291.667 176.508 292.28C176.508 292.733 176.382 293.167 176.128 293.58C175.888 293.993 175.502 294.333 174.968 294.6C174.435 294.867 173.768 295 172.968 295H169.448ZM172.768 289.46C173.328 289.46 173.782 289.32 174.128 289.04C174.475 288.747 174.648 288.353 174.648 287.86C174.648 286.927 174.002 286.46 172.708 286.46H170.228V289.46H172.768ZM172.808 293.8C174.182 293.8 174.868 293.273 174.868 292.22C174.868 291.687 174.668 291.287 174.268 291.02C173.868 290.753 173.322 290.62 172.628 290.62H170.228V293.8H172.808ZM183.423 289.72C183.903 289.853 184.289 290.073 184.583 290.38C184.876 290.687 185.223 291.18 185.623 291.86L186.883 293.92C186.963 294.053 187.003 294.193 187.003 294.34C187.003 294.553 186.923 294.733 186.763 294.88C186.603 295.027 186.416 295.1 186.203 295.1C185.909 295.1 185.676 294.96 185.503 294.68L183.983 292.12C183.636 291.547 183.309 291.16 183.003 290.96C182.696 290.76 182.256 290.66 181.683 290.66H180.563V294.3C180.563 294.553 180.489 294.753 180.343 294.9C180.196 295.033 179.996 295.1 179.743 295.1C179.503 295.1 179.309 295.033 179.163 294.9C179.016 294.753 178.943 294.553 178.943 294.3V285.86C178.943 285.62 179.016 285.427 179.163 285.28C179.309 285.133 179.503 285.06 179.743 285.06C179.996 285.06 180.196 285.133 180.343 285.28C180.489 285.427 180.563 285.62 180.563 285.86V289.4H181.923L185.243 285.4C185.429 285.173 185.636 285.06 185.863 285.06C186.049 285.06 186.209 285.127 186.343 285.26C186.489 285.393 186.563 285.56 186.563 285.76C186.563 285.933 186.489 286.113 186.343 286.3L183.423 289.72ZM195.799 285.58C195.932 285.393 196.072 285.26 196.219 285.18C196.366 285.1 196.539 285.06 196.739 285.06C196.992 285.06 197.192 285.14 197.339 285.3C197.499 285.46 197.579 285.66 197.579 285.9V294.32C197.579 294.547 197.506 294.733 197.359 294.88C197.212 295.027 197.026 295.1 196.799 295.1C196.586 295.1 196.399 295.027 196.239 294.88C196.092 294.72 196.019 294.533 196.019 294.32V287.34L190.759 294.62C190.532 294.94 190.232 295.1 189.859 295.1C189.606 295.1 189.399 295.027 189.239 294.88C189.079 294.72 188.999 294.52 188.999 294.28V285.86C188.999 285.633 189.072 285.447 189.219 285.3C189.379 285.14 189.572 285.06 189.799 285.06C190.026 285.06 190.212 285.14 190.359 285.3C190.506 285.447 190.579 285.633 190.579 285.86V292.74L195.799 285.58ZM208.659 295.14C207.259 295.14 206.092 294.827 205.159 294.2C204.905 294.04 204.779 293.833 204.779 293.58C204.779 293.42 204.839 293.28 204.959 293.16C205.092 293.027 205.245 292.96 205.419 292.96C205.565 292.96 205.699 293 205.819 293.08C206.245 293.333 206.665 293.52 207.079 293.64C207.505 293.76 207.999 293.82 208.559 293.82C209.239 293.82 209.839 293.673 210.359 293.38C210.892 293.087 211.159 292.653 211.159 292.08C211.159 291.107 210.492 290.62 209.159 290.62H207.639C207.452 290.62 207.299 290.56 207.179 290.44C207.059 290.32 206.999 290.167 206.999 289.98C206.999 289.807 207.059 289.667 207.179 289.56C207.299 289.44 207.452 289.38 207.639 289.38H209.019C209.605 289.38 210.079 289.233 210.439 288.94C210.799 288.647 210.979 288.267 210.979 287.8C210.979 287.347 210.799 286.993 210.439 286.74C210.079 286.487 209.545 286.36 208.839 286.36C208.252 286.36 207.739 286.427 207.299 286.56C206.872 286.693 206.465 286.88 206.079 287.12C205.945 287.187 205.825 287.22 205.719 287.22C205.532 287.22 205.372 287.16 205.239 287.04C205.119 286.907 205.059 286.753 205.059 286.58C205.059 286.327 205.192 286.133 205.459 286C206.512 285.347 207.712 285.02 209.059 285.02C210.285 285.02 211.192 285.26 211.779 285.74C212.365 286.207 212.659 286.84 212.659 287.64C212.659 288.12 212.505 288.573 212.199 289C211.892 289.413 211.465 289.713 210.919 289.9C211.585 290.02 212.072 290.28 212.379 290.68C212.685 291.08 212.839 291.573 212.839 292.16C212.839 293.08 212.439 293.807 211.639 294.34C210.839 294.873 209.845 295.14 208.659 295.14ZM219.191 285.02C221.631 285.02 222.851 286.3 222.851 288.86V294.3C222.851 294.54 222.778 294.733 222.631 294.88C222.498 295.027 222.311 295.1 222.071 295.1C221.831 295.1 221.638 295.027 221.491 294.88C221.344 294.733 221.271 294.54 221.271 294.3V293.34C221.018 293.913 220.631 294.36 220.111 294.68C219.591 294.987 218.991 295.14 218.311 295.14C217.684 295.14 217.104 295.013 216.571 294.76C216.051 294.507 215.638 294.153 215.331 293.7C215.024 293.247 214.871 292.747 214.871 292.2C214.871 291.467 215.058 290.9 215.431 290.5C215.804 290.087 216.418 289.793 217.271 289.62C218.124 289.433 219.311 289.34 220.831 289.34H221.271V288.68C221.271 287.88 221.104 287.293 220.771 286.92C220.451 286.547 219.924 286.36 219.191 286.36C218.284 286.36 217.364 286.607 216.431 287.1C216.071 287.327 215.818 287.44 215.671 287.44C215.511 287.44 215.378 287.38 215.271 287.26C215.164 287.14 215.111 286.987 215.111 286.8C215.111 286.613 215.164 286.453 215.271 286.32C215.391 286.173 215.578 286.027 215.831 285.88C216.298 285.613 216.824 285.407 217.411 285.26C218.011 285.1 218.604 285.02 219.191 285.02ZM218.531 293.86C219.331 293.86 219.984 293.593 220.491 293.06C221.011 292.513 221.271 291.813 221.271 290.96V290.38H220.911C219.738 290.38 218.844 290.433 218.231 290.54C217.618 290.633 217.178 290.8 216.911 291.04C216.658 291.267 216.531 291.607 216.531 292.06C216.531 292.58 216.718 293.013 217.091 293.36C217.478 293.693 217.958 293.86 218.531 293.86ZM225.276 297.64C225.05 297.64 224.863 297.567 224.716 297.42C224.583 297.287 224.516 297.1 224.516 296.86V294.56C224.516 294.307 224.583 294.107 224.716 293.96C224.85 293.8 225.023 293.72 225.236 293.72H225.596C226.076 293.027 226.416 292.2 226.616 291.24C226.816 290.28 226.916 289.027 226.916 287.48V286.1C226.916 285.847 226.99 285.647 227.136 285.5C227.283 285.34 227.483 285.26 227.736 285.26H232.756C233.01 285.26 233.21 285.333 233.356 285.48C233.516 285.627 233.596 285.827 233.596 286.08V293.72H234.276C234.53 293.72 234.73 293.793 234.876 293.94C235.036 294.087 235.116 294.287 235.116 294.54V296.86C235.116 297.1 235.05 297.287 234.916 297.42C234.783 297.567 234.596 297.64 234.356 297.64C234.13 297.64 233.943 297.567 233.796 297.42C233.663 297.287 233.596 297.1 233.596 296.86V295H226.036V296.86C226.036 297.1 225.963 297.287 225.816 297.42C225.683 297.567 225.503 297.64 225.276 297.64ZM231.996 286.54H228.376V287.48C228.376 290.413 227.95 292.493 227.096 293.72H231.996V286.54ZM241.066 285.02C243.506 285.02 244.726 286.3 244.726 288.86V294.3C244.726 294.54 244.653 294.733 244.506 294.88C244.373 295.027 244.186 295.1 243.946 295.1C243.706 295.1 243.513 295.027 243.366 294.88C243.219 294.733 243.146 294.54 243.146 294.3V293.34C242.893 293.913 242.506 294.36 241.986 294.68C241.466 294.987 240.866 295.14 240.186 295.14C239.559 295.14 238.979 295.013 238.446 294.76C237.926 294.507 237.513 294.153 237.206 293.7C236.899 293.247 236.746 292.747 236.746 292.2C236.746 291.467 236.933 290.9 237.306 290.5C237.679 290.087 238.293 289.793 239.146 289.62C239.999 289.433 241.186 289.34 242.706 289.34H243.146V288.68C243.146 287.88 242.979 287.293 242.646 286.92C242.326 286.547 241.799 286.36 241.066 286.36C240.159 286.36 239.239 286.607 238.306 287.1C237.946 287.327 237.693 287.44 237.546 287.44C237.386 287.44 237.253 287.38 237.146 287.26C237.039 287.14 236.986 286.987 236.986 286.8C236.986 286.613 237.039 286.453 237.146 286.32C237.266 286.173 237.453 286.027 237.706 285.88C238.173 285.613 238.699 285.407 239.286 285.26C239.886 285.1 240.479 285.02 241.066 285.02ZM240.406 293.86C241.206 293.86 241.859 293.593 242.366 293.06C242.886 292.513 243.146 291.813 243.146 290.96V290.38H242.786C241.613 290.38 240.719 290.433 240.106 290.54C239.493 290.633 239.053 290.8 238.786 291.04C238.533 291.267 238.406 291.607 238.406 292.06C238.406 292.58 238.593 293.013 238.966 293.36C239.353 293.693 239.833 293.86 240.406 293.86ZM254.011 295.1C253.758 295.1 253.558 295.033 253.411 294.9C253.265 294.753 253.191 294.56 253.191 294.32V291.16C252.871 291.32 252.485 291.46 252.031 291.58C251.591 291.687 251.131 291.74 250.651 291.74C249.531 291.74 248.658 291.48 248.031 290.96C247.405 290.44 247.091 289.613 247.091 288.48V285.86C247.091 285.62 247.165 285.427 247.311 285.28C247.458 285.133 247.658 285.06 247.911 285.06C248.151 285.06 248.345 285.133 248.491 285.28C248.638 285.427 248.711 285.62 248.711 285.86V288.3C248.711 289.06 248.898 289.607 249.271 289.94C249.658 290.273 250.205 290.44 250.911 290.44C251.818 290.44 252.578 290.24 253.191 289.84V285.86C253.191 285.62 253.265 285.427 253.411 285.28C253.558 285.133 253.758 285.06 254.011 285.06C254.251 285.06 254.445 285.133 254.591 285.28C254.738 285.427 254.811 285.62 254.811 285.86V294.32C254.811 294.56 254.738 294.753 254.591 294.9C254.445 295.033 254.251 295.1 254.011 295.1ZM264.53 285.58C264.663 285.393 264.803 285.26 264.95 285.18C265.096 285.1 265.27 285.06 265.47 285.06C265.723 285.06 265.923 285.14 266.07 285.3C266.23 285.46 266.31 285.66 266.31 285.9V294.32C266.31 294.547 266.236 294.733 266.09 294.88C265.943 295.027 265.756 295.1 265.53 295.1C265.316 295.1 265.13 295.027 264.97 294.88C264.823 294.72 264.75 294.533 264.75 294.32V287.34L259.49 294.62C259.263 294.94 258.963 295.1 258.59 295.1C258.336 295.1 258.13 295.027 257.97 294.88C257.81 294.72 257.73 294.52 257.73 294.28V285.86C257.73 285.633 257.803 285.447 257.95 285.3C258.11 285.14 258.303 285.06 258.53 285.06C258.756 285.06 258.943 285.14 259.09 285.3C259.236 285.447 259.31 285.633 259.31 285.86V292.74L264.53 285.58ZM285.229 280.8C285.456 280.8 285.636 280.88 285.769 281.04C285.916 281.187 285.989 281.387 285.989 281.64V294.26C285.989 294.527 285.916 294.733 285.769 294.88C285.623 295.027 285.429 295.1 285.189 295.1C284.923 295.1 284.703 294.987 284.529 294.76L276.229 283.62V294.26C276.229 294.527 276.156 294.733 276.009 294.88C275.863 295.027 275.676 295.1 275.449 295.1C275.209 295.1 275.023 295.027 274.889 294.88C274.756 294.733 274.689 294.527 274.689 294.26V281.64C274.689 281.387 274.763 281.187 274.909 281.04C275.056 280.88 275.249 280.8 275.489 280.8C275.636 280.8 275.756 280.827 275.849 280.88C275.956 280.933 276.063 281.02 276.169 281.14L284.449 292.28V281.64C284.449 281.387 284.523 281.187 284.669 281.04C284.816 280.88 285.003 280.8 285.229 280.8ZM291.009 286.86C290.089 286.86 289.363 286.58 288.829 286.02C288.309 285.46 288.049 284.727 288.049 283.82C288.049 282.927 288.309 282.2 288.829 281.64C289.363 281.08 290.089 280.8 291.009 280.8C291.943 280.8 292.676 281.08 293.209 281.64C293.743 282.2 294.009 282.927 294.009 283.82C294.009 284.727 293.743 285.46 293.209 286.02C292.676 286.58 291.943 286.86 291.009 286.86ZM291.009 281.94C290.516 281.94 290.136 282.107 289.869 282.44C289.616 282.76 289.489 283.22 289.489 283.82C289.489 284.433 289.616 284.907 289.869 285.24C290.136 285.56 290.516 285.72 291.009 285.72C291.529 285.72 291.916 285.56 292.169 285.24C292.436 284.907 292.569 284.433 292.569 283.82C292.569 283.22 292.436 282.76 292.169 282.44C291.903 282.107 291.516 281.94 291.009 281.94ZM293.269 289C293.509 289 293.696 289.067 293.829 289.2C293.963 289.32 294.029 289.48 294.029 289.68C294.029 289.88 293.963 290.04 293.829 290.16C293.696 290.28 293.509 290.34 293.269 290.34H288.869C288.629 290.34 288.443 290.28 288.309 290.16C288.176 290.04 288.109 289.88 288.109 289.68C288.109 289.48 288.176 289.32 288.309 289.2C288.443 289.067 288.629 289 288.869 289H293.269ZM304.332 293.62C304.572 293.62 304.759 293.68 304.892 293.8C305.026 293.92 305.092 294.087 305.092 294.3C305.092 294.527 305.026 294.7 304.892 294.82C304.772 294.94 304.586 295 304.332 295H297.712C297.459 295 297.266 294.94 297.132 294.82C297.012 294.7 296.952 294.527 296.952 294.3C296.952 294.087 297.019 293.92 297.152 293.8C297.286 293.68 297.472 293.62 297.712 293.62H300.192V282.9L298.012 284.32C297.906 284.387 297.799 284.42 297.692 284.42C297.506 284.42 297.339 284.333 297.192 284.16C297.059 283.987 296.992 283.8 296.992 283.6C296.992 283.32 297.099 283.12 297.312 283L300.352 281.02C300.579 280.873 300.812 280.8 301.052 280.8C301.279 280.8 301.466 280.873 301.612 281.02C301.759 281.167 301.832 281.373 301.832 281.64V293.62H304.332ZM316.324 293.62C316.564 293.62 316.751 293.68 316.884 293.8C317.018 293.92 317.084 294.087 317.084 294.3C317.084 294.527 317.018 294.7 316.884 294.82C316.764 294.94 316.578 295 316.324 295H309.704C309.451 295 309.258 294.94 309.124 294.82C309.004 294.7 308.944 294.527 308.944 294.3C308.944 294.087 309.011 293.92 309.144 293.8C309.278 293.68 309.464 293.62 309.704 293.62H312.184V282.9L310.004 284.32C309.898 284.387 309.791 284.42 309.684 284.42C309.498 284.42 309.331 284.333 309.184 284.16C309.051 283.987 308.984 283.8 308.984 283.6C308.984 283.32 309.091 283.12 309.304 283L312.344 281.02C312.571 280.873 312.804 280.8 313.044 280.8C313.271 280.8 313.458 280.873 313.604 281.02C313.751 281.167 313.824 281.373 313.824 281.64V293.62H316.324ZM325.017 286.16C325.91 286.16 326.69 286.347 327.357 286.72C328.037 287.093 328.557 287.62 328.917 288.3C329.29 288.967 329.477 289.74 329.477 290.62C329.477 291.5 329.277 292.287 328.877 292.98C328.477 293.66 327.917 294.193 327.197 294.58C326.49 294.953 325.67 295.14 324.737 295.14C323.91 295.14 323.103 294.993 322.317 294.7C321.53 294.407 320.863 294.007 320.317 293.5C320.103 293.3 319.997 293.073 319.997 292.82C319.997 292.62 320.05 292.453 320.157 292.32C320.263 292.187 320.39 292.12 320.537 292.12C320.723 292.12 320.91 292.193 321.097 292.34C321.683 292.82 322.27 293.18 322.857 293.42C323.443 293.647 324.057 293.76 324.697 293.76C325.683 293.76 326.457 293.48 327.017 292.92C327.577 292.36 327.857 291.6 327.857 290.64C327.857 289.707 327.577 288.953 327.017 288.38C326.457 287.807 325.703 287.52 324.757 287.52C323.543 287.52 322.557 287.987 321.797 288.92C321.61 289.12 321.383 289.22 321.117 289.22C320.93 289.22 320.77 289.167 320.637 289.06C320.517 288.94 320.457 288.78 320.457 288.58V281.68C320.457 281.453 320.523 281.267 320.657 281.12C320.803 280.973 321.003 280.9 321.257 280.9H328.297C328.537 280.9 328.723 280.96 328.857 281.08C329.003 281.2 329.077 281.367 329.077 281.58C329.077 281.793 329.003 281.96 328.857 282.08C328.723 282.2 328.537 282.26 328.297 282.26H322.077V287.28C322.45 286.92 322.883 286.647 323.377 286.46C323.883 286.26 324.43 286.16 325.017 286.16ZM344.961 298.28C343.548 295.573 342.841 292.727 342.841 289.74C342.841 286.753 343.548 283.907 344.961 281.2C345.135 280.893 345.368 280.74 345.661 280.74C345.821 280.74 345.955 280.793 346.061 280.9C346.181 281.007 346.241 281.14 346.241 281.3C346.241 281.393 346.221 281.493 346.181 281.6C345.061 284.24 344.501 286.953 344.501 289.74C344.501 292.527 345.061 295.24 346.181 297.88C346.221 298 346.241 298.1 346.241 298.18C346.241 298.353 346.181 298.487 346.061 298.58C345.955 298.687 345.821 298.74 345.661 298.74C345.368 298.74 345.135 298.587 344.961 298.28ZM356.91 293.62C357.15 293.62 357.337 293.68 357.47 293.8C357.604 293.92 357.67 294.087 357.67 294.3C357.67 294.527 357.604 294.7 357.47 294.82C357.35 294.94 357.164 295 356.91 295H350.29C350.037 295 349.844 294.94 349.71 294.82C349.59 294.7 349.53 294.527 349.53 294.3C349.53 294.087 349.597 293.92 349.73 293.8C349.864 293.68 350.05 293.62 350.29 293.62H352.77V282.9L350.59 284.32C350.484 284.387 350.377 284.42 350.27 284.42C350.084 284.42 349.917 284.333 349.77 284.16C349.637 283.987 349.57 283.8 349.57 283.6C349.57 283.32 349.677 283.12 349.89 283L352.93 281.02C353.157 280.873 353.39 280.8 353.63 280.8C353.857 280.8 354.044 280.873 354.19 281.02C354.337 281.167 354.41 281.373 354.41 281.64V293.62H356.91ZM373.323 280.8C373.576 280.8 373.769 280.88 373.903 281.04C374.049 281.187 374.123 281.387 374.123 281.64V294.3C374.123 294.54 374.056 294.733 373.923 294.88C373.789 295.027 373.603 295.1 373.363 295.1C373.123 295.1 372.943 295.027 372.823 294.88C372.703 294.733 372.643 294.54 372.643 294.3V284.08L368.303 292.4C368.116 292.787 367.843 292.98 367.483 292.98C367.136 292.98 366.863 292.787 366.663 292.4L362.303 284.18V294.3C362.303 294.54 362.236 294.733 362.103 294.88C361.983 295.027 361.803 295.1 361.562 295.1C361.323 295.1 361.136 295.027 361.003 294.88C360.869 294.733 360.803 294.54 360.803 294.3V281.64C360.803 281.387 360.876 281.187 361.023 281.04C361.169 280.88 361.369 280.8 361.623 280.8C361.956 280.8 362.223 280.993 362.423 281.38L367.503 291.12L372.523 281.38C372.629 281.167 372.743 281.02 372.863 280.94C372.996 280.847 373.149 280.8 373.323 280.8ZM378.439 295C378.186 295 377.986 294.927 377.839 294.78C377.692 294.633 377.619 294.427 377.619 294.16V281.72C377.619 281.467 377.692 281.267 377.839 281.12C377.986 280.973 378.186 280.9 378.439 280.9H386.179C386.406 280.9 386.592 280.967 386.739 281.1C386.886 281.22 386.959 281.38 386.959 281.58C386.959 281.793 386.886 281.967 386.739 282.1C386.592 282.22 386.406 282.28 386.179 282.28H379.239V286.68H383.039C384.559 286.68 385.712 287.013 386.499 287.68C387.299 288.333 387.699 289.333 387.699 290.68C387.699 291.533 387.512 292.287 387.139 292.94C386.766 293.593 386.219 294.1 385.499 294.46C384.792 294.82 383.959 295 382.999 295H378.439ZM382.839 293.64C383.906 293.64 384.712 293.387 385.259 292.88C385.819 292.36 386.099 291.627 386.099 290.68C386.099 289.773 385.832 289.107 385.299 288.68C384.779 288.253 383.972 288.04 382.879 288.04H379.239V293.64H382.839ZM390.772 298.28C390.599 298.587 390.359 298.74 390.052 298.74C389.892 298.74 389.752 298.687 389.632 298.58C389.526 298.487 389.472 298.36 389.472 298.2C389.472 298.147 389.499 298.04 389.552 297.88C390.659 295.227 391.212 292.513 391.212 289.74C391.212 286.967 390.659 284.253 389.552 281.6C389.499 281.44 389.472 281.333 389.472 281.28C389.472 281.12 389.526 280.993 389.632 280.9C389.752 280.793 389.892 280.74 390.052 280.74C390.359 280.74 390.599 280.893 390.772 281.2C392.172 283.92 392.872 286.767 392.872 289.74C392.872 292.713 392.172 295.56 390.772 298.28Z" fill="black"/>
<path d="M109 283H105V285H109C110.65 285 112 286.35 112 288C112 289.65 110.65 291 109 291H105V293H109C111.76 293 114 290.76 114 288C114 285.24 111.76 283 109 283ZM103 291H99C97.35 291 96 289.65 96 288C96 286.35 97.35 285 99 285H103V283H99C96.24 283 94 285.24 94 288C94 290.76 96.24 293 99 293H103V291ZM100 287H108V289H100V287Z" fill="#323232"/>
<path d="M119.24 119.74C117.76 119.74 116.4 119.55 115.16 119.17C113.92 118.79 112.85 118.24 111.95 117.52C111.59 117.3 111.41 116.99 111.41 116.59C111.41 116.29 111.5 116.05 111.68 115.87C111.88 115.67 112.13 115.57 112.43 115.57C112.67 115.57 112.89 115.63 113.09 115.75C113.97 116.41 114.88 116.89 115.82 117.19C116.78 117.47 117.86 117.61 119.06 117.61C120.92 117.61 122.38 117.27 123.44 116.59C124.5 115.89 125.03 114.88 125.03 113.56C125.03 112.32 124.58 111.38 123.68 110.74C122.78 110.1 121.45 109.78 119.69 109.78H116.15C115.81 109.78 115.54 109.68 115.34 109.48C115.14 109.28 115.04 109.04 115.04 108.76C115.04 108.46 115.14 108.22 115.34 108.04C115.54 107.84 115.81 107.74 116.15 107.74H119.21C120.91 107.74 122.24 107.4 123.2 106.72C124.16 106.02 124.64 105.05 124.64 103.81C124.64 102.65 124.21 101.77 123.35 101.17C122.49 100.55 121.29 100.24 119.75 100.24C117.53 100.24 115.48 100.87 113.6 102.13C113.36 102.23 113.15 102.28 112.97 102.28C112.65 102.28 112.39 102.19 112.19 102.01C112.01 101.81 111.92 101.57 111.92 101.29C111.92 100.87 112.12 100.55 112.52 100.33C113.44 99.65 114.55 99.11 115.85 98.71C117.17 98.31 118.55 98.11 119.99 98.11C122.33 98.11 124.11 98.6 125.33 99.58C126.55 100.54 127.16 101.9 127.16 103.66C127.16 104.84 126.82 105.86 126.14 106.72C125.48 107.58 124.5 108.21 123.2 108.61C126.1 109.21 127.55 110.87 127.55 113.59C127.55 114.83 127.2 115.92 126.5 116.86C125.82 117.78 124.85 118.49 123.59 118.99C122.33 119.49 120.88 119.74 119.24 119.74ZM137.497 104.53C141.157 104.53 142.987 106.45 142.987 110.29V118.45C142.987 118.81 142.877 119.1 142.657 119.32C142.457 119.54 142.177 119.65 141.817 119.65C141.457 119.65 141.167 119.54 140.947 119.32C140.727 119.1 140.617 118.81 140.617 118.45V117.01C140.237 117.87 139.657 118.54 138.877 119.02C138.097 119.48 137.197 119.71 136.177 119.71C135.237 119.71 134.367 119.52 133.567 119.14C132.787 118.76 132.167 118.23 131.707 117.55C131.247 116.87 131.017 116.12 131.017 115.3C131.017 114.2 131.297 113.35 131.857 112.75C132.417 112.13 133.337 111.69 134.617 111.43C135.897 111.15 137.677 111.01 139.957 111.01H140.617V110.02C140.617 108.82 140.367 107.94 139.867 107.38C139.387 106.82 138.597 106.54 137.497 106.54C136.137 106.54 134.757 106.91 133.357 107.65C132.817 107.99 132.437 108.16 132.217 108.16C131.977 108.16 131.777 108.07 131.617 107.89C131.457 107.71 131.377 107.48 131.377 107.2C131.377 106.92 131.457 106.68 131.617 106.48C131.797 106.26 132.077 106.04 132.457 105.82C133.157 105.42 133.947 105.11 134.827 104.89C135.727 104.65 136.617 104.53 137.497 104.53ZM136.507 117.79C137.707 117.79 138.687 117.39 139.447 116.59C140.227 115.77 140.617 114.72 140.617 113.44V112.57H140.077C138.317 112.57 136.977 112.65 136.057 112.81C135.137 112.95 134.477 113.2 134.077 113.56C133.697 113.9 133.507 114.41 133.507 115.09C133.507 115.87 133.787 116.52 134.347 117.04C134.927 117.54 135.647 117.79 136.507 117.79ZM146.626 123.46C146.286 123.46 146.006 123.35 145.786 123.13C145.586 122.93 145.486 122.65 145.486 122.29V118.84C145.486 118.46 145.586 118.16 145.786 117.94C145.986 117.7 146.246 117.58 146.566 117.58H147.106C147.826 116.54 148.336 115.3 148.636 113.86C148.936 112.42 149.086 110.54 149.086 108.22V106.15C149.086 105.77 149.196 105.47 149.416 105.25C149.636 105.01 149.936 104.89 150.316 104.89H157.846C158.226 104.89 158.526 105 158.746 105.22C158.986 105.44 159.106 105.74 159.106 106.12V117.58H160.126C160.506 117.58 160.806 117.69 161.026 117.91C161.266 118.13 161.386 118.43 161.386 118.81V122.29C161.386 122.65 161.286 122.93 161.086 123.13C160.886 123.35 160.606 123.46 160.246 123.46C159.906 123.46 159.626 123.35 159.406 123.13C159.206 122.93 159.106 122.65 159.106 122.29V119.5H147.766V122.29C147.766 122.65 147.656 122.93 147.436 123.13C147.236 123.35 146.966 123.46 146.626 123.46ZM156.706 106.81H151.276V108.22C151.276 112.62 150.636 115.74 149.356 117.58H156.706V106.81ZM170.31 104.53C173.97 104.53 175.8 106.45 175.8 110.29V118.45C175.8 118.81 175.69 119.1 175.47 119.32C175.27 119.54 174.99 119.65 174.63 119.65C174.27 119.65 173.98 119.54 173.76 119.32C173.54 119.1 173.43 118.81 173.43 118.45V117.01C173.05 117.87 172.47 118.54 171.69 119.02C170.91 119.48 170.01 119.71 168.99 119.71C168.05 119.71 167.18 119.52 166.38 119.14C165.6 118.76 164.98 118.23 164.52 117.55C164.06 116.87 163.83 116.12 163.83 115.3C163.83 114.2 164.11 113.35 164.67 112.75C165.23 112.13 166.15 111.69 167.43 111.43C168.71 111.15 170.49 111.01 172.77 111.01H173.43V110.02C173.43 108.82 173.18 107.94 172.68 107.38C172.2 106.82 171.41 106.54 170.31 106.54C168.95 106.54 167.57 106.91 166.17 107.65C165.63 107.99 165.25 108.16 165.03 108.16C164.79 108.16 164.59 108.07 164.43 107.89C164.27 107.71 164.19 107.48 164.19 107.2C164.19 106.92 164.27 106.68 164.43 106.48C164.61 106.26 164.89 106.04 165.27 105.82C165.97 105.42 166.76 105.11 167.64 104.89C168.54 104.65 169.43 104.53 170.31 104.53ZM169.32 117.79C170.52 117.79 171.5 117.39 172.26 116.59C173.04 115.77 173.43 114.72 173.43 113.44V112.57H172.89C171.13 112.57 169.79 112.65 168.87 112.81C167.95 112.95 167.29 113.2 166.89 113.56C166.51 113.9 166.32 114.41 166.32 115.09C166.32 115.87 166.6 116.52 167.16 117.04C167.74 117.54 168.46 117.79 169.32 117.79ZM189.728 119.65C189.348 119.65 189.048 119.55 188.828 119.35C188.608 119.13 188.498 118.84 188.498 118.48V113.74C188.018 113.98 187.438 114.19 186.758 114.37C186.098 114.53 185.408 114.61 184.688 114.61C183.008 114.61 181.698 114.22 180.758 113.44C179.818 112.66 179.348 111.42 179.348 109.72V105.79C179.348 105.43 179.458 105.14 179.678 104.92C179.898 104.7 180.198 104.59 180.578 104.59C180.938 104.59 181.228 104.7 181.448 104.92C181.668 105.14 181.778 105.43 181.778 105.79V109.45C181.778 110.59 182.058 111.41 182.618 111.91C183.198 112.41 184.018 112.66 185.078 112.66C186.438 112.66 187.578 112.36 188.498 111.76V105.79C188.498 105.43 188.608 105.14 188.828 104.92C189.048 104.7 189.348 104.59 189.728 104.59C190.088 104.59 190.378 104.7 190.598 104.92C190.818 105.14 190.928 105.43 190.928 105.79V118.48C190.928 118.84 190.818 119.13 190.598 119.35C190.378 119.55 190.088 119.65 189.728 119.65ZM201.335 104.53C204.995 104.53 206.825 106.45 206.825 110.29V118.45C206.825 118.81 206.715 119.1 206.495 119.32C206.295 119.54 206.015 119.65 205.655 119.65C205.295 119.65 205.005 119.54 204.785 119.32C204.565 119.1 204.455 118.81 204.455 118.45V117.01C204.075 117.87 203.495 118.54 202.715 119.02C201.935 119.48 201.035 119.71 200.015 119.71C199.075 119.71 198.205 119.52 197.405 119.14C196.625 118.76 196.005 118.23 195.545 117.55C195.085 116.87 194.855 116.12 194.855 115.3C194.855 114.2 195.135 113.35 195.695 112.75C196.255 112.13 197.175 111.69 198.455 111.43C199.735 111.15 201.515 111.01 203.795 111.01H204.455V110.02C204.455 108.82 204.205 107.94 203.705 107.38C203.225 106.82 202.435 106.54 201.335 106.54C199.975 106.54 198.595 106.91 197.195 107.65C196.655 107.99 196.275 108.16 196.055 108.16C195.815 108.16 195.615 108.07 195.455 107.89C195.295 107.71 195.215 107.48 195.215 107.2C195.215 106.92 195.295 106.68 195.455 106.48C195.635 106.26 195.915 106.04 196.295 105.82C196.995 105.42 197.785 105.11 198.665 104.89C199.565 104.65 200.455 104.53 201.335 104.53ZM200.345 117.79C201.545 117.79 202.525 117.39 203.285 116.59C204.065 115.77 204.455 114.72 204.455 113.44V112.57H203.915C202.155 112.57 200.815 112.65 199.895 112.81C198.975 112.95 198.315 113.2 197.915 113.56C197.535 113.9 197.345 114.41 197.345 115.09C197.345 115.87 197.625 116.52 198.185 117.04C198.765 117.54 199.485 117.79 200.345 117.79ZM226.358 104.53C227.638 104.53 228.768 104.85 229.748 105.49C230.728 106.13 231.488 107.03 232.028 108.19C232.568 109.33 232.838 110.66 232.838 112.18C232.838 113.7 232.568 115.03 232.028 116.17C231.488 117.29 230.728 118.16 229.748 118.78C228.788 119.4 227.658 119.71 226.358 119.71C225.218 119.71 224.218 119.46 223.358 118.96C222.518 118.46 221.878 117.75 221.438 116.83V123.88C221.438 124.24 221.328 124.52 221.108 124.72C220.908 124.94 220.618 125.05 220.238 125.05C219.858 125.05 219.558 124.94 219.338 124.72C219.118 124.5 219.008 124.22 219.008 123.88V105.79C219.008 105.43 219.118 105.14 219.338 104.92C219.558 104.7 219.858 104.59 220.238 104.59C220.618 104.59 220.908 104.7 221.108 104.92C221.328 105.14 221.438 105.43 221.438 105.79V107.41C221.878 106.49 222.518 105.78 223.358 105.28C224.218 104.78 225.218 104.53 226.358 104.53ZM225.878 117.7C227.298 117.7 228.398 117.22 229.178 116.26C229.958 115.3 230.348 113.94 230.348 112.18C230.348 110.42 229.958 109.05 229.178 108.07C228.398 107.07 227.298 106.57 225.878 106.57C224.458 106.57 223.358 107.05 222.578 108.01C221.818 108.97 221.438 110.34 221.438 112.12C221.438 113.9 221.818 115.28 222.578 116.26C223.358 117.22 224.458 117.7 225.878 117.7ZM247.779 116.11C247.999 116.11 248.189 116.2 248.349 116.38C248.509 116.56 248.589 116.79 248.589 117.07C248.589 117.57 248.239 118.03 247.539 118.45C246.819 118.87 246.059 119.19 245.259 119.41C244.459 119.61 243.679 119.71 242.919 119.71C240.659 119.71 238.869 119.04 237.549 117.7C236.249 116.36 235.599 114.51 235.599 112.15C235.599 110.65 235.889 109.33 236.469 108.19C237.049 107.03 237.859 106.13 238.899 105.49C239.959 104.85 241.159 104.53 242.499 104.53C244.399 104.53 245.909 105.15 247.029 106.39C248.149 107.63 248.709 109.31 248.709 111.43C248.709 111.83 248.629 112.12 248.469 112.3C248.309 112.48 248.049 112.57 247.689 112.57H238.029C238.209 116.01 239.839 117.73 242.919 117.73C243.699 117.73 244.369 117.63 244.929 117.43C245.489 117.21 246.089 116.92 246.729 116.56C247.249 116.26 247.599 116.11 247.779 116.11ZM242.529 106.42C241.249 106.42 240.219 106.82 239.439 107.62C238.679 108.42 238.229 109.55 238.089 111.01H246.579C246.539 109.53 246.169 108.4 245.469 107.62C244.769 106.82 243.789 106.42 242.529 106.42ZM253.489 119.5C253.089 119.5 252.779 119.4 252.559 119.2C252.339 118.98 252.229 118.68 252.229 118.3V105.79C252.229 105.43 252.339 105.14 252.559 104.92C252.779 104.7 253.069 104.59 253.429 104.59C253.809 104.59 254.109 104.7 254.329 104.92C254.549 105.14 254.659 105.43 254.659 105.79V117.58H260.329V105.79C260.329 105.43 260.429 105.14 260.629 104.92C260.849 104.7 261.139 104.59 261.499 104.59C261.879 104.59 262.179 104.7 262.399 104.92C262.619 105.14 262.729 105.43 262.729 105.79V117.58H268.399V105.79C268.399 105.43 268.509 105.14 268.729 104.92C268.949 104.7 269.239 104.59 269.599 104.59C269.959 104.59 270.249 104.7 270.469 104.92C270.689 105.14 270.799 105.43 270.799 105.79V118.24C270.819 118.62 270.719 118.93 270.499 119.17C270.279 119.39 269.979 119.5 269.599 119.5H253.489ZM286.568 116.11C286.788 116.11 286.978 116.2 287.138 116.38C287.298 116.56 287.378 116.79 287.378 117.07C287.378 117.57 287.028 118.03 286.328 118.45C285.608 118.87 284.848 119.19 284.048 119.41C283.248 119.61 282.468 119.71 281.708 119.71C279.448 119.71 277.658 119.04 276.338 117.7C275.038 116.36 274.388 114.51 274.388 112.15C274.388 110.65 274.678 109.33 275.258 108.19C275.838 107.03 276.648 106.13 277.688 105.49C278.748 104.85 279.948 104.53 281.288 104.53C283.188 104.53 284.698 105.15 285.818 106.39C286.938 107.63 287.498 109.31 287.498 111.43C287.498 111.83 287.418 112.12 287.258 112.3C287.098 112.48 286.838 112.57 286.478 112.57H276.818C276.998 116.01 278.628 117.73 281.708 117.73C282.488 117.73 283.158 117.63 283.718 117.43C284.278 117.21 284.878 116.92 285.518 116.56C286.038 116.26 286.388 116.11 286.568 116.11ZM281.318 106.42C280.038 106.42 279.008 106.82 278.228 107.62C277.468 108.42 277.018 109.55 276.878 111.01H285.368C285.328 109.53 284.958 108.4 284.258 107.62C283.558 106.82 282.578 106.42 281.318 106.42ZM292.248 119.65C291.868 119.65 291.568 119.55 291.348 119.35C291.128 119.13 291.018 118.84 291.018 118.48V105.79C291.018 105.43 291.128 105.14 291.348 104.92C291.568 104.7 291.868 104.59 292.248 104.59C292.608 104.59 292.898 104.7 293.118 104.92C293.338 105.14 293.448 105.43 293.448 105.79V111.01H301.308V105.79C301.308 105.43 301.418 105.14 301.638 104.92C301.878 104.7 302.178 104.59 302.538 104.59C302.898 104.59 303.188 104.7 303.408 104.92C303.628 105.14 303.738 105.43 303.738 105.79L303.768 118.42C303.768 118.8 303.658 119.1 303.438 119.32C303.218 119.54 302.918 119.65 302.538 119.65C302.178 119.65 301.878 119.54 301.638 119.32C301.418 119.1 301.308 118.8 301.308 118.42V112.96H293.448V118.48C293.448 118.84 293.338 119.13 293.118 119.35C292.898 119.55 292.608 119.65 292.248 119.65ZM314.187 104.53C317.847 104.53 319.677 106.45 319.677 110.29V118.45C319.677 118.81 319.567 119.1 319.347 119.32C319.147 119.54 318.867 119.65 318.507 119.65C318.147 119.65 317.857 119.54 317.637 119.32C317.417 119.1 317.307 118.81 317.307 118.45V117.01C316.927 117.87 316.347 118.54 315.567 119.02C314.787 119.48 313.887 119.71 312.867 119.71C311.927 119.71 311.057 119.52 310.257 119.14C309.477 118.76 308.857 118.23 308.397 117.55C307.937 116.87 307.707 116.12 307.707 115.3C307.707 114.2 307.987 113.35 308.547 112.75C309.107 112.13 310.027 111.69 311.307 111.43C312.587 111.15 314.367 111.01 316.647 111.01H317.307V110.02C317.307 108.82 317.057 107.94 316.557 107.38C316.077 106.82 315.287 106.54 314.187 106.54C312.827 106.54 311.447 106.91 310.047 107.65C309.507 107.99 309.127 108.16 308.907 108.16C308.667 108.16 308.467 108.07 308.307 107.89C308.147 107.71 308.067 107.48 308.067 107.2C308.067 106.92 308.147 106.68 308.307 106.48C308.487 106.26 308.767 106.04 309.147 105.82C309.847 105.42 310.637 105.11 311.517 104.89C312.417 104.65 313.307 104.53 314.187 104.53ZM313.197 117.79C314.397 117.79 315.377 117.39 316.137 116.59C316.917 115.77 317.307 114.72 317.307 113.44V112.57H316.767C315.007 112.57 313.667 112.65 312.747 112.81C311.827 112.95 311.167 113.2 310.767 113.56C310.387 113.9 310.197 114.41 310.197 115.09C310.197 115.87 310.477 116.52 311.037 117.04C311.617 117.54 312.337 117.79 313.197 117.79ZM333.059 119.5C332.679 119.5 332.369 119.39 332.129 119.17C331.909 118.95 331.799 118.66 331.799 118.3V106.15C331.799 105.77 331.909 105.47 332.129 105.25C332.349 105.01 332.649 104.89 333.029 104.89H338.219C339.819 104.89 341.059 105.2 341.939 105.82C342.819 106.44 343.259 107.37 343.259 108.61C343.259 109.33 343.049 110 342.629 110.62C342.209 111.24 341.569 111.7 340.709 112C341.609 112.16 342.319 112.54 342.839 113.14C343.379 113.74 343.649 114.5 343.649 115.42C343.649 116.1 343.459 116.75 343.079 117.37C342.719 117.99 342.139 118.5 341.339 118.9C340.539 119.3 339.539 119.5 338.339 119.5H333.059ZM338.039 111.19C338.879 111.19 339.559 110.98 340.079 110.56C340.599 110.12 340.859 109.53 340.859 108.79C340.859 107.39 339.889 106.69 337.949 106.69H334.229V111.19H338.039ZM338.099 117.7C340.159 117.7 341.189 116.91 341.189 115.33C341.189 114.53 340.889 113.93 340.289 113.53C339.689 113.13 338.869 112.93 337.829 112.93H334.229V117.7H338.099ZM358.521 116.11C358.741 116.11 358.931 116.2 359.091 116.38C359.251 116.56 359.331 116.79 359.331 117.07C359.331 117.57 358.981 118.03 358.281 118.45C357.561 118.87 356.801 119.19 356.001 119.41C355.201 119.61 354.421 119.71 353.661 119.71C351.401 119.71 349.611 119.04 348.291 117.7C346.991 116.36 346.341 114.51 346.341 112.15C346.341 110.65 346.631 109.33 347.211 108.19C347.791 107.03 348.601 106.13 349.641 105.49C350.701 104.85 351.901 104.53 353.241 104.53C355.141 104.53 356.651 105.15 357.771 106.39C358.891 107.63 359.451 109.31 359.451 111.43C359.451 111.83 359.371 112.12 359.211 112.3C359.051 112.48 358.791 112.57 358.431 112.57H348.771C348.951 116.01 350.581 117.73 353.661 117.73C354.441 117.73 355.111 117.63 355.671 117.43C356.231 117.21 356.831 116.92 357.471 116.56C357.991 116.26 358.341 116.11 358.521 116.11ZM353.271 106.42C351.991 106.42 350.961 106.82 350.181 107.62C349.421 108.42 348.971 109.55 348.831 111.01H357.321C357.281 109.53 356.911 108.4 356.211 107.62C355.511 106.82 354.531 106.42 353.271 106.42ZM370.381 104.53C371.661 104.53 372.791 104.85 373.771 105.49C374.751 106.13 375.511 107.03 376.051 108.19C376.591 109.33 376.861 110.66 376.861 112.18C376.861 113.7 376.591 115.03 376.051 116.17C375.511 117.29 374.751 118.16 373.771 118.78C372.811 119.4 371.681 119.71 370.381 119.71C369.241 119.71 368.241 119.46 367.381 118.96C366.541 118.46 365.901 117.75 365.461 116.83V123.88C365.461 124.24 365.351 124.52 365.131 124.72C364.931 124.94 364.641 125.05 364.261 125.05C363.881 125.05 363.581 124.94 363.361 124.72C363.141 124.5 363.031 124.22 363.031 123.88V105.79C363.031 105.43 363.141 105.14 363.361 104.92C363.581 104.7 363.881 104.59 364.261 104.59C364.641 104.59 364.931 104.7 365.131 104.92C365.351 105.14 365.461 105.43 365.461 105.79V107.41C365.901 106.49 366.541 105.78 367.381 105.28C368.241 104.78 369.241 104.53 370.381 104.53ZM369.901 117.7C371.321 117.7 372.421 117.22 373.201 116.26C373.981 115.3 374.371 113.94 374.371 112.18C374.371 110.42 373.981 109.05 373.201 108.07C372.421 107.07 371.321 106.57 369.901 106.57C368.481 106.57 367.381 107.05 366.601 108.01C365.841 108.97 365.461 110.34 365.461 112.12C365.461 113.9 365.841 115.28 366.601 116.26C367.381 117.22 368.481 117.7 369.901 117.7ZM381.662 119.65C381.282 119.65 380.982 119.55 380.762 119.35C380.542 119.13 380.432 118.84 380.432 118.48V105.79C380.432 105.43 380.542 105.14 380.762 104.92C380.982 104.7 381.282 104.59 381.662 104.59C382.022 104.59 382.312 104.7 382.532 104.92C382.752 105.14 382.862 105.43 382.862 105.79V111.01H390.722V105.79C390.722 105.43 390.832 105.14 391.052 104.92C391.292 104.7 391.592 104.59 391.952 104.59C392.312 104.59 392.602 104.7 392.822 104.92C393.042 105.14 393.152 105.43 393.152 105.79L393.182 118.42C393.182 118.8 393.072 119.1 392.852 119.32C392.632 119.54 392.332 119.65 391.952 119.65C391.592 119.65 391.292 119.54 391.052 119.32C390.832 119.1 390.722 118.8 390.722 118.42V112.96H382.862V118.48C382.862 118.84 382.752 119.13 382.532 119.35C382.312 119.55 382.022 119.65 381.662 119.65ZM403.691 119.71C402.311 119.71 401.091 119.4 400.031 118.78C398.991 118.16 398.181 117.28 397.601 116.14C397.041 114.98 396.761 113.64 396.761 112.12C396.761 110.6 397.041 109.27 397.601 108.13C398.181 106.97 398.991 106.08 400.031 105.46C401.091 104.84 402.311 104.53 403.691 104.53C405.071 104.53 406.291 104.84 407.351 105.46C408.411 106.08 409.221 106.97 409.781 108.13C410.361 109.27 410.651 110.6 410.651 112.12C410.651 113.64 410.361 114.98 409.781 116.14C409.221 117.28 408.411 118.16 407.351 118.78C406.291 119.4 405.071 119.71 403.691 119.71ZM403.691 117.7C405.131 117.7 406.231 117.23 406.991 116.29C407.771 115.33 408.161 113.94 408.161 112.12C408.161 110.34 407.771 108.97 406.991 108.01C406.211 107.03 405.111 106.54 403.691 106.54C402.271 106.54 401.171 107.03 400.391 108.01C399.611 108.97 399.221 110.34 399.221 112.12C399.221 113.92 399.601 115.3 400.361 116.26C401.141 117.22 402.251 117.7 403.691 117.7ZM414.913 116.26C415.413 116.26 415.813 116.46 416.113 116.86C416.433 117.24 416.593 117.82 416.593 118.6C416.593 120.18 416.083 121.51 415.063 122.59C414.863 122.81 414.633 122.92 414.373 122.92C414.173 122.92 413.993 122.84 413.833 122.68C413.673 122.54 413.593 122.37 413.593 122.17C413.593 121.95 413.673 121.76 413.833 121.6C414.353 121.06 414.683 120.39 414.823 119.59C414.383 119.55 414.013 119.39 413.713 119.11C413.433 118.81 413.293 118.43 413.293 117.97C413.293 117.47 413.443 117.06 413.743 116.74C414.063 116.42 414.453 116.26 414.913 116.26ZM113.42 161.65C113.04 161.65 112.74 161.55 112.52 161.35C112.3 161.13 112.19 160.84 112.19 160.48V147.79C112.19 147.43 112.3 147.14 112.52 146.92C112.74 146.7 113.04 146.59 113.42 146.59C113.78 146.59 114.07 146.7 114.29 146.92C114.51 147.14 114.62 147.43 114.62 147.79V153.01H122.48V147.79C122.48 147.43 122.59 147.14 122.81 146.92C123.05 146.7 123.35 146.59 123.71 146.59C124.07 146.59 124.36 146.7 124.58 146.92C124.8 147.14 124.91 147.43 124.91 147.79L124.94 160.42C124.94 160.8 124.83 161.1 124.61 161.32C124.39 161.54 124.09 161.65 123.71 161.65C123.35 161.65 123.05 161.54 122.81 161.32C122.59 161.1 122.48 160.8 122.48 160.42V154.96H114.62V160.48C114.62 160.84 114.51 161.13 114.29 161.35C114.07 161.55 113.78 161.65 113.42 161.65ZM135.449 161.71C134.069 161.71 132.849 161.4 131.789 160.78C130.749 160.16 129.939 159.28 129.359 158.14C128.799 156.98 128.519 155.64 128.519 154.12C128.519 152.6 128.799 151.27 129.359 150.13C129.939 148.97 130.749 148.08 131.789 147.46C132.849 146.84 134.069 146.53 135.449 146.53C136.829 146.53 138.049 146.84 139.109 147.46C140.169 148.08 140.979 148.97 141.539 150.13C142.119 151.27 142.409 152.6 142.409 154.12C142.409 155.64 142.119 156.98 141.539 158.14C140.979 159.28 140.169 160.16 139.109 160.78C138.049 161.4 136.829 161.71 135.449 161.71ZM135.449 159.7C136.889 159.7 137.989 159.23 138.749 158.29C139.529 157.33 139.919 155.94 139.919 154.12C139.919 152.34 139.529 150.97 138.749 150.01C137.969 149.03 136.869 148.54 135.449 148.54C134.029 148.54 132.929 149.03 132.149 150.01C131.369 150.97 130.979 152.34 130.979 154.12C130.979 155.92 131.359 157.3 132.119 158.26C132.899 159.22 134.009 159.7 135.449 159.7ZM154.934 161.65C154.554 161.65 154.254 161.55 154.034 161.35C153.814 161.13 153.704 160.84 153.704 160.48V147.79C153.704 147.43 153.814 147.14 154.034 146.92C154.254 146.7 154.554 146.59 154.934 146.59C155.294 146.59 155.584 146.7 155.804 146.92C156.024 147.14 156.134 147.43 156.134 147.79V153.01H163.994V147.79C163.994 147.43 164.104 147.14 164.324 146.92C164.564 146.7 164.864 146.59 165.224 146.59C165.584 146.59 165.874 146.7 166.094 146.92C166.314 147.14 166.424 147.43 166.424 147.79L166.454 160.42C166.454 160.8 166.344 161.1 166.124 161.32C165.904 161.54 165.604 161.65 165.224 161.65C164.864 161.65 164.564 161.54 164.324 161.32C164.104 161.1 163.994 160.8 163.994 160.42V154.96H156.134V160.48C156.134 160.84 156.024 161.13 155.804 161.35C155.584 161.55 155.294 161.65 154.934 161.65ZM181.432 147.34C181.652 146.86 182.002 146.62 182.482 146.62C182.782 146.62 183.052 146.72 183.292 146.92C183.532 147.12 183.652 147.37 183.652 147.67C183.652 147.85 183.612 148.01 183.532 148.15L175.102 166.33C175.002 166.55 174.852 166.72 174.652 166.84C174.472 166.96 174.282 167.02 174.082 167.02C173.782 167.02 173.512 166.92 173.272 166.72C173.052 166.54 172.942 166.3 172.942 166C172.942 165.84 172.982 165.68 173.062 165.52L175.162 160.99L169.222 148.15C169.142 148.01 169.102 147.86 169.102 147.7C169.102 147.4 169.232 147.14 169.492 146.92C169.772 146.7 170.072 146.59 170.392 146.59C170.592 146.59 170.782 146.65 170.962 146.77C171.162 146.89 171.312 147.06 171.412 147.28L176.422 158.53L181.432 147.34ZM194.443 161.65C194.103 161.65 193.813 161.54 193.573 161.32C193.353 161.1 193.243 160.81 193.243 160.45V154.87H192.043C191.183 154.87 190.493 155.07 189.973 155.47C189.473 155.87 189.033 156.49 188.653 157.33L187.033 160.9C186.813 161.4 186.453 161.65 185.953 161.65C185.633 161.65 185.343 161.54 185.083 161.32C184.843 161.1 184.723 160.83 184.723 160.51C184.723 160.41 184.763 160.24 184.843 160L186.253 156.94C186.733 155.94 187.213 155.18 187.693 154.66C188.173 154.14 188.793 153.79 189.553 153.61L185.833 148.39C185.673 148.13 185.593 147.9 185.593 147.7C185.593 147.4 185.703 147.15 185.923 146.95C186.163 146.73 186.433 146.62 186.733 146.62C187.133 146.62 187.453 146.81 187.693 147.19L191.772 153.16H193.243V147.82C193.243 147.46 193.353 147.17 193.573 146.95C193.813 146.71 194.103 146.59 194.443 146.59C194.803 146.59 195.093 146.7 195.313 146.92C195.533 147.14 195.643 147.44 195.643 147.82V153.16H197.143L201.163 147.22C201.423 146.82 201.753 146.62 202.153 146.62C202.453 146.62 202.713 146.73 202.933 146.95C203.173 147.15 203.293 147.4 203.293 147.7C203.293 147.94 203.213 148.17 203.053 148.39L199.363 153.61C200.123 153.79 200.743 154.14 201.223 154.66C201.703 155.16 202.173 155.92 202.633 156.94L204.073 160C204.153 160.16 204.193 160.33 204.193 160.51C204.193 160.85 204.063 161.13 203.803 161.35C203.543 161.57 203.253 161.68 202.933 161.68C202.713 161.68 202.503 161.62 202.303 161.5C202.123 161.36 201.983 161.17 201.883 160.93L200.263 157.33C199.863 156.49 199.403 155.87 198.883 155.47C198.383 155.07 197.703 154.87 196.843 154.87H195.643V160.45C195.643 160.81 195.533 161.1 195.313 161.32C195.093 161.54 194.803 161.65 194.443 161.65ZM208.254 161.65C207.874 161.65 207.574 161.55 207.354 161.35C207.134 161.13 207.024 160.84 207.024 160.48V147.79C207.024 147.43 207.134 147.14 207.354 146.92C207.574 146.7 207.874 146.59 208.254 146.59C208.614 146.59 208.904 146.7 209.124 146.92C209.344 147.14 209.454 147.43 209.454 147.79V153.01H217.314V147.79C217.314 147.43 217.424 147.14 217.644 146.92C217.884 146.7 218.184 146.59 218.544 146.59C218.904 146.59 219.194 146.7 219.414 146.92C219.634 147.14 219.744 147.43 219.744 147.79L219.774 160.42C219.774 160.8 219.664 161.1 219.444 161.32C219.224 161.54 218.924 161.65 218.544 161.65C218.184 161.65 217.884 161.54 217.644 161.32C217.424 161.1 217.314 160.8 217.314 160.42V154.96H209.454V160.48C209.454 160.84 209.344 161.13 209.124 161.35C208.904 161.55 208.614 161.65 208.254 161.65ZM230.283 161.71C228.903 161.71 227.683 161.4 226.623 160.78C225.583 160.16 224.773 159.28 224.193 158.14C223.633 156.98 223.353 155.64 223.353 154.12C223.353 152.6 223.633 151.27 224.193 150.13C224.773 148.97 225.583 148.08 226.623 147.46C227.683 146.84 228.903 146.53 230.283 146.53C231.663 146.53 232.883 146.84 233.943 147.46C235.003 148.08 235.813 148.97 236.373 150.13C236.953 151.27 237.243 152.6 237.243 154.12C237.243 155.64 236.953 156.98 236.373 158.14C235.813 159.28 235.003 160.16 233.943 160.78C232.883 161.4 231.663 161.71 230.283 161.71ZM230.283 159.7C231.723 159.7 232.823 159.23 233.583 158.29C234.363 157.33 234.753 155.94 234.753 154.12C234.753 152.34 234.363 150.97 233.583 150.01C232.803 149.03 231.703 148.54 230.283 148.54C228.863 148.54 227.763 149.03 226.983 150.01C226.203 150.97 225.813 152.34 225.813 154.12C225.813 155.92 226.193 157.3 226.953 158.26C227.733 159.22 228.843 159.7 230.283 159.7ZM254.658 161.71C253.278 161.71 252.058 161.4 250.998 160.78C249.958 160.16 249.148 159.28 248.568 158.14C248.008 156.98 247.728 155.64 247.728 154.12C247.728 152.6 248.008 151.27 248.568 150.13C249.148 148.97 249.958 148.08 250.998 147.46C252.058 146.84 253.278 146.53 254.658 146.53C256.038 146.53 257.258 146.84 258.318 147.46C259.378 148.08 260.188 148.97 260.748 150.13C261.328 151.27 261.618 152.6 261.618 154.12C261.618 155.64 261.328 156.98 260.748 158.14C260.188 159.28 259.378 160.16 258.318 160.78C257.258 161.4 256.038 161.71 254.658 161.71ZM254.658 159.7C256.098 159.7 257.198 159.23 257.958 158.29C258.738 157.33 259.128 155.94 259.128 154.12C259.128 152.34 258.738 150.97 257.958 150.01C257.178 149.03 256.078 148.54 254.658 148.54C253.238 148.54 252.138 149.03 251.358 150.01C250.578 150.97 250.188 152.34 250.188 154.12C250.188 155.92 250.568 157.3 251.328 158.26C252.108 159.22 253.218 159.7 254.658 159.7ZM271.718 161.71C270.098 161.71 268.758 161.3 267.698 160.48C266.658 159.66 265.898 158.61 265.418 157.33C264.958 156.03 264.728 154.63 264.728 153.13C264.728 150.77 264.928 148.85 265.328 147.37C265.748 145.89 266.338 144.74 267.098 143.92C267.858 143.1 268.838 142.42 270.038 141.88C270.678 141.58 271.648 141.24 272.948 140.86C274.348 140.44 275.478 140.04 276.338 139.66C276.518 139.58 276.708 139.54 276.908 139.54C277.208 139.54 277.448 139.64 277.628 139.84C277.808 140.02 277.898 140.24 277.898 140.5C277.898 140.7 277.838 140.9 277.718 141.1C277.598 141.28 277.418 141.43 277.178 141.55C276.698 141.83 276.168 142.07 275.588 142.27C275.028 142.47 274.308 142.7 273.428 142.96C272.048 143.4 271.228 143.67 270.968 143.77C269.668 144.23 268.668 144.99 267.968 146.05C267.268 147.09 266.898 148.56 266.858 150.46C267.298 149.42 267.988 148.56 268.928 147.88C269.888 147.18 271.058 146.83 272.438 146.83C274.278 146.83 275.778 147.45 276.938 148.69C278.118 149.93 278.708 151.77 278.708 154.21C278.708 155.57 278.428 156.82 277.868 157.96C277.328 159.1 276.528 160.01 275.468 160.69C274.408 161.37 273.158 161.71 271.718 161.71ZM271.718 159.7C273.278 159.7 274.418 159.15 275.138 158.05C275.858 156.93 276.218 155.66 276.218 154.24C276.218 152.56 275.848 151.25 275.108 150.31C274.368 149.35 273.328 148.87 271.988 148.87C270.948 148.87 270.068 149.14 269.348 149.68C268.648 150.2 268.128 150.88 267.788 151.72C267.448 152.54 267.278 153.39 267.278 154.27C267.278 155.79 267.628 157.08 268.328 158.14C269.028 159.18 270.158 159.7 271.718 159.7ZM289.668 146.53C290.948 146.53 292.078 146.85 293.058 147.49C294.038 148.13 294.798 149.03 295.338 150.19C295.878 151.33 296.148 152.66 296.148 154.18C296.148 155.7 295.878 157.03 295.338 158.17C294.798 159.29 294.038 160.16 293.058 160.78C292.098 161.4 290.968 161.71 289.668 161.71C288.528 161.71 287.528 161.46 286.668 160.96C285.828 160.46 285.188 159.75 284.748 158.83V165.88C284.748 166.24 284.638 166.52 284.418 166.72C284.218 166.94 283.928 167.05 283.548 167.05C283.168 167.05 282.868 166.94 282.648 166.72C282.428 166.5 282.318 166.22 282.318 165.88V147.79C282.318 147.43 282.428 147.14 282.648 146.92C282.868 146.7 283.168 146.59 283.548 146.59C283.928 146.59 284.218 146.7 284.418 146.92C284.638 147.14 284.748 147.43 284.748 147.79V149.41C285.188 148.49 285.828 147.78 286.668 147.28C287.528 146.78 288.528 146.53 289.668 146.53ZM289.188 159.7C290.608 159.7 291.708 159.22 292.488 158.26C293.268 157.3 293.658 155.94 293.658 154.18C293.658 152.42 293.268 151.05 292.488 150.07C291.708 149.07 290.608 148.57 289.188 148.57C287.768 148.57 286.668 149.05 285.888 150.01C285.128 150.97 284.748 152.34 284.748 154.12C284.748 155.9 285.128 157.28 285.888 158.26C286.668 159.22 287.768 159.7 289.188 159.7ZM305.749 146.53C309.409 146.53 311.239 148.45 311.239 152.29V160.45C311.239 160.81 311.129 161.1 310.909 161.32C310.709 161.54 310.429 161.65 310.069 161.65C309.709 161.65 309.419 161.54 309.199 161.32C308.979 161.1 308.869 160.81 308.869 160.45V159.01C308.489 159.87 307.909 160.54 307.129 161.02C306.349 161.48 305.449 161.71 304.429 161.71C303.489 161.71 302.619 161.52 301.819 161.14C301.039 160.76 300.419 160.23 299.959 159.55C299.499 158.87 299.269 158.12 299.269 157.3C299.269 156.2 299.549 155.35 300.109 154.75C300.669 154.13 301.589 153.69 302.869 153.43C304.149 153.15 305.929 153.01 308.209 153.01H308.869V152.02C308.869 150.82 308.619 149.94 308.119 149.38C307.639 148.82 306.849 148.54 305.749 148.54C304.389 148.54 303.009 148.91 301.609 149.65C301.069 149.99 300.689 150.16 300.469 150.16C300.229 150.16 300.029 150.07 299.869 149.89C299.709 149.71 299.629 149.48 299.629 149.2C299.629 148.92 299.709 148.68 299.869 148.48C300.049 148.26 300.329 148.04 300.709 147.82C301.409 147.42 302.199 147.11 303.079 146.89C303.979 146.65 304.869 146.53 305.749 146.53ZM304.759 159.79C305.959 159.79 306.939 159.39 307.699 158.59C308.479 157.77 308.869 156.72 308.869 155.44V154.57H308.329C306.569 154.57 305.229 154.65 304.309 154.81C303.389 154.95 302.729 155.2 302.329 155.56C301.949 155.9 301.759 156.41 301.759 157.09C301.759 157.87 302.039 158.52 302.599 159.04C303.179 159.54 303.899 159.79 304.759 159.79ZM320.158 161.65C319.798 161.65 319.508 161.55 319.288 161.35C319.068 161.13 318.958 160.84 318.958 160.48V148.81H314.668C314.368 148.81 314.128 148.72 313.948 148.54C313.768 148.36 313.678 148.13 313.678 147.85C313.678 147.57 313.768 147.34 313.948 147.16C314.128 146.98 314.368 146.89 314.668 146.89H325.648C325.948 146.89 326.188 146.98 326.368 147.16C326.548 147.34 326.638 147.57 326.638 147.85C326.638 148.13 326.548 148.36 326.368 148.54C326.188 148.72 325.948 148.81 325.648 148.81H321.388V160.48C321.388 160.84 321.268 161.13 321.028 161.35C320.808 161.55 320.518 161.65 320.158 161.65ZM339.275 147.37C339.475 147.09 339.685 146.89 339.905 146.77C340.125 146.65 340.385 146.59 340.685 146.59C341.065 146.59 341.365 146.71 341.585 146.95C341.825 147.19 341.945 147.49 341.945 147.85V160.48C341.945 160.82 341.835 161.1 341.615 161.32C341.395 161.54 341.115 161.65 340.775 161.65C340.455 161.65 340.175 161.54 339.935 161.32C339.715 161.08 339.605 160.8 339.605 160.48V150.01L331.715 160.93C331.375 161.41 330.925 161.65 330.365 161.65C329.985 161.65 329.675 161.54 329.435 161.32C329.195 161.08 329.075 160.78 329.075 160.42V147.79C329.075 147.45 329.185 147.17 329.405 146.95C329.645 146.71 329.935 146.59 330.275 146.59C330.615 146.59 330.895 146.71 331.115 146.95C331.335 147.17 331.445 147.45 331.445 147.79V158.11L339.275 147.37ZM350.89 161.65C350.53 161.65 350.24 161.55 350.02 161.35C349.8 161.13 349.69 160.84 349.69 160.48V148.81H345.4C345.1 148.81 344.86 148.72 344.68 148.54C344.5 148.36 344.41 148.13 344.41 147.85C344.41 147.57 344.5 147.34 344.68 147.16C344.86 146.98 345.1 146.89 345.4 146.89H356.38C356.68 146.89 356.92 146.98 357.1 147.16C357.28 147.34 357.37 147.57 357.37 147.85C357.37 148.13 357.28 148.36 357.1 148.54C356.92 148.72 356.68 148.81 356.38 148.81H352.12V160.48C352.12 160.84 352 161.13 351.76 161.35C351.54 161.55 351.25 161.65 350.89 161.65ZM361.067 161.5C360.687 161.5 360.377 161.39 360.137 161.17C359.917 160.95 359.807 160.66 359.807 160.3V147.79C359.807 147.43 359.917 147.14 360.137 146.92C360.357 146.7 360.657 146.59 361.037 146.59C361.397 146.59 361.687 146.7 361.907 146.92C362.127 147.14 362.237 147.43 362.237 147.79V152.11H365.327C369.047 152.11 370.907 153.6 370.907 156.58C370.907 157.68 370.637 158.6 370.097 159.34C369.557 160.08 368.847 160.63 367.967 160.99C367.107 161.33 366.187 161.5 365.207 161.5H361.067ZM364.817 159.67C365.837 159.67 366.697 159.42 367.397 158.92C368.097 158.42 368.447 157.65 368.447 156.61C368.447 154.83 367.237 153.94 364.817 153.94H362.237V159.67H364.817ZM113.45 203.5C113.07 203.5 112.76 203.39 112.52 203.17C112.3 202.95 112.19 202.66 112.19 202.3V190.15C112.19 189.77 112.3 189.47 112.52 189.25C112.74 189.01 113.04 188.89 113.42 188.89H118.61C120.21 188.89 121.45 189.2 122.33 189.82C123.21 190.44 123.65 191.37 123.65 192.61C123.65 193.33 123.44 194 123.02 194.62C122.6 195.24 121.96 195.7 121.1 196C122 196.16 122.71 196.54 123.23 197.14C123.77 197.74 124.04 198.5 124.04 199.42C124.04 200.1 123.85 200.75 123.47 201.37C123.11 201.99 122.53 202.5 121.73 202.9C120.93 203.3 119.93 203.5 118.73 203.5H113.45ZM118.43 195.19C119.27 195.19 119.95 194.98 120.47 194.56C120.99 194.12 121.25 193.53 121.25 192.79C121.25 191.39 120.28 190.69 118.34 190.69H114.62V195.19H118.43ZM118.49 201.7C120.55 201.7 121.58 200.91 121.58 199.33C121.58 198.53 121.28 197.93 120.68 197.53C120.08 197.13 119.26 196.93 118.22 196.93H114.62V201.7H118.49ZM128.772 203.65C128.392 203.65 128.092 203.55 127.872 203.35C127.652 203.13 127.542 202.84 127.542 202.48V189.79C127.542 189.43 127.652 189.14 127.872 188.92C128.092 188.7 128.392 188.59 128.772 188.59C129.132 188.59 129.422 188.7 129.642 188.92C129.862 189.14 129.972 189.43 129.972 189.79V195.01H137.832V189.79C137.832 189.43 137.942 189.14 138.162 188.92C138.402 188.7 138.702 188.59 139.062 188.59C139.422 188.59 139.712 188.7 139.932 188.92C140.152 189.14 140.262 189.43 140.262 189.79L140.292 202.42C140.292 202.8 140.182 203.1 139.962 203.32C139.742 203.54 139.442 203.65 139.062 203.65C138.702 203.65 138.402 203.54 138.162 203.32C137.942 203.1 137.832 202.8 137.832 202.42V196.96H129.972V202.48C129.972 202.84 129.862 203.13 129.642 203.35C129.422 203.55 129.132 203.65 128.772 203.65ZM154.88 189.37C155.08 189.09 155.29 188.89 155.51 188.77C155.73 188.65 155.99 188.59 156.29 188.59C156.67 188.59 156.97 188.71 157.19 188.95C157.43 189.19 157.55 189.49 157.55 189.85V202.48C157.55 202.82 157.44 203.1 157.22 203.32C157 203.54 156.72 203.65 156.38 203.65C156.06 203.65 155.78 203.54 155.54 203.32C155.32 203.08 155.21 202.8 155.21 202.48V192.01L147.32 202.93C146.98 203.41 146.53 203.65 145.97 203.65C145.59 203.65 145.28 203.54 145.04 203.32C144.8 203.08 144.68 202.78 144.68 202.42V189.79C144.68 189.45 144.79 189.17 145.01 188.95C145.25 188.71 145.54 188.59 145.88 188.59C146.22 188.59 146.5 188.71 146.72 188.95C146.94 189.17 147.05 189.45 147.05 189.79V200.11L154.88 189.37ZM175.675 188.59C176.055 188.59 176.355 188.7 176.575 188.92C176.815 189.14 176.935 189.44 176.935 189.82V202.51C176.935 202.85 176.825 203.13 176.605 203.35C176.405 203.55 176.135 203.65 175.795 203.65C175.455 203.65 175.175 203.55 174.955 203.35C174.755 203.13 174.655 202.85 174.655 202.51L174.685 192.76L170.545 200.5C170.445 200.7 170.295 200.86 170.095 200.98C169.915 201.1 169.705 201.16 169.465 201.16C169.225 201.16 169.005 201.1 168.805 200.98C168.625 200.86 168.485 200.7 168.385 200.5L164.215 192.76L164.245 202.51C164.245 202.85 164.135 203.13 163.915 203.35C163.715 203.55 163.445 203.65 163.105 203.65C162.765 203.65 162.485 203.55 162.265 203.35C162.065 203.13 161.965 202.85 161.965 202.51V189.85C161.965 189.47 162.075 189.17 162.295 188.95C162.515 188.71 162.815 188.59 163.195 188.59C163.795 188.59 164.235 188.86 164.515 189.4L169.465 198.7L174.355 189.46C174.655 188.88 175.095 188.59 175.675 188.59ZM187.331 188.53C190.991 188.53 192.821 190.45 192.821 194.29V202.45C192.821 202.81 192.711 203.1 192.491 203.32C192.291 203.54 192.011 203.65 191.651 203.65C191.291 203.65 191.001 203.54 190.781 203.32C190.561 203.1 190.451 202.81 190.451 202.45V201.01C190.071 201.87 189.491 202.54 188.711 203.02C187.931 203.48 187.031 203.71 186.011 203.71C185.071 203.71 184.201 203.52 183.401 203.14C182.621 202.76 182.001 202.23 181.541 201.55C181.081 200.87 180.851 200.12 180.851 199.3C180.851 198.2 181.131 197.35 181.691 196.75C182.251 196.13 183.171 195.69 184.451 195.43C185.731 195.15 187.511 195.01 189.791 195.01H190.451V194.02C190.451 192.82 190.201 191.94 189.701 191.38C189.221 190.82 188.431 190.54 187.331 190.54C185.971 190.54 184.591 190.91 183.191 191.65C182.651 191.99 182.271 192.16 182.051 192.16C181.811 192.16 181.611 192.07 181.451 191.89C181.291 191.71 181.211 191.48 181.211 191.2C181.211 190.92 181.291 190.68 181.451 190.48C181.631 190.26 181.911 190.04 182.291 189.82C182.991 189.42 183.781 189.11 184.661 188.89C185.561 188.65 186.451 188.53 187.331 188.53ZM186.341 201.79C187.541 201.79 188.521 201.39 189.281 200.59C190.061 199.77 190.451 198.72 190.451 197.44V196.57H189.911C188.151 196.57 186.811 196.65 185.891 196.81C184.971 196.95 184.311 197.2 183.911 197.56C183.531 197.9 183.341 198.41 183.341 199.09C183.341 199.87 183.621 200.52 184.181 201.04C184.761 201.54 185.481 201.79 186.341 201.79ZM198.44 203.65C198.06 203.65 197.76 203.55 197.54 203.35C197.32 203.13 197.21 202.84 197.21 202.48V189.79C197.21 189.43 197.32 189.14 197.54 188.92C197.76 188.7 198.06 188.59 198.44 188.59C198.8 188.59 199.09 188.7 199.31 188.92C199.53 189.14 199.64 189.43 199.64 189.79V195.01H207.5V189.79C207.5 189.43 207.61 189.14 207.83 188.92C208.07 188.7 208.37 188.59 208.73 188.59C209.09 188.59 209.38 188.7 209.6 188.92C209.82 189.14 209.93 189.43 209.93 189.79L209.96 202.42C209.96 202.8 209.85 203.1 209.63 203.32C209.41 203.54 209.11 203.65 208.73 203.65C208.37 203.65 208.07 203.54 207.83 203.32C207.61 203.1 207.5 202.8 207.5 202.42V196.96H199.64V202.48C199.64 202.84 199.53 203.13 199.31 203.35C199.09 203.55 198.8 203.65 198.44 203.65ZM224.548 189.37C224.748 189.09 224.958 188.89 225.178 188.77C225.398 188.65 225.658 188.59 225.958 188.59C226.338 188.59 226.638 188.71 226.858 188.95C227.098 189.19 227.218 189.49 227.218 189.85V202.48C227.218 202.82 227.108 203.1 226.888 203.32C226.668 203.54 226.388 203.65 226.048 203.65C225.728 203.65 225.448 203.54 225.208 203.32C224.988 203.08 224.878 202.8 224.878 202.48V192.01L216.988 202.93C216.648 203.41 216.198 203.65 215.638 203.65C215.258 203.65 214.948 203.54 214.708 203.32C214.468 203.08 214.348 202.78 214.348 202.42V189.79C214.348 189.45 214.458 189.17 214.678 188.95C214.918 188.71 215.208 188.59 215.548 188.59C215.888 188.59 216.168 188.71 216.388 188.95C216.608 189.17 216.718 189.45 216.718 189.79V200.11L224.548 189.37ZM243.003 200.11C243.223 200.11 243.413 200.2 243.573 200.38C243.733 200.56 243.813 200.79 243.813 201.07C243.813 201.57 243.463 202.03 242.763 202.45C242.043 202.87 241.283 203.19 240.483 203.41C239.683 203.61 238.903 203.71 238.143 203.71C235.883 203.71 234.093 203.04 232.773 201.7C231.473 200.36 230.823 198.51 230.823 196.15C230.823 194.65 231.113 193.33 231.693 192.19C232.273 191.03 233.083 190.13 234.123 189.49C235.183 188.85 236.383 188.53 237.723 188.53C239.623 188.53 241.133 189.15 242.253 190.39C243.373 191.63 243.933 193.31 243.933 195.43C243.933 195.83 243.853 196.12 243.693 196.3C243.533 196.48 243.273 196.57 242.913 196.57H233.253C233.433 200.01 235.063 201.73 238.143 201.73C238.923 201.73 239.593 201.63 240.153 201.43C240.713 201.21 241.313 200.92 241.953 200.56C242.473 200.26 242.823 200.11 243.003 200.11ZM237.753 190.42C236.473 190.42 235.443 190.82 234.663 191.62C233.903 192.42 233.453 193.55 233.313 195.01H241.803C241.763 193.53 241.393 192.4 240.693 191.62C239.993 190.82 239.013 190.42 237.753 190.42ZM256.418 203.65C256.038 203.65 255.738 203.55 255.518 203.35C255.298 203.13 255.188 202.84 255.188 202.48V189.79C255.188 189.43 255.298 189.14 255.518 188.92C255.738 188.7 256.038 188.59 256.418 188.59C256.778 188.59 257.068 188.7 257.288 188.92C257.508 189.14 257.618 189.43 257.618 189.79V195.01H265.478V189.79C265.478 189.43 265.588 189.14 265.808 188.92C266.048 188.7 266.348 188.59 266.708 188.59C267.068 188.59 267.358 188.7 267.578 188.92C267.798 189.14 267.908 189.43 267.908 189.79L267.938 202.42C267.938 202.8 267.828 203.1 267.608 203.32C267.388 203.54 267.088 203.65 266.708 203.65C266.348 203.65 266.048 203.54 265.808 203.32C265.588 203.1 265.478 202.8 265.478 202.42V196.96H257.618V202.48C257.618 202.84 257.508 203.13 257.288 203.35C257.068 203.55 256.778 203.65 256.418 203.65ZM278.357 188.53C282.017 188.53 283.847 190.45 283.847 194.29V202.45C283.847 202.81 283.737 203.1 283.517 203.32C283.317 203.54 283.037 203.65 282.677 203.65C282.317 203.65 282.027 203.54 281.807 203.32C281.587 203.1 281.477 202.81 281.477 202.45V201.01C281.097 201.87 280.517 202.54 279.737 203.02C278.957 203.48 278.057 203.71 277.037 203.71C276.097 203.71 275.227 203.52 274.427 203.14C273.647 202.76 273.027 202.23 272.567 201.55C272.107 200.87 271.877 200.12 271.877 199.3C271.877 198.2 272.157 197.35 272.717 196.75C273.277 196.13 274.197 195.69 275.477 195.43C276.757 195.15 278.537 195.01 280.817 195.01H281.477V194.02C281.477 192.82 281.227 191.94 280.727 191.38C280.247 190.82 279.457 190.54 278.357 190.54C276.997 190.54 275.617 190.91 274.217 191.65C273.677 191.99 273.297 192.16 273.077 192.16C272.837 192.16 272.637 192.07 272.477 191.89C272.317 191.71 272.237 191.48 272.237 191.2C272.237 190.92 272.317 190.68 272.477 190.48C272.657 190.26 272.937 190.04 273.317 189.82C274.017 189.42 274.807 189.11 275.687 188.89C276.587 188.65 277.477 188.53 278.357 188.53ZM277.367 201.79C278.567 201.79 279.547 201.39 280.307 200.59C281.087 199.77 281.477 198.72 281.477 197.44V196.57H280.937C279.177 196.57 277.837 196.65 276.917 196.81C275.997 196.95 275.337 197.2 274.937 197.56C274.557 197.9 274.367 198.41 274.367 199.09C274.367 199.87 274.647 200.52 275.207 201.04C275.787 201.54 276.507 201.79 277.367 201.79ZM303.769 209.26C303.429 209.26 303.149 209.15 302.929 208.93C302.709 208.71 302.599 208.43 302.599 208.09V203.68C301.439 203.66 300.289 203.4 299.149 202.9C298.009 202.38 297.059 201.56 296.299 200.44C295.539 199.32 295.159 197.89 295.159 196.15C295.159 194.41 295.539 192.98 296.299 191.86C297.059 190.74 298.009 189.93 299.149 189.43C300.289 188.91 301.439 188.64 302.599 188.62V183.16C302.599 182.82 302.709 182.54 302.929 182.32C303.149 182.1 303.429 181.99 303.769 181.99C304.129 181.99 304.419 182.1 304.639 182.32C304.859 182.54 304.969 182.82 304.969 183.16V188.62C306.129 188.64 307.279 188.91 308.419 189.43C309.559 189.93 310.509 190.74 311.269 191.86C312.029 192.98 312.409 194.41 312.409 196.15C312.409 197.89 312.029 199.32 311.269 200.44C310.509 201.56 309.559 202.38 308.419 202.9C307.279 203.4 306.129 203.66 304.969 203.68V208.09C304.969 208.43 304.859 208.71 304.639 208.93C304.419 209.15 304.129 209.26 303.769 209.26ZM302.599 190.54C300.759 190.58 299.459 191.17 298.699 192.31C297.939 193.45 297.559 194.73 297.559 196.15C297.559 197.57 297.939 198.85 298.699 199.99C299.459 201.13 300.759 201.72 302.599 201.76V190.54ZM304.969 201.76C306.809 201.72 308.109 201.13 308.869 199.99C309.629 198.85 310.009 197.57 310.009 196.15C310.009 194.73 309.629 193.45 308.869 192.31C308.109 191.17 306.809 190.58 304.969 190.54V201.76ZM322.099 203.71C320.719 203.71 319.499 203.4 318.439 202.78C317.399 202.16 316.589 201.28 316.009 200.14C315.449 198.98 315.169 197.64 315.169 196.12C315.169 194.6 315.449 193.27 316.009 192.13C316.589 190.97 317.399 190.08 318.439 189.46C319.499 188.84 320.719 188.53 322.099 188.53C323.479 188.53 324.699 188.84 325.759 189.46C326.819 190.08 327.629 190.97 328.189 192.13C328.769 193.27 329.059 194.6 329.059 196.12C329.059 197.64 328.769 198.98 328.189 200.14C327.629 201.28 326.819 202.16 325.759 202.78C324.699 203.4 323.479 203.71 322.099 203.71ZM322.099 201.7C323.539 201.7 324.639 201.23 325.399 200.29C326.179 199.33 326.569 197.94 326.569 196.12C326.569 194.34 326.179 192.97 325.399 192.01C324.619 191.03 323.519 190.54 322.099 190.54C320.679 190.54 319.579 191.03 318.799 192.01C318.019 192.97 317.629 194.34 317.629 196.12C317.629 197.92 318.009 199.3 318.769 200.26C319.549 201.22 320.659 201.7 322.099 201.7ZM340.03 188.53C341.31 188.53 342.44 188.85 343.42 189.49C344.4 190.13 345.16 191.03 345.7 192.19C346.24 193.33 346.51 194.66 346.51 196.18C346.51 197.7 346.24 199.03 345.7 200.17C345.16 201.29 344.4 202.16 343.42 202.78C342.46 203.4 341.33 203.71 340.03 203.71C338.89 203.71 337.89 203.46 337.03 202.96C336.19 202.46 335.55 201.75 335.11 200.83V207.88C335.11 208.24 335 208.52 334.78 208.72C334.58 208.94 334.29 209.05 333.91 209.05C333.53 209.05 333.23 208.94 333.01 208.72C332.79 208.5 332.68 208.22 332.68 207.88V189.79C332.68 189.43 332.79 189.14 333.01 188.92C333.23 188.7 333.53 188.59 333.91 188.59C334.29 188.59 334.58 188.7 334.78 188.92C335 189.14 335.11 189.43 335.11 189.79V191.41C335.55 190.49 336.19 189.78 337.03 189.28C337.89 188.78 338.89 188.53 340.03 188.53ZM339.55 201.7C340.97 201.7 342.07 201.22 342.85 200.26C343.63 199.3 344.02 197.94 344.02 196.18C344.02 194.42 343.63 193.05 342.85 192.07C342.07 191.07 340.97 190.57 339.55 190.57C338.13 190.57 337.03 191.05 336.25 192.01C335.49 192.97 335.11 194.34 335.11 196.12C335.11 197.9 335.49 199.28 336.25 200.26C337.03 201.22 338.13 201.7 339.55 201.7ZM363.791 188.59C364.171 188.59 364.471 188.7 364.691 188.92C364.931 189.14 365.051 189.44 365.051 189.82V202.51C365.051 202.85 364.941 203.13 364.721 203.35C364.521 203.55 364.251 203.65 363.911 203.65C363.571 203.65 363.291 203.55 363.071 203.35C362.871 203.13 362.771 202.85 362.771 202.51L362.801 192.76L358.661 200.5C358.561 200.7 358.411 200.86 358.211 200.98C358.031 201.1 357.821 201.16 357.581 201.16C357.341 201.16 357.121 201.1 356.921 200.98C356.741 200.86 356.601 200.7 356.501 200.5L352.331 192.76L352.361 202.51C352.361 202.85 352.251 203.13 352.031 203.35C351.831 203.55 351.561 203.65 351.221 203.65C350.881 203.65 350.601 203.55 350.381 203.35C350.181 203.13 350.081 202.85 350.081 202.51V189.85C350.081 189.47 350.191 189.17 350.411 188.95C350.631 188.71 350.931 188.59 351.311 188.59C351.911 188.59 352.351 188.86 352.631 189.4L357.581 198.7L362.471 189.46C362.771 188.88 363.211 188.59 363.791 188.59ZM380.007 189.34C380.227 188.86 380.577 188.62 381.057 188.62C381.357 188.62 381.627 188.72 381.867 188.92C382.107 189.12 382.227 189.37 382.227 189.67C382.227 189.85 382.187 190.01 382.107 190.15L373.677 208.33C373.577 208.55 373.427 208.72 373.227 208.84C373.047 208.96 372.857 209.02 372.657 209.02C372.357 209.02 372.087 208.92 371.847 208.72C371.627 208.54 371.517 208.3 371.517 208C371.517 207.84 371.557 207.68 371.637 207.52L373.737 202.99L367.797 190.15C367.717 190.01 367.677 189.86 367.677 189.7C367.677 189.4 367.807 189.14 368.067 188.92C368.347 188.7 368.647 188.59 368.967 188.59C369.167 188.59 369.357 188.65 369.537 188.77C369.737 188.89 369.887 189.06 369.987 189.28L374.997 200.53L380.007 189.34ZM397.031 203.71C394.931 203.71 393.181 203.24 391.781 202.3C391.401 202.06 391.211 201.75 391.211 201.37C391.211 201.13 391.301 200.92 391.481 200.74C391.681 200.54 391.911 200.44 392.171 200.44C392.391 200.44 392.591 200.5 392.771 200.62C393.411 201 394.041 201.28 394.661 201.46C395.301 201.64 396.041 201.73 396.881 201.73C397.901 201.73 398.801 201.51 399.581 201.07C400.381 200.63 400.781 199.98 400.781 199.12C400.781 197.66 399.781 196.93 397.781 196.93H395.501C395.221 196.93 394.991 196.84 394.811 196.66C394.631 196.48 394.541 196.25 394.541 195.97C394.541 195.71 394.631 195.5 394.811 195.34C394.991 195.16 395.221 195.07 395.501 195.07H397.571C398.451 195.07 399.161 194.85 399.701 194.41C400.241 193.97 400.511 193.4 400.511 192.7C400.511 192.02 400.241 191.49 399.701 191.11C399.161 190.73 398.361 190.54 397.301 190.54C396.421 190.54 395.651 190.64 394.991 190.84C394.351 191.04 393.741 191.32 393.161 191.68C392.961 191.78 392.781 191.83 392.621 191.83C392.341 191.83 392.101 191.74 391.901 191.56C391.721 191.36 391.631 191.13 391.631 190.87C391.631 190.49 391.831 190.2 392.231 190C393.811 189.02 395.611 188.53 397.631 188.53C399.471 188.53 400.831 188.89 401.711 189.61C402.591 190.31 403.031 191.26 403.031 192.46C403.031 193.18 402.801 193.86 402.341 194.5C401.881 195.12 401.241 195.57 400.421 195.85C401.421 196.03 402.151 196.42 402.611 197.02C403.071 197.62 403.301 198.36 403.301 199.24C403.301 200.62 402.701 201.71 401.501 202.51C400.301 203.31 398.811 203.71 397.031 203.71ZM412.829 188.53C416.489 188.53 418.319 190.45 418.319 194.29V202.45C418.319 202.81 418.209 203.1 417.989 203.32C417.789 203.54 417.509 203.65 417.149 203.65C416.789 203.65 416.499 203.54 416.279 203.32C416.059 203.1 415.949 202.81 415.949 202.45V201.01C415.569 201.87 414.989 202.54 414.209 203.02C413.429 203.48 412.529 203.71 411.509 203.71C410.569 203.71 409.699 203.52 408.899 203.14C408.119 202.76 407.499 202.23 407.039 201.55C406.579 200.87 406.349 200.12 406.349 199.3C406.349 198.2 406.629 197.35 407.189 196.75C407.749 196.13 408.669 195.69 409.949 195.43C411.229 195.15 413.009 195.01 415.289 195.01H415.949V194.02C415.949 192.82 415.699 191.94 415.199 191.38C414.719 190.82 413.929 190.54 412.829 190.54C411.469 190.54 410.089 190.91 408.689 191.65C408.149 191.99 407.769 192.16 407.549 192.16C407.309 192.16 407.109 192.07 406.949 191.89C406.789 191.71 406.709 191.48 406.709 191.2C406.709 190.92 406.789 190.68 406.949 190.48C407.129 190.26 407.409 190.04 407.789 189.82C408.489 189.42 409.279 189.11 410.159 188.89C411.059 188.65 411.949 188.53 412.829 188.53ZM411.839 201.79C413.039 201.79 414.019 201.39 414.779 200.59C415.559 199.77 415.949 198.72 415.949 197.44V196.57H415.409C413.649 196.57 412.309 196.65 411.389 196.81C410.469 196.95 409.809 197.2 409.409 197.56C409.029 197.9 408.839 198.41 408.839 199.09C408.839 199.87 409.119 200.52 409.679 201.04C410.259 201.54 410.979 201.79 411.839 201.79ZM423.938 203.65C423.558 203.65 423.258 203.55 423.038 203.35C422.818 203.13 422.708 202.84 422.708 202.48V190.15C422.708 189.75 422.818 189.44 423.038 189.22C423.258 189 423.558 188.89 423.938 188.89H433.988C434.368 188.89 434.668 189 434.888 189.22C435.128 189.44 435.248 189.74 435.248 190.12V202.48C435.248 202.84 435.138 203.13 434.918 203.35C434.698 203.55 434.408 203.65 434.048 203.65C433.668 203.65 433.368 203.55 433.148 203.35C432.928 203.13 432.818 202.84 432.818 202.48V190.81H425.138V202.48C425.138 202.84 425.028 203.13 424.808 203.35C424.588 203.55 424.298 203.65 423.938 203.65ZM449.841 189.37C450.041 189.09 450.251 188.89 450.471 188.77C450.691 188.65 450.951 188.59 451.251 188.59C451.631 188.59 451.931 188.71 452.151 188.95C452.391 189.19 452.511 189.49 452.511 189.85V202.48C452.511 202.82 452.401 203.1 452.181 203.32C451.961 203.54 451.681 203.65 451.341 203.65C451.021 203.65 450.741 203.54 450.501 203.32C450.281 203.08 450.171 202.8 450.171 202.48V192.01L442.281 202.93C441.941 203.41 441.491 203.65 440.931 203.65C440.551 203.65 440.241 203.54 440.001 203.32C439.761 203.08 439.641 202.78 439.641 202.42V189.79C439.641 189.45 439.751 189.17 439.971 188.95C440.211 188.71 440.501 188.59 440.841 188.59C441.181 188.59 441.461 188.71 441.681 188.95C441.901 189.17 442.011 189.45 442.011 189.79V200.11L449.841 189.37ZM463.016 203.71C461.656 203.71 460.446 203.4 459.386 202.78C458.346 202.16 457.536 201.28 456.956 200.14C456.396 199 456.116 197.68 456.116 196.18C456.116 194.68 456.406 193.35 456.986 192.19C457.586 191.03 458.416 190.13 459.476 189.49C460.536 188.85 461.756 188.53 463.136 188.53C463.896 188.53 464.646 188.64 465.386 188.86C466.146 189.06 466.806 189.36 467.366 189.76C467.726 190 467.976 190.24 468.116 190.48C468.276 190.7 468.356 190.95 468.356 191.23C468.356 191.51 468.276 191.74 468.116 191.92C467.976 192.1 467.786 192.19 467.546 192.19C467.406 192.19 467.256 192.15 467.096 192.07C466.936 191.99 466.796 191.91 466.676 191.83C466.576 191.75 466.506 191.7 466.466 191.68C465.946 191.34 465.446 191.07 464.966 190.87C464.506 190.67 463.936 190.57 463.256 190.57C461.796 190.57 460.656 191.07 459.836 192.07C459.036 193.05 458.636 194.42 458.636 196.18C458.636 197.94 459.036 199.3 459.836 200.26C460.656 201.22 461.796 201.7 463.256 201.7C463.936 201.7 464.516 201.6 464.996 201.4C465.496 201.2 465.996 200.93 466.496 200.59C466.716 200.45 466.926 200.33 467.126 200.23C467.326 200.13 467.496 200.08 467.636 200.08C467.856 200.08 468.036 200.17 468.176 200.35C468.336 200.53 468.416 200.76 468.416 201.04C468.416 201.3 468.346 201.54 468.206 201.76C468.066 201.96 467.806 202.19 467.426 202.45C466.866 202.83 466.186 203.14 465.386 203.38C464.606 203.6 463.816 203.71 463.016 203.71ZM481.482 189.37C481.682 189.09 481.892 188.89 482.112 188.77C482.332 188.65 482.592 188.59 482.892 188.59C483.272 188.59 483.572 188.71 483.792 188.95C484.032 189.19 484.152 189.49 484.152 189.85V202.48C484.152 202.82 484.042 203.1 483.822 203.32C483.602 203.54 483.322 203.65 482.982 203.65C482.662 203.65 482.382 203.54 482.142 203.32C481.922 203.08 481.812 202.8 481.812 202.48V192.01L473.922 202.93C473.582 203.41 473.132 203.65 472.572 203.65C472.192 203.65 471.882 203.54 471.642 203.32C471.402 203.08 471.282 202.78 471.282 202.42V189.79C471.282 189.45 471.392 189.17 471.612 188.95C471.852 188.71 472.142 188.59 472.482 188.59C472.822 188.59 473.102 188.71 473.322 188.95C473.542 189.17 473.652 189.45 473.652 189.79V200.11L481.482 189.37Z" fill="black"/>
<defs>
<linearGradient id="paint0_linear_705_725" x1="51.1992" y1="25.5" x2="51.1992" y2="65.5" gradientUnits="userSpaceOnUse">
<stop stop-color="#6AFF45"/>
<stop offset="1" stop-color="#CFFF45"/>
</linearGradient>
</defs>
</svg>
