<svg width="60" height="60" viewBox="0 0 60 60" fill="none" xmlns="http://www.w3.org/2000/svg">
<path d="M11.6664 22.9382L11.6682 22.9486L11.6703 22.959C12.1625 25.2968 13.5621 29.281 17.6919 35.3859C20.3657 39.366 23.3877 41.3739 25.7606 42.3832C26.9448 42.8868 27.9634 43.1402 28.6911 43.2676C29.055 43.3313 29.3464 43.3636 29.5498 43.38C29.6515 43.3882 29.7313 43.3924 29.7872 43.3946C29.8151 43.3956 29.8371 43.3962 29.8528 43.3965L29.8718 43.3968L29.8777 43.3968L29.8798 43.3968H29.8806C29.8809 43.3968 29.8812 43.3968 29.8812 42.8968V43.3968H31.0706C32.655 43.3968 33.9493 42.1025 33.9493 40.5181V37.3663V37.3567L33.9491 37.3525C33.9491 37.3529 33.9491 37.3521 33.9491 37.3507C33.9491 37.3505 33.9491 37.3507 33.9491 37.3505C33.9491 37.3468 33.9492 37.339 33.9498 37.3279C33.951 37.3051 33.954 37.2717 33.9611 37.234C33.977 37.1497 34.0046 37.0893 34.0324 37.0578L34.0333 37.0568C34.0441 37.0444 34.0736 37.0107 34.1913 37.0132C34.3366 37.0162 34.6038 37.0777 35.0395 37.3217C35.898 37.8504 37.072 38.9752 38.0611 40.0089C38.5502 40.52 38.9827 40.9967 39.2929 41.3456C39.448 41.52 39.5723 41.6622 39.6576 41.7606C39.7003 41.8098 39.7332 41.848 39.7553 41.8738L39.7639 41.8838L40.2089 42.607C40.4858 43.1376 41.0786 43.4563 41.656 43.4563H46.6513C47.9232 43.4563 48.757 42.0401 48.162 40.9352L48.1622 40.9351L48.1559 40.9242C48.0341 40.711 47.9115 40.4802 47.7754 40.224L47.7742 40.2218C47.6554 39.9981 47.5273 39.757 47.3858 39.5022L47.3845 39.4999C47.0346 38.8778 46.3915 38.0841 45.688 37.286C44.9779 36.4806 44.1756 35.637 43.4838 34.9096L43.4808 34.9064C43.0172 34.419 42.6061 33.9867 42.2987 33.6466C42.1449 33.4764 42.0223 33.335 41.9343 33.225C41.8687 33.143 41.8383 33.0975 41.8269 33.0805C41.8206 33.071 41.8202 33.0704 41.8229 33.0772C41.7931 33.0028 41.786 32.9479 41.7971 32.8749C41.8108 32.7857 41.8557 32.6484 41.9775 32.4217C42.2257 31.9598 42.7064 31.2788 43.5471 30.1078C44.3971 28.9539 45.2257 27.5666 45.8384 26.4756C46.146 25.9281 46.401 25.4518 46.5793 25.1121C46.6685 24.9422 46.7385 24.8064 46.7864 24.7127C46.8103 24.6659 46.8288 24.6296 46.8413 24.6048L46.8555 24.5765L46.8593 24.5691L46.8603 24.5671L46.8605 24.5665L46.8606 24.5664C46.8607 24.5663 46.8607 24.5663 46.4135 24.3427L46.8607 24.5663L46.8718 24.544L46.8807 24.5207L47.3559 23.2733C47.3559 23.2732 47.356 23.2731 47.356 23.2731C47.7849 22.1574 46.9263 20.9882 45.7593 20.9882H41.3586C40.6716 20.9882 40.0813 21.4153 39.8286 22.0048L39.8267 22.0095L39.2379 23.4227C37.7556 26.4444 36.006 29.3427 34.4106 30.8811C34.0213 31.2565 33.7571 31.4018 33.6011 31.4499C33.4744 31.489 33.4356 31.4614 33.4277 31.4558C33.4273 31.4555 33.427 31.4553 33.4268 31.4552C33.3976 31.4359 33.3585 31.3894 33.3237 31.3119C33.311 31.2838 33.3017 31.2575 33.2952 31.2369V22.6775C33.2952 21.7473 32.5361 20.9882 31.6058 20.9882H24.8264C23.9516 20.9882 23.4083 21.9747 23.9411 22.7265L25.1209 24.4372C25.3797 24.8622 25.5291 25.5561 25.599 26.408C25.668 27.2489 25.6549 28.1611 25.6428 28.9676L25.6428 28.9706C25.6387 29.2474 25.6347 29.5129 25.6347 29.7543C25.6347 30.0674 25.6435 30.3945 25.6521 30.713L25.6522 30.7166C25.6709 31.4102 25.6868 32.0463 25.6278 32.5272C25.5982 32.7683 25.5541 32.9277 25.5075 33.0211C25.496 33.0442 25.4866 33.0591 25.4797 33.0685C25.4198 33.0668 25.3231 33.0461 25.1784 32.9667C24.9896 32.8632 24.7505 32.6764 24.4576 32.373C23.872 31.7665 23.137 30.7638 22.2225 29.2595C20.8852 26.9908 19.7116 23.6519 19.1736 22.0977L19.1738 22.0977L19.1693 22.0857C18.9324 21.4539 18.3537 20.9287 17.5712 20.9287H13.349C12.2417 20.9287 11.5009 21.9452 11.6664 22.9382ZM25.4667 33.0827C25.4666 33.0824 25.4679 33.0811 25.4708 33.0793C25.4682 33.082 25.4668 33.0829 25.4667 33.0827ZM59.5 30C59.5 46.2924 46.2924 59.5 30 59.5C13.7076 59.5 0.5 46.2924 0.5 30C0.5 13.7076 13.7076 0.5 30 0.5C46.2924 0.5 59.5 13.7076 59.5 30Z" fill="white" stroke="black"/>
</svg>
