<svg width="61" height="61" viewBox="0 0 61 61" fill="none" xmlns="http://www.w3.org/2000/svg">
<path d="M49.7666 40.3686L49.7665 40.3685C49.3259 42.6799 47.4565 44.439 45.1483 44.7695C41.8288 45.2724 36.3041 45.875 30.0752 45.875C23.9451 45.875 18.4204 45.2722 15.0032 44.7697M49.7666 40.3686L15.0024 44.7696C15.0027 44.7696 15.003 44.7697 15.0032 44.7697M49.7666 40.3686L49.768 40.3606C50.1722 38.036 50.5745 34.6115 50.6752 30.3869L50.6753 30.3869V30.375C50.6753 26.1349 50.1704 22.7038 49.768 20.3894L49.7681 20.3894L49.7665 20.3815C49.3258 18.0696 47.4558 16.3103 45.1469 15.9803M49.7666 40.3686L15.0024 15.9804M15.0032 44.7697C12.6945 44.4395 10.8246 42.6803 10.3838 40.3685L10.3823 40.3606L10.3824 40.3606C9.97803 38.0351 9.5752 34.6064 9.5752 30.375C9.5752 26.1436 9.97803 22.7149 10.3824 20.3894L10.3838 20.3814L10.3838 20.3815C10.8245 18.07 12.694 16.3109 15.0024 15.9804M15.0032 44.7697L15.0024 15.9804M15.0024 15.9804C18.322 15.4775 23.8464 14.875 30.0752 14.875C36.3054 14.875 41.73 15.4778 45.1469 15.9803M45.1469 15.9803C45.1473 15.9803 45.1476 15.9804 45.1479 15.9804L45.0752 16.4751L45.1459 15.9801C45.1462 15.9802 45.1466 15.9802 45.1469 15.9803ZM59.625 30.375C59.625 46.6674 46.4174 59.875 30.125 59.875C13.8326 59.875 0.625 46.6674 0.625 30.375C0.625 14.0826 13.8326 0.875 30.125 0.875C46.4174 0.875 59.625 14.0826 59.625 30.375ZM26.5752 36.5045V24.2455L37.0829 30.375L26.5752 36.5045Z" fill="white" stroke="black"/>
</svg>
