<svg width="139" height="25" viewBox="0 0 139 25" fill="none" xmlns="http://www.w3.org/2000/svg">
<path d="M14.94 18.24L15.48 17.85C16.16 17.45 16.64 17.25 16.92 17.25C17.54 17.25 18.21 17.81 18.93 18.93C19.37 19.63 19.59 20.19 19.59 20.61C19.59 21.03 19.45 21.38 19.17 21.66C18.91 21.94 18.6 22.19 18.24 22.41C17.88 22.63 17.53 22.84 17.19 23.04C16.87 23.24 16.2 23.5 15.18 23.82C14.16 24.14 13.17 24.3 12.21 24.3C11.27 24.3 10.31 24.18 9.33 23.94C8.37 23.68 7.37 23.26 6.33 22.68C5.31 22.08 4.39 21.36 3.57 20.52C2.75 19.66 2.07 18.57 1.53 17.25C1.01 15.91 0.75 14.46 0.75 12.9C0.75 11.34 1.01 9.93 1.53 8.67C2.05 7.39 2.71 6.34 3.51 5.52C4.33 4.68 5.26 3.98 6.3 3.42C8.26 2.34 10.23 1.8 12.21 1.8C13.15 1.8 14.1 1.95 15.06 2.25C16.04 2.53 16.78 2.82 17.28 3.12L18 3.54C18.36 3.76 18.64 3.94 18.84 4.08C19.36 4.5 19.62 4.98 19.62 5.52C19.62 6.04 19.41 6.59 18.99 7.17C18.21 8.25 17.51 8.79 16.89 8.79C16.53 8.79 16.02 8.57 15.36 8.13C14.52 7.45 13.4 7.11 12 7.11C10.7 7.11 9.42 7.56 8.16 8.46C7.56 8.9 7.06 9.52 6.66 10.32C6.26 11.12 6.06 12.03 6.06 13.05C6.06 14.05 6.26 14.95 6.66 15.75C7.06 16.55 7.57 17.18 8.19 17.64C9.41 18.52 10.68 18.96 12 18.96C12.62 18.96 13.2 18.88 13.74 18.72C14.3 18.56 14.7 18.4 14.94 18.24Z" fill="black"/>
<path d="M21.5613 3.39C21.5613 2.93 21.5713 2.59 21.5913 2.37C21.6313 2.13 21.7213 1.86 21.8613 1.56C22.1413 1.02 22.9213 0.75 24.2013 0.75C25.4213 0.75 26.1813 1.02 26.4813 1.56C26.6413 1.86 26.7313 2.13 26.7513 2.37C26.7913 2.61 26.8113 2.96 26.8113 3.42V17.31C26.8113 18.03 26.8713 18.49 26.9913 18.69C27.1113 18.87 27.3713 18.96 27.7713 18.96C28.1913 18.96 28.4713 18.98 28.6113 19.02C28.7513 19.04 28.9213 19.12 29.1213 19.26C29.5213 19.52 29.7213 20.23 29.7213 21.39C29.7213 22.65 29.5213 23.42 29.1213 23.7C28.6013 24.06 27.3613 24.12 25.4013 23.88C23.8613 23.68 22.8613 23.17 22.4013 22.35C21.8413 21.37 21.5613 19.81 21.5613 17.67V3.39Z" fill="black"/>
<path d="M46.3228 14.22C46.3228 15.44 46.0128 16.35 45.3928 16.95C44.7928 17.53 44.1228 17.82 43.3828 17.82H36.2728C36.2728 18.38 36.6028 18.85 37.2628 19.23C37.9228 19.61 38.5828 19.8 39.2428 19.8C40.4028 19.8 41.3128 19.68 41.9728 19.44L42.3028 19.32C42.7828 19.1 43.1828 18.99 43.5028 18.99C44.1428 18.99 44.6928 19.44 45.1528 20.34C45.4128 20.88 45.5428 21.34 45.5428 21.72C45.5428 23.5 43.4128 24.39 39.1528 24.39C37.6728 24.39 36.3528 24.14 35.1928 23.64C34.0528 23.12 33.1628 22.44 32.5228 21.6C31.2628 19.98 30.6328 18.17 30.6328 16.17C30.6328 13.65 31.4428 11.64 33.0628 10.14C34.7028 8.62 36.7428 7.86 39.1828 7.86C41.9628 7.86 44.0028 8.84 45.3028 10.8C45.9828 11.84 46.3228 12.98 46.3228 14.22ZM39.9928 15.09C40.7528 15.09 41.1328 14.77 41.1328 14.13C41.1328 13.67 40.9528 13.3 40.5928 13.02C40.2528 12.74 39.7528 12.6 39.0928 12.6C38.4528 12.6 37.8128 12.87 37.1728 13.41C36.5328 13.93 36.2128 14.49 36.2128 15.09H39.9928Z" fill="black"/>
<path d="M63.3019 8.55C64.3419 9.17 64.8619 9.83 64.8619 10.53C64.8619 10.93 64.6619 11.48 64.2619 12.18L58.0519 22.83C57.8519 23.17 57.5319 23.48 57.0919 23.76C56.6519 24.02 56.2119 24.15 55.7719 24.15C55.3519 24.15 54.9419 24.05 54.5419 23.85C54.1619 23.63 53.8919 23.41 53.7319 23.19L53.4619 22.86L47.2219 12.18C46.8219 11.52 46.6219 10.98 46.6219 10.56C46.6219 9.84 47.1419 9.17 48.1819 8.55C48.9419 8.11 49.5419 7.89 49.9819 7.89C50.4219 7.89 50.7619 8.03 51.0019 8.31C51.2619 8.57 51.5319 8.97 51.8119 9.51L55.7419 17.07L59.6719 9.51C59.8919 9.13 60.0519 8.86 60.1519 8.7C60.2719 8.52 60.4519 8.35 60.6919 8.19C60.9319 8.01 61.2519 7.92 61.6519 7.92C62.0519 7.92 62.6019 8.13 63.3019 8.55Z" fill="black"/>
<path d="M89.8727 2.85C90.0327 3.15 90.1227 3.42 90.1427 3.66C90.1827 3.9 90.2027 4.25 90.2027 4.71V21.36C90.2027 22.74 89.8227 23.55 89.0627 23.79C88.6827 23.91 88.2027 23.97 87.6227 23.97C87.0427 23.97 86.5827 23.92 86.2427 23.82C85.9027 23.72 85.6427 23.6 85.4627 23.46C85.2827 23.32 85.1427 23.12 85.0427 22.86C84.9427 22.52 84.8927 22 84.8927 21.3V11.25C84.3927 11.87 83.6627 12.86 82.7027 14.22C81.7427 15.56 81.1327 16.4 80.8727 16.74C80.6127 17.08 80.4327 17.32 80.3327 17.46C80.2327 17.58 79.9827 17.76 79.5827 18C79.2027 18.22 78.7827 18.33 78.3227 18.33C77.8827 18.33 77.4727 18.23 77.0927 18.03C76.7327 17.81 76.4727 17.6 76.3127 17.4L76.0727 17.07C75.6727 16.57 74.8827 15.51 73.7027 13.89C72.5227 12.25 71.8827 11.37 71.7827 11.25V21.36C71.7827 21.82 71.7627 22.17 71.7227 22.41C71.7027 22.63 71.6127 22.88 71.4527 23.16C71.1527 23.7 70.3727 23.97 69.1127 23.97C67.8927 23.97 67.1327 23.7 66.8327 23.16C66.6727 22.88 66.5727 22.62 66.5327 22.38C66.5127 22.14 66.5027 21.78 66.5027 21.3V4.65C66.5027 4.19 66.5127 3.85 66.5327 3.63C66.5727 3.39 66.6727 3.12 66.8327 2.82C67.1327 2.3 67.9127 2.04 69.1727 2.04C69.7127 2.04 70.1727 2.11 70.5527 2.25C70.9527 2.37 71.2127 2.5 71.3327 2.64L71.5127 2.82L78.3227 11.76C81.7227 7.26 83.9927 4.29 85.1327 2.85C85.4727 2.31 86.2727 2.04 87.5327 2.04C88.8127 2.04 89.5927 2.31 89.8727 2.85Z" fill="black"/>
<path d="M102.866 9.87C102.986 8.75 103.776 8.19 105.236 8.19C106.016 8.19 106.596 8.25 106.976 8.37C107.356 8.49 107.616 8.7 107.756 9C107.916 9.3 108.006 9.57 108.026 9.81C108.066 10.03 108.086 10.37 108.086 10.83V21.33C108.086 21.79 108.066 22.14 108.026 22.38C108.006 22.6 107.926 22.86 107.786 23.16C107.506 23.68 106.816 23.94 105.716 23.94C104.636 23.94 103.906 23.81 103.526 23.55C103.166 23.27 102.956 22.87 102.896 22.35C102.156 23.41 100.916 23.94 99.1762 23.94C97.4562 23.94 95.8563 23.15 94.3763 21.57C92.8963 19.99 92.1562 18.16 92.1562 16.08C92.1562 13.98 92.8963 12.15 94.3763 10.59C95.8763 9.01 97.5162 8.22 99.2962 8.22C99.9762 8.22 100.596 8.34 101.156 8.58C101.716 8.82 102.106 9.05 102.326 9.27C102.546 9.47 102.726 9.67 102.866 9.87ZM97.4062 16.11C97.4062 16.77 97.6662 17.37 98.1862 17.91C98.7062 18.43 99.3362 18.69 100.076 18.69C100.816 18.69 101.426 18.42 101.906 17.88C102.406 17.34 102.656 16.75 102.656 16.11C102.656 15.45 102.416 14.84 101.936 14.28C101.476 13.72 100.846 13.44 100.046 13.44C99.2662 13.44 98.6263 13.72 98.1263 14.28C97.6463 14.84 97.4062 15.45 97.4062 16.11Z" fill="black"/>
<path d="M119.657 13.5L117.707 13.38V17.52C117.707 18.06 117.787 18.45 117.947 18.69C118.127 18.93 118.447 19.05 118.907 19.05C119.387 19.05 119.747 19.07 119.987 19.11C120.247 19.13 120.517 19.22 120.797 19.38C121.257 19.64 121.487 20.31 121.487 21.39C121.487 22.65 121.207 23.42 120.647 23.7C120.347 23.84 120.077 23.93 119.837 23.97C119.617 23.99 119.287 24 118.847 24C116.767 24 115.187 23.53 114.107 22.59C113.027 21.65 112.487 20.06 112.487 17.82V13.38C112.107 13.44 111.697 13.47 111.257 13.47C110.817 13.47 110.447 13.3 110.147 12.96C109.867 12.62 109.727 12.04 109.727 11.22C109.727 10.4 109.777 9.81 109.877 9.45C109.977 9.07 110.117 8.8 110.297 8.64C110.617 8.38 111.017 8.25 111.497 8.25L112.487 8.37V5.28C112.487 4.82 112.497 4.48 112.517 4.26C112.557 4.04 112.657 3.8 112.817 3.54C113.077 3.04 113.847 2.79 115.127 2.79C116.487 2.79 117.297 3.16 117.557 3.9C117.657 4.22 117.707 4.73 117.707 5.43V8.37C118.587 8.29 119.247 8.25 119.687 8.25C120.147 8.25 120.487 8.27 120.707 8.31C120.947 8.33 121.217 8.42 121.517 8.58C122.037 8.84 122.297 9.61 122.297 10.89C122.297 12.15 122.027 12.92 121.487 13.2C121.187 13.34 120.917 13.43 120.677 13.47C120.457 13.49 120.117 13.5 119.657 13.5Z" fill="black"/>
<path d="M138.608 14.22C138.608 15.44 138.298 16.35 137.678 16.95C137.078 17.53 136.408 17.82 135.668 17.82H128.558C128.558 18.38 128.888 18.85 129.548 19.23C130.208 19.61 130.868 19.8 131.528 19.8C132.688 19.8 133.598 19.68 134.258 19.44L134.588 19.32C135.068 19.1 135.468 18.99 135.788 18.99C136.428 18.99 136.978 19.44 137.438 20.34C137.698 20.88 137.828 21.34 137.828 21.72C137.828 23.5 135.698 24.39 131.438 24.39C129.958 24.39 128.638 24.14 127.478 23.64C126.338 23.12 125.448 22.44 124.808 21.6C123.548 19.98 122.918 18.17 122.918 16.17C122.918 13.65 123.728 11.64 125.348 10.14C126.988 8.62 129.028 7.86 131.468 7.86C134.248 7.86 136.288 8.84 137.588 10.8C138.268 11.84 138.608 12.98 138.608 14.22ZM132.278 15.09C133.038 15.09 133.418 14.77 133.418 14.13C133.418 13.67 133.238 13.3 132.878 13.02C132.538 12.74 132.038 12.6 131.378 12.6C130.738 12.6 130.098 12.87 129.458 13.41C128.818 13.93 128.498 14.49 128.498 15.09H132.278Z" fill="black"/>
</svg>
